<svg width="541" height="406" viewBox="0 0 541 406" fill="none" xmlns="http://www.w3.org/2000/svg">
<path d="M460.391 327.879C458.092 325.003 456.367 321.755 454.913 318.405C454.203 316.748 453.527 315.022 452.885 313.33C452.58 312.518 452.242 311.74 452.006 310.928C451.735 310.083 451.634 309.643 452.039 308.831C452.039 308.255 452.276 308.019 452.716 308.086C453.088 307.985 453.324 308.154 453.459 308.594C453.798 308.56 454.136 308.492 454.44 308.459C452.411 302.335 451.093 296.008 450.518 289.613C450.247 286.501 450.146 283.354 450.213 280.208C450.247 278.753 450.315 277.298 450.45 275.809C450.484 275.234 450.416 273.61 450.754 273.136C451.126 273.035 451.465 272.934 451.837 272.866C452.445 272.358 452.918 272.358 453.223 272.9C453.595 273.204 453.831 273.745 454.068 274.151C460.256 284.437 464.381 296.042 466.376 307.85C467.526 314.65 467.965 321.518 467.661 328.42C467.627 329.063 468.641 329.063 468.675 328.42C469.216 314.718 466.951 300.948 461.98 288.159C460.729 284.978 459.343 281.865 457.787 278.82C457.077 277.399 456.3 276.012 455.522 274.659C454.88 273.542 454.237 272.189 453.155 271.445C451.059 270.024 449.842 272.054 449.605 273.915C449.165 277.433 449.098 281.02 449.199 284.572C449.436 292.794 450.856 300.914 453.426 308.695C453.595 309.237 454.44 309.169 454.406 308.56C454.406 307.207 452.885 306.632 451.735 307.207C449.706 308.188 450.856 310.996 451.397 312.485C453.493 318.169 455.759 323.785 459.58 328.555C460.087 329.131 460.797 328.386 460.391 327.879Z" fill="#E8E8E8"/>
<path d="M466.342 302.571C466.613 298.072 467.187 293.606 468.168 289.174C468.641 287.11 469.149 285.046 469.791 283.016C470.095 282.001 470.433 280.986 470.772 280.005C470.941 279.497 471.11 278.99 471.313 278.516C471.38 278.313 471.448 278.11 471.549 277.907C471.684 277.197 472.158 276.791 472.935 276.655C472.868 277.23 473.781 277.332 473.916 276.79C474.592 274.557 480.07 260.178 483.417 262.648C484.398 263.359 484.668 265.016 484.838 266.133C485.108 267.689 485.345 269.279 485.514 270.836C485.818 273.509 486.021 276.181 486.089 278.888C486.393 289.884 484.736 300.948 481.22 311.402C479.191 317.391 476.553 323.108 473.375 328.555C473.037 329.131 473.916 329.638 474.254 329.063C480.645 318.169 484.736 306.056 486.359 293.572C487.171 287.279 487.373 280.918 486.9 274.591C486.663 271.58 486.325 268.569 485.784 265.592C485.48 263.968 484.736 261.566 482.809 261.261C480.273 260.855 478.312 265.05 477.297 266.742C475.438 269.821 474.018 273.103 472.969 276.52C473.307 276.554 473.646 276.621 473.95 276.655C474.153 275.031 472.124 274.93 471.313 275.979C470.704 276.757 470.433 277.907 470.129 278.82C469.554 280.411 469.047 282.035 468.574 283.659C466.782 289.816 465.733 296.143 465.362 302.538C465.294 303.214 466.308 303.214 466.342 302.571Z" fill="#E8E8E8"/>
<path d="M450.45 272.764C457.821 289.986 462.454 308.289 464.144 326.932C464.212 327.574 465.226 327.574 465.159 326.932C463.434 308.086 458.768 289.647 451.329 272.223C451.059 271.648 450.18 272.189 450.45 272.764Z" fill="#E8E8E8"/>
<path d="M450.247 295.06C453.764 296.82 457.01 299.019 459.951 301.59C460.425 302.03 461.169 301.32 460.662 300.88C457.618 298.241 454.339 296.008 450.721 294.181C450.18 293.91 449.639 294.79 450.247 295.06Z" fill="#E8E8E8"/>
<path d="M459.647 285.147C458.7 287.008 457.99 288.971 457.551 291.034C457.416 291.677 458.396 291.948 458.531 291.305C458.971 289.343 459.613 287.448 460.526 285.655C460.831 285.08 459.952 284.572 459.647 285.147Z" fill="#E8E8E8"/>
<path d="M481.761 263.426C479.563 283.083 477.162 303.384 467.593 321.045C467.289 321.62 468.168 322.127 468.472 321.552C478.143 303.722 480.543 283.286 482.775 263.426C482.843 262.783 481.828 262.783 481.761 263.426Z" fill="#E8E8E8"/>
<path d="M469.115 282.677C471.82 289.038 473.815 295.636 475.133 302.402C475.269 303.045 476.249 302.774 476.114 302.132C474.761 295.263 472.699 288.598 469.994 282.17C469.723 281.561 468.878 282.068 469.115 282.677Z" fill="#E8E8E8"/>
<path d="M479.292 287.786C481.828 284.572 484.364 281.358 486.9 278.178C487.306 277.67 486.596 276.96 486.19 277.467C483.654 280.681 481.118 283.895 478.582 287.076C478.176 287.549 478.886 288.294 479.292 287.786Z" fill="#E8E8E8"/>
<path d="M59.1043 323.379C56.9064 321.011 54.6748 318.575 52.8827 315.868C52.0374 314.548 51.2598 313.195 50.6511 311.74C50.313 310.928 48.7238 306.598 50.9216 307.477C51.4626 307.68 51.6993 306.97 51.4288 306.631C49.1972 303.789 47.7094 300.474 46.4246 297.124C45.2073 293.944 44.0239 290.73 42.9081 287.516C41.6908 283.997 40.6426 280.377 40.2369 276.689C39.9326 273.779 39.6283 269.787 41.7246 267.385C44.8016 263.9 47.9123 269.652 49.3663 271.817C51.3274 274.727 53.2547 277.704 55.1144 280.681C58.7999 286.737 62.1474 293.03 64.6157 299.729C67.4221 307.376 68.9775 315.462 68.6056 323.616C68.5718 324.259 69.5861 324.259 69.6199 323.616C70.3638 307.105 63.297 291.711 54.6748 278.042C52.5446 274.693 50.4144 271.309 48.0814 268.095C46.7627 266.302 44.6663 264.441 42.2994 265.625C40.1354 266.674 39.3239 269.482 39.1211 271.682C38.7491 275.674 39.5268 279.734 40.6088 283.557C41.8261 287.888 43.4829 292.083 45.0382 296.278C46.4922 300.203 48.1152 304.026 50.7188 307.342C50.8878 307.071 51.0569 306.767 51.2259 306.496C50.3468 306.158 49.5691 306.259 48.8252 306.801C48.69 306.902 48.5547 307.071 48.5886 307.24C49.3324 314.075 53.9648 319.319 58.428 324.123C58.8338 324.597 59.5438 323.886 59.1043 323.379Z" fill="#E8E8E8"/>
<path d="M61.8769 291.204C60.8287 281.73 62.0798 272.223 65.5286 263.325C65.2581 263.392 64.9538 263.46 64.6833 263.562C65.7315 264.509 66.4416 265.592 66.8473 266.945C66.9826 267.419 67.6926 267.453 67.8279 266.945C70.1271 258.96 73.4746 251.348 77.8702 244.277C77.5659 244.243 77.2616 244.209 76.9573 244.141C79.5946 250.874 81.2514 257.979 81.7924 265.22C82.2658 271.716 82.4349 279.193 78.4788 284.708C78.2759 284.978 78.4788 285.384 78.7831 285.452C81.8263 286.162 80.9133 290.967 80.6428 293.132C80.2371 296.718 79.6284 300.305 78.8508 303.823C77.363 310.624 75.199 317.289 72.4602 323.684C72.1897 324.293 73.0688 324.8 73.3393 324.191C76.5515 316.748 78.9522 308.966 80.4738 301.015C81.15 297.361 81.9277 293.504 81.9953 289.783C82.0291 287.651 81.4881 284.978 79.0874 284.437C79.1889 284.674 79.2903 284.944 79.3918 285.181C83.3478 279.666 83.2802 272.291 82.8744 265.795C82.4011 258.25 80.7104 250.84 77.9716 243.837C77.8026 243.431 77.2954 243.329 77.0587 243.701C72.6293 250.84 69.248 258.521 66.9149 266.607C67.2531 266.607 67.5574 266.607 67.8955 266.607C67.4221 265.084 66.6444 263.866 65.461 262.784C65.1567 262.513 64.7509 262.648 64.6157 263.02C61.133 271.986 59.8819 281.629 60.9301 291.17C60.9301 291.846 61.9445 291.846 61.8769 291.204Z" fill="#E8E8E8"/>
<path d="M42.0966 267.216C46.7965 276.52 51.5979 285.79 56.0949 295.196C60.4906 304.466 64.379 314.041 66.4754 324.123C66.6106 324.766 67.5912 324.495 67.4559 323.853C65.3596 313.872 61.5726 304.432 57.2108 295.23C52.6799 285.621 47.7433 276.181 42.9419 266.674C42.6714 266.133 41.7923 266.64 42.0966 267.216Z" fill="#E8E8E8"/>
<path d="M77.1601 245.562C76.4501 255.611 73.3393 265.22 71.0401 274.964C68.7408 284.708 67.1516 294.621 66.2725 304.601C66.2049 305.244 67.2192 305.244 67.2869 304.601C68.1998 294.282 69.8904 284.031 72.3249 273.982C74.6242 264.577 77.4644 255.272 78.1745 245.562C78.2083 244.886 77.1939 244.886 77.1601 245.562Z" fill="#E8E8E8"/>
<path d="M41.5556 286.602C46.6612 288.328 51.3274 290.967 55.4863 294.418C55.9935 294.824 56.7036 294.113 56.1964 293.707C51.9022 290.155 47.1008 287.448 41.8261 285.621C41.1836 285.384 40.9131 286.365 41.5556 286.602Z" fill="#E8E8E8"/>
<path d="M64.379 264.137C65.5286 270.261 67.2192 276.283 69.4171 282.102C69.6537 282.711 70.6343 282.441 70.3976 281.832C68.1998 275.978 66.543 269.99 65.3596 263.866C65.2243 263.223 64.2776 263.494 64.379 264.137Z" fill="#E8E8E8"/>
<path d="M68.0307 306.835C71.6825 302.03 75.4357 297.192 80.7781 294.181C81.3529 293.876 80.8457 292.997 80.2709 293.301C74.7932 296.414 70.9048 301.387 67.1516 306.327C66.7797 306.835 67.6588 307.342 68.0307 306.835Z" fill="#E8E8E8"/>
<path d="M419.681 329.706C448.117 329.706 476.587 329.706 505.023 329.706C506.342 329.706 506.342 327.676 505.023 327.676C476.587 327.676 448.117 327.676 419.681 327.676C418.362 327.676 418.362 329.706 419.681 329.706Z" fill="black"/>
<path d="M110.804 322.939C88.4873 322.939 66.1711 322.939 43.8548 322.939C42.5361 322.939 42.5361 324.969 43.8548 324.969C66.1711 324.969 88.4873 324.969 110.804 324.969C112.088 324.969 112.088 322.939 110.804 322.939Z" fill="black"/>
<path d="M338.091 346.216C368.928 346.216 399.765 346.216 430.602 346.216C439.393 346.216 448.151 346.216 456.942 346.216C458.261 346.216 458.261 344.186 456.942 344.186C426.105 344.186 395.268 344.186 364.431 344.186C355.64 344.186 346.882 344.186 338.091 344.186C336.806 344.186 336.773 346.216 338.091 346.216Z" fill="black"/>
<path d="M411.092 330.247C312.698 328.285 214.304 326.322 115.909 324.36C98.2929 324.022 85.9852 306.801 91.3276 290.019L152.089 98.7257C155.538 87.8652 165.614 80.4218 177.008 80.3542C268.065 79.7113 359.123 79.0347 450.18 78.3918C466.815 78.2565 479.427 93.4477 476.215 109.789L437.432 308.932C435.032 321.518 423.907 330.518 411.092 330.247Z" fill="#EC615B" stroke="black" stroke-width="6" stroke-miterlimit="10"/>
<path d="M409.199 328.589C310.804 326.729 212.41 324.901 114.016 323.041C96.3994 322.702 84.0917 306.462 89.4341 290.628L150.195 110.06C153.644 99.8083 163.72 92.8048 175.115 92.7033C266.172 92.0943 357.229 91.4515 448.286 90.8425C464.922 90.741 477.534 105.053 474.322 120.481L435.539 308.492C433.138 320.334 422.014 328.826 409.199 328.589Z" fill="white" stroke="black" stroke-width="6" stroke-miterlimit="10"/>
<path d="M434.423 313.534C431.177 320.672 424.922 326.052 417.382 328.15C416.739 328.319 417.01 329.3 417.652 329.131C425.429 326.965 431.955 321.383 435.302 314.041C435.539 313.466 434.694 312.925 434.423 313.534Z" fill="black"/>
<path d="M179.612 87.8313C178.598 87.7298 178.226 86.6472 178.496 85.7675C178.868 84.651 179.95 84.4142 180.964 84.9217C181.675 85.2938 182.046 86.1735 181.742 86.9517C181.404 87.7975 180.423 88.0682 179.612 87.7637C179.003 87.5268 178.733 88.508 179.342 88.7448C180.66 89.2523 182.283 88.5757 182.757 87.1885C183.23 85.6998 182.283 84.245 180.863 83.8052C179.274 83.3315 177.888 84.0758 177.482 85.7337C177.144 87.2562 178.09 88.6772 179.612 88.8463C180.254 88.914 180.254 87.899 179.612 87.8313Z" fill="black"/>
<path d="M178.429 87.0193C178.834 88.0682 180.322 88.4065 181.201 87.7637C181.776 87.3238 182.047 86.478 181.776 85.7337C181.472 84.9217 180.593 84.448 179.815 84.5833C178.733 84.7863 178.023 86.0382 178.429 87.0193Z" fill="white"/>
<path d="M191.041 87.5268C190.026 87.4253 189.654 86.3427 189.925 85.463C190.297 84.3465 191.379 84.1097 192.393 84.6172C193.103 84.9893 193.475 85.869 193.171 86.6472C192.833 87.493 191.852 87.7637 191.041 87.4592C190.432 87.2223 190.161 88.2035 190.77 88.4403C192.089 88.9478 193.712 88.2712 194.185 86.884C194.659 85.3953 193.712 83.9405 192.292 83.5007C190.702 83.027 189.316 83.7713 188.91 85.4292C188.572 86.9517 189.519 88.3727 191.041 88.5418C191.683 88.6095 191.683 87.5945 191.041 87.5268Z" fill="black"/>
<path d="M189.857 86.7148C190.263 87.7637 191.751 88.102 192.63 87.4592C193.205 87.0193 193.475 86.1735 193.205 85.4292C192.9 84.6172 192.021 84.1435 191.243 84.2788C190.161 84.4818 189.451 85.7337 189.857 86.7148Z" stroke="black" stroke-miterlimit="10"/>
<path d="M178.936 84.9217C179.409 85.9705 179.95 86.9855 180.593 87.9667C180.931 88.508 181.81 88.0005 181.472 87.4592C180.863 86.478 180.322 85.463 179.815 84.4142C179.544 83.839 178.665 84.3465 178.936 84.9217Z" fill="black"/>
<path d="M179.037 87.9667C179.511 87.5607 179.95 87.1208 180.424 86.7148C180.829 86.3427 181.235 85.9028 181.742 85.6322C182.317 85.3277 181.81 84.448 181.235 84.7525C180.728 85.0232 180.322 85.463 179.883 85.869C179.375 86.3427 178.834 86.8163 178.327 87.29C177.854 87.696 178.564 88.4065 179.037 87.9667Z" fill="black"/>
<path d="M304.617 110.804C301.607 120.48 298.564 130.191 295.555 139.867C293.695 145.889 298.125 151.979 304.414 152.081C346.375 152.588 388.303 153.062 430.264 153.569C434.863 153.637 438.819 150.321 439.63 145.788C441.422 135.502 443.248 125.217 445.04 114.932C446.054 109.18 441.625 103.902 435.776 103.902C395.031 104.004 354.287 104.105 313.577 104.207C309.486 104.207 305.834 106.879 304.617 110.804Z" fill="white" stroke="black" stroke-width="3" stroke-miterlimit="10"/>
<path d="M143.602 245.698C137.752 262.513 131.903 279.328 126.053 296.143C122.435 306.564 131.023 317.188 143.196 317.323C224.414 318.169 305.665 319.048 386.883 319.894C395.809 319.996 403.485 314.278 405.006 306.395C408.523 288.565 412.005 270.701 415.522 252.87C417.483 242.856 408.895 233.721 397.567 233.721C318.683 233.89 239.798 234.059 160.914 234.228C152.968 234.262 145.969 238.897 143.602 245.698Z" fill="white" stroke="black" stroke-width="3" stroke-miterlimit="10"/>
<path d="M317.33 168.761C311.887 185.068 306.443 201.376 300.999 217.684C300.796 218.293 301.777 218.563 301.979 217.954C307.423 201.647 312.867 185.339 318.311 169.031C318.514 168.388 317.533 168.118 317.33 168.761Z" fill="#E8E8E8"/>
<path d="M317.973 168.862C332.106 168.118 346.308 166.968 360.475 166.968C374.575 166.968 388.641 168.186 402.673 169.404C403.315 169.471 403.315 168.456 402.673 168.389C388.641 167.171 374.575 165.986 360.475 165.953C346.308 165.953 332.106 167.103 317.973 167.847C317.33 167.881 317.296 168.896 317.973 168.862Z" fill="#E8E8E8"/>
<path d="M402.504 169.37C398.717 185.542 394.896 201.681 391.109 217.853C390.974 218.496 391.955 218.766 392.09 218.124C395.877 201.951 399.698 185.813 403.485 169.64C403.62 169.031 402.639 168.761 402.504 169.37Z" fill="#E8E8E8"/>
<path d="M301.608 219.443C324.803 218.191 348.032 217.887 371.261 218.597C377.889 218.8 384.482 219.071 391.109 219.443C391.752 219.477 391.752 218.462 391.109 218.428C367.914 217.142 344.685 216.872 321.455 217.582C314.828 217.785 308.235 218.056 301.608 218.428C300.965 218.462 300.931 219.477 301.608 219.443Z" fill="#E8E8E8"/>
<path d="M346.646 217.718C361.117 210.173 377.652 209.056 393.645 208.075C394.288 208.041 394.288 207.026 393.645 207.06C377.483 208.075 360.779 209.225 346.139 216.838C345.53 217.142 346.037 218.022 346.646 217.718Z" fill="#E8E8E8"/>
<path d="M369.74 185.508C371.329 193.256 372.14 201.139 372.174 209.056C372.174 209.699 373.189 209.699 373.189 209.056C373.121 201.038 372.309 193.087 370.72 185.238C370.585 184.595 369.604 184.865 369.74 185.508Z" fill="#E8E8E8"/>
<path d="M369.368 185.339C367.305 188.35 365.276 191.395 363.214 194.406C363.518 194.508 363.856 194.576 364.161 194.677C363.992 191.632 364.769 188.79 366.494 186.286C366.866 185.745 365.987 185.238 365.615 185.779C363.789 188.418 362.943 191.497 363.112 194.677C363.146 195.185 363.755 195.354 364.059 194.948C366.122 191.937 368.151 188.892 370.213 185.88C370.619 185.305 369.74 184.798 369.368 185.339Z" fill="#E8E8E8"/>
<path d="M365.953 185.068C364.803 184.561 363.653 184.324 362.402 184.392C361.658 184.426 358.649 185.339 359.089 184.223C359.258 183.783 360.205 183.208 360.576 182.903C361.287 182.328 362.03 181.787 362.808 181.347C364.533 180.366 366.46 179.892 368.421 180.196C369.063 180.298 369.334 179.317 368.691 179.215C364.769 178.606 360.678 180.738 358.142 183.681C357.466 184.459 357.567 185.542 358.683 185.88C359.292 186.05 359.968 185.813 360.543 185.677C362.199 185.305 363.822 185.17 365.445 185.88C366.02 186.219 366.527 185.339 365.953 185.068Z" fill="#E8E8E8"/>
<path d="M369.334 179.148C370.619 176.103 373.155 173.87 376.299 172.922C376.13 172.652 375.961 172.347 375.792 172.076C374.643 173.565 373.966 175.189 373.73 177.05C373.662 177.693 374.676 177.693 374.744 177.05C374.947 175.46 375.555 174.039 376.502 172.787C376.773 172.415 376.536 171.772 375.995 171.941C372.479 172.99 369.74 175.494 368.32 178.877C368.117 179.486 369.097 179.757 369.334 179.148Z" fill="#E8E8E8"/>
<path d="M374.473 177.659C377.111 176.136 380.222 176.103 382.893 177.557C382.893 177.253 382.893 176.982 382.893 176.678C380.763 177.693 378.734 178.911 376.807 180.264C376.266 180.636 376.773 181.516 377.314 181.144C379.241 179.79 381.27 178.572 383.4 177.557C383.738 177.388 383.704 176.847 383.4 176.678C380.391 175.02 376.908 175.054 373.966 176.779C373.391 177.118 373.899 177.997 374.473 177.659Z" fill="#E8E8E8"/>
<path d="M376.435 181.211C378.632 182.429 380.763 184.426 380.154 187.2C380.458 187.166 380.763 187.132 381.067 187.065C379.647 184.798 377.212 183.512 374.541 183.614C373.899 183.647 373.899 184.662 374.541 184.629C376.874 184.527 378.97 185.61 380.188 187.572C380.391 187.91 381.033 187.91 381.101 187.437C381.777 184.223 379.545 181.753 376.908 180.298C376.367 180.027 375.86 180.907 376.435 181.211Z" fill="#E8E8E8"/>
<path d="M373.662 184.459C375.217 192.579 375.792 200.801 375.353 209.056C375.319 209.699 376.333 209.699 376.367 209.056C376.807 200.733 376.232 192.376 374.643 184.189C374.507 183.546 373.527 183.817 373.662 184.459Z" fill="#E8E8E8"/>
<path d="M372.546 200.395C373.662 200.53 374.71 200.327 375.724 199.887C376.333 199.617 375.792 198.737 375.217 199.008C374.372 199.414 373.459 199.515 372.546 199.38C371.904 199.278 371.904 200.293 372.546 200.395Z" fill="#E8E8E8"/>
<path d="M306.003 205.605C311.548 205.943 317.161 206.045 322.673 206.688C325.378 206.992 327.981 207.804 330.652 208.21C333.256 208.583 335.792 208.21 338.395 207.737C349.79 205.74 361.253 206.823 372.648 208.041C373.29 208.109 373.29 207.094 372.648 207.026C361.625 205.842 350.433 204.692 339.41 206.519C336.299 207.026 333.357 207.635 330.213 207.094C327.677 206.654 325.242 205.977 322.706 205.673C317.195 205.03 311.582 204.928 306.037 204.59C305.361 204.522 305.361 205.537 306.003 205.605Z" fill="#E8E8E8"/>
<path d="M371.363 193.391C371.498 193.966 372.073 194.102 372.614 194C373.662 193.831 374.744 193.459 375.758 193.155C376.401 192.985 376.13 192.004 375.488 192.173C374.879 192.343 374.271 192.512 373.662 192.647C373.391 192.715 373.087 192.782 372.817 192.884C372.681 192.918 372.546 192.952 372.411 192.985C372.174 192.952 372.174 192.985 372.343 193.087C372.208 192.478 371.227 192.748 371.363 193.391Z" fill="#E8E8E8"/>
<path d="M328.522 180.467C325.175 179.384 329.537 173.633 331.87 176.204C332.715 177.117 332.681 178.708 331.903 179.655C331.024 180.738 329.503 180.907 328.319 180.23C327.745 179.892 327.237 180.771 327.812 181.11C329.537 182.091 331.87 181.719 332.952 179.993C333.932 178.403 333.662 175.933 331.937 174.952C328.184 172.854 323.687 179.993 328.286 181.482C328.894 181.651 329.165 180.67 328.522 180.467Z" fill="#E8E8E8"/>
<path d="M406.697 172.313C417.618 172.888 428.438 174.174 439.191 176.204C439.833 176.339 440.103 175.358 439.461 175.223C428.641 173.159 417.72 171.84 406.697 171.264C406.054 171.264 406.054 172.279 406.697 172.313Z" fill="#E8E8E8"/>
<path d="M406.528 175.257C416.942 176.373 427.39 177.557 437.77 178.809C438.413 178.877 438.413 177.862 437.77 177.794C427.356 176.542 416.942 175.358 406.528 174.242C405.885 174.174 405.885 175.189 406.528 175.257Z" fill="#E8E8E8"/>
<path d="M406.19 178.302C412.479 179.351 418.802 180.027 425.158 180.23C425.801 180.264 425.801 179.249 425.158 179.215C418.903 178.978 412.648 178.369 406.46 177.32C405.818 177.219 405.547 178.2 406.19 178.302Z" fill="#E8E8E8"/>
<path d="M402.403 196.538C410.957 197.756 419.545 198.771 428.134 199.583C428.776 199.651 428.776 198.636 428.134 198.568C419.613 197.756 411.126 196.741 402.673 195.557C402.031 195.455 401.76 196.436 402.403 196.538Z" fill="#E8E8E8"/>
<path d="M401.76 199.447C408.556 200.632 415.353 201.613 422.183 202.425C422.825 202.492 422.825 201.477 422.183 201.41C415.42 200.632 408.725 199.65 402.031 198.466C401.388 198.331 401.118 199.312 401.76 199.447Z" fill="#E8E8E8"/>
<path d="M401.05 203.744C409.571 205.436 418.159 206.586 426.815 207.128C427.458 207.162 427.458 206.147 426.815 206.113C418.261 205.538 409.74 204.421 401.321 202.763C400.678 202.628 400.408 203.609 401.05 203.744Z" fill="#E8E8E8"/>
<path d="M158.243 247.288C173.796 248.066 189.418 247.254 204.971 247.017C220.525 246.78 236.045 246.713 251.599 246.746C282.808 246.814 313.983 247.389 345.192 248.1C362.774 248.506 380.323 248.98 397.906 249.419C398.548 249.453 398.548 248.438 397.906 248.404C366.73 247.592 335.521 246.746 304.313 246.239C273.104 245.731 241.928 245.495 210.72 245.901C193.238 246.104 175.69 247.152 158.243 246.239C157.566 246.239 157.566 247.254 158.243 247.288Z" fill="#E8E8E8"/>
<path d="M157.634 128.127C159.663 128.431 161.083 127.044 165.106 124.067C171.159 119.567 172.444 119.432 173.357 119.499C173.796 119.533 174.608 119.669 178.429 122.544C184.008 126.74 184.346 128.025 186.172 128.127C189.485 128.262 189.959 124.067 193.915 123.695C197.499 123.356 198.615 126.638 203.044 126.469C206.459 126.367 208.454 124.27 208.758 124.71C209.13 125.285 205.918 129.717 201.286 130.427C197.871 130.935 197.127 128.939 193.813 129.412C189.215 130.089 188.336 134.284 184.954 133.98C182.959 133.777 182.689 132.288 179.24 129.92C177.414 128.668 174.236 126.503 170.753 126.232C164.363 125.758 161.049 131.95 157.194 130.157C155.335 129.311 154.286 127.01 154.523 126.74C154.692 126.469 155.876 127.856 157.634 128.127Z" fill="#5222D0"/>
<path d="M316.045 110.77C313.983 120.142 311.447 129.413 308.471 138.548C308.269 139.157 309.249 139.427 309.452 138.818C312.428 129.683 314.963 120.413 317.026 111.041C317.161 110.398 316.181 110.127 316.045 110.77Z" fill="#E8E8E8"/>
<path d="M309.08 139.326C312.563 139.732 316.045 139.562 319.562 139.495C323.214 139.393 326.865 139.326 330.551 139.224C337.855 139.055 345.192 138.852 352.495 138.683C353.138 138.683 353.138 137.668 352.495 137.668C345.192 137.837 337.855 138.04 330.551 138.209C327.001 138.311 323.45 138.378 319.9 138.48C316.282 138.581 312.698 138.75 309.08 138.344C308.438 138.243 308.438 139.258 309.08 139.326Z" fill="#E8E8E8"/>
<path d="M321.658 120.21C320.373 126.232 319.291 132.288 318.378 138.378C318.277 139.021 319.258 139.292 319.359 138.649C320.272 132.559 321.354 126.503 322.639 120.481C322.774 119.838 321.794 119.567 321.658 120.21Z" fill="#E8E8E8"/>
<path d="M322.436 120.751C324.228 120.853 325.986 121.022 327.745 121.36C327.643 121.157 327.508 120.954 327.406 120.751C325.817 126.469 324.465 132.254 323.349 138.074C323.214 138.717 324.194 138.987 324.329 138.344C325.445 132.525 326.798 126.74 328.387 121.022C328.455 120.785 328.319 120.447 328.049 120.413C326.189 120.074 324.363 119.871 322.47 119.77C321.76 119.702 321.76 120.717 322.436 120.751Z" fill="#E8E8E8"/>
<path d="M331.16 125.961C330.652 130.089 329.976 134.149 329.131 138.209C328.996 138.852 329.976 139.123 330.111 138.48C330.991 134.352 331.667 130.157 332.174 125.961C332.242 125.319 331.227 125.319 331.16 125.961Z" fill="#E8E8E8"/>
<path d="M331.667 126.029C333.56 125.961 335.488 125.995 337.381 126.131C337.212 125.928 337.043 125.691 336.908 125.488C336.164 129.514 335.521 133.54 334.98 137.6C334.879 138.243 335.893 138.243 335.995 137.6C336.536 133.642 337.144 129.717 337.888 125.758C337.956 125.42 337.753 125.149 337.415 125.116C335.521 124.98 333.594 124.98 331.701 125.014C330.991 125.014 330.991 126.029 331.667 126.029Z" fill="#E8E8E8"/>
<path d="M343.501 116.759C342.318 123.83 340.931 130.901 339.41 137.905C339.275 138.548 340.255 138.818 340.39 138.175C341.912 131.172 343.298 124.101 344.482 117.03C344.617 116.387 343.636 116.116 343.501 116.759Z" fill="#E8E8E8"/>
<path d="M344.313 116.251C344.313 116.319 344.313 116.353 344.313 116.421C344.313 116.691 344.549 116.928 344.82 116.928C345.09 116.928 345.327 116.691 345.327 116.421C345.327 116.353 345.327 116.319 345.327 116.251C345.327 115.981 345.09 115.744 344.82 115.744C344.549 115.778 344.313 115.981 344.313 116.251Z" fill="#E8E8E8"/>
<path d="M344.549 117.097C346.105 117.435 347.593 117.605 349.182 117.571C349.013 117.368 348.844 117.131 348.708 116.928C347.39 123.999 346.172 131.104 345.023 138.209C344.921 138.852 345.902 139.123 346.003 138.48C347.153 131.375 348.37 124.27 349.689 117.199C349.757 116.894 349.554 116.556 349.216 116.556C347.728 116.556 346.308 116.421 344.854 116.116C344.177 115.981 343.907 116.928 344.549 117.097Z" fill="#E8E8E8"/>
<path d="M360.002 114.796C371.498 114.661 382.96 114.729 394.457 115.033C395.099 115.033 395.099 114.018 394.457 114.018C382.96 113.748 371.498 113.68 360.002 113.781C359.359 113.781 359.359 114.796 360.002 114.796Z" fill="#E8E8E8"/>
<path d="M360.779 118.924C367.914 119.398 375.082 119.296 382.216 118.62C382.859 118.552 382.859 117.537 382.216 117.605C375.082 118.281 367.914 118.383 360.779 117.909C360.137 117.875 360.137 118.89 360.779 118.924Z" fill="#E8E8E8"/>
<path d="M359.224 124.033C369.03 123.864 378.835 124.033 388.641 124.541C389.283 124.574 389.283 123.559 388.641 123.526C378.835 122.984 369.03 122.815 359.224 123.018C358.582 123.018 358.582 124.033 359.224 124.033Z" fill="#E8E8E8"/>
<path d="M411.836 139.732C408.387 139.292 406.731 135.841 405.75 132.897C404.837 130.123 404.499 127.213 405.547 124.439C407.373 119.567 412.343 115.642 417.348 114.526C422.555 113.342 427.83 116.116 430.332 120.751C432.969 125.623 432.056 131.882 428.979 136.314C425.192 141.762 417.212 142.371 411.667 139.495C411.092 139.19 410.585 140.07 411.16 140.374C416.469 143.115 423.806 142.98 428.303 138.683C432.699 134.487 434.119 127.01 431.819 121.462C429.622 116.217 424.076 112.563 418.328 113.308C412.648 114.052 406.933 118.383 404.769 123.695C403.316 127.315 403.924 131.104 405.344 134.623C406.562 137.6 408.489 140.307 411.87 140.747C412.479 140.814 412.479 139.799 411.836 139.732Z" fill="#E8E8E8"/>
<path d="M413.256 115.879C414.846 119.973 416.3 124.134 417.686 128.33C417.889 128.939 418.869 128.668 418.666 128.059C417.28 123.864 415.826 119.736 414.237 115.609C414 115.033 413.02 115.27 413.256 115.879Z" fill="#E8E8E8"/>
<path d="M418.734 128.905C422.724 126.131 426.68 123.255 430.535 120.311C431.042 119.905 430.535 119.026 430.027 119.432C426.139 122.375 422.217 125.251 418.227 128.025C417.686 128.398 418.193 129.277 418.734 128.905Z" fill="#E8E8E8"/>
<path d="M418.565 128.939C423.096 128.736 427.559 127.991 431.921 126.706C432.529 126.537 432.293 125.555 431.65 125.725C427.39 126.976 423.028 127.721 418.565 127.89C417.922 127.958 417.922 128.973 418.565 128.939Z" fill="#E8E8E8"/>
<path d="M417.753 128.601C415.048 132.085 412.377 135.57 409.672 139.055C409.266 139.563 410.146 140.07 410.551 139.563C413.256 136.078 415.928 132.593 418.633 129.108C419.038 128.601 418.159 128.093 417.753 128.601Z" fill="#E8E8E8"/>
<path d="M158.919 245.562C158.073 245.326 158.581 244.209 158.953 243.837C159.358 243.431 160.373 243.465 160.914 243.465C161.894 243.431 162.875 243.465 163.889 243.431C165.918 243.431 167.947 243.397 169.975 243.397C174.033 243.363 178.09 243.363 182.148 243.329C190.162 243.296 198.141 243.228 206.155 243.194C222.283 243.093 238.378 243.025 254.507 242.991C286.629 242.89 318.717 242.89 350.839 243.059C359.63 243.126 368.455 243.126 377.246 243.499C381.608 243.668 385.97 243.938 390.332 244.344C392.496 244.547 394.693 244.784 396.857 245.055C397.567 245.156 398.277 245.224 398.988 245.359C399.562 245.461 399.9 245.359 400.103 245.901C400.644 247.186 398.92 248.506 397.872 248.574C397.229 248.607 397.229 249.622 397.872 249.589C400.137 249.419 401.726 247.119 400.881 244.953C400.813 244.784 400.712 244.615 400.543 244.615C384.414 242.213 368.083 242.213 351.819 242.111C335.014 242.01 318.243 241.976 301.438 241.942C267.761 241.942 234.05 242.078 200.373 242.247C190.905 242.314 181.438 242.348 171.97 242.416C169.705 242.416 167.473 242.45 165.208 242.45C163.314 242.45 161.083 242.145 159.257 242.687C157.499 243.194 156.349 245.968 158.648 246.611C159.257 246.713 159.527 245.732 158.919 245.562Z" fill="#E8E8E8"/>
<path d="M156.417 251.517C153.035 263.731 148.91 275.742 144.007 287.448C143.771 288.057 144.751 288.328 144.988 287.719C149.891 276.012 154.016 264.001 157.397 251.788C157.566 251.145 156.586 250.874 156.417 251.517Z" fill="#E8E8E8"/>
<path d="M156.755 252.532C165.445 253.581 174.405 252.87 183.128 252.769C183.771 252.769 183.771 251.754 183.128 251.754C174.405 251.889 165.445 252.566 156.755 251.517C156.079 251.449 156.112 252.464 156.755 252.532Z" fill="#E8E8E8"/>
<path d="M182.047 252.701C179.172 263.325 176.129 273.881 172.917 284.437C172.714 285.08 173.695 285.317 173.898 284.708C177.11 274.185 180.153 263.596 183.027 252.972C183.196 252.329 182.216 252.058 182.047 252.701Z" fill="#E8E8E8"/>
<path d="M144.481 287.956C149.248 287.922 153.982 287.888 158.75 287.854C161.083 287.854 163.382 287.82 165.715 287.82C167.778 287.82 169.84 287.888 171.869 287.414C172.511 287.279 172.241 286.298 171.598 286.433C169.468 286.941 167.237 286.805 165.039 286.805C162.706 286.805 160.407 286.839 158.073 286.839C153.543 286.873 149.012 286.907 144.481 286.907C143.838 286.941 143.838 287.956 144.481 287.956Z" fill="#E8E8E8"/>
<path d="M187.355 252.938C210.212 252.295 233.103 252.329 255.961 253.073C256.603 253.107 256.603 252.092 255.961 252.058C233.103 251.314 210.212 251.246 187.355 251.923C186.713 251.923 186.713 252.938 187.355 252.938Z" fill="#E8E8E8"/>
<path d="M186.408 258.893C199.663 258.859 212.917 258.859 226.206 258.825C226.848 258.825 226.848 257.81 226.206 257.81C212.951 257.844 199.697 257.844 186.408 257.878C185.732 257.878 185.732 258.893 186.408 258.893Z" fill="#E8E8E8"/>
<path d="M172.782 286.771C173.39 285.756 173.83 284.674 174.067 283.557C174.202 282.914 173.221 282.644 173.086 283.286C172.849 284.335 172.478 285.35 171.903 286.264C171.565 286.805 172.444 287.313 172.782 286.771Z" fill="#E8E8E8"/>
<path d="M299.646 255.915C296.941 268.84 294.338 281.764 291.802 294.688C291.667 295.331 292.647 295.602 292.782 294.959C295.318 282.035 297.922 269.11 300.627 256.186C300.762 255.543 299.782 255.272 299.646 255.915Z" fill="#E8E8E8"/>
<path d="M292.005 295.534C305.902 295.906 319.765 296.278 333.662 296.651C347.39 297.023 361.118 297.598 374.845 297.598C375.488 297.598 375.488 296.583 374.845 296.583C361.118 296.583 347.39 295.974 333.662 295.636C319.765 295.263 305.902 294.891 292.005 294.519C291.362 294.485 291.362 295.5 292.005 295.534Z" fill="#E8E8E8"/>
<path d="M293.019 295.433C297.212 290.899 301.405 286.332 305.597 281.798C305.361 281.798 305.124 281.798 304.887 281.798C306.274 283.523 307.897 284.944 309.79 286.095C310.365 286.433 310.872 285.553 310.297 285.215C308.471 284.132 306.916 282.745 305.597 281.087C305.428 280.884 305.056 280.918 304.887 281.087C300.695 285.621 296.502 290.188 292.309 294.722C291.869 295.196 292.58 295.906 293.019 295.433Z" fill="#E8E8E8"/>
<path d="M310.061 285.756C314.558 280.444 319.089 275.166 323.586 269.855C323.991 269.347 323.281 268.637 322.876 269.144C318.379 274.456 313.848 279.734 309.351 285.046C308.911 285.52 309.621 286.23 310.061 285.756Z" fill="#E8E8E8"/>
<path d="M322.876 269.347C323.789 270.565 324.701 271.749 325.614 272.967C325.817 273.238 326.122 273.306 326.426 273.069C330.551 269.686 334.575 266.133 338.463 262.479C338.937 262.039 338.226 261.329 337.753 261.769C333.865 265.423 329.841 268.975 325.716 272.358C325.986 272.392 326.257 272.426 326.527 272.46C325.614 271.242 324.701 270.058 323.788 268.84C323.349 268.298 322.47 268.806 322.876 269.347Z" fill="#E8E8E8"/>
<path d="M337.381 262.919C343.028 267.385 348.472 272.088 353.746 276.96C354.22 277.399 354.93 276.689 354.456 276.249C349.182 271.343 343.738 266.674 338.091 262.208C337.584 261.802 336.874 262.513 337.381 262.919Z" fill="#E8E8E8"/>
<path d="M354.355 276.824C361.32 272.392 366.325 265.558 373.121 260.889C373.662 260.517 373.155 259.637 372.614 260.009C365.817 264.678 360.813 271.513 353.848 275.945C353.307 276.283 353.814 277.163 354.355 276.824Z" fill="#E8E8E8"/>
<path d="M367.204 261.938C369.334 261.565 371.397 261.024 373.459 260.381C373.256 260.178 373.053 259.975 372.85 259.772C372.478 261.464 372.14 263.156 371.768 264.847C371.633 265.49 372.614 265.761 372.749 265.118C373.121 263.426 373.459 261.735 373.831 260.043C373.899 259.671 373.594 259.299 373.222 259.434C371.16 260.077 369.097 260.618 366.967 260.99C366.325 261.092 366.595 262.073 367.204 261.938Z" fill="#E8E8E8"/>
<path d="M312.089 258.588C310.906 270.667 309.689 282.745 308.505 294.824C308.438 295.467 309.452 295.467 309.52 294.824C310.703 282.745 311.92 270.667 313.104 258.588C313.138 257.945 312.123 257.945 312.089 258.588Z" fill="#E8E8E8"/>
<path d="M327.102 256.457C325.851 269.415 324.837 282.407 324.093 295.399C324.059 296.042 325.073 296.042 325.107 295.399C325.851 282.407 326.865 269.415 328.117 256.457C328.15 255.78 327.136 255.814 327.102 256.457Z" fill="#E8E8E8"/>
<path d="M355.437 256.085C354.118 269.618 353.172 283.151 352.597 296.752C352.563 297.395 353.577 297.395 353.611 296.752C354.186 283.185 355.133 269.618 356.451 256.085C356.519 255.442 355.505 255.442 355.437 256.085Z" fill="#E8E8E8"/>
<path d="M338.497 251.145C337.618 266.234 336.739 281.29 335.86 296.38C335.826 297.023 336.84 297.023 336.874 296.38C337.753 281.29 338.632 266.234 339.511 251.145C339.545 250.468 338.531 250.468 338.497 251.145Z" fill="#E8E8E8"/>
<path d="M233.103 258.724C239.967 259.333 246.831 257.81 253.695 258.656C254.338 258.723 254.338 257.708 253.695 257.641C246.831 256.795 239.967 258.318 233.103 257.709C232.427 257.675 232.461 258.69 233.103 258.724Z" fill="#E8E8E8"/>
<path d="M126.628 197.688C138.597 195.929 150.127 200.733 160.745 205.741C170.584 210.41 180.322 215.18 191.243 216.567C214.574 219.477 236.924 209.665 258.868 203.474C271.751 199.854 285.107 197.316 298.531 199.008C299.173 199.075 299.173 198.06 298.531 197.993C274.76 194.982 252.309 204.996 229.925 211.188C218.564 214.334 206.797 216.703 194.963 215.924C183.095 215.146 172.647 210.342 162.063 205.301C150.939 199.989 138.969 194.88 126.357 196.741C125.715 196.809 126.019 197.79 126.628 197.688Z" fill="#E8E8E8"/>
<path d="M190.669 206.925C220.458 208.515 248.049 195.218 276.552 188.824C284.769 186.997 293.121 185.711 301.574 185.542C302.216 185.542 302.216 184.527 301.574 184.527C271.819 185.204 244.6 198.906 215.656 204.15C207.406 205.639 199.054 206.383 190.669 205.944C190.026 205.842 190.026 206.857 190.669 206.925Z" fill="#E8E8E8"/>
<path d="M133.357 172.313C146.848 173.26 159.155 179.283 171.598 183.986C184.244 188.756 197.431 191.429 210.956 191.091C218.699 190.888 226.408 189.771 233.915 187.809C234.557 187.64 234.287 186.658 233.644 186.828C220.018 190.414 205.715 191.091 191.818 188.688C178.564 186.388 166.628 180.602 154.084 176.102C147.389 173.7 140.491 171.806 133.357 171.332C132.68 171.264 132.714 172.279 133.357 172.313Z" fill="#E8E8E8"/>
<path d="M225.09 107.252C224.819 108.943 224.38 110.601 223.771 112.225C223.636 112.564 223.974 112.868 224.244 112.868C245.783 113.815 267.322 114.018 288.86 113.443C289.503 113.409 289.503 112.394 288.86 112.428C267.322 113.003 245.749 112.834 224.244 111.853C224.414 112.056 224.583 112.293 224.718 112.496C225.326 110.872 225.766 109.248 226.037 107.522C226.172 106.879 225.191 106.609 225.09 107.252Z" fill="#E8E8E8"/>
<path d="M225.766 107.624C247.44 107.895 269.08 108.165 290.754 108.436C291.396 108.436 291.396 107.421 290.754 107.421C269.08 107.15 247.44 106.88 225.766 106.609C225.124 106.575 225.124 107.59 225.766 107.624Z" fill="#E8E8E8"/>
<path d="M290.652 107.827C289.976 109.417 289.469 111.075 289.198 112.8C289.097 113.443 290.077 113.714 290.179 113.071C290.449 111.447 290.889 109.857 291.531 108.334C291.768 107.725 290.889 107.218 290.652 107.827Z" fill="#E8E8E8"/>
<path d="M51.1245 301.996C45.3426 303.383 39.5268 304.771 33.7449 306.158C36.7542 325.172 39.1211 334.646 40.7779 334.51C42.198 334.409 43.1109 327.304 43.5167 313.195C46.7289 312.079 49.9411 310.996 53.1532 309.88C52.477 307.274 51.8007 304.635 51.1245 301.996Z" fill="#161616" stroke="#161616" stroke-width="3" stroke-miterlimit="10"/>
<path d="M90.6513 231.116C89.9074 233.349 88.7916 236.901 87.642 241.401C85.2413 250.773 85.1399 254.765 82.7054 266.674C79.7975 280.851 78.3097 283.287 77.363 284.674C73.0688 290.831 67.1178 293.64 63.8718 295.162C56.0273 298.85 48.7238 299.188 44.3958 299.019C44.2267 301.015 44.0577 305.887 46.9656 310.793C48.4195 313.229 50.1439 314.887 51.4626 315.936C55.8244 316.173 63.3308 316.003 71.7839 312.722C75.4019 311.334 84.6327 307.613 91.6657 298.376C97.0757 291.271 98.5634 284.335 100.22 276.554C103.432 261.566 99.4426 259.299 103.432 246.577C105.833 238.863 108.606 235.074 106.645 232.232C104.312 228.747 96.9742 229.661 90.6513 231.116Z" fill="#EC615B"/>
<path opacity="0.09" d="M91.0571 231.149C90.7189 234.77 90.2118 239.777 89.5017 245.731C88.8593 250.976 88.1492 256.66 86.9996 263.291C85.0046 274.659 83.9902 280.343 81.8262 285.08C79.9327 289.207 76.281 296.854 67.8955 302.639C59.1719 308.628 50.1439 309.203 46.1202 309.237C45.6469 308.154 45.1735 306.767 44.8692 305.177C44.4296 302.876 44.4296 300.88 44.5649 299.391C47.1684 299.425 50.7526 299.222 54.9115 298.309C62.1474 296.685 66.9826 293.741 68.2336 292.963C71.3106 291.034 74.5227 289.038 77.1601 285.114C78.9522 282.475 79.6961 280.072 80.9133 275.065C82.7054 267.689 83.6183 264.035 84.3622 258.622C85.1737 252.363 86.9657 243.228 91.0571 231.149Z" fill="#3D3D3D"/>
<path opacity="0.12" d="M44.6325 299.29C44.4972 300.778 44.4296 302.808 44.903 305.143C45.2411 306.868 45.7483 308.289 46.2217 309.406C50.854 308.425 65.4272 304.703 74.4551 291.373C77.1263 287.414 78.7155 283.523 79.6961 280.174C78.7831 282.305 77.1939 285.418 74.3875 288.429C69.5523 293.606 64.0071 295.5 60.0172 296.854C56.6359 298.038 51.3612 299.391 44.6325 299.29Z" fill="#3D3D3D"/>
<path d="M88.183 333.055C85.5456 340.33 82.9082 347.604 80.2709 354.912C98.8001 357.077 108.234 357.382 108.572 355.758C108.842 354.506 103.365 352.036 92.2067 348.416C93.7283 343.916 95.2836 339.416 96.8052 334.916C93.9311 334.307 91.0571 333.664 88.183 333.055Z" fill="#161616" stroke="#161616" stroke-width="3" stroke-miterlimit="10"/>
<path d="M115.673 234.973C116.045 239.98 116.383 246.814 116.315 254.866C116.146 277.095 113.137 293.775 112.257 298.309C109.992 310.184 106.07 325.51 99.003 342.63C96.7714 342.732 91.2599 342.664 85.7485 339.213C82.3673 337.081 80.2709 334.51 79.1213 332.785C81.1838 328.86 83.7197 323.683 86.1881 317.357C90.5499 306.192 92.4434 297.294 93.6606 291.44C96.3994 278.279 97.7857 271.715 96.6699 264.678C95.5879 258.013 93.8297 256.863 94.1002 251.179C94.1678 249.927 95.0131 235.345 104.142 232.57C108.842 231.183 113.509 233.619 115.673 234.973Z" fill="#EC615B"/>
<path opacity="0.14" d="M107.659 232.435C110.668 233.721 109.688 242.179 109.417 244.412C105.799 276.283 110.77 259.13 106.408 278.787C100.423 305.786 92.3419 331.736 89.5017 340.668C88.8254 340.668 87.8787 340.6 86.8643 340.127C85.9176 339.687 85.7147 339.112 84.5651 338.198C83.314 337.217 82.8744 337.285 81.9277 336.608C81.0824 335.999 80.0342 334.916 79.2903 332.92C81.0486 329.469 83.1449 325.037 85.2751 319.691C87.9801 312.925 89.4679 307.782 91.0909 302.233C91.0909 302.233 96.1628 284.741 97.0757 271.377C97.2448 268.704 97.1095 266.877 96.9066 265.558C96.6023 263.46 96.1627 262.411 95.4865 259.908C95.3174 259.265 94.3707 255.611 94.0664 252.87C93.2211 244.784 97.5152 238.288 99.544 235.954C100.254 235.108 101.201 234.194 102.553 233.484C103.06 233.247 106.002 231.725 107.659 232.435Z" fill="#3D3D3D"/>
<path opacity="0.11" d="M99.9159 287.482C99.3411 295.703 97.4138 298.139 91.8009 318.338C89.3326 327.202 87.5067 334.476 86.3233 339.145C85.3766 338.773 84.1931 338.164 82.9759 337.217C81.15 335.796 80.068 334.24 79.4594 333.157C81.15 329.672 83.4154 324.699 85.6132 318.507C86.4924 316.071 87.0672 314.21 87.6082 312.519C95.3174 287.786 96.5347 280.275 96.9066 275.133C97.2109 270.768 96.9743 267.249 96.9066 266.133C96.5685 261.464 95.757 258.25 95.757 258.25C95.757 258.25 101.032 271.513 99.9159 287.482Z" fill="#3D3D3D"/>
<path d="M57.1769 219.849C57.2446 219.747 57.5827 219.781 58.2589 219.849C59.4086 219.95 59.7805 220.12 60.5244 220.187C61.2344 220.221 62.1812 220.289 62.4517 219.849C62.8236 219.274 61.6402 218.157 59.9834 215.755C57.1431 211.695 57.2784 210.274 57.5151 209.631C57.5827 209.462 57.7856 208.819 58.2251 208.718C58.7999 208.583 59.4424 209.361 60.051 210.139C61.0654 211.391 61.4711 212.372 61.5726 212.304C61.7754 212.236 60.592 209.699 60.8625 206.586C60.9301 205.74 61.0654 204.522 61.674 204.353C62.215 204.184 63.0265 204.861 63.6689 205.944C63.6689 205.808 63.838 203.947 64.4804 203.812C64.9876 203.711 65.5624 204.692 66.1373 205.639C66.6106 206.417 66.9149 207.128 67.084 207.601C67.0502 206.654 67.5574 205.876 68.2674 205.639C69.0451 205.402 69.7552 206.011 69.789 206.045C70.5667 206.755 70.4991 208.007 70.4991 208.447C70.4314 210.376 70.6343 213.624 71.0739 218.36C71.953 218.022 73.2379 217.413 74.658 216.466C76.1119 215.484 77.6335 214.199 81.3867 209.699C82.8406 207.94 83.5845 207.06 84.8694 205.335C89.5017 199.143 92.2405 195.489 95.0131 190.312C95.8923 188.655 97.3124 185.847 100.254 183.343C101.201 182.531 103.061 181.008 104.143 181.584C104.92 181.99 104.988 183.275 104.954 185.17C104.92 189.297 104.886 191.327 104.176 194.136C102.553 200.632 99.544 205.165 98.8678 206.18C96.1966 210.105 93.5254 212.372 90.0765 215.315C86.4924 218.36 83.5169 220.864 78.8169 222.759C75.74 223.977 73.3055 224.417 70.7358 224.89C66.4754 225.635 64.2776 226.007 62.0798 225.059C58.9352 223.706 56.805 220.356 57.1769 219.849Z" fill="white"/>
<path d="M104.007 181.11C100.356 181.617 98.1915 185.035 96.2304 187.843C93.7283 191.429 91.3614 195.117 88.9269 198.737C86.4924 202.391 83.9564 205.977 81.0824 209.327C79.6961 210.917 78.2759 212.473 76.7206 213.894C74.9961 215.518 73.1026 217.379 70.8372 218.157C70.2286 218.36 70.4991 219.342 71.1077 219.139C74.658 217.954 77.6673 214.571 80.1356 211.898C82.9759 208.819 85.5118 205.47 87.9125 202.019C90.347 198.5 92.6801 194.88 95.0469 191.328C97.2786 188.012 99.9159 182.7 104.278 182.091C104.92 181.99 104.65 181.042 104.007 181.11Z" fill="black"/>
<path d="M72.0206 225.432C76.3486 225.026 80.0004 223.029 83.6183 220.729C87.2024 218.462 90.6175 215.857 93.6606 212.879C97.5829 209.09 100.897 204.59 103.094 199.549C105.258 194.508 106.273 188.993 105.563 183.512C105.495 182.869 104.481 182.869 104.548 183.512C105.698 192.681 102.046 201.782 96.1628 208.752C93.5254 211.864 90.4484 214.605 87.2024 217.041C82.7392 220.357 77.6673 223.909 71.9868 224.45C71.3782 224.484 71.3782 225.499 72.0206 225.432Z" fill="black"/>
<path d="M72.0206 224.383C70.0257 224.349 68.0984 224.823 66.1373 224.958C63.8718 225.127 61.9783 224.45 60.1186 223.199C59.3748 222.691 58.5633 222.082 58.0899 221.27C57.1093 219.544 59.1381 220.559 59.8481 220.762C60.9978 221.101 62.0459 220.965 62.9251 220.187C63.4323 219.747 62.6884 219.037 62.215 219.477C60.6934 220.83 57.8532 217.819 56.8388 219.545C56.0611 220.864 57.8532 222.759 58.7323 223.469C60.2539 224.721 62.1136 225.736 64.1085 225.973C66.7459 226.277 69.3833 225.364 72.0206 225.431C72.6631 225.398 72.6631 224.383 72.0206 224.383Z" fill="black"/>
<path d="M62.9927 219.612C62.3164 217.345 60.7949 215.586 59.5776 213.59C59.4086 213.319 57.3798 209.631 58.0561 209.327C59.2395 208.786 60.9301 212.203 61.1668 212.879C61.3697 213.488 62.3502 213.218 62.1474 212.609C61.6064 211.052 60.6596 209.598 59.2395 208.65C58.4956 208.143 57.4136 207.771 57.0755 208.921C56.6359 210.477 57.7856 212.575 58.5632 213.86C59.7805 215.857 61.3697 217.582 62.0459 219.883C62.215 220.526 63.1956 220.255 62.9927 219.612Z" fill="black"/>
<path d="M62.4517 212.575C62.1474 211.323 61.7416 210.037 61.5387 208.752C61.4035 207.974 61.3697 207.195 61.4373 206.417C61.5387 205.402 61.7416 204.387 62.5531 205.571C63.8042 207.432 64.2099 209.97 64.8186 212.067C64.9876 212.71 65.9682 212.44 65.7991 211.797C65.2919 210.004 64.8862 208.109 64.1423 206.383C63.7704 205.538 62.9251 203.643 61.7416 203.643C60.5244 203.643 60.4906 205.538 60.4229 206.383C60.2539 208.583 60.9301 210.68 61.4711 212.778C61.6064 213.488 62.5869 213.218 62.4517 212.575Z" fill="black"/>
<path d="M64.8186 207.77C64.6495 207.06 64.3114 205.876 64.5819 205.165C65.0891 203.846 65.8329 206.214 66.0358 206.722C66.7797 208.515 67.1854 210.409 67.2869 212.338C67.3207 212.981 68.3351 212.981 68.3013 212.338C68.166 210.477 67.8617 208.684 67.2193 206.959C66.8473 205.91 66.3063 204.049 65.2919 203.474C62.9927 202.154 63.6351 207.229 63.8042 208.075C63.9733 208.684 64.9538 208.413 64.8186 207.77Z" fill="black"/>
<path d="M68.2336 208.955C68.1998 208.616 67.9631 206.789 68.3689 206.451C69.4847 205.47 69.789 207.263 69.9243 207.804C70.1609 208.955 70.1271 210.24 70.2286 211.425C70.3976 213.861 70.5667 216.263 70.7358 218.699C70.7696 219.342 71.7839 219.342 71.7501 218.699C71.5811 216.263 71.412 213.861 71.2429 211.425C71.1415 209.733 71.2768 207.5 70.3976 205.977C69.9243 205.165 69.1128 204.421 68.166 205.03C66.9488 205.842 67.1178 208.007 67.2869 209.225C67.3545 209.868 68.3351 209.597 68.2336 208.955Z" fill="black"/>
<path opacity="0.09" d="M104.379 182.294C104.21 182.294 104.345 184.967 103.297 188.689C102.486 191.531 101.167 194.237 96.9066 199.854C92.9844 205.03 90.1441 208.785 85.2075 213.184C79.7975 218.022 77.0925 220.424 73.3731 221.338C65.3258 223.334 57.9208 218.699 57.2108 220.255C56.8388 221.101 58.8676 222.793 59.6452 223.368C60.6258 224.078 62.5193 225.195 66.9826 225.262C71.7501 225.33 75.4019 224.18 76.2134 223.909C84.8017 221.067 90.4484 215.451 93.4577 212.338C97.4476 208.278 100.694 204.962 102.824 199.414C106.239 190.786 104.717 182.294 104.379 182.294Z" fill="#3D3D3D"/>
<path opacity="0.13" d="M103.703 195.354C103.466 195.218 102.046 197.587 100.017 200.395C100.017 200.395 95.1484 207.161 88.8592 212.913C85.4104 216.06 79.1213 220.932 69.1466 224.755C71.2091 224.89 74.2861 224.822 77.7011 223.672C78.7831 223.3 81.4881 222.285 88.0139 216.601C93.2211 212.067 96.1289 209.564 99.0368 205.165C102.181 200.463 104.041 195.523 103.703 195.354Z" fill="#3D3D3D"/>
<path d="M107.93 177.388C105.799 178.133 104.481 179.452 103.094 180.839C99.2397 184.73 97.8534 189.128 96.7714 192.681C93.5254 203.372 91.8686 208.684 91.1247 213.353C90.2456 218.665 89.5017 225.702 89.7384 234.025C91.4966 235.243 93.9987 236.8 97.1771 238.153C100.829 239.709 104.109 241.096 108.335 240.758C110.026 240.623 112.934 240.149 116.18 238.153C116.349 235.954 116.721 232.537 117.701 228.51C119.392 221.372 121.218 219.308 124.193 210.443C126.526 203.44 127.676 199.854 127.507 195.557C127.372 192.546 127.101 186.658 122.672 182.057C119.29 178.572 113.238 175.527 107.93 177.388Z" fill="white"/>
<path d="M106.408 177.625C102.35 180.061 99.8821 184.121 97.8534 188.283C95.6894 192.782 94.0664 197.519 92.8829 202.391C90.4146 212.541 89.806 223.063 89.4002 233.484C89.3664 234.127 90.3808 234.127 90.4146 233.484C90.7866 223.537 91.3614 213.556 93.593 203.812C94.675 199.042 96.1628 194.339 98.2253 189.873C100.22 185.508 102.689 181.008 106.915 178.505C107.456 178.166 106.949 177.287 106.408 177.625Z" fill="black"/>
<path d="M119.493 179.824C123.314 182.801 125.952 186.997 126.797 191.767C127.744 197.214 126.425 202.763 124.599 207.872C122.841 212.812 120.542 217.515 118.952 222.522C117.363 227.428 116.383 232.536 115.977 237.679C115.909 238.322 116.924 238.322 116.991 237.679C117.465 231.894 118.682 226.176 120.643 220.729C122.503 215.518 124.971 210.545 126.56 205.233C127.98 200.462 128.724 195.286 127.541 190.346C126.493 185.88 123.855 181.922 120.237 179.147C119.696 178.708 118.986 179.418 119.493 179.824Z" fill="black"/>
<path d="M89.6031 234.16C93.6944 237.814 98.7663 240.217 104.21 240.995C108.538 241.604 114.117 241.638 116.957 237.747C117.329 237.206 116.45 236.698 116.078 237.239C113.238 241.096 106.949 240.589 102.824 239.743C98.1577 238.796 93.8635 236.596 90.3132 233.45C89.8398 233.01 89.1297 233.721 89.6031 234.16Z" fill="black"/>
<path opacity="0.11" d="M112.291 177.524C113.441 179.52 109.181 183.208 105.901 188.959C103.804 192.613 102.993 195.794 101.404 202.154C97.6843 217.041 98.3944 233.958 98.6987 238.863C95.7908 237.307 92.9168 235.785 90.0089 234.228C90.1441 230.913 90.4146 226.176 90.9556 220.492C91.8348 211.492 92.3419 206.586 94.0664 200.226C95.5879 194.711 97.0757 189.568 101.133 184.053C103.771 180.467 106.577 177.997 108.606 176.441C109.891 176.373 111.683 176.475 112.291 177.524Z" fill="#3D3D3D"/>
<path opacity="0.15" d="M99.3749 187.741C99.8145 187.877 98.0224 194.948 95.1484 210.579C93.2549 220.83 92.8153 224.518 94.3369 229.085C96.298 234.939 100.254 238.491 99.5102 239.269C99.0368 239.743 97.0081 239.066 90.0089 233.822C89.8398 226.446 90.3132 216.263 93.2549 204.59C95.5879 195.354 98.9016 187.572 99.3749 187.741Z" fill="#3D3D3D"/>
<path d="M130.922 163.584C132.511 165.039 132.308 167.881 132.004 172.009C131.801 174.884 131.7 176.339 130.719 177.726C128.69 180.602 124.092 181.922 120.474 180.298C120.034 180.095 117.803 179.046 116.585 176.508C114.827 172.854 116.653 169.2 117.025 168.524C119.865 163.212 128.082 160.945 130.922 163.584Z" fill="#5222D0"/>
<path d="M130.99 144.874C132.274 145.145 133.052 146.938 134.608 150.558C135.926 153.637 136.535 156.141 136.805 157.325C137.245 159.389 137.482 161.148 137.583 162.468C136.67 162.738 135.757 162.975 134.844 163.246C134.641 164.43 134.202 166.189 133.323 168.152C132.105 170.858 131.091 173.193 128.724 174.275C125.985 175.527 123.044 174.411 122.063 173.937C121.691 174.884 121.15 175.967 120.44 177.117C119.933 177.929 119.392 178.606 118.919 179.181C115.842 179.959 114.421 179.147 113.88 178.741C111.04 176.644 111.277 169.877 115.639 162.231C115.402 161.859 115.03 161.317 114.557 160.708C113.576 159.49 113.238 159.457 112.799 158.746C112.663 158.543 111.615 156.75 112.46 155.126C112.866 154.348 113.711 153.671 114.658 153.603C115.808 153.502 116.18 154.415 117.16 154.686C118.851 155.194 120.711 153.366 125.343 149.002C129.231 145.348 130.009 144.671 130.99 144.874Z" fill="white"/>
<path d="M134.236 150.423C135.825 154.415 136.839 158.577 137.211 162.874C137.245 163.347 138.023 163.347 137.989 162.874C137.617 158.509 136.603 154.28 134.98 150.22C134.81 149.746 134.067 149.949 134.236 150.423Z" fill="black"/>
<path d="M137.414 162.535C136.501 162.637 135.588 162.772 134.675 162.874C134.202 162.941 134.202 163.686 134.675 163.652C135.588 163.55 136.501 163.415 137.414 163.314C137.887 163.212 137.887 162.468 137.414 162.535Z" fill="black"/>
<path d="M134.472 163.212C133.864 166.595 132.477 169.877 130.212 172.482C127.507 175.663 123.213 174.005 119.899 172.651C119.46 172.448 119.257 173.193 119.696 173.396C122.807 174.681 127.27 176.441 130.077 173.734C132.849 171.095 134.506 167.137 135.182 163.415C135.284 162.941 134.574 162.738 134.472 163.212Z" fill="black"/>
<path d="M121.556 174.106C120.846 175.73 119.967 177.253 118.952 178.708C118.682 179.114 119.324 179.486 119.595 179.08C120.609 177.625 121.488 176.069 122.198 174.479C122.401 174.039 121.759 173.666 121.556 174.106Z" fill="black"/>
<path d="M119.629 173.497C120.136 174.039 120.711 174.512 121.353 174.851C121.793 175.088 122.165 174.445 121.725 174.208C121.116 173.87 120.609 173.464 120.136 172.956C119.831 172.584 119.29 173.125 119.629 173.497Z" fill="black"/>
<path d="M131.395 155.938C131.193 155.532 131.226 155.024 131.497 154.686C131.294 154.618 131.057 154.585 130.854 154.517C130.956 155.092 130.956 155.633 130.922 156.209C131.057 156.073 131.192 155.938 131.294 155.836C131.328 155.904 131.362 155.972 131.429 156.039C131.531 155.566 130.787 155.363 130.685 155.836C130.584 156.242 130.854 156.615 131.294 156.615C131.531 156.615 131.666 156.445 131.666 156.242C131.734 155.6 131.7 154.991 131.598 154.348C131.564 154.077 131.125 153.976 130.956 154.179C130.449 154.821 130.347 155.633 130.753 156.344C130.956 156.75 131.632 156.378 131.395 155.938Z" fill="black"/>
<path d="M129.367 151.37C129.84 150.186 131.193 149.848 132.241 150.524C132.646 150.795 133.018 150.118 132.613 149.882C131.125 148.9 129.299 149.543 128.623 151.167C128.454 151.641 129.198 151.844 129.367 151.37Z" fill="black"/>
<path d="M127.811 157.46C127.676 157.46 127.507 157.46 127.372 157.46C127.338 157.393 127.338 157.325 127.304 157.257C127.372 157.02 127.473 156.953 127.676 157.02C127.71 157.054 127.777 157.122 127.811 157.156C127.811 157.156 127.811 157.156 127.811 157.122C127.71 156.953 127.473 156.885 127.304 156.987C127.135 157.088 127.067 157.325 127.169 157.494C127.304 157.663 127.507 157.765 127.71 157.731C127.913 157.663 128.082 157.494 128.082 157.257C128.082 156.75 127.372 156.614 127.135 157.02C127.034 157.19 127.101 157.426 127.27 157.528C127.473 157.697 127.71 157.629 127.811 157.46Z" fill="black"/>
<path d="M129.502 159.017C129.434 159.084 129.333 159.186 129.231 159.254C129.231 159.254 129.231 159.254 129.265 159.254C129.198 159.254 129.13 159.254 129.062 159.254C129.062 159.254 129.028 159.254 129.028 159.22C128.995 159.186 128.927 159.118 128.893 159.084V159.118C128.893 159.017 128.859 158.915 128.859 158.814C128.893 158.78 128.927 158.746 128.961 158.712C128.792 158.848 128.724 159.051 128.826 159.22C128.927 159.389 129.198 159.49 129.333 159.355C129.569 159.186 129.739 158.848 129.468 158.611C129.367 158.509 129.198 158.442 129.028 158.509C128.859 158.543 128.792 158.645 128.724 158.814C128.657 159.017 128.792 159.22 128.995 159.287C129.231 159.355 129.434 159.22 129.502 159.017Z" fill="black"/>
<path d="M126.831 159.05C126.797 159.05 126.797 159.05 126.763 159.05C126.29 159.05 126.256 159.829 126.763 159.829C126.797 159.829 126.797 159.829 126.831 159.829C127.338 159.829 127.338 159.05 126.831 159.05Z" fill="black"/>
<path d="M129.874 164.058C130.415 165.716 131.26 167.204 132.951 167.847C133.39 168.016 133.593 167.306 133.154 167.103C131.767 166.561 131.057 165.174 130.618 163.821C130.449 163.381 129.739 163.584 129.874 164.058Z" fill="black"/>
<path d="M129.772 164.464C129.975 164.159 130.313 163.99 130.719 163.923C130.922 163.889 131.023 163.618 130.99 163.449C130.922 163.212 130.719 163.144 130.516 163.178C129.941 163.246 129.468 163.584 129.13 164.058C128.826 164.464 129.468 164.87 129.772 164.464Z" fill="black"/>
<path d="M115.402 160.065C113.339 160.81 112.224 157.629 112.596 156.141C112.799 155.363 113.34 154.449 114.151 154.212C115.267 153.874 116.281 154.754 116.991 155.43C117.329 155.769 117.87 155.227 117.532 154.889C116.619 154.009 115.504 153.163 114.151 153.434C112.934 153.671 112.19 154.821 111.886 155.938C111.345 158.002 113.001 161.723 115.605 160.81C116.078 160.641 115.875 159.896 115.402 160.065Z" fill="black"/>
<path d="M128.318 145.619C127.913 146.092 127.304 146.871 126.594 147.886C124.024 151.641 124.261 153.164 122.469 154.246C121.083 155.092 118.952 155.363 117.329 154.686C116.112 154.179 115.774 153.4 114.726 153.434C113.576 153.468 112.494 154.415 112.055 155.532C111.514 156.851 112.055 158.069 112.427 158.848C112.765 159.558 113.238 160.607 114.252 160.844C114.895 160.979 115.47 160.742 115.774 160.573C115.74 160.945 115.673 161.52 115.639 162.231C115.47 165.174 115.808 167.204 115.943 168.524C116.281 171.704 116.586 174.242 115.639 176.644C114.185 180.23 110.567 181.82 109.248 182.396C103.635 184.865 98.4282 182.802 97.7181 182.497C96.6023 182.023 91.2599 179.824 89.9413 174.817C89.1298 171.806 90.0427 168.761 90.4146 167.475C90.5837 166.934 91.0232 165.58 91.9024 164.024C93.8297 160.573 96.6023 158.475 98.5296 157.291C99.1721 154.957 100.254 151.607 102.148 147.784C104.278 143.453 105.461 141.051 108.166 138.818C112.46 135.266 117.329 134.826 118.919 134.724C119.73 134.657 123.72 134.42 128.454 136.348C131.801 137.702 135.723 139.326 137.346 143.352C139.206 148.055 136.569 152.724 136.062 153.603C135.926 153.028 135.656 152.149 135.081 151.303C134.236 150.051 133.289 149.543 131.869 148.562C130.956 147.852 129.739 146.938 128.318 145.619Z" fill="#5222D0"/>
<path d="M114.388 179.046C115.842 179.892 117.532 180.095 119.155 179.554C119.764 179.351 119.493 178.369 118.885 178.572C117.532 179.012 116.146 178.877 114.895 178.166C114.32 177.862 113.813 178.742 114.388 179.046Z" fill="black"/>
<path opacity="0.14" d="M112.798 158.814C113.069 159.592 113.779 160.133 114.557 160.235C115.402 160.336 116.247 159.93 116.687 159.186C116.518 160.302 116.349 162.569 117.397 165.073C118.817 168.524 121.59 170.148 122.807 170.858C125.783 172.55 128.623 172.652 130.009 172.618C129.705 173.159 129.029 174.039 127.879 174.614C125.14 175.967 122.266 174.14 122.097 174.039C121.353 175.663 120.575 176.847 119.967 177.693C119.121 178.843 118.783 179.114 118.547 179.215C116.924 180.163 114.793 179.181 114.185 178.877C113.509 179.52 112.528 180.332 111.243 181.11C110.161 181.753 107.253 183.444 103.23 183.478C103.23 183.478 97.8196 183.478 93.4577 179.824C91.7671 178.403 91.0571 177.151 90.8542 176.745C90.6851 176.407 89.9751 175.054 89.806 172.854C89.4341 168.625 91.2599 165.039 92.2743 163.415C94.1002 160.505 96.4333 158.78 97.921 157.866C97.8196 158.238 96.5685 163.483 99.3411 166.02C102.824 169.167 110.702 166.189 112.427 161.656C112.866 160.539 112.866 159.49 112.798 158.814Z" fill="#3D3D3D"/>
<path opacity="0.07" d="M116.924 168.185C116.653 168.321 117.296 170.08 117.904 171.332C118.885 173.396 120.102 174.918 120.981 175.832C121.218 175.223 121.454 174.614 121.691 174.039C122.469 174.377 123.923 174.851 125.749 174.749C126.966 174.681 127.946 174.377 128.623 174.106C123.416 174.005 120.778 172.415 119.324 170.96C118.141 169.776 117.194 168.05 116.924 168.185Z" fill="#3D3D3D"/>
<path d="M200.914 136.957C200.441 136.687 200.339 136.044 200.271 135.604C200.035 134.014 201.218 132.728 201.421 132.458C202.672 131.07 203.382 131.781 204.566 130.495C205.445 129.548 205.377 128.77 206.73 127.518C207.609 126.672 207.913 126.773 207.981 126.807C208.454 127.01 208.048 128.059 208.522 129.683C208.927 131.036 209.435 131.037 209.604 132.187C209.638 132.491 209.874 134.014 208.961 134.894C208.556 135.3 208.015 135.401 206.899 135.604C205.614 135.841 205.445 135.706 204.566 135.875C202.435 136.281 201.692 137.397 200.914 136.957Z" fill="white"/>
<path d="M200.812 135.536C195.707 140.814 190.601 146.126 185.495 151.404C184.853 152.149 184.819 153.265 185.394 154.009C186.036 154.821 187.186 155.024 188.099 154.449C193.34 148.359 198.547 142.235 203.788 136.145C202.807 135.942 201.827 135.739 200.812 135.536Z" fill="black"/>
<path d="M182.351 164.43C182.52 164.87 181.979 165.783 179.037 167.746C178.192 167.576 177.482 167.103 177.347 166.494C177.144 165.479 178.598 164.633 179.24 164.329C180.423 163.787 182.114 163.821 182.351 164.43Z" fill="black"/>
<path d="M122.875 178.369C121.049 178.775 117.837 179.554 116.349 182.193C115.368 183.918 115.571 185.745 115.639 186.388C115.977 189.264 117.972 191.666 120.237 192.715C123.01 193.966 125.884 193.019 127.338 192.512C139.984 188.147 146.307 185.982 148.876 184.696C156.315 180.941 164.599 176.712 174.033 168.862C176.467 166.832 178.395 165.039 179.747 163.753C180.288 164.058 181.505 164.633 182.959 164.464C184.143 164.329 184.921 163.787 186.07 162.975C186.882 162.4 187.828 161.723 188.674 160.471C189.485 159.287 189.756 158.239 189.992 157.359C190.229 156.378 190.703 154.618 190.094 154.246C189.654 153.975 189.181 154.72 187.997 154.754C187.896 154.754 186.442 154.754 185.8 153.84C185.191 152.994 185.833 152.216 185.292 151.539C184.718 150.795 183.23 150.863 182.283 151.134C180.085 151.81 179.037 154.246 178.361 155.532C176.501 159.22 173.83 161.216 168.86 164.971C165.005 167.881 161.556 169.234 156.924 171.095C155.098 171.84 151.615 173.193 147.017 174.309C139.274 176.136 133.154 176.069 122.875 178.369Z" fill="white"/>
<path d="M117.329 181.854C120.812 178.369 126.29 178.234 130.888 177.591C136.264 176.847 141.641 176.035 146.915 174.783C156.281 172.618 165.58 168.998 172.917 162.637C174.844 160.945 176.636 159.084 178.124 156.953C179.477 155.024 182.046 149.34 185.225 152.047C185.732 152.453 186.442 151.742 185.935 151.336C184.718 150.288 183.095 150.22 181.675 150.931C179.68 151.946 178.767 154.178 177.583 155.972C174.506 160.641 169.84 164.227 165.039 166.967C154.929 172.719 143.297 174.783 131.936 176.441C126.797 177.185 120.575 177.253 116.653 181.144C116.146 181.584 116.856 182.294 117.329 181.854Z" fill="black"/>
<path d="M116.585 180.636C114.32 184.493 114.76 189.602 118.547 192.342C123.078 195.624 129.434 192.512 134.067 190.921C144.988 187.132 155.402 181.989 165.073 175.629C170.449 172.11 175.555 168.186 180.39 163.956C180.897 163.517 180.153 162.806 179.68 163.246C164.498 176.509 146.07 186.997 126.526 192.241C123.179 193.155 119.696 192.951 117.532 189.906C115.639 187.301 115.875 183.85 117.465 181.178C117.803 180.602 116.924 180.095 116.585 180.636Z" fill="black"/>
<path d="M189.451 153.536C189.621 154.314 189.79 155.16 189.722 155.972C189.587 157.088 189.046 157.46 188.64 158.374C188.471 158.78 188.437 159.186 188.302 159.592C188.031 160.505 187.659 160.708 187.017 161.25C186.307 161.825 185.901 162.501 185.293 163.144C184.312 164.193 183.737 163.855 182.52 163.719C181.641 163.618 180.728 163.483 179.849 163.381C179.206 163.313 179.206 164.328 179.849 164.396C181.303 164.599 183.771 165.445 185.123 164.734C185.664 164.464 185.969 163.956 186.307 163.483C186.746 162.874 187.152 162.366 187.828 162.028C188.167 161.859 188.336 161.994 188.64 161.723C189.012 161.419 189.113 160.911 189.215 160.471C189.451 159.389 189.79 158.678 190.263 157.731C190.973 156.344 190.736 154.787 190.432 153.333C190.297 152.622 189.316 152.893 189.451 153.536Z" fill="black"/>
<path d="M185.293 151.641C184.515 152.791 185.123 154.449 186.341 154.991C187.761 155.633 189.35 154.686 190.06 153.434C190.398 152.859 189.519 152.352 189.181 152.927C188.741 153.705 187.828 154.415 186.915 154.111C186.104 153.874 185.664 152.859 186.172 152.149C186.51 151.607 185.631 151.1 185.293 151.641Z" fill="black"/>
<path d="M185.935 152.115C191.041 146.803 196.079 141.423 201.049 135.976C201.489 135.502 200.779 134.758 200.339 135.266C195.369 140.713 190.331 146.092 185.225 151.404C184.752 151.844 185.462 152.588 185.935 152.115Z" fill="black"/>
<path d="M190.026 153.197C194.895 147.581 199.73 141.965 204.599 136.348C205.039 135.841 204.295 135.13 203.889 135.638C199.02 141.254 194.185 146.871 189.316 152.487C188.877 152.994 189.587 153.705 190.026 153.197Z" fill="black"/>
<path d="M181.945 164.295C181.303 164.937 180.66 165.614 180.018 166.257C179.815 166.46 179.511 166.9 179.274 167.035C178.429 167.475 177.989 166.629 177.685 166.088C177.347 165.513 176.467 166.02 176.806 166.595C177.313 167.441 178.158 168.524 179.274 168.185C179.883 168.016 180.322 167.407 180.728 166.967C181.37 166.325 182.013 165.648 182.655 165.005C183.129 164.532 182.385 163.821 181.945 164.295Z" fill="black"/>
<path d="M204.329 136.213C206.358 137.127 208.826 136.585 209.874 134.487C210.381 133.472 210.415 132.254 210.043 131.206C209.401 129.514 207.068 128.025 209.13 126.266C209.638 125.826 208.894 125.116 208.42 125.556C207.237 126.571 206.899 128.127 207.676 129.48C208.42 130.8 209.604 131.544 209.232 133.269C208.826 135.299 206.662 136.145 204.87 135.333C204.228 135.063 203.72 135.942 204.329 136.213Z" fill="black"/>
<path d="M200.981 135.096C201.184 133.608 201.725 132.627 203.044 131.882C203.72 131.51 204.43 131.206 205.039 130.732C206.29 129.717 206.662 127.856 208.15 127.112C208.725 126.807 208.217 125.961 207.643 126.232C206.797 126.638 206.29 127.281 205.817 128.093C205.073 129.277 204.397 130.055 203.145 130.698C201.117 131.747 200.271 132.796 199.967 135.096C199.899 135.739 200.914 135.739 200.981 135.096Z" fill="black"/>
<path d="M200.812 136.078C201.759 135.706 202.74 135.841 203.551 136.45C204.058 136.856 204.566 135.976 204.058 135.57C203.044 134.792 201.692 134.623 200.508 135.096C199.933 135.333 200.204 136.315 200.812 136.078Z" fill="black"/>
<path d="M204.16 131.409C205.479 130.969 206.831 130.935 208.184 131.273C208.826 131.442 209.096 130.461 208.454 130.292C206.932 129.92 205.377 129.954 203.889 130.427C203.281 130.63 203.551 131.612 204.16 131.409Z" fill="#5222D0"/>
<path d="M203.585 131.409C206.053 130.36 206.797 127.484 209.097 126.198C208.894 125.928 208.691 125.657 208.488 125.386C206.73 126.976 208.285 129.142 208.725 130.901C208.961 130.698 209.232 130.529 209.468 130.326C208.184 129.785 206.899 129.548 205.512 129.649C205.648 129.92 205.817 130.157 205.952 130.427C206.425 129.514 207 128.702 207.643 127.89C207.372 127.721 207.068 127.552 206.797 127.382C206.527 128.093 206.189 128.973 206.324 129.717C206.358 129.92 206.594 130.089 206.797 130.089C207.609 130.055 207.812 128.939 208.082 128.33C207.778 128.228 207.44 128.161 207.135 128.059C207.203 128.567 207.372 129.176 207.304 129.717C207.372 129.582 207.473 129.412 207.541 129.277C207.304 129.412 206.392 129.311 205.986 129.412C205.31 129.548 204.735 129.785 204.126 130.123C203.687 130.36 203.889 131.104 204.397 131.07C205.242 131.003 206.087 130.901 206.933 130.834C207.575 130.766 207.575 129.751 206.933 129.819C206.087 129.886 205.242 129.988 204.397 130.055C204.498 130.36 204.566 130.698 204.667 131.003C205.377 130.631 206.155 130.36 206.966 130.326C207.271 130.292 207.744 130.427 208.015 130.224C208.623 129.785 208.217 128.736 208.15 128.093C208.082 127.653 207.44 127.315 207.203 127.822C207.169 127.924 206.628 129.074 206.797 129.074C206.966 129.209 207.135 129.311 207.271 129.446C207.169 128.939 207.575 128.093 207.744 127.653C207.913 127.179 207.203 126.773 206.899 127.146C206.189 127.991 205.58 128.905 205.039 129.886C204.87 130.191 205.073 130.698 205.479 130.664C206.696 130.563 207.812 130.732 208.927 131.206C209.333 131.375 209.807 131.104 209.671 130.63C209.333 129.277 207.845 127.281 209.164 126.097C209.604 125.691 209.029 125.014 208.555 125.285C206.29 126.57 205.479 129.446 203.044 130.495C202.469 130.8 203.01 131.645 203.585 131.409Z" fill="#5222D0"/>
<path d="M208.522 125.149C207.102 126.029 206.222 127.349 205.174 128.601C204.532 129.379 203.822 129.852 203.112 130.529C202.841 130.766 202.605 130.901 202.605 131.273C202.605 131.341 202.638 131.443 202.74 131.476C204.87 132.39 207.237 129.954 209.333 131.679C209.468 131.781 209.637 131.781 209.739 131.612C210.348 130.732 208.995 129.886 208.488 129.345C208.319 129.176 207.981 129.345 208.048 129.582C208.15 129.92 208.116 129.886 208.353 130.157C208.556 130.428 208.995 130.157 208.792 129.886C208.725 129.717 208.623 129.582 208.555 129.413C208.42 129.48 208.285 129.582 208.116 129.649C208.353 129.886 209.604 130.867 209.299 131.307C209.435 131.273 209.57 131.273 209.705 131.239C208.995 130.664 208.184 130.394 207.237 130.428C206.696 130.461 206.155 130.563 205.614 130.664C205.174 130.766 204.768 130.867 204.329 130.901C203.856 130.969 203.281 131.24 203.653 130.597C203.856 130.258 204.464 129.954 204.735 129.683C205.14 129.277 205.512 128.837 205.85 128.364C206.73 127.281 207.541 126.198 208.725 125.454C209.063 125.42 208.792 124.98 208.522 125.149Z" fill="#5222D0"/>
<path d="M203.315 131.646C204.329 131.781 205.31 131.443 206.324 131.307C207.169 131.206 207.845 131.341 208.623 131.612C209.063 131.781 209.333 131.882 209.807 131.815C209.976 131.781 210.077 131.679 210.043 131.51C209.976 131.07 209.874 130.834 209.638 130.461C209.468 130.191 209.029 130.461 209.198 130.732C209.435 131.003 209.536 131.307 209.57 131.646C209.637 131.544 209.739 131.443 209.807 131.341C208.86 131.443 207.913 130.766 206.933 130.766C205.783 130.8 204.599 131.341 203.45 131.172C203.112 131.104 202.976 131.578 203.315 131.646Z" fill="#5222D0"/>
<path d="M208.116 126.029C208.285 125.792 208.488 125.589 208.758 125.454C208.826 125.42 209.063 125.251 209.13 125.319C209.232 125.386 208.961 125.589 208.894 125.623C208.488 125.961 208.217 126.401 208.014 126.875C207.879 127.179 208.386 127.315 208.488 127.01C208.691 126.537 209.029 126.232 209.401 125.86C209.637 125.657 209.773 125.352 209.536 125.048C209.029 124.371 208.048 125.251 207.71 125.691C207.541 125.928 207.913 126.3 208.116 126.029Z" fill="#5222D0"/>
<path d="M209.266 124.913C208.691 125.285 208.285 125.86 208.116 126.537C208.048 126.841 208.522 126.976 208.589 126.672C208.725 126.131 209.029 125.691 209.502 125.353C209.807 125.15 209.536 124.71 209.266 124.913Z" fill="#5222D0"/>
<path d="M116.991 181.786C118.073 179.655 121.995 178.843 124.159 178.572C124.802 178.471 124.531 177.49 123.889 177.591C121.454 177.93 117.363 178.877 116.112 181.279C115.842 181.854 116.721 182.395 116.991 181.786Z" fill="black"/>
<path opacity="0.13" d="M115.842 186.692C118.885 186.489 123.314 186.083 128.555 185.068C143.568 182.192 154.253 176.61 160.778 173.159C166.188 170.283 173.357 165.986 181.235 159.795C184.684 158.678 186.814 157.156 188.167 155.938C189.08 155.126 189.756 154.314 190.094 154.483C190.635 154.787 189.79 157.596 188.64 159.626C187.626 161.453 186.442 162.501 186.07 162.84C185.123 163.652 184.582 164.227 183.67 164.464C181.979 164.904 180.457 163.99 179.95 163.652C178.699 164.633 176.873 166.088 174.608 167.813C165.478 174.749 160.88 178.234 154.827 181.55C149.248 184.595 144.582 186.422 135.487 189.94C134.641 190.279 133.526 190.651 131.294 191.395C125.343 193.391 123.923 193.628 122.266 193.324C121.59 193.188 119.933 192.884 118.411 191.564C116.416 189.771 115.977 187.47 115.842 186.692Z" fill="#3D3D3D"/>
<path opacity="0.19" d="M142.655 186.929C142.587 186.828 143.162 186.354 155.842 178.302C172.545 167.678 171.362 168.625 173.12 167.34C180.423 161.926 183.67 158.272 185.36 159.355C186.51 160.099 186.713 162.806 185.462 163.99C184.38 165.039 182.114 164.938 180.085 163.449C175.994 167.103 169.908 172.076 161.894 177.117C152.427 182.971 142.892 187.335 142.655 186.929Z" fill="#3D3D3D"/>
</svg>
