<svg width="97" height="58" viewBox="0 0 97 58" fill="none" xmlns="http://www.w3.org/2000/svg">
<g clip-path="url(#clip0_45_445)">
<path fill-rule="evenodd" clip-rule="evenodd" d="M97 0H0V58H97V0ZM89.8678 7.25H7.13236V50.75H89.8678V7.25Z" fill="white"/>
<path fill-rule="evenodd" clip-rule="evenodd" d="M27.742 22.113V36.613L22.1814 22.113L16.2938 50.7505H7.13513L17.9292 7.25049H23.1627L27.742 22.113ZM28.0691 22.113V36.613H28.0692L33.6298 22.113L39.5174 50.7505H48.6761L37.8819 7.25049H32.6485L28.0692 22.113H28.0691Z" fill="white"/>
<path d="M27.742 36.613L28.0183 36.7586L28.0396 36.6885V36.613H27.742ZM27.742 22.113H28.0396L27.4658 21.9675L27.742 22.113ZM27.742 36.613L27.4764 36.7898L27.7736 37.5644L28.0183 36.7586L27.742 36.613ZM22.1814 22.113L22.447 21.9363L22.0971 21.0239L21.8942 22.0106L22.1814 22.113ZM16.2938 50.7505V51.1424H16.5214L16.5809 50.853L16.2938 50.7505ZM7.13511 50.7505L6.85226 50.6288L6.72485 51.1424H7.13511V50.7505ZM17.9292 7.25053V6.85864H17.7134L17.6464 7.1288L17.9292 7.25053ZM23.1627 7.25053L23.4384 7.10318L23.3631 6.85864H23.1627V7.25053ZM27.742 22.113L27.4663 22.2604L27.744 23.1617L28.0183 22.2586L27.742 22.113ZM28.0691 36.613H27.7715V36.6905L27.794 36.7622L28.0691 36.613ZM28.0691 22.113L28.3442 21.9638L27.7715 22.113H28.0691ZM28.0691 36.613L27.794 36.7622L28.0415 37.5542L28.3347 36.7898L28.0691 36.613ZM33.6297 22.113L33.9169 22.0106L33.7141 21.0239L33.3641 21.9363L33.6297 22.113ZM39.5174 50.7505L39.2302 50.853L39.2897 51.1424H39.5174V50.7505ZM48.676 50.7505V51.1424H49.0863L48.9588 50.6288L48.676 50.7505ZM37.8819 7.25053L38.1648 7.1288L38.0977 6.85864H37.8819V7.25053ZM32.6484 7.25053V6.85864H32.4481L32.3727 7.10318L32.6484 7.25053ZM28.0691 22.113L27.794 22.2622L28.0711 23.1487L28.3448 22.2604L28.0691 22.113ZM28.0396 36.613V22.113H27.4445V36.613H28.0396ZM28.0183 36.7586H28.0183L27.4658 36.4675L28.0183 36.7586ZM21.9158 22.2898L27.4764 36.7898L28.0076 36.4363L22.447 21.9363L21.9158 22.2898ZM16.5809 50.853L22.4686 22.2155L21.8942 22.0106L16.0065 50.6481L16.5809 50.853ZM7.13511 51.1424H16.2938V50.3586H7.13511V51.1424ZM17.6464 7.1288L6.85226 50.6288L7.41796 50.8723L18.212 7.37228L17.6464 7.1288ZM23.1627 6.85864H17.9292V7.64243H23.1627V6.85864ZM28.0177 21.9657L23.4384 7.10318L22.887 7.3979L27.4663 22.2604L28.0177 21.9657ZM27.4658 21.9675L28.0183 22.2586H28.0183L27.4658 21.9675ZM28.3666 36.613V22.113H27.7715V36.613H28.3666ZM28.3442 36.4639V36.4638L27.794 36.7622V36.7622L28.3442 36.4639ZM33.3641 21.9363L27.8035 36.4363L28.3347 36.7898L33.8953 22.2898L33.3641 21.9363ZM39.8046 50.6481L33.9169 22.0106L33.3425 22.2155L39.2302 50.853L39.8046 50.6481ZM48.676 50.3586H39.5174V51.1424H48.676V50.3586ZM37.5991 7.37228L48.3932 50.8723L48.9588 50.6288L38.1648 7.1288L37.5991 7.37228ZM32.6484 7.64243H37.8819V6.85864H32.6484V7.64243ZM28.3448 22.2604L32.9241 7.3979L32.3727 7.10318L27.7934 21.9657L28.3448 22.2604ZM27.794 22.2622V22.2622L28.3442 21.9639V21.9638L27.794 22.2622Z" fill="white"/>
<path fill-rule="evenodd" clip-rule="evenodd" d="M73.0279 50.7505H69.0884L57.2708 7.25049H67.2978L73.5647 35.0924L79.8316 7.25049H89.8589L78.041 50.7505H74.102H73.0279Z" fill="white"/>
<path d="M48.9779 1.93226L42.9059 4.77026L56.8802 56.2035L62.9522 53.3655L48.9779 1.93226Z" fill="white"/>
<path d="M27.8127 22.1108C27.8127 22.2795 27.8127 22.4481 27.8127 22.6168C27.8127 22.6811 27.8218 22.7422 27.8218 22.8064C27.8218 22.8712 27.8218 22.9359 27.8218 23.0005C27.8218 23.1501 27.8127 23.2976 27.8127 23.4472C27.8127 23.5653 27.8127 23.6835 27.8127 23.8016C27.8127 23.853 27.8081 23.9034 27.8081 23.9548C27.8081 24.002 27.8172 24.0466 27.8172 24.0945C27.8172 24.1557 27.8258 24.1984 27.841 24.2543C27.845 24.2688 27.8627 24.312 27.8572 24.3275C27.8509 24.345 27.8263 24.3573 27.8182 24.3754C27.8118 24.39 27.8036 24.3891 27.8036 24.4114C27.8036 25.2589 27.799 25.7567 27.799 26.6674C27.799 27.773 27.799 29.0804 27.799 30.3066C27.799 30.8782 27.7899 31.3227 27.7899 31.8822" stroke="white"/>
<path d="M27.8182 35.2705C27.8182 35.287 27.8174 35.2981 27.8127 35.3132C27.8047 35.3391 27.8125 35.3803 27.8146 35.4074C27.817 35.439 27.8159 35.4712 27.8159 35.5028C27.8159 35.5148 27.8148 35.5288 27.8188 35.5399C27.8264 35.5611 27.8143 35.5953 27.8126 35.6173C27.8103 35.648 27.8113 35.6792 27.8113 35.71C27.8113 35.7391 27.8113 35.7681 27.8113 35.7971C27.8113 35.8173 27.8025 35.8395 27.7986 35.8592C27.7948 35.8786 27.7973 35.8938 27.7973 35.9134C27.7973 35.9334 27.802 35.9497 27.802 35.9703C27.802 35.9885 27.8043 36.0037 27.8043 36.0213C27.8043 36.0553 27.8066 36.0882 27.8066 36.1216C27.8066 36.1919 27.809 36.2613 27.809 36.3314C27.809 36.3621 27.8066 36.3904 27.8066 36.4217C27.8066 36.4369 27.8182 36.4453 27.8182 36.46C27.8182 36.4684 27.838 36.4883 27.8322 36.4921" stroke="white" stroke-width="0.6" stroke-linecap="round"/>
<path d="M27.958 35.895C27.9534 35.8957 27.9555 35.8318 27.9555 35.8228C27.9555 35.8098 27.9531 35.8325 27.9531 35.8368" stroke="white" stroke-width="0.6" stroke-linecap="round"/>
<path d="M27.8641 35.4189C27.8712 35.2034 27.8835 34.813 27.8927 34.5827C27.8958 34.5053 27.9001 34.3881 27.9088 34.3021C27.9137 34.2535 27.921 34.2068 27.9229 34.1576C27.9248 34.1078 27.9254 34.0542 27.9096 34.0078C27.907 33.9998 27.8944 33.9509 27.8848 33.962C27.8589 33.9917 27.8519 34.0557 27.8122 34.0644C27.7674 34.0743 27.7325 34.1298 27.705 34.1737C27.642 34.2742 27.6406 34.3996 27.6353 34.5244C27.6325 34.5899 27.6299 34.6555 27.6299 34.7212C27.6299 34.7697 27.6295 34.8187 27.6436 34.8643C27.6526 34.8936 27.6649 34.9221 27.6787 34.9479C27.6833 34.9564 27.6886 34.9629 27.6891 34.9735C27.69 34.9918 27.6925 35.0104 27.6995 35.0264C27.7019 35.0322 27.7006 35.0133 27.7011 35.0068C27.7051 34.9531 27.7161 34.901 27.7238 34.8482C27.7509 34.663 27.7406 34.471 27.7474 34.2836C27.7517 34.1661 27.7592 34.049 27.7619 33.9314C27.7639 33.8441 27.7629 33.7565 27.7673 33.6692C27.7677 33.6605 27.7731 33.5831 27.7758 33.6308C27.7808 33.7183 27.7646 33.812 27.7495 33.8963C27.72 34.0607 27.6705 34.221 27.6589 34.3904C27.6545 34.454 27.6596 34.5142 27.6787 34.5729C27.6899 34.6071 27.7062 34.6386 27.7156 34.6738C27.7238 34.7048 27.7197 34.7484 27.7205 34.7803C27.7229 34.8741 27.6949 34.9625 27.6781 35.0523C27.6762 35.0622 27.6548 35.1828 27.6727 35.1881C27.697 35.1951 27.7209 35.159 27.735 35.139C27.7886 35.0626 27.845 34.9844 27.8882 34.8973C27.9188 34.8353 27.945 34.7719 27.9651 34.7027C27.9872 34.6265 28.0026 34.5464 28.0329 34.4748C28.0836 34.3554 28.1501 34.252 28.1807 34.119C28.2031 34.022 28.2206 33.9203 28.1993 33.8203C28.1872 33.7634 28.1595 33.7214 28.1362 33.6728C28.1146 33.6279 28.0913 33.5844 28.0704 33.5387C28.0456 33.4843 28.0166 33.4374 27.9891 33.3858C27.969 33.348 27.9438 33.3172 27.9123 33.2959C27.8619 33.2619 27.8042 33.2884 27.7537 33.2545C27.6827 33.2069 27.6836 33.0109 27.6955 32.9217C27.7083 32.8254 27.7881 32.7267 27.8641 32.7553" stroke="white" stroke-width="0.6" stroke-linecap="round"/>
<path d="M27.5922 31.6416C27.6042 31.6447 27.611 31.6679 27.615 31.6808C27.6465 31.7847 27.6628 31.8986 27.6835 32.0068C27.7192 32.1946 27.768 32.3835 27.78 32.5774C27.7846 32.6499 27.7858 32.7398 27.826 32.7968C27.8451 32.8239 27.851 32.755 27.852 32.7447C27.8657 32.6118 27.8584 32.4767 27.8736 32.3441C27.896 32.1489 27.9372 31.9598 27.9481 31.762C27.9496 31.7344 27.9498 31.7068 27.9498 31.6791C27.9498 31.6656 27.9498 31.6827 27.9498 31.6857C27.9461 31.8912 27.9193 32.0944 27.8982 32.2975C27.8833 32.4404 27.8719 32.5836 27.8686 32.7278C27.8669 32.8056 27.8682 32.8834 27.8657 32.9611C27.8656 32.9653 27.8526 33.0905 27.8691 33.0505C27.9117 32.9467 27.9307 32.8283 27.963 32.7188C27.9963 32.6059 28.0337 32.4949 28.0751 32.3867C28.1219 32.2642 28.0298 32.6544 28.0023 32.7867C27.9758 32.9138 27.9542 33.0421 27.9505 33.1742C27.9491 33.2282 27.9489 33.2863 27.9601 33.3388C27.9658 33.3656 27.9683 33.3716 27.9683 33.3437" stroke="white" stroke-width="0.6" stroke-linecap="round"/>
<path d="M27.7694 36.2317V36.2373" stroke="white" stroke-width="0.6" stroke-linecap="round"/>
</g>
<defs>
<clipPath id="clip0_45_445">
<rect width="97" height="58" fill="white"/>
</clipPath>
</defs>
</svg>
