<svg width="482" height="362" viewBox="0 0 482 362" fill="none" xmlns="http://www.w3.org/2000/svg">
<path d="M23.7084 283.657C44.6453 274.305 68.4139 275.512 90.375 280.158C113.601 285.075 135.954 293.642 159.391 297.624C172.375 299.826 185.63 300.611 198.704 298.559C199.277 298.469 199.036 297.594 198.464 297.685C174.183 301.455 149.902 295.422 126.676 288.846C104.443 282.541 81.94 275.542 58.563 275.723C46.4527 275.814 34.3726 277.925 23.2565 282.873C22.7142 283.114 23.1661 283.898 23.7084 283.657Z" fill="#E8E8E8"/>
<path d="M140.955 291.44C169.333 292.013 196.807 284.14 224.552 279.464C232.655 278.107 240.819 277.021 249.043 276.478C249.616 276.447 249.616 275.542 249.043 275.573C220.635 277.443 193.252 285.95 165.055 289.268C157.072 290.203 149.028 290.716 140.985 290.565C140.352 290.535 140.352 291.44 140.955 291.44Z" fill="#E8E8E8"/>
<path d="M273.595 281.304C283.687 279.132 294.141 278.77 304.353 280.339C313.752 281.787 322.759 284.894 331.646 288.212C340.413 291.47 349.119 294.94 358.216 297.262C367.615 299.646 377.165 300.249 386.865 300.249C398.313 300.249 409.851 299.796 421.087 302.33C421.66 302.451 421.901 301.576 421.328 301.456C401.476 296.991 380.901 301.516 361.048 296.991C342.521 292.768 325.591 283.265 306.853 279.856C295.767 277.835 284.38 278.076 273.384 280.429C272.782 280.55 273.023 281.425 273.595 281.304Z" fill="#E8E8E8"/>
<path d="M109.052 165.313C106.462 164.529 101.371 162.387 103.268 158.767C104.624 156.173 108.661 155.962 111.161 156.052C119.596 156.293 128.031 157.018 136.466 156.324C144.389 155.66 151.95 153.398 159.662 151.588C167.495 149.717 175.779 148.36 183.672 150.652C187.136 151.648 190.36 153.307 193.764 154.453C195.391 154.996 197.078 155.419 198.795 155.6C200.843 155.811 202.892 155.509 204.91 155.419C206.989 155.328 209.128 155.389 210.905 156.625C212.532 157.742 213.887 159.853 212.833 161.814C211.327 164.65 206.929 163.865 204.398 163.322C196.897 161.754 189.336 161.271 181.714 162.297C177.677 162.84 173.731 163.835 169.875 165.072C165.718 166.399 161.681 167.576 157.252 166.972C153.125 166.399 149.179 165.072 144.992 164.921C140.804 164.74 136.647 165.283 132.52 165.826C124.507 166.912 115.951 168.3 108.45 164.408C107.938 164.137 107.486 164.921 107.998 165.193C115.017 168.843 122.94 167.998 130.532 167.003C134.508 166.46 138.515 165.886 142.551 165.796C146.98 165.705 151.107 166.731 155.415 167.576C159.813 168.42 163.79 167.968 168.067 166.641C172.315 165.313 176.502 164.016 180.901 163.353C185.449 162.659 190.059 162.478 194.638 162.81C198.704 163.081 202.591 164.167 206.597 164.62C208.977 164.891 212.02 164.801 213.496 162.568C215.183 160.004 213.375 157.017 211.056 155.6C207.531 153.458 203.163 154.966 199.337 154.725C195.12 154.453 191.233 152.493 187.347 150.984C179.274 147.847 171.02 148.239 162.675 150.019C153.848 151.889 145.263 154.755 136.225 155.479C131.014 155.901 125.742 155.811 120.53 155.6C117.819 155.479 115.077 155.358 112.366 155.238C110.679 155.177 109.022 155.147 107.365 155.479C104.805 155.992 101.883 157.5 102.063 160.547C102.274 163.896 106.13 165.434 108.842 166.248C109.354 166.369 109.595 165.494 109.052 165.313Z" fill="#E8E8E8"/>
<path d="M331.375 54.0285C328.784 53.6665 324.537 52.7313 323.783 49.775C322.699 45.6723 328.543 44.3751 331.375 43.8623C339.659 42.4445 348.155 43.7416 356.499 43.7416C373.038 43.7115 389.335 40.5741 405.784 39.3976C414.008 38.7943 422.292 38.7038 430.486 39.7596C432.354 40.001 434.312 40.182 436.12 40.725C436.873 40.9361 437.716 41.2981 438.289 41.8411C439.674 43.1986 438.319 44.4355 437.053 45.0991C433.8 46.8186 430.095 47.5125 426.449 47.6633C419.159 47.9951 411.899 46.4868 404.609 46.7583C401.205 46.879 397.861 47.4521 394.637 48.6286C390.872 50.0163 387.377 51.9771 383.582 53.2743C379.183 54.7826 374.544 55.5368 369.875 55.5368C365.145 55.5368 360.476 54.8128 355.806 54.2698C346.347 53.1838 336.858 53.214 327.429 54.481C326.856 54.5715 326.856 55.4765 327.429 55.386C336.647 54.1491 345.986 54.0586 355.234 55.1145C359.813 55.6273 364.392 56.3513 369.031 56.4418C373.309 56.5323 377.617 55.9893 381.744 54.8128C385.961 53.6061 389.817 51.5246 393.884 49.8956C397.831 48.327 401.898 47.6331 406.115 47.6331C413.887 47.5728 421.69 49.3225 429.462 48.2968C431.36 48.0555 433.197 47.6331 435.005 46.9695C436.391 46.4566 438.258 45.8231 439.253 44.6466C441.12 42.3841 438.409 40.3931 436.391 39.82C432.414 38.6435 427.926 38.4323 423.798 38.191C419.31 37.9195 414.821 37.9496 410.333 38.1608C392.167 39.0356 374.213 42.8366 355.987 42.7763C350.806 42.7763 345.624 42.2936 340.443 42.2635C336.044 42.2333 331.013 42.3238 326.886 44.0433C324.296 45.1293 321.765 47.6633 323.211 50.6498C324.567 53.4553 328.393 54.4206 331.164 54.8128C331.706 54.9938 331.947 54.119 331.375 54.0285Z" fill="#E8E8E8"/>
<path d="M40.036 95.206C65.1603 84.2856 92.6945 94.482 115.861 105.432C127.67 111.013 139.298 116.986 151.619 121.391C163.699 125.704 176.261 128.691 189.004 130.41C214.58 133.88 240.759 132.341 265.913 126.7C292.273 120.787 317.246 110.048 343.395 103.321C370.598 96.3221 399.036 94.8138 426.781 99.3086C430.155 99.8516 433.499 100.485 436.843 101.209C437.415 101.33 437.656 100.455 437.084 100.334C410.152 94.6026 382.166 94.3311 355.174 99.7008C328.182 105.07 302.786 116.051 276.306 123.201C250.61 130.139 223.768 132.944 197.228 130.441C184.034 129.204 170.959 126.64 158.307 122.658C145.233 118.555 132.972 112.582 120.651 106.669C98.3882 95.9601 73.2639 85.1001 48.0794 91.4653C45.1573 92.1893 42.3557 93.1848 39.5842 94.3915C39.072 94.663 39.5239 95.4473 40.036 95.206Z" fill="#E8E8E8"/>
<path d="M143.124 84.4063C172.556 100.847 207.591 102.084 240.247 97.4986C277.21 92.31 312.818 80.0925 349.842 75.3261C370.447 72.6715 391.474 72.3396 411.869 76.8646C412.441 76.9853 412.682 76.1105 412.11 75.9898C376.05 68.0258 339.057 75.0546 303.75 83.2901C268.956 91.405 233.77 100.877 197.71 98.5545C178.882 97.3478 160.144 92.853 143.576 83.622C143.094 83.3203 142.642 84.1046 143.124 84.4063Z" fill="#E8E8E8"/>
<path d="M55.2492 28.0851C80.5542 22.0518 107.546 24.435 131.405 34.8425C143.124 39.9406 154.119 46.5773 165.627 52.0978C177.225 57.6485 189.336 61.4796 202.109 63.1991C216.719 65.16 231.511 64.8281 246.151 63.8628C246.724 63.8326 246.724 62.9276 246.151 62.9578C232.926 63.8326 219.581 64.1946 206.386 62.807C193.011 61.3891 180.238 57.8898 168.037 52.2486C156.439 46.8488 145.474 40.2121 133.815 34.9631C122.368 29.7141 110.227 26.245 97.7254 24.7668C83.4763 23.0473 68.9561 23.892 55.0082 27.2103C54.4358 27.331 54.6768 28.2058 55.2492 28.0851Z" fill="#E8E8E8"/>
<path d="M311.914 210.925C309.263 210.382 304.925 209.025 304.714 205.737C304.594 203.716 306.281 202.237 308.058 201.694C310.197 201.001 312.457 201.634 314.535 202.237C318.331 203.354 322.157 204.259 326.133 204.409C329.839 204.56 333.514 204.017 337.099 203.052C340.955 202.026 344.72 200.639 348.546 199.553C352.583 198.406 356.71 197.803 360.928 197.743C368.971 197.622 376.924 199.07 384.937 199.402C388.944 199.553 392.89 199.341 396.837 198.738C401.115 198.074 405.483 197.079 409.851 197.592C412.984 197.954 418.015 200.065 416.99 204.108C416.087 207.637 411.086 209.628 408.013 210.624C392.589 215.631 376.683 207.305 361.048 209.508C352.041 210.775 343.546 214.576 334.448 215.3C330.291 215.631 326.013 215.36 322.066 213.882C318.451 212.494 315.198 209.477 311.071 210.201C310.498 210.292 310.739 211.167 311.312 211.076C313.782 210.654 315.951 211.83 318.03 212.977C319.717 213.882 321.404 214.726 323.241 215.269C327.007 216.416 331.044 216.567 334.96 216.205C343.576 215.39 351.679 211.981 360.205 210.594C369.604 209.085 378.852 211.257 388.131 212.494C395.692 213.49 403.796 213.731 410.905 210.563C413.616 209.357 417.231 207.426 417.924 204.228C418.557 201.363 416.358 199.07 413.978 197.893C410.453 196.174 406.206 196.506 402.47 197.019C397.921 197.622 393.493 198.587 388.884 198.648C379.906 198.798 371.05 196.958 362.103 196.928C357.825 196.928 353.577 197.411 349.42 198.497C345.293 199.583 341.286 201.091 337.189 202.207C332.128 203.565 327.037 203.987 321.856 203.173C319.265 202.75 316.825 202.026 314.324 201.302C312.457 200.759 310.438 200.307 308.48 200.729C305.558 201.363 302.907 204.138 304.202 207.245C305.377 210.081 308.962 211.318 311.734 211.891C312.216 211.921 312.457 211.046 311.914 210.925Z" fill="#E8E8E8"/>
<path d="M176.743 330.053C188.01 327.338 199.036 323.628 209.67 319.012C215.183 316.599 220.575 313.854 226.45 312.406C232.083 310.988 237.927 310.566 243.741 310.717C250.459 310.867 257.117 311.772 263.744 312.828C264.317 312.919 264.558 312.044 263.985 311.953C252.688 310.174 241.06 308.726 229.703 310.777C223.859 311.833 218.497 314.065 213.134 316.509C207.501 319.073 201.807 321.396 195.963 323.447C189.577 325.679 183.1 327.61 176.502 329.179C175.93 329.299 176.171 330.174 176.743 330.053Z" fill="#161616"/>
<path d="M247.929 311.049C252.99 310.928 257.991 310.204 262.871 308.786C267.841 307.368 272.752 305.377 278.024 305.89C280.705 306.131 283.326 306.886 285.916 307.549C288.628 308.243 291.309 308.937 294.02 309.631C299.232 310.958 304.413 312.285 309.625 313.613C310.197 313.764 310.438 312.889 309.866 312.738C304.473 311.35 299.081 309.993 293.689 308.605C288.748 307.338 283.687 305.649 278.626 305.045C273.656 304.472 268.956 306.011 264.257 307.459C258.924 309.088 253.502 310.023 247.959 310.174C247.356 310.144 247.356 311.049 247.929 311.049Z" fill="#161616"/>
<path d="M300.677 315.724C312.517 313.1 324.958 310.837 336.978 313.613C342.943 315 348.546 317.655 354.119 320.098C359.963 322.693 365.838 325.257 371.682 327.851C372.224 328.093 372.676 327.308 372.134 327.067C362.976 323.025 353.908 318.651 344.57 315.061C335.532 311.592 326.133 310.898 316.553 311.984C311.131 312.617 305.739 313.673 300.406 314.88C299.864 314.97 300.105 315.845 300.677 315.724Z" fill="#161616"/>
<path d="M193.643 340.521C196.746 339.978 199.879 339.435 202.982 338.892C206.085 338.349 209.218 337.655 212.351 337.324C215.243 337.022 218.195 337.535 221.057 337.806C224.22 338.138 227.414 338.44 230.577 338.772C231.149 338.832 231.149 337.927 230.577 337.867C227.414 337.535 224.22 337.233 221.057 336.901C217.984 336.6 214.882 336.087 211.779 336.479C205.633 337.233 199.518 338.591 193.402 339.647C192.83 339.767 193.071 340.642 193.643 340.521Z" fill="#161616"/>
<path d="M110.438 204.47C112.501 204.47 114.174 202.795 114.174 200.729C114.174 198.663 112.501 196.988 110.438 196.988C108.375 196.988 106.703 198.663 106.703 200.729C106.703 202.795 108.375 204.47 110.438 204.47Z" fill="#EC615B"/>
<path d="M120.53 212.675C121.612 212.675 122.488 211.797 122.488 210.714C122.488 209.631 121.612 208.753 120.53 208.753C119.449 208.753 118.572 209.631 118.572 210.714C118.572 211.797 119.449 212.675 120.53 212.675Z" fill="#EC615B"/>
<path d="M330.622 21.1469C333.167 21.1469 335.231 19.0805 335.231 16.5314C335.231 13.9823 333.167 11.9159 330.622 11.9159C328.076 11.9159 326.013 13.9823 326.013 16.5314C326.013 19.0805 328.076 21.1469 330.622 21.1469Z" fill="#EC615B"/>
<path d="M341.346 26.3657C342.794 26.3657 343.967 25.1907 343.967 23.7412C343.967 22.2917 342.794 21.1167 341.346 21.1167C339.899 21.1167 338.725 22.2917 338.725 23.7412C338.725 25.1907 339.899 26.3657 341.346 26.3657Z" fill="#EC615B"/>
<path d="M339.599 25.2797C342.012 25.2797 343.967 23.3213 343.967 20.9055C343.967 18.4898 342.012 16.5314 339.599 16.5314C337.187 16.5314 335.231 18.4898 335.231 20.9055C335.231 23.3213 337.187 25.2797 339.599 25.2797Z" fill="#5222D0"/>
<path d="M329.146 250.383C332.407 250.383 335.05 247.736 335.05 244.471C335.05 241.205 332.407 238.558 329.146 238.558C325.885 238.558 323.241 241.205 323.241 244.471C323.241 247.736 325.885 250.383 329.146 250.383Z" fill="#5222D0"/>
<path d="M114.776 24.073C116.856 24.073 118.542 22.3848 118.542 20.3022C118.542 18.2196 116.856 16.5314 114.776 16.5314C112.696 16.5314 111.01 18.2196 111.01 20.3022C111.01 22.3848 112.696 24.073 114.776 24.073Z" fill="#5222D0"/>
<path d="M174.364 281.938C176.909 281.938 178.973 279.871 178.973 277.322C178.973 274.773 176.909 272.707 174.364 272.707C171.818 272.707 169.754 274.773 169.754 277.322C169.754 279.871 171.818 281.938 174.364 281.938Z" fill="#5222D0"/>
<path d="M207.621 195.118C206.989 194.847 207.712 193.73 208.043 193.58C208.435 193.399 209.218 193.64 209.64 193.761C210.302 193.972 210.875 194.334 211.538 194.515C212.261 194.726 213.134 194.786 213.827 194.454C216.237 193.218 213.375 189.055 216.9 189.055C218.828 189.055 220.455 191.92 222.051 189.779C222.624 189.024 222.865 188.059 223.166 187.154C223.407 186.37 223.618 185.555 224.16 184.922C224.793 184.198 226.721 183.474 226.931 185.042C226.992 185.616 227.926 185.616 227.835 185.042C227.685 183.956 226.901 183.232 225.787 183.172C224.461 183.082 223.497 184.077 222.955 185.163C222.563 185.917 222.383 186.762 222.111 187.576C221.931 188.15 221.69 189.145 221.178 189.507C220.635 189.869 220.214 189.477 219.762 189.205C218.587 188.421 217.171 187.818 215.755 188.331C214.46 188.813 213.948 189.929 214.008 191.257C214.008 191.649 214.128 192.132 214.098 192.524C213.887 193.911 212.953 193.972 211.989 193.761C211.025 193.549 210.212 192.946 209.218 192.765C208.164 192.554 207.109 192.825 206.627 193.881C206.236 194.786 206.477 195.691 207.38 196.053C207.923 196.204 208.164 195.329 207.621 195.118Z" fill="#5222D0"/>
<path d="M223.166 196.566C222.714 195.872 222.714 194.997 223.196 194.304C223.889 193.308 224.853 193.459 225.907 193.61C226.691 193.73 227.655 193.881 228.227 193.187C228.619 192.735 228.558 192.192 228.709 191.679C228.92 190.925 229.402 190.261 230.035 189.809C231.36 188.843 233.228 188.693 234.553 189.718C234.885 189.96 235.276 189.809 235.337 189.386C235.698 186.46 238.59 184.288 241.482 184.801C242.054 184.892 242.295 184.017 241.723 183.926C238.198 183.323 234.855 185.857 234.433 189.386C234.704 189.266 234.945 189.175 235.216 189.055C233.981 188.089 232.414 187.848 230.938 188.361C229.251 188.934 228.468 190.05 227.835 191.619C227.534 192.403 227.173 192.886 226.299 192.765C225.817 192.705 225.365 192.584 224.883 192.554C224.19 192.524 223.588 192.705 223.046 193.157C221.901 194.123 221.6 195.782 222.413 197.049C222.714 197.531 223.497 197.079 223.166 196.566Z" fill="#5222D0"/>
<path d="M238.409 31.4639C237.897 30.9812 238.048 30.6795 238.831 30.5287C239.162 30.0762 239.524 29.9857 239.915 30.2874C240.458 30.408 240.819 30.8907 241.211 31.2527C241.693 31.675 242.114 32.1577 242.657 32.4895C243.41 32.9119 244.344 33.0929 245.127 32.7007C246.091 32.218 246.121 31.2527 246.452 30.3477C247.356 27.9344 250.429 27.693 251.875 29.7444C252.056 29.9857 252.508 30.0762 252.658 29.7444C253.231 28.3869 253.954 26.8484 255.249 26.0339C256.544 25.2194 258.713 25.3099 259.286 26.9992C259.466 27.5422 260.34 27.3009 260.159 26.7579C259.587 25.1289 257.93 24.4049 256.273 24.6764C253.984 25.0685 252.718 27.3612 251.875 29.2919C252.146 29.2919 252.387 29.2919 252.658 29.2919C251.604 27.7835 249.796 26.969 247.989 27.6327C247.236 27.9042 246.543 28.4472 246.091 29.141C245.85 29.503 245.699 29.8952 245.549 30.3175C245.458 30.589 245.458 30.9209 245.308 31.1622C244.916 31.8259 243.832 32.0974 243.139 31.7052C241.663 30.8907 240.217 28.2964 238.168 29.3522C237.023 29.9254 236.873 31.5544 237.957 32.2482C238.469 32.5499 238.921 31.7655 238.409 31.4639Z" fill="#EC615B"/>
<path d="M257.749 31.2225C257.538 28.2059 261.394 29.2014 262.931 29.9555C263.714 30.3477 264.678 31.0717 265.522 30.408C265.793 30.1969 265.913 29.8952 266.034 29.5935C266.486 28.598 266.787 27.874 267.992 27.512C269.86 26.969 271.667 28.1455 273.173 29.1109C273.655 29.4125 274.107 28.6282 273.625 28.3265C272.029 27.331 270.221 26.2149 268.263 26.5467C267.63 26.6372 266.998 26.8785 266.486 27.2707C265.702 27.8439 265.552 28.8394 264.768 29.322C264.015 29.7745 263.714 29.322 262.961 28.96C262.569 28.779 262.178 28.598 261.756 28.4472C260.973 28.1757 260.129 28.055 259.316 28.236C257.9 28.5679 256.755 29.7142 256.846 31.2225C256.876 31.7957 257.779 31.7957 257.749 31.2225Z" fill="#EC615B"/>
<path d="M344.931 156.173C342.943 151.799 350.474 149.868 350.986 154.453C351.167 155.992 350.324 157.621 348.757 158.043C347.01 158.496 345.142 157.319 344.66 155.63C344.509 155.057 343.636 155.298 343.786 155.871C344.389 158.043 346.769 159.491 348.998 158.918C351.197 158.345 352.282 155.901 351.77 153.79C351.227 151.557 348.908 150.471 346.769 151.045C344.268 151.708 343.094 154.333 344.148 156.686C344.389 157.168 345.172 156.686 344.931 156.173Z" fill="#EC615B"/>
<path d="M350.535 159.642C348.908 159.491 348.305 157.319 349.42 156.233C350.354 155.298 351.95 155.358 352.945 156.143C353.969 156.957 354.963 159.34 353.818 160.487C352.312 161.995 350.474 159.552 349.751 158.466C349.42 157.983 348.637 158.435 348.968 158.918C350.022 160.547 352.432 163.111 354.451 161.12C356.047 159.552 354.903 156.384 353.336 155.268C351.74 154.122 349.119 154.514 348.215 156.384C347.311 158.194 348.637 160.366 350.565 160.547C351.107 160.607 351.107 159.702 350.535 159.642Z" fill="#EC615B"/>
<path d="M76.8789 121.723C78.0839 121.662 78.7166 120.848 79.5601 120.094C81.5483 118.314 83.8378 120.003 85.103 121.753C86.308 123.412 88.0553 124.588 89.5917 122.597C90.3147 121.662 90.6762 120.275 91.6703 119.611C93.6887 118.253 95.4058 120.938 96.671 122.115C98.117 123.442 101.099 124.045 101.762 121.572C101.913 120.999 101.039 120.757 100.889 121.33C100.557 122.628 98.9907 122.597 98.0568 122.054C97.3338 121.632 96.8217 120.968 96.2493 120.395C95.4058 119.49 94.4719 118.615 93.2067 118.374C91.128 118.012 90.1942 119.882 89.2603 121.391C89.0193 121.813 88.718 122.386 88.2662 122.628C87.1817 123.201 86.3984 122.054 85.826 121.3C85.103 120.275 84.2897 119.4 83.1148 118.857C82.1508 118.404 81.0061 118.253 80.0119 118.676C78.8672 119.158 78.1442 120.787 76.8488 120.848C76.3066 120.848 76.3065 121.753 76.8789 121.723Z" fill="#EC615B"/>
<path d="M97.9363 115.508C99.2016 117.017 101.461 119.038 103.449 117.379C103.931 116.956 104.202 116.353 104.714 115.931C105.468 115.357 106.462 115.237 107.335 115.508C109.233 116.021 110.348 117.831 111.342 119.37C111.523 119.641 111.975 119.701 112.125 119.37C113.421 116.534 116.885 115.84 119.596 116.926C120.138 117.137 120.379 116.262 119.837 116.051C116.795 114.814 112.788 115.719 111.342 118.887C111.613 118.887 111.854 118.887 112.125 118.887C110.77 116.775 109.052 114.362 106.221 114.452C105.227 114.483 104.323 114.905 103.66 115.629C102.877 116.534 102.214 117.258 100.919 116.866C99.9246 116.564 99.2016 115.629 98.5388 114.845C98.2075 114.422 97.5748 115.056 97.9363 115.508Z" fill="#EC615B"/>
<path d="M152.191 147.063C151.8 146.278 151.348 145.464 150.986 144.649C150.595 143.805 150.775 143.473 151.288 142.749C151.95 141.814 152.975 140.969 154.149 141.602C154.993 142.055 155.535 143.081 155.776 143.955C156.198 145.434 155.836 147.545 154.119 148.028C152.703 148.42 150.866 147.545 150.926 145.916C150.926 145.343 150.022 145.343 150.022 145.916C149.962 147.937 151.98 149.204 153.848 148.993C156.138 148.722 157.102 146.308 156.77 144.257C156.439 142.266 154.601 139.732 152.312 140.667C151.197 141.12 150.354 142.296 149.842 143.352C149.54 143.986 149.601 144.016 149.902 144.649C150.384 145.615 150.866 146.58 151.348 147.515C151.679 148.028 152.462 147.575 152.191 147.063Z" fill="#5222D0"/>
<path d="M155.535 152.975C154.391 151.618 152.433 148.963 154.12 147.274C155.325 146.067 157.494 146.52 158.488 147.726C159.512 148.963 159.723 151.376 158.126 152.281C156.771 153.066 154.812 152.312 154.571 150.743C154.481 150.17 153.607 150.411 153.698 150.984C154.059 153.036 156.56 154.001 158.367 153.186C160.566 152.161 160.657 149.114 159.361 147.334C158.126 145.615 155.415 145.011 153.728 146.429C151.288 148.45 153.397 151.769 154.933 153.579C155.264 154.061 155.897 153.428 155.535 152.975Z" fill="#EC615B"/>
<path d="M333.664 91.9178C333.695 89.2632 337.34 90.0475 338.906 90.2285C340.262 90.3793 341.497 90.1983 342.702 89.5347C344.027 88.8408 345.112 87.7548 346.407 87.0007C347.251 86.4878 348.275 86.0353 349.269 86.0353C350.324 86.0655 350.986 86.699 351.92 87.0912C354.089 87.966 355.475 85.9448 356.831 84.6175C359.512 81.993 363.338 83.079 366.471 84.165C367.013 84.346 367.254 83.4712 366.712 83.2902C363.91 82.3248 360.355 81.269 357.584 82.8678C356.258 83.622 355.475 85.0097 354.27 85.8845C352.553 87.1213 351.107 85.1605 349.299 85.1303C345.413 85.07 343.365 89.5648 339.449 89.3537C337.762 89.2632 336.135 88.6297 334.508 89.3838C333.454 89.8665 332.791 90.7112 332.761 91.8877C332.731 92.491 333.634 92.491 333.664 91.9178Z" fill="#5222D0"/>
<path d="M356.198 90.8923C358.126 88.1471 361.741 86.8198 364.994 87.7549C366.41 88.1773 367.736 89.3236 369.302 89.2331C370.598 89.1426 371.29 88.0868 372.164 87.2723C373.58 85.9751 375.418 84.9193 377.406 84.9796C378.611 85.0098 379.545 85.4623 380.479 86.2466C380.78 86.5181 381.021 86.7594 381.443 86.8801C382.045 87.0309 382.587 86.7594 383.13 86.5181C384.063 86.0958 385.027 85.7338 386.022 85.4623C388.07 84.9494 390.149 84.8589 392.227 85.1304C392.8 85.1908 392.8 84.2858 392.227 84.2254C390.239 83.9539 388.251 84.0143 386.293 84.4668C385.419 84.6779 384.545 84.9494 383.702 85.2813C383.039 85.5528 382.708 85.7338 381.955 85.7338C381.141 85.7338 381.202 85.6131 380.659 85.1908C378.099 83.2299 374.664 84.1349 372.345 85.9751C371.712 86.4578 371.2 87.1214 370.598 87.6041C369.152 88.7504 368.007 88.0264 366.531 87.3628C365.265 86.7896 363.94 86.5181 362.554 86.5784C359.692 86.6991 357.102 88.1169 355.475 90.4398C355.083 90.9224 355.866 91.3749 356.198 90.8923Z" fill="#5222D0"/>
<path d="M290.676 293.22C291.248 296.84 291.821 300.49 292.363 304.11C280.464 307.971 274.619 310.415 274.86 311.441C275.162 312.708 284.681 311.772 303.419 308.726C302.334 302.994 301.28 297.262 300.196 291.531C297.002 292.074 293.839 292.647 290.676 293.22Z" fill="black"/>
<path d="M265.07 172.01C264.859 176.113 264.558 181.965 264.287 189.054C264.015 196.566 263.865 200.488 263.895 205.314C263.895 207.396 263.985 215.873 265.07 226.793C265.974 235.994 267.389 249.75 272.42 266.673C274.409 273.37 277.481 282.36 282.271 292.617C284.47 292.948 287.061 293.129 290.013 293.009C295.556 292.737 300.045 291.38 303.148 290.113C302.244 287.156 300.979 282.963 299.653 277.925C297.876 271.108 292.755 250.564 290.766 222.962C289.772 209.085 289.411 191.769 291.158 171.859C282.482 171.89 273.776 171.95 265.07 172.01Z" fill="white"/>
<path opacity="0.09" d="M290.405 174.333C289.832 176.505 289.079 179.642 288.266 183.443C286.157 193.489 283.988 207.818 284.199 232.042C284.32 246.944 285.374 267.548 289.23 292.436C290.736 292.285 292.273 292.104 293.869 291.862C297.213 291.35 300.316 290.686 303.148 289.932C301.882 285.829 300.135 279.735 298.328 272.314C291.911 245.858 290.104 223.414 289.622 208.602C289.35 199.794 289.35 188.119 290.405 174.333Z" fill="#606060"/>
<path d="M290.495 172.795C287.483 203.323 289.35 234.305 296.008 264.26C297.906 272.767 300.165 281.153 302.816 289.449C302.997 289.992 303.871 289.751 303.69 289.208C294.411 260.037 289.772 229.448 290.013 198.829C290.074 190.141 290.555 181.422 291.399 172.765C291.459 172.222 290.555 172.222 290.495 172.795Z" fill="#161616"/>
<path d="M263.835 199.854C262.72 224.591 266.184 249.478 273.957 272.978C276.126 279.554 278.656 286.01 281.518 292.315C281.759 292.858 282.542 292.375 282.301 291.862C272.209 269.388 266.275 245.104 264.859 220.518C264.467 213.64 264.437 206.762 264.738 199.854C264.768 199.251 263.865 199.281 263.835 199.854Z" fill="#161616"/>
<path d="M281.879 292.587C282.904 293.733 285.253 293.461 286.639 293.492C288.748 293.522 290.887 293.311 292.965 293.009C295.225 292.677 297.484 292.194 299.713 291.651C300.828 291.38 303.148 291.32 303.72 290.083C303.961 289.57 303.178 289.087 302.937 289.63C302.666 290.264 301.159 290.384 300.587 290.505C299.744 290.716 298.93 290.897 298.087 291.108C296.49 291.47 294.924 291.802 293.327 292.044C291.67 292.315 290.013 292.496 288.356 292.556C287.091 292.617 283.476 293.009 282.542 291.953C282.12 291.501 281.488 292.164 281.879 292.587Z" fill="#161616"/>
<path d="M256.183 171.829C255.309 173.73 254.135 177.35 253.291 180.548C252.237 184.62 251.966 187.064 251.363 190.623C250.248 197.2 249.495 198.316 247.869 205.526C246.151 213.248 245.368 219.191 244.766 223.927C244.284 227.608 243.41 235.119 243.018 244.833C242.838 249.026 242.747 251.5 242.838 254.908C243.079 265.618 244.796 273.913 245.549 277.171C247.567 286.131 250.52 293.793 253.472 300.008C254.827 300.701 256.876 301.576 259.467 302.149C262.66 302.843 266.757 303.748 270.673 301.757C271.758 301.214 274.228 299.706 276.096 296.146C274.65 292.194 272.872 286.583 271.456 279.705C267.962 262.631 269.227 249.116 270.101 240.609C271.728 224.531 275.463 212.464 281.88 191.649C284.049 184.65 285.977 178.979 287.302 175.208C287.754 172.222 288.808 163.262 284.019 159.521C276.999 153.971 260.642 162.206 256.183 171.829Z" fill="white"/>
<path opacity="0.08" d="M283.055 187.878C281.097 190.985 278.385 195.601 275.704 201.423C272.39 208.603 267.51 221.212 264.889 246.341C263.443 260.067 262.479 279.283 264.709 302.481C265.642 302.572 269.619 302.904 273.023 300.158C274.77 298.741 275.674 297.112 276.126 296.086C274.65 292.013 272.752 286.04 271.306 278.65C267.028 257.111 269.709 239.795 271.698 227.728C273.324 217.653 276.487 203.746 283.055 187.878Z" fill="#606060"/>
<path d="M260.913 302.089C261.937 305.769 262.961 309.48 263.985 313.16C247.838 318.077 239.916 321.154 240.187 322.361C240.488 323.749 251.484 322.723 273.174 319.284C272.601 313.371 272.029 307.489 271.487 301.576C267.932 301.727 264.407 301.908 260.913 302.089Z" fill="black"/>
<path d="M255.852 172.191C252.658 180.276 251.032 188.843 249.314 197.35C247.507 206.25 245.76 215.149 244.494 224.138C242.145 240.79 241.422 257.834 244.645 274.426C246.362 283.355 249.254 292.043 253.502 300.068C253.773 300.581 254.556 300.128 254.285 299.615C238.168 268.936 243.048 233.037 249.616 200.488C251.514 191.045 253.201 181.422 256.755 172.433C256.936 171.89 256.062 171.648 255.852 172.191Z" fill="#161616"/>
<path d="M282.663 187.818C272.571 214.757 265.823 243.716 269.739 272.586C270.824 280.55 272.722 288.363 275.493 295.905C275.704 296.448 276.578 296.206 276.367 295.663C266.335 268.544 268.384 238.799 275.915 211.318C278.084 203.444 280.675 195.691 283.536 188.029C283.747 187.486 282.874 187.275 282.663 187.818Z" fill="#161616"/>
<path d="M253.592 300.038C257.84 302.391 262.72 303.386 267.54 302.753C271.487 302.21 276.066 300.4 276.457 295.845C276.517 295.271 275.614 295.271 275.553 295.845C275.132 300.581 269.408 301.848 265.522 302.029C261.515 302.21 257.569 301.214 254.074 299.253C253.532 298.982 253.08 299.766 253.592 300.038Z" fill="#161616"/>
<path d="M262.389 93.215C261.575 94.1803 260.431 95.6585 259.346 97.6193C255.641 104.135 255.4 110.531 255.34 116.142C255.279 124.317 255.219 128.419 256.093 137.319C256.906 145.645 257.117 157.591 254.195 172.825C256.816 174.755 260.642 176.988 265.642 178.164C280.042 181.543 291.972 173.126 294.231 171.497C291.369 154.695 289.803 141.24 288.899 131.798C288.326 125.825 286.218 117.137 282.03 99.731C280.765 94.4217 279.47 89.3537 275.553 87.9057C270.131 85.8543 263.473 92.1592 262.389 93.215Z" fill="#EC615B"/>
<path opacity="0.1" d="M275.403 88.328C275.885 90.2888 276.578 93.2452 277.271 96.8953C278.174 101.601 279.379 108.721 280.223 119.309C281.096 130.23 282.091 150.713 282.392 177.199C284.44 176.596 286.911 175.691 289.531 174.243C291.279 173.277 292.785 172.252 294.05 171.286C293.839 168.964 293.448 165.434 292.815 161.181C292.002 155.841 291.188 152.131 290.797 150.29C289.833 145.524 288.748 138.405 288.628 128.51C287.393 123.261 286.459 119.038 285.826 116.232C284.079 108.268 283.567 105.342 282.241 100.515C280.916 95.6585 279.53 91.7972 278.656 89.4743C277.572 89.052 276.487 88.69 275.403 88.328Z" fill="#606060"/>
<path d="M262.359 96.111C262.63 96.654 263.082 96.835 264.076 97.3177C264.919 97.74 265.733 98.2528 266.576 98.6148C269.167 99.731 272.209 104.678 272.691 105.463C274.529 108.449 276.668 111.948 277.903 117.016C278.234 118.344 278.988 121.783 278.114 133.397C277.18 145.313 275.975 146.972 276.909 152.915C277.602 157.229 278.475 162.387 282.723 165.193C286.669 167.787 291.218 166.882 292.152 166.701C297.876 165.585 301.129 161.15 304.293 156.836C309.113 150.29 310.95 143.744 311.733 139.943C312.095 138.163 312.035 132.944 311.944 122.537C311.824 111.798 311.643 108.087 308.841 104.95C306.944 102.838 304.624 101.843 303.027 101.33C303.148 100.666 303.178 99.6707 302.636 98.826C301.611 97.2573 299.171 97.2875 297.605 97.3177C290.887 97.4987 285.886 102.024 285.645 102.235C281.458 106.126 280.223 110.893 279.831 112.884C278.988 109.143 277.602 106.277 276.517 104.437C275.583 102.838 274.198 101.209 271.396 97.8908C269.197 95.2965 268.143 94.301 266.486 93.758C266.124 93.6373 263.383 92.8228 262.479 94.0597C262.057 94.6328 262.057 95.5077 262.359 96.111Z" fill="white"/>
<path opacity="0.11" d="M262.148 94.9949C262.328 94.663 264.347 95.4172 264.558 95.5077C267.54 96.654 270.191 99.0372 273.595 104.558C275.342 107.393 277.542 111.406 279.409 116.624C280.735 115.267 281.849 114.151 282.723 113.306C282.723 113.306 285.946 110.199 291.158 107.182C291.67 106.881 292.303 106.519 292.755 106.79C293.689 107.303 292.694 109.807 292.966 112.13C293.176 113.879 294.201 116.293 298.087 118.977C298.177 119.49 298.207 120.214 297.786 120.697C296.942 121.632 294.773 120.878 293.658 120.486C291.851 119.852 288.356 118.193 284.229 113.336C283.838 114.905 283.326 117.137 282.934 119.882C282.572 122.266 281.578 130.199 283.235 140.396C283.898 144.438 285.133 149.838 287.664 155.992C288.778 156.475 290.194 156.927 291.881 157.199C295.406 157.742 298.328 157.048 300.015 156.505C299.021 156.987 297.665 157.802 296.49 159.22C295.074 160.939 295.044 162.236 293.869 163.835C293.086 164.921 291.67 166.279 289.049 167.244C288.236 167.154 287.001 166.942 285.645 166.339C281.518 164.499 279.65 160.607 278.807 158.797C277.692 156.354 275.975 151.407 277.602 134.664C278.536 125.101 279.56 122.115 277.993 116.655C276.788 112.461 274.71 108.992 273.987 107.816C272.691 105.704 270.372 101.933 266.154 98.464C264.166 96.7747 261.967 95.387 262.148 94.9949Z" fill="#606060"/>
<path d="M295.737 101.752C295.195 102.476 294.502 103.532 293.96 104.92C293.659 105.734 292.936 107.635 293.116 110.048C293.448 114.844 296.882 117.771 297.514 118.283C297.936 118.615 298.298 118.887 298.539 119.038C298.177 120.274 297.756 122.115 297.605 124.377C297.364 127.575 297.123 131.165 298.991 132.22C300.196 132.884 302.003 132.432 302.997 131.466C303.238 131.225 303.931 130.471 304.112 127.062C304.323 123.02 303.479 121.33 304.684 120.154C305.196 119.611 306.07 119.279 306.823 118.947C307.667 118.585 308.42 118.404 308.962 118.283C308.631 120.757 308.39 122.959 308.209 124.739C307.998 126.941 307.908 128.057 308.661 128.751C309.354 129.385 310.498 129.505 311.372 129.113C312.517 128.6 312.878 127.183 313.511 124.347C314.023 122.115 314.445 120.244 314.174 117.71C314.023 116.413 313.752 115.357 313.511 114.633C313.451 114.12 313.3 113.366 313.059 112.491C312.547 110.742 312.065 110.229 311.764 109.113C311.312 107.514 311.824 106.73 311.944 104.92C312.065 103.502 311.944 101.481 310.92 98.9467C310.528 98.9768 309.715 99.0372 308.872 99.6103C307.847 100.274 307.426 101.239 307.275 101.571C306.492 101.39 305.076 101.209 303.449 101.662C300.648 102.416 299.171 104.497 298.78 105.131C299.563 103.411 298.9 101.722 297.846 101.3C296.942 100.907 295.858 101.692 295.737 101.752Z" fill="black"/>
<path d="M299.141 111.104C299.442 110.531 300.949 109.264 301.461 110.32C301.702 110.832 302.485 110.38 302.244 109.867C301.913 109.173 301.099 108.962 300.376 109.113C299.503 109.264 298.78 109.867 298.358 110.651C298.087 111.164 298.87 111.617 299.141 111.104Z" fill="white"/>
<path d="M307.968 108.781C308.148 108.389 308.329 107.936 308.63 107.635C308.932 107.333 309.835 107.001 309.866 107.695C309.896 108.268 310.799 108.268 310.769 107.695C310.709 106.82 309.956 106.247 309.082 106.368C308.088 106.549 307.576 107.454 307.184 108.298C306.943 108.841 307.727 109.324 307.968 108.781Z" fill="white"/>
<path d="M308.209 111.647C308.209 111.677 308.209 111.707 308.209 111.737C308.148 111.798 308.088 111.858 308.058 111.888C307.907 111.979 307.666 111.888 307.697 111.707C307.697 111.707 307.697 111.617 307.727 111.647L307.636 111.737C307.847 111.737 308.058 111.737 308.269 111.737C308.239 111.707 308.239 111.707 308.209 111.677C308.239 111.707 308.239 111.707 308.239 111.707C308.209 111.677 308.239 111.677 308.239 111.737C308.269 111.918 308.179 112.039 307.938 112.129C307.847 112.099 307.787 112.099 307.697 112.069C307.576 112.009 307.606 111.828 307.636 111.737C307.666 111.707 307.636 111.707 307.606 111.767C307.636 111.737 307.636 111.737 307.606 111.767C307.395 111.918 307.305 112.16 307.456 112.401C307.576 112.582 307.877 112.703 308.088 112.552C308.299 112.401 308.51 112.19 308.54 111.888C308.54 111.556 308.299 111.255 307.968 111.255C307.636 111.255 307.395 111.466 307.365 111.798C307.335 112.039 307.486 112.25 307.636 112.401C307.817 112.582 308.088 112.552 308.269 112.401C308.661 112.099 308.751 111.466 308.299 111.164C308.088 111.043 307.817 111.013 307.606 111.134C307.335 111.285 307.305 111.647 307.365 111.918C307.395 112.16 307.697 112.28 307.907 112.22C308.148 112.129 308.239 111.888 308.209 111.647Z" fill="white"/>
<path d="M303.389 112.582C302.515 113.095 301.34 112.854 300.768 112.009C300.436 111.526 299.653 111.979 299.985 112.461C300.858 113.698 302.515 114.121 303.871 113.366C304.353 113.065 303.901 112.28 303.389 112.582Z" fill="white"/>
<path d="M302.726 114.543C302.063 115.056 301.491 115.719 301.099 116.473C300.828 116.986 301.611 117.439 301.882 116.926C302.244 116.232 302.756 115.659 303.389 115.176C303.569 115.025 303.539 114.694 303.389 114.543C303.178 114.362 302.907 114.392 302.726 114.543Z" fill="white"/>
<path d="M310.046 111.225C310.649 110.531 311.101 109.746 311.402 108.872C311.583 108.329 310.709 108.087 310.528 108.63C310.287 109.354 309.896 110.018 309.414 110.591C309.052 111.044 309.685 111.677 310.046 111.225Z" fill="white"/>
<path d="M310.107 112.371C310.83 112.22 311.673 112.039 312.246 112.642C312.637 113.065 313.27 112.431 312.878 112.009C312.065 111.134 310.89 111.285 309.836 111.526C309.293 111.617 309.534 112.491 310.107 112.371Z" fill="white"/>
<path d="M261.997 95.4171C263.383 93.2451 266.666 94.5423 268.323 95.6283C270.312 96.8953 271.818 98.7958 273.173 100.696C275.915 104.527 278.355 108.69 279.259 113.366C279.379 113.939 280.253 113.698 280.132 113.125C279.078 107.544 275.824 102.174 272.149 97.8908C270.01 95.4171 263.955 90.7413 261.214 94.9948C260.913 95.4473 261.696 95.93 261.997 95.4171Z" fill="#161616"/>
<path d="M263.865 97.4685C271.095 101.541 275.162 109.173 277.21 116.956C277.361 117.529 278.234 117.288 278.084 116.715C275.975 108.721 271.727 100.847 264.317 96.6842C263.804 96.3825 263.353 97.1669 263.865 97.4685Z" fill="#161616"/>
<path d="M280.132 112.974C280.885 107.635 284.289 103.17 288.959 100.606C291.369 99.2785 294.05 98.464 296.791 98.0719C298.087 97.8909 299.593 97.7099 300.858 98.1925C302.244 98.7054 303.569 100.908 301.822 101.903C301.31 102.175 301.762 102.959 302.274 102.687C304.202 101.601 303.72 98.826 302.033 97.7702C299.412 96.111 295.074 97.2875 292.393 98.1925C285.766 100.334 280.283 105.704 279.289 112.793C279.168 113.306 280.042 113.547 280.132 112.974Z" fill="#161616"/>
<path d="M282.151 114.332C283.627 112.612 285.495 111.164 287.302 109.807C289.049 108.479 290.917 107.393 293.086 106.911C293.658 106.79 293.417 105.915 292.845 106.036C290.616 106.549 288.658 107.665 286.85 109.022C284.982 110.44 283.054 111.918 281.518 113.698C281.126 114.12 281.759 114.784 282.151 114.332Z" fill="#161616"/>
<path d="M293.206 107.001C293.839 105.553 294.652 104.166 295.647 102.929C295.827 102.718 296.038 102.356 296.279 102.205C296.49 101.813 296.761 101.782 297.153 102.144C297.635 102.144 297.846 102.325 297.846 102.748C298.177 103.381 298.207 104.467 298.328 105.191C298.448 105.764 299.322 105.523 299.201 104.95C298.96 103.804 298.659 99.7009 296.49 100.817C295.647 101.239 295.014 102.295 294.472 103.019C293.658 104.135 292.996 105.312 292.423 106.549C292.182 107.062 292.965 107.544 293.206 107.001Z" fill="#161616"/>
<path d="M299.021 105.463C300.557 103.472 303.69 100.726 306.371 102.205C306.883 102.476 307.335 101.692 306.823 101.42C303.72 99.7611 300.226 102.476 298.358 104.829C298.027 105.282 298.659 105.915 299.021 105.463Z" fill="#161616"/>
<path d="M307.245 102.054C307.666 101.39 309.625 99.0069 310.468 99.6404C310.92 99.9723 311.01 101.149 311.131 101.692C311.312 102.536 311.372 103.381 311.402 104.256C311.432 104.829 312.336 104.829 312.306 104.256C312.276 103.049 312.125 101.873 311.824 100.696C311.643 100.033 311.492 98.7656 310.709 98.5544C309.986 98.3734 308.992 99.0673 308.45 99.4594C307.636 100.033 307.004 100.757 306.492 101.601C306.16 102.084 306.943 102.536 307.245 102.054Z" fill="#161616"/>
<path d="M283.326 112.853C285.404 114.875 287.603 116.745 289.953 118.434C292.273 120.093 294.532 121.27 297.454 121.119C298.027 121.089 298.027 120.184 297.454 120.214C294.472 120.365 292.273 119.038 289.953 117.348C287.814 115.78 285.826 114.06 283.928 112.22C283.536 111.828 282.904 112.461 283.326 112.853Z" fill="#161616"/>
<path d="M277.24 115.961C280.524 130.561 271.968 146.519 279.048 160.487C280.373 163.111 282.392 165.494 285.163 166.671C287.874 167.817 291.007 167.727 293.809 166.822C300.015 164.831 304.021 159.069 307.094 153.639C309.052 150.23 310.679 146.58 311.643 142.749C312.125 140.848 312.426 138.857 312.517 136.896C312.607 134.634 312.306 132.371 312.396 130.109C312.426 129.536 311.522 129.536 311.492 130.109C311.372 133.789 311.854 137.288 311.131 140.939C310.498 144.197 309.323 147.364 307.847 150.32C305.106 155.871 301.4 162.116 295.707 165.042C292.755 166.55 289.109 167.123 285.946 165.947C282.843 164.8 280.795 162.055 279.469 159.129C276.638 152.764 276.969 145.524 277.722 138.767C278.566 131.104 279.891 123.351 278.174 115.689C277.963 115.176 277.09 115.387 277.24 115.961Z" fill="#161616"/>
<path d="M290.646 146.158C288.959 149.114 287.844 152.312 287.362 155.69C287.272 156.263 288.145 156.505 288.236 155.932C288.718 152.613 289.772 149.506 291.429 146.61C291.73 146.127 290.947 145.675 290.646 146.158Z" fill="#161616"/>
<path d="M291.218 146.489C295.677 146.097 300.376 145.252 304.835 145.735C305.407 145.795 305.407 144.89 304.835 144.83C300.376 144.317 295.677 145.192 291.218 145.584C290.646 145.645 290.646 146.55 291.218 146.489Z" fill="#161616"/>
<path d="M287.814 156.505C290.013 157.802 292.574 157.681 295.044 157.621C297.635 157.53 300.226 157.229 302.485 155.871C302.997 155.569 302.515 154.785 302.033 155.087C299.894 156.384 297.484 156.625 295.044 156.716C292.755 156.806 290.345 156.957 288.266 155.75C287.784 155.449 287.332 156.233 287.814 156.505Z" fill="#161616"/>
<path d="M304.413 145.524C303.841 148.842 302.967 152.04 301.792 155.177C301.581 155.72 302.455 155.962 302.666 155.419C303.871 152.281 304.744 149.054 305.287 145.765C305.377 145.192 304.503 144.951 304.413 145.524Z" fill="#161616"/>
<path d="M290.405 147.726C291.881 150.984 296.068 151.799 299.292 151.829C299.864 151.829 299.864 150.924 299.292 150.924C296.4 150.863 292.514 150.2 291.188 147.243C290.947 146.731 290.164 147.213 290.405 147.726Z" fill="#161616"/>
<path d="M296.912 150.652C296.822 151.406 296.731 152.161 296.641 152.885C296.581 153.458 297.484 153.458 297.545 152.885C297.635 152.13 297.725 151.376 297.816 150.652C297.876 150.079 296.972 150.079 296.912 150.652Z" fill="#161616"/>
<path d="M298.629 150.652C298.539 151.406 298.448 152.161 298.388 152.915C298.328 153.488 299.231 153.488 299.292 152.915C299.382 152.161 299.472 151.406 299.533 150.652C299.593 150.079 298.689 150.079 298.629 150.652Z" fill="#161616"/>
<path d="M299.412 151.919C301.551 151.437 303.329 150.109 304.443 148.239C304.744 147.726 303.961 147.274 303.66 147.787C302.636 149.476 301.069 150.592 299.171 151.045C298.599 151.195 298.84 152.07 299.412 151.919Z" fill="#161616"/>
<path d="M292.815 105.372C291.911 110.712 292.905 117.077 298.358 119.52C298.87 119.762 299.352 118.977 298.81 118.736C293.719 116.443 292.845 110.561 293.688 105.614C293.779 105.04 292.905 104.799 292.815 105.372Z" fill="#161616"/>
<path d="M311.342 103.924C311.402 105.644 311.372 107.393 311.613 109.083C311.854 110.923 313.511 112.974 312.637 114.814C312.396 115.327 313.179 115.81 313.42 115.267C314.204 113.608 313.511 112.22 312.938 110.591C312.185 108.509 312.366 106.096 312.276 103.894C312.215 103.321 311.312 103.321 311.342 103.924Z" fill="#161616"/>
<path d="M300.828 118.887C302.154 118.193 303.66 118.917 303.961 120.365C303.991 120.516 304.202 120.456 304.172 120.305C303.811 118.706 302.154 117.922 300.708 118.676C300.587 118.766 300.708 118.977 300.828 118.887Z" fill="white"/>
<path d="M303.118 120.425C303.329 120.667 303.479 120.938 303.57 121.24C303.63 121.391 303.841 121.33 303.781 121.179C303.66 120.848 303.479 120.546 303.268 120.274C303.178 120.154 302.997 120.335 303.118 120.425Z" fill="white"/>
<path d="M309.173 118.314C309.444 117.077 310.227 116.051 311.372 115.478C311.492 115.418 311.402 115.207 311.251 115.297C310.046 115.87 309.233 116.956 308.962 118.253C308.932 118.404 309.143 118.465 309.173 118.314Z" fill="white"/>
<path d="M256.123 54.3604C254.044 55.4162 252.297 57.4072 251.514 58.282C249.586 60.4842 248.591 62.5355 247.507 64.8282C246.603 66.6985 245.549 69.3532 244.705 72.6715C245.88 72.8827 247.055 73.0637 248.23 73.2749C248.17 74.4212 248.17 76.1105 248.622 78.1015C249.043 79.9115 249.736 82.8075 252.146 84.8287C255.46 87.6644 259.858 86.9705 260.672 86.8499C260.732 88.2677 261.033 90.2889 262.178 92.3704C262.479 92.8832 262.78 93.3659 263.082 93.7882C264.738 93.3055 267.299 92.31 269.799 90.2587C276.186 85.1002 277.06 77.4077 277.331 75.1754C277.722 71.7364 278.475 65.2505 274.228 59.8809C269.799 54.3302 261.395 51.7057 256.123 54.3604Z" fill="white"/>
<path d="M249.947 60.635C250.791 59.368 252.417 57.4977 254.255 56.2005C257.207 54.119 258.533 54.9939 260.039 53.1537C261.124 51.8264 261.816 49.6544 261.003 48.6287C259.708 46.9997 255.099 48.9605 254.496 49.232C253.171 49.8052 248.802 51.6454 247.055 56.291C245.609 60.1825 246.573 64.436 247.236 64.5265C247.417 64.5567 247.537 64.255 248.501 62.7769C248.953 62.0227 249.465 61.3289 249.947 60.635Z" fill="#5222D0"/>
<path d="M256.514 51.5548C256.273 52.3392 255.912 53.9078 257.117 56.9848C259.256 62.5053 264.257 67.4527 266.757 66.5477C267.299 66.3365 267.872 65.7935 268.956 65.7332C269.227 65.7332 270.312 65.6728 271.155 66.3365C272.481 67.3923 272.541 69.685 271.667 71.1632C271.517 71.4347 270.703 72.6715 269.468 72.762C268.384 72.8525 268.022 72.0078 267.149 71.9475C265.01 71.8268 263.172 76.5328 262.931 77.1663C262.449 78.373 261.274 81.5103 262.118 85.5225C262.298 86.3973 262.72 88.2375 264.016 90.138C266.817 94.2105 271.517 95.206 273.264 95.568C274.981 95.93 281.518 97.2875 286.609 93.0642C287.423 92.4005 290.104 90.1078 290.827 86.2163C292.062 79.64 286.549 74.7228 286.218 74.4513C285.977 71.0425 285.163 65.6125 282.301 59.6697C280.494 55.8988 278.807 52.4297 274.981 49.8052C269.95 46.3963 262.63 45.431 258.804 48.3873C258.412 48.7493 257.117 49.775 256.514 51.5548Z" fill="#5222D0"/>
<path d="M250.791 83.9237C250.339 84.3762 249.013 85.7639 248.772 87.9359C248.441 90.9525 250.459 93.034 250.881 93.4564C253.08 95.7189 256.755 96.6239 259.406 95.2664C259.617 95.1759 261.937 93.939 262.027 92.1592C262.057 91.3749 261.636 90.9827 261.033 89.233C260.641 88.0867 260.4 87.1515 260.22 86.518C259.406 86.7895 258.021 87.1515 256.303 86.9102C253.231 86.518 251.333 84.527 250.791 83.9237Z" fill="#5222D0"/>
<path opacity="0.12" d="M256.816 54.2095C256.846 55.1446 256.966 56.5323 257.599 58.0105C258.021 59.006 258.442 59.6093 258.774 60.092C260.039 62.0226 260.461 63.8326 261.124 65.8538C262.178 68.9911 261.997 71.6156 261.786 74.8736C261.606 77.5886 261.003 81.7215 259.045 86.518C259.858 86.7593 261.033 87.242 262.298 88.0866C264.618 89.6553 265.672 91.5256 266.335 92.4005C267.691 94.1803 270.703 96.0506 277.963 95.93C277.24 95.206 276.216 94.12 275.102 92.7926C272.481 89.7156 270.191 87.0308 268.836 83.7728C268.052 81.9025 266.847 78.0713 267.781 72.5206C268.625 72.943 269.619 72.9128 270.402 72.4C271.215 71.857 271.728 70.771 271.456 69.7755C271.125 68.6291 269.739 67.8448 268.323 68.2068C268.022 67.4526 267.54 66.3666 266.757 65.1901C265.522 63.35 264.226 62.2036 263.744 61.7813C262.208 60.454 259.979 58.1915 256.816 54.2095Z" fill="#606060"/>
<path opacity="0.14" d="M245.037 72.1285C245.067 71.6458 246.603 71.2536 247.899 71.3441C249.043 71.4346 250.399 71.9475 250.369 72.4C250.339 72.8223 249.074 73.1541 248.14 73.1843C246.694 73.2446 245.037 72.6111 245.037 72.1285Z" fill="#606060"/>
<path d="M248.772 60.9065C247.055 64.6773 245.519 68.5085 244.193 72.4302C244.103 72.6715 244.284 72.9128 244.495 72.9732C245.669 73.4257 246.844 73.6368 248.079 73.6067C248.652 73.6067 248.652 72.7017 248.079 72.7017C246.905 72.7017 245.82 72.4905 244.736 72.0983C244.826 72.2793 244.946 72.4603 245.037 72.6413C246.332 68.78 247.808 65.0092 249.525 61.3288C249.797 60.8462 249.013 60.3635 248.772 60.9065Z" fill="#161616"/>
<path d="M247.959 73.7877C248.2 77.6792 248.561 81.993 251.453 84.9192C254.225 87.7548 258.232 87.5135 261.877 87.0912C262.449 87.0308 262.449 86.1258 261.877 86.1862C258.503 86.5783 254.677 86.9102 252.086 84.2857C249.375 81.5405 249.104 77.4378 248.863 73.7877C248.833 73.2145 247.929 73.2145 247.959 73.7877Z" fill="#161616"/>
<path d="M260.099 87.1816C260.491 89.2933 261.214 91.3144 262.238 93.1848C262.509 93.6976 263.293 93.2451 263.021 92.7323C262.027 90.8921 261.365 88.9916 260.973 86.9403C260.883 86.3671 260.009 86.6084 260.099 87.1816Z" fill="#161616"/>
<path d="M248.561 78.4032C250.037 79.7004 252.237 79.097 252.809 77.1965C252.99 76.6234 252.116 76.4122 251.935 76.9552C251.574 78.1619 250.158 78.6144 249.224 77.7395C248.772 77.3775 248.14 78.011 248.561 78.4032Z" fill="#161616"/>
<path d="M251.333 77.1663C251.815 77.287 252.176 77.5585 252.478 77.9205C252.628 78.1015 252.96 78.0713 253.11 77.9205C253.291 77.7395 253.261 77.468 253.11 77.287C252.719 76.8043 252.176 76.4423 251.574 76.2915C251.032 76.1406 250.791 77.0155 251.333 77.1663Z" fill="#161616"/>
<path d="M252.689 65.884C252.93 64.617 254.496 64.8583 255.34 65.3108C256.063 65.703 256.575 66.3365 256.876 67.0907C257.087 67.6337 257.96 67.3923 257.75 66.8493C257.268 65.5522 256.273 64.5265 254.888 64.1645C253.622 63.8327 252.116 64.2248 251.845 65.6427C251.725 66.2158 252.598 66.4572 252.689 65.884Z" fill="#161616"/>
<path d="M252.658 60.5445C254.014 58.282 256.665 60.0316 257.207 61.9321C257.358 62.5053 258.232 62.264 258.081 61.6908C257.689 60.3031 256.725 59.006 255.249 58.644C253.924 58.3423 252.568 58.9155 251.875 60.0618C251.574 60.6048 252.357 61.0573 252.658 60.5445Z" fill="#161616"/>
<path d="M253.562 71.0123C254.135 71.0123 254.135 70.1073 253.562 70.1073C252.99 70.1073 252.96 71.0123 253.562 71.0123Z" fill="#161616"/>
<path d="M255.279 69.6549C255.309 69.6549 255.37 69.6549 255.4 69.6549C255.641 69.6549 255.852 69.4437 255.852 69.2024C255.852 68.961 255.641 68.7499 255.4 68.7499C255.37 68.7499 255.309 68.7499 255.279 68.7499C255.038 68.7499 254.827 68.961 254.827 69.2024C254.827 69.4739 255.038 69.6549 255.279 69.6549Z" fill="#161616"/>
<path d="M255.309 71.1933C255.309 71.2235 255.309 71.2536 255.309 71.2838C255.309 71.857 256.213 71.857 256.213 71.2838C256.213 71.2536 256.213 71.2235 256.213 71.1933C256.213 70.6201 255.309 70.6201 255.309 71.1933C255.309 71.2235 255.309 71.2536 255.309 71.2838C255.309 71.857 256.213 71.857 256.213 71.2838C256.213 71.2536 256.213 71.2235 256.213 71.1933C256.213 70.6201 255.309 70.6201 255.309 71.1933Z" fill="#161616"/>
<path d="M268.444 66.5778C269.257 65.4013 270.643 66.1554 271.125 67.1208C271.517 67.8749 271.517 68.7799 271.487 69.5944C271.366 71.6458 269.649 73.0938 267.661 71.8268C267.179 71.4949 266.727 72.2793 267.209 72.6111C268.384 73.3954 269.89 73.4859 271.065 72.5809C272.27 71.6458 272.481 70.1073 272.39 68.6593C272.3 67.2716 271.758 65.7331 270.312 65.2203C269.287 64.8583 268.263 65.2504 267.661 66.1253C267.359 66.5778 268.143 67.0303 268.444 66.5778Z" fill="#161616"/>
<path d="M187.408 49.3527C186.775 49.3527 186.142 49.3828 185.54 49.3828C184.516 51.3738 183.943 53.1838 183.612 54.5112C182.648 58.4027 182.889 61.6305 183.07 63.1992C183.19 64.255 183.371 65.1298 183.521 65.7332C184.064 65.7332 184.606 65.7332 185.148 65.7332C185.359 66.4572 185.57 67.1812 185.781 67.9052C190.872 67.875 195.059 67.875 197.981 67.9052C215.695 68.056 228.046 68.7498 230.908 68.9007C234.493 69.1118 237.415 69.323 239.223 69.4437C239.283 68.3275 239.584 67.9353 239.855 67.8147C240.337 67.6035 240.759 68.1163 241.392 67.9957C242.054 67.875 242.476 67.1812 242.747 66.5477C243.289 66.8192 244.284 67.1812 245.458 67.0002C245.73 66.97 245.971 66.8795 246.181 66.8192C246.694 65.7935 247.206 64.7678 247.718 63.7422C246.995 63.5008 245.971 63.2897 244.735 63.2897C244.043 63.2897 243.44 63.3802 242.928 63.4707C242.868 63.3198 242.386 61.9623 241.12 61.6607C240.729 61.5702 240.397 61.6003 240.126 61.6607C239.946 61.3288 239.765 60.997 239.584 60.6652C238.861 60.5445 237.746 60.3635 236.421 60.1222C225.666 58.1613 218.165 55.7782 212.441 54.0587C206.959 52.3995 198.976 50.137 188.733 47.6332C188.311 48.2063 187.859 48.7795 187.408 49.3527Z" fill="white"/>
<path opacity="0.07" d="M183.16 61.0573C183.431 60.997 183.732 61.6908 184.064 61.6003C184.606 61.4797 184.485 59.5792 184.606 58.1613C184.696 56.8038 185.088 54.843 186.413 52.4598C187.287 52.8218 188.613 53.395 190.209 54.0888C195.963 56.5927 199.94 58.5233 201.145 59.0663C209.098 62.7768 217.834 64.436 220.033 64.8583C225.034 65.8237 231.962 66.6683 240.277 66.3063C239.915 67.3018 239.554 68.2973 239.192 69.2928C237.807 69.2627 235.788 69.2627 233.318 69.2023C222.714 68.9912 215.303 68.6593 211.056 68.4783C205.061 68.237 196.475 67.9957 185.63 68.0258C185.51 67.2113 185.389 66.3968 185.269 65.5823C184.576 65.703 183.883 65.8237 183.19 65.9443C182.738 62.1735 182.859 61.1177 183.16 61.0573Z" fill="#606060"/>
<path d="M188.04 47.6633C184.275 53.4855 183.22 60.7255 185.148 67.3923C185.299 67.9655 186.173 67.7242 186.022 67.151C184.154 60.6953 185.178 53.757 188.824 48.1158C189.155 47.603 188.372 47.1505 188.04 47.6633Z" fill="#161616"/>
<path d="M188.823 48.5381C205.784 52.8218 222.714 57.1054 239.674 61.3589C240.247 61.5098 240.488 60.6349 239.915 60.4841C222.955 56.2004 206.025 51.9168 189.064 47.6633C188.522 47.5124 188.281 48.3873 188.823 48.5381Z" fill="#161616"/>
<path d="M185.781 68.3878C203.464 68.237 221.148 68.6593 238.801 69.6247C239.373 69.6548 239.373 68.7498 238.801 68.7197C221.148 67.7543 203.464 67.332 185.781 67.4828C185.208 67.4828 185.208 68.3878 185.781 68.3878Z" fill="#161616"/>
<path d="M239.403 61.0272C240.608 63.712 240.337 66.7589 238.68 69.2024C238.349 69.685 239.132 70.1375 239.464 69.6549C241.301 66.9399 241.542 63.5612 240.187 60.5747C239.946 60.0619 239.162 60.5144 239.403 61.0272Z" fill="#161616"/>
<path d="M240.307 62.2036C240.638 62.445 240.879 62.3545 241.271 62.445C242.024 62.6561 242.325 63.35 242.476 64.074C242.717 65.4013 242.386 68.2068 240.428 67.4225C239.885 67.2113 239.644 68.0861 240.187 68.2973C242.175 69.0816 243.47 67.0001 243.47 65.2505C243.47 64.2851 243.35 63.1991 242.807 62.3846C242.627 62.1131 242.386 61.8416 242.084 61.6908C241.693 61.5098 241.151 61.6305 240.819 61.3891C240.277 61.0875 239.825 61.8718 240.307 62.2036Z" fill="#161616"/>
<path d="M242.958 63.8628C244.494 63.7723 246.031 63.8025 247.537 64.0137C248.109 64.074 248.109 63.169 247.537 63.1087C246.001 62.9277 244.494 62.8673 242.958 62.9578C242.386 63.0182 242.386 63.9232 242.958 63.8628Z" fill="#161616"/>
<path d="M242.838 67.1812C244.073 67.3923 245.308 67.4828 246.543 67.3622C247.115 67.3018 247.115 66.3968 246.543 66.4572C245.368 66.5477 244.223 66.5175 243.079 66.3063C242.506 66.2158 242.265 67.0605 242.838 67.1812Z" fill="#161616"/>
<path d="M187.528 49.1113C184.606 47.422 183.793 52.7012 183.401 54.3603C182.497 58.1915 182.075 62.1433 183.19 65.9745C183.25 66.1555 183.431 66.3063 183.612 66.3063C184.003 66.3063 184.425 66.3063 184.817 66.3063C185.389 66.3063 185.389 65.4013 184.817 65.4013C184.425 65.4013 184.003 65.4013 183.612 65.4013C183.762 65.522 183.913 65.6125 184.034 65.7332C183.25 62.9578 183.25 60.1523 183.702 57.3167C183.913 56.0497 184.184 54.7827 184.516 53.5458C184.726 52.7313 185.389 48.9002 187.046 49.8957C187.588 50.1973 188.04 49.413 187.528 49.1113Z" fill="#161616"/>
<path d="M220.093 55.5972C219.551 54.9336 218.647 55.0241 218.527 55.0241C217.533 55.0844 216.569 55.9894 215.514 58.1916C213.466 62.3847 213.375 66.5779 213.375 67.2416C213.345 70.1376 213.616 74.8436 215.665 80.4546C215.846 82.8076 216.237 86.0957 217.111 89.9269C218.647 96.8049 220.274 104.045 225.877 110.47C227.986 112.914 232.143 117.65 239.373 119.37C246.935 121.18 253.08 118.495 254.586 117.801C255.912 117.167 259.617 115.297 262.75 111.345C264.648 108.962 266.847 106.368 266.486 103.17C266.335 101.782 265.733 100.606 264.829 98.7356C263.925 96.8652 263.443 95.9301 262.479 95.5681C261.154 95.0552 259.738 95.9602 258.171 96.8652C255.52 98.3736 255.279 99.8216 252.417 101.33C251.664 101.722 250.911 101.994 249.405 102.476C247.025 103.261 244.675 104.045 242.506 104.196C237.777 104.528 233.981 101.813 232.896 101.028C228.89 98.1624 227.323 94.3312 226.299 91.8274C224.01 86.2164 224.19 81.0579 224.582 78.0412C225.998 77.7999 226.871 77.2267 227.293 76.8949C228.89 75.6581 229.281 73.9386 229.884 71.2839C230.276 69.6247 230.456 68.7499 230.035 68.4181C229.161 67.7544 226.48 69.9264 225.877 70.4392C225.998 68.3879 226.299 66.7287 226.6 65.5522C226.992 63.9836 227.203 63.1691 227.745 62.5356C228.799 61.2987 230.035 61.4194 230.456 60.2429C230.697 59.6094 230.667 58.7346 230.155 58.2217C229.553 57.6184 228.257 57.6486 227.143 58.5234C226.781 57.7391 226.058 57.2564 225.275 57.2262C224.492 57.1961 223.979 57.6787 223.829 57.7994C223.919 56.9849 223.558 56.2307 222.955 55.9291C222.142 55.5067 220.846 55.9894 220.364 57.2262C220.395 57.0754 220.605 56.2307 220.093 55.5972Z" fill="white"/>
<path opacity="0.12" d="M218.527 55.024C217.804 56.291 216.9 58.1614 216.298 60.6049C214.972 65.9142 216.057 70.3487 216.539 72.4906C221.72 94.6027 219.461 95.1457 223.076 100.334C224.401 102.205 233.499 114.754 247.055 113.095C258.412 111.707 264.437 101.36 265.221 99.9724C265.672 101.179 266.215 103.23 265.853 105.674C265.311 109.264 263.082 111.526 262.268 112.371C261.485 113.155 260.521 113.849 258.563 115.207C256.816 116.443 255.099 117.529 254.345 117.922C250.761 119.943 245.218 120.425 241.362 119.913C230.878 118.525 224.582 108.57 221.961 104.437C215.966 94.9949 215.364 85.432 215.424 80.6657C214.852 78.735 214.279 76.7742 213.707 74.8436C213.315 71.8571 213.285 69.3834 213.345 67.6639C213.496 63.3501 213.616 60.1222 215.816 57.377C216.78 56.1704 217.834 55.4464 218.527 55.024Z" fill="#606060"/>
<path d="M259.316 114.754C264.076 112.492 267.269 107.755 266.486 102.386C266.034 99.1277 263.413 93.5167 259.226 95.5077C257.358 96.4127 255.821 98.0719 254.104 99.2484C251.724 100.877 248.983 102.144 246.242 103.019C242.747 104.135 238.861 104.377 235.487 102.687C233.017 101.451 231.089 99.4294 229.613 97.1367C226.359 92.0989 224.672 86.1561 225.064 80.1529C225.094 79.5797 224.19 79.5797 224.16 80.1529C223.829 85.2209 224.943 90.0476 227.173 94.5726C229.131 98.6149 231.993 102.416 236.331 104.045C241.602 106.006 247.356 104.015 252.116 101.511C254.255 100.365 256.093 98.8864 258.021 97.4082C259.768 96.0507 261.515 95.3871 263.292 97.1971C265.492 99.4294 266.154 103.321 265.492 106.277C264.678 109.807 262.057 112.461 258.864 113.97C258.352 114.211 258.804 114.995 259.316 114.754Z" fill="#161616"/>
<path d="M225.003 80.5451C224.612 78.8859 225.787 78.4636 226.871 77.6792C227.504 77.2267 227.986 76.5932 228.438 75.9597C229.582 74.3006 230.486 72.3699 230.727 70.3487C230.848 69.3532 231.059 67.7846 229.703 67.7242C228.106 67.6639 227.444 69.6851 225.937 69.8359C225.365 69.8962 225.365 70.8012 225.937 70.7409C227.082 70.6202 227.654 69.8962 228.528 69.2326C229.04 68.8404 229.613 68.3879 229.884 69.2627C230.034 69.7454 229.793 70.6504 229.673 71.1331C229.462 72.1587 229.01 73.1542 228.528 74.0894C228.076 74.9341 227.564 75.8089 226.871 76.5027C226.239 77.1664 225.365 77.3172 224.672 77.8602C223.738 78.5842 223.889 79.8211 224.13 80.8166C224.28 81.3596 225.154 81.1182 225.003 80.5451Z" fill="#161616"/>
<path d="M214.49 75.7787C213.887 71.8872 213.827 67.9052 214.43 64.0137C214.671 62.445 214.972 60.8462 215.514 59.3379C215.846 58.4027 216.297 57.3167 216.96 56.5625C217.864 55.567 219.641 55.0542 220.123 56.7435C220.274 57.3167 221.148 57.0754 220.997 56.5022C220.575 55.0542 219.189 54.2699 217.743 54.843C215.906 55.5972 215.032 57.8597 214.46 59.5792C212.773 64.798 212.773 70.6504 213.586 76.02C213.707 76.5932 214.58 76.3519 214.49 75.7787Z" fill="#161616"/>
<path d="M218.858 60.2127C219.581 58.4329 221.63 54.8431 223.859 57.2866C224.25 57.7089 224.883 57.0754 224.491 56.6531C223.467 55.5369 221.991 55.3559 220.696 56.1101C219.25 56.9246 218.587 58.5234 217.984 60.0016C217.774 60.5144 218.647 60.7557 218.858 60.2127Z" fill="#161616"/>
<path d="M222.654 60.9669C222.684 59.8206 223.136 58.5536 224.25 58.0106C225.184 57.5581 226.299 57.7693 226.932 58.5838C227.293 59.0363 227.926 58.4028 227.564 57.9503C226.691 56.8643 225.124 56.5928 223.889 57.1659C222.443 57.8598 221.78 59.4284 221.75 60.9669C221.72 61.5401 222.624 61.5401 222.654 60.9669Z" fill="#161616"/>
<path d="M225.275 61.2685C225.817 59.2473 228.076 57.4072 230.035 59.0362C230.486 59.3982 231.119 58.7647 230.667 58.4027C228.167 56.3513 225.154 58.282 224.401 61.0272C224.251 61.6003 225.124 61.8417 225.275 61.2685Z" fill="#161616"/>
<path d="M229.854 58.8853C230.818 60.2428 228.679 61.0875 227.926 61.721C227.293 62.2338 226.932 62.8975 226.66 63.6517C225.937 65.7332 225.606 67.9957 225.425 70.1677C225.365 70.7408 226.269 70.7408 226.329 70.1677C226.48 68.5688 226.721 66.97 227.112 65.4013C227.233 64.8885 227.353 64.3757 227.534 63.8628C227.926 62.807 228.498 62.4148 229.372 61.7813C230.456 60.997 231.601 59.73 230.637 58.3725C230.305 57.9502 229.522 58.4027 229.854 58.8853Z" fill="#161616"/>
<path d="M213.375 74.8738C213.857 76.9251 214.46 78.9463 215.213 80.9373C215.424 81.4803 216.298 81.2389 216.087 80.6959C215.334 78.7049 214.731 76.6838 214.249 74.6324C214.129 74.0593 213.255 74.3006 213.375 74.8738Z" fill="#161616"/>
<path d="M215.062 81.5104C216.207 91.8877 218.768 102.537 225.727 110.621C231.27 117.047 240.066 121.934 248.742 120.335C252.839 119.581 256.575 117.529 259.557 114.664C259.979 114.271 259.346 113.608 258.924 114.03C252.96 119.762 244.464 121.27 236.903 117.861C228.769 114.151 223.076 107.182 219.852 98.9467C217.683 93.3659 216.599 87.4532 215.936 81.5406C215.906 80.9372 215.002 80.9372 215.062 81.5104Z" fill="#161616"/>
</svg>
