<svg width="652" height="442" viewBox="0 0 652 442" fill="none" xmlns="http://www.w3.org/2000/svg">
<path d="M380.157 47.8097C370.173 53.1505 367.321 62.3588 366.139 66.1527C365.854 67.0735 362.512 78.3813 368.298 90.168C370.01 93.6672 371.844 97.2768 376 99.008C378.405 100.039 380.564 99.9657 389.04 99.3027C392.993 99.008 397.272 98.6397 401.836 98.1977C405.055 94.4775 410.597 87.0372 412.227 76.5765C412.512 74.6243 415.854 51.3457 401.836 45.1577C392.667 41.0692 381.624 46.9993 380.157 47.8097Z" fill="#EC615B"/>
<path d="M195.804 102.728C200.89 102.728 205.013 98.6055 205.013 93.5198C205.013 88.4342 200.89 84.3115 195.804 84.3115C190.717 84.3115 186.594 88.4342 186.594 93.5198C186.594 98.6055 190.717 102.728 195.804 102.728Z" fill="#EC615B"/>
<path d="M404.648 250.283C408.428 250.283 411.494 247.611 411.494 244.316C411.494 241.02 408.428 238.348 404.648 238.348C400.867 238.348 397.802 241.02 397.802 244.316C397.802 247.611 400.867 250.283 404.648 250.283Z" fill="#EC615B"/>
<path d="M195.885 214.259C198.698 214.259 200.979 212.198 200.979 209.655C200.979 207.113 198.698 205.051 195.885 205.051C193.072 205.051 190.792 207.113 190.792 209.655C190.792 212.198 193.072 214.259 195.885 214.259Z" fill="#EC615B"/>
<path d="M186.39 99.671C190.869 99.671 194.5 96.2244 194.5 91.9728C194.5 87.7213 190.869 84.2747 186.39 84.2747C181.912 84.2747 178.281 87.7213 178.281 91.9728C178.281 96.2244 181.912 99.671 186.39 99.671Z" fill="#5222D0"/>
<path d="M402.773 240.853C405.541 240.853 407.785 238.742 407.785 236.138C407.785 233.535 405.541 231.424 402.773 231.424C400.005 231.424 397.761 233.535 397.761 236.138C397.761 238.742 400.005 240.853 402.773 240.853Z" fill="#5222D0"/>
<path d="M469.766 110.832C472.804 110.832 475.267 108.457 475.267 105.528C475.267 102.598 472.804 100.224 469.766 100.224C466.728 100.224 464.265 102.598 464.265 105.528C464.265 108.457 466.728 110.832 469.766 110.832Z" fill="#5222D0"/>
<path d="M350.287 143.613C349.39 142.324 347.924 143.539 347.312 144.423C346.049 146.265 345.234 148.549 346.171 150.648C346.864 152.232 348.576 153.558 350.572 153.3C352.406 153.079 353.791 151.716 353.751 150.059C353.751 149.617 353.058 149.285 352.691 149.654C350.532 152.122 347.883 155.621 350.043 158.788C351.55 160.962 355.259 161.256 356.726 158.899C356.359 158.862 355.992 158.825 355.625 158.752C355.829 159.783 356.033 160.814 356.196 161.846C356.318 162.545 357.5 162.251 357.378 161.551C357.174 160.52 356.97 159.488 356.807 158.457C356.725 157.978 355.911 157.941 355.707 158.31C355.055 159.341 353.588 159.709 352.406 159.194C351.102 158.604 350.532 157.278 350.532 155.989C350.532 153.853 352.202 151.974 353.588 150.39C353.221 150.243 352.895 150.133 352.528 149.985C352.569 151.385 351.061 152.416 349.554 152.122C348.413 151.901 347.679 151.017 347.272 150.059C346.864 149.064 346.905 148.07 347.231 147.075C347.271 147.002 348.942 143.724 349.187 144.092C349.635 144.755 350.694 144.202 350.287 143.613Z" fill="#EC615B"/>
<path d="M183.905 146.928C184.801 144.718 187.776 145.676 188.713 147.223C189.039 147.739 189.202 148.328 189.284 148.917C189.447 150.022 189.325 150.464 188.265 151.127C187.124 152.159 186.839 151.753 187.45 149.912C187.735 149.801 188.061 149.691 188.347 149.58C189.121 149.396 190.017 149.433 190.792 149.654C192.748 150.243 193.726 152.122 193.44 153.853C193.359 154.295 193.848 154.737 194.337 154.479C196.985 153.116 200.49 154.626 201.101 157.315C201.264 158.015 202.446 157.72 202.283 157.021C201.509 153.632 197.067 151.864 193.725 153.558C194.011 153.779 194.337 153.963 194.622 154.184C195.152 150.943 192.421 147.923 188.632 148.438C187.328 148.623 185.372 149.359 185.209 150.759C185.087 151.901 186.268 152.748 187.45 152.858C190.955 153.153 190.873 148.549 189.732 146.707C188.184 144.203 183.905 143.576 182.682 146.67C182.438 147.297 183.619 147.591 183.905 146.928Z" fill="#EC615B"/>
<path d="M398.454 285.569C401.591 287.447 404.24 289.841 406.359 292.641C406.807 293.23 407.867 292.678 407.419 292.088C405.177 289.142 402.406 286.637 399.106 284.648C398.413 284.206 397.802 285.164 398.454 285.569Z" fill="#5222D0"/>
<path d="M406.4 287.595C407.052 288.294 407.663 289.031 408.315 289.731C408.804 290.283 409.66 289.51 409.171 288.958C408.519 288.258 407.908 287.521 407.256 286.821C406.767 286.269 405.911 287.079 406.4 287.595Z" fill="#5222D0"/>
<path d="M402.651 277.281C405.463 279.639 407.785 282.328 409.578 285.385C409.945 286.011 411.005 285.458 410.638 284.832C408.804 281.701 406.4 278.902 403.507 276.508C402.936 275.992 402.08 276.803 402.651 277.281Z" fill="#5222D0"/>
<path d="M120.905 318.756C121.802 326.749 123.35 334.631 125.51 342.44C125.714 343.139 126.896 342.845 126.692 342.145C124.573 334.447 123.024 326.638 122.128 318.756C122.046 318.056 120.824 318.056 120.905 318.756Z" fill="#E8E8E8"/>
<path d="M125.755 342.808C133.782 344.686 142.136 344.686 150.164 342.808C150.938 342.624 150.612 341.556 149.838 341.74C142.014 343.581 133.905 343.581 126.081 341.74C125.347 341.556 125.021 342.624 125.755 342.808Z" fill="#E8E8E8"/>
<path d="M151.101 341.703C151.631 333.857 152.323 326.012 153.138 318.166C153.22 317.466 151.997 317.466 151.916 318.166C151.101 326.012 150.408 333.857 149.878 341.703C149.838 342.403 151.06 342.403 151.101 341.703Z" fill="#E8E8E8"/>
<path d="M121.598 319.345C131.745 321.223 142.177 321.15 152.323 319.087C153.098 318.94 152.772 317.872 151.997 318.019C142.095 320.008 131.867 320.118 121.924 318.277C121.15 318.129 120.824 319.198 121.598 319.345Z" fill="#E8E8E8"/>
<path d="M121.476 321.997C121.802 323.507 123.921 323.434 125.225 323.544C128.525 323.802 131.867 323.876 135.168 323.802C138.346 323.728 141.525 323.507 144.703 323.176C147.23 322.881 149.675 322.586 151.916 321.445C152.609 321.113 151.997 320.155 151.305 320.487C147.27 322.513 141.688 322.439 137.164 322.623C134.923 322.697 132.641 322.734 130.4 322.697C129.218 322.66 122.902 322.918 122.657 321.702C122.494 321.003 121.353 321.297 121.476 321.997Z" fill="#E8E8E8"/>
<path d="M123.798 334.778C125.754 337.909 128.24 340.672 131.215 343.066C131.785 343.545 132.682 342.771 132.071 342.292C129.137 339.972 126.732 337.283 124.858 334.226C124.491 333.6 123.432 334.152 123.798 334.778Z" fill="#E8E8E8"/>
<path d="M122.209 326.27C126.366 332.605 131.419 338.425 137.205 343.655C137.776 344.171 138.631 343.36 138.061 342.882C132.356 337.725 127.384 331.979 123.269 325.717C122.861 325.128 121.802 325.68 122.209 326.27Z" fill="#E8E8E8"/>
<path d="M129.015 323.618C133.334 330.579 138.346 337.172 144.011 343.324C144.5 343.876 145.355 343.103 144.866 342.55C139.284 336.473 134.312 329.953 130.074 323.065C129.707 322.439 128.648 322.992 129.015 323.618Z" fill="#E8E8E8"/>
<path d="M136.798 323.875C140.995 329.548 145.233 335.183 149.512 340.819C149.96 341.408 151.019 340.856 150.571 340.266C146.293 334.631 142.054 328.995 137.857 323.323C137.409 322.734 136.35 323.286 136.798 323.875Z" fill="#E8E8E8"/>
<path d="M143.318 323.544C145.437 326.638 147.719 329.658 150.082 332.605C150.53 333.158 151.59 332.605 151.142 332.053C148.778 329.106 146.496 326.086 144.377 322.992C143.97 322.402 142.91 322.955 143.318 323.544Z" fill="#E8E8E8"/>
<path d="M108.069 286.342C108.558 288.884 109.047 291.462 109.577 294.004C109.74 294.704 109.862 295.44 110.514 295.882C110.962 296.214 112.429 296.177 112.714 296.545C112.755 296.324 112.796 296.103 112.796 295.882C112.185 296.435 111.574 296.987 110.922 297.503C110.759 297.65 110.718 297.871 110.758 298.055C111.125 299.05 111.37 300.523 112.103 301.37C112.47 301.812 113.122 301.739 113.407 301.997C113.652 302.218 113.57 302.07 113.448 302.733C113.366 303.286 113.366 303.875 113.448 304.464C113.57 305.348 113.855 306.195 114.222 307.006C116.341 311.647 120.457 315.404 124.41 318.866C124.98 319.345 125.836 318.571 125.265 318.093C122.739 315.883 120.212 313.599 118.134 311.021C116.097 308.479 113.692 305.054 114.956 301.812C115.037 301.628 114.956 301.37 114.793 301.26C114.019 300.707 113.244 300.928 112.714 300.044C111.696 298.387 112.266 297.834 113.57 296.692C113.774 296.545 113.815 296.214 113.652 296.03C113.326 295.588 113.081 295.44 112.552 295.293C112.226 295.182 111.736 295.293 111.41 295.145C110.718 294.814 110.718 294.004 110.595 293.414C110.106 290.983 109.617 288.516 109.169 286.085C109.088 285.348 107.906 285.643 108.069 286.342Z" fill="#E8E8E8"/>
<path d="M108.965 286.195C124.858 290.983 135.738 304.391 136.064 319.566C136.064 320.266 137.287 320.266 137.287 319.566C136.961 303.912 125.714 290.099 109.291 285.127C108.558 284.906 108.232 285.974 108.965 286.195Z" fill="#E8E8E8"/>
<path d="M133.375 304.464C137.328 294.556 143.155 284.98 152.487 278.46C153.098 278.018 152.487 277.06 151.875 277.502C142.258 284.243 136.268 293.967 132.193 304.17C131.949 304.833 133.13 305.127 133.375 304.464Z" fill="#E8E8E8"/>
<path d="M151.427 278.239C151.712 281.628 152.038 285.016 152.324 288.442C152.405 289.142 153.628 289.142 153.546 288.442C153.261 285.053 152.935 281.665 152.65 278.239C152.609 277.539 151.386 277.539 151.427 278.239Z" fill="#E8E8E8"/>
<path d="M152.853 288.074C152.324 288.184 151.794 288.295 151.305 288.442C150.531 288.626 150.857 289.694 151.631 289.51C152.161 289.4 152.69 289.289 153.179 289.142C153.954 288.958 153.628 287.926 152.853 288.074Z" fill="#E8E8E8"/>
<path d="M150.693 289.436C150.856 290.136 151.509 290.578 152.242 290.652C152.568 290.689 152.853 290.394 152.853 290.099C152.853 289.768 152.568 289.584 152.242 289.547C152.364 289.547 152.242 289.547 152.201 289.547C152.161 289.547 152.079 289.51 152.161 289.547C152.12 289.51 152.079 289.51 152.038 289.473C151.957 289.436 152.12 289.547 151.998 289.436C151.957 289.4 151.957 289.4 151.916 289.363C151.997 289.436 151.916 289.363 151.916 289.326C151.875 289.289 151.875 289.215 151.875 289.289C151.875 289.252 151.835 289.179 151.835 289.142C151.753 288.847 151.386 288.663 151.101 288.773C150.775 288.847 150.612 289.142 150.693 289.436Z" fill="#E8E8E8"/>
<path d="M151.631 290.247C151.672 292.346 151.59 294.409 151.346 296.472C151.264 297.135 151.386 298.681 150.897 299.197C150.857 299.234 150.123 299.345 149.96 299.455C149.349 299.897 150.205 300.67 150.816 300.228C151.02 300.081 151.509 300.229 151.835 299.897C152.324 299.455 152.242 298.424 152.324 297.908C152.69 295.366 152.853 292.788 152.813 290.21C152.853 289.547 151.631 289.547 151.631 290.247Z" fill="#E8E8E8"/>
<path d="M149.471 300.413C150.775 301.812 150.408 304.133 150.286 305.827C150.123 307.779 149.756 309.584 148.697 311.279C147.189 313.783 145.07 315.883 143.97 318.608C143.684 319.271 144.866 319.566 145.151 318.903C146.618 315.33 150.001 312.678 151.019 308.921C151.753 306.232 152.446 301.923 150.327 299.639C149.838 299.124 148.982 299.897 149.471 300.413Z" fill="#E8E8E8"/>
<path d="M139.854 319.124C140.995 308.663 144.051 298.461 148.941 288.958C149.267 288.331 148.208 287.742 147.882 288.405C142.91 298.129 139.772 308.479 138.631 319.161C138.55 319.861 139.772 319.824 139.854 319.124Z" fill="#E8E8E8"/>
<path d="M115.812 292.346C122.943 300.45 128.159 309.768 131.215 319.713C131.419 320.413 132.601 320.119 132.397 319.419C129.259 309.253 123.921 299.823 116.667 291.573C116.178 291.02 115.323 291.794 115.812 292.346Z" fill="#E8E8E8"/>
<path d="M116.586 305.938C120.009 305.754 123.187 306.49 126.08 308.111C126.732 308.479 127.384 307.522 126.692 307.153C123.635 305.459 120.172 304.649 116.586 304.833C115.771 304.87 115.771 305.975 116.586 305.938Z" fill="#E8E8E8"/>
<path d="M124.043 301.002C123.798 298.976 124.084 297.024 124.939 295.109C125.225 294.446 124.043 294.151 123.758 294.814C122.861 296.803 122.576 298.866 122.82 301.002C122.902 301.702 124.124 301.702 124.043 301.002Z" fill="#E8E8E8"/>
<path d="M137.246 294.888C138.591 297.871 140.547 301.039 141.036 304.207C141.158 304.906 142.34 304.612 142.217 303.912C141.688 300.707 139.732 297.54 138.428 294.593C138.142 293.93 136.961 294.225 137.246 294.888Z" fill="#E8E8E8"/>
<path d="M144.744 298.387C145.926 297.171 147.067 295.735 148.574 294.814C149.838 294.041 151.223 293.525 152.201 292.457C152.69 291.904 151.834 291.131 151.345 291.683C150.286 292.825 148.737 293.304 147.474 294.188C146.089 295.146 145.029 296.435 143.888 297.613C143.358 298.166 144.214 298.939 144.744 298.387Z" fill="#E8E8E8"/>
<path d="M145.152 318.756C147.108 318.277 149.104 318.093 151.142 318.203C151.916 318.24 151.916 317.135 151.142 317.098C148.982 316.988 146.904 317.172 144.826 317.688C144.092 317.872 144.377 318.94 145.152 318.756Z" fill="#E8E8E8"/>
<path d="M144.989 319.198C147.271 319.382 149.471 319.124 151.672 318.498C152.405 318.277 152.079 317.209 151.346 317.43C149.267 318.019 147.148 318.24 144.989 318.093C144.214 318.056 144.214 319.161 144.989 319.198Z" fill="#E8E8E8"/>
<path d="M122.128 319.013C122.658 319.013 123.147 319.013 123.676 319.013C124.451 319.013 124.451 317.908 123.676 317.908C123.147 317.908 122.658 317.908 122.128 317.908C121.354 317.908 121.354 319.013 122.128 319.013Z" fill="#E8E8E8"/>
<path d="M151.998 327.927C164.915 327.927 177.874 327.927 190.792 327.927C191.566 327.927 191.566 326.822 190.792 326.822C177.874 326.822 164.915 326.822 151.998 326.822C151.223 326.822 151.223 327.927 151.998 327.927Z" fill="#E8E8E8"/>
<path d="M370.662 320.634C378.364 320.634 386.025 320.634 393.727 320.634C394.501 320.634 394.501 319.529 393.727 319.529C386.025 319.529 378.364 319.529 370.662 319.529C369.888 319.529 369.888 320.634 370.662 320.634Z" fill="#E8E8E8"/>
<path d="M440.589 321.297C473.8 321.297 507.011 321.297 540.223 321.297C549.677 321.297 559.131 321.297 568.585 321.297C569.359 321.297 569.359 320.192 568.585 320.192C535.374 320.192 502.162 320.192 468.951 320.192C459.497 320.192 450.043 320.192 440.589 320.192C439.815 320.192 439.815 321.297 440.589 321.297Z" fill="#E8E8E8"/>
<path d="M391.404 200.373C388.307 206.156 384.965 211.829 381.42 217.39C381.257 217.685 381.379 218.164 381.787 218.201C399.268 220.595 414.916 228.44 429.994 236.36C430.687 236.728 431.298 235.77 430.605 235.402C415.405 227.446 399.676 219.564 382.072 217.133C382.194 217.39 382.316 217.685 382.439 217.943C386.025 212.381 389.325 206.709 392.422 200.926C392.789 200.3 391.77 199.71 391.404 200.373Z" fill="#E8E8E8"/>
<path d="M394.093 220.447C395.316 217.28 396.538 214.075 397.761 210.908C398.291 209.582 398.657 208.108 399.35 206.819C399.513 206.046 400.043 205.456 400.858 205.014C401.347 205.125 401.836 205.235 402.325 205.346C403.058 205.53 403.792 205.677 404.485 205.862C406.155 206.23 408.845 206.23 408.56 208.256C408.356 209.692 407.419 211.239 406.889 212.639C405.666 215.77 404.485 218.9 403.262 222.031C403.018 222.694 404.199 222.989 404.444 222.326C406.033 218.201 407.622 214.039 409.212 209.913C409.578 208.956 410.597 207.335 409.782 206.303C408.886 205.198 406.196 205.125 404.811 204.793C403.466 204.499 401.102 203.394 399.717 203.983C398.535 204.462 398.291 206.303 397.924 207.224C396.253 211.534 394.582 215.88 392.912 220.19C392.667 220.816 393.849 221.11 394.093 220.447Z" fill="#E8E8E8"/>
<path d="M409.823 224.389C412.431 219.416 415.08 214.407 417.688 209.434C418.992 206.93 420.296 204.462 421.64 201.957C422.252 200.815 422.741 199.453 423.515 198.384C424.167 197.464 424.33 197.243 425.471 197.648C426.082 197.869 426.816 198.421 427.345 198.753C428.038 199.195 429.138 199.674 429.627 200.263C430.239 200.963 429.994 201.699 429.627 202.583C429.138 203.762 428.405 204.904 427.794 206.046C426.449 208.55 425.104 211.055 423.678 213.56C420.988 218.311 418.177 223.026 415.283 227.704C414.876 228.33 415.935 228.882 416.343 228.256C419.888 222.584 423.27 216.838 426.449 211.018C428.038 208.145 429.79 205.199 431.135 202.215C432.072 200.042 430.035 199.158 428.242 198.016C426.816 197.132 424.574 195.106 423.026 196.764C422.048 197.795 421.518 199.526 420.866 200.779C420.051 202.289 419.277 203.799 418.462 205.346C415.202 211.534 411.942 217.722 408.723 223.91C408.437 224.462 409.497 225.052 409.823 224.389Z" fill="#E8E8E8"/>
<path d="M423.352 232.05C426.856 227.078 430.809 222.363 435.169 218.017C434.925 218.053 434.68 218.09 434.436 218.09C435.984 219.048 437.492 219.969 439.041 220.926C438.959 220.669 438.878 220.411 438.837 220.153C435.373 225.052 431.909 229.914 428.446 234.813C428.038 235.402 429.057 235.954 429.505 235.365C432.969 230.466 436.433 225.604 439.896 220.705C440.1 220.448 439.937 220.116 439.693 219.932C438.144 218.974 436.636 218.053 435.088 217.096C434.884 216.948 434.517 217.022 434.354 217.169C429.913 221.626 425.878 226.378 422.333 231.424C421.885 232.124 422.944 232.676 423.352 232.05Z" fill="#E8E8E8"/>
<path d="M471.967 197.021C467.892 195.622 465.324 191.938 466.058 187.997C466.791 183.982 471.152 180.41 475.634 182.804C478.731 184.461 480.32 188.218 479.139 191.275C477.916 194.554 473.923 196.506 470.214 195.99C469.44 195.88 469.114 196.948 469.888 197.058C474.249 197.648 478.853 195.474 480.32 191.57C481.787 187.666 479.424 182.951 475.186 181.367C470.214 179.526 465.691 183.393 464.835 187.703C463.939 192.27 466.914 196.469 471.6 198.09C472.374 198.347 472.7 197.279 471.967 197.021Z" fill="#E8E8E8"/>
<path d="M480.32 196.322C472.211 196.101 475.267 184.351 482.439 184.793C489.611 185.272 486.677 198.495 478.812 196.064C478.079 195.843 477.753 196.911 478.486 197.132C487.574 199.931 491.649 184.977 482.969 183.725C478.731 183.098 474.901 186.708 474.249 190.281C473.597 193.817 476.245 197.279 480.32 197.39C481.094 197.464 481.094 196.359 480.32 196.322Z" fill="#E8E8E8"/>
<path d="M474.249 162.988C473.556 162.325 473.23 161.256 473.76 160.446C474.289 159.673 475.593 159.304 476.408 159.894C477.142 160.409 477.305 161.514 476.612 162.067C475.797 162.73 474.493 162.398 473.719 161.846C473.108 161.404 472.252 162.177 472.863 162.619C474.126 163.503 476.082 163.945 477.427 162.877C478.65 161.883 478.527 160.041 477.305 159.083C476.042 158.089 474.045 158.383 472.985 159.488C471.803 160.741 472.13 162.619 473.352 163.761C473.923 164.277 474.778 163.503 474.249 162.988Z" fill="#E8E8E8"/>
<path d="M355.992 190.723C354.851 184.461 358.885 176.911 366.709 176.984C370.703 177.021 374.574 178.494 378.608 177.979C381.461 177.61 383.906 176.137 385.617 174.111C387.329 172.085 388.307 169.544 388.47 167.002C388.673 163.245 387.084 159.415 388.225 155.695C388.796 153.816 390.018 152.085 392.096 151.385C394.093 150.759 396.253 151.127 398.331 151.054C401.347 150.943 403.71 149.764 405.218 147.37C407.337 144.018 406.848 140.004 408.315 136.468C410.067 132.195 414.998 128.548 420.214 130.648C420.907 130.943 421.559 129.985 420.825 129.69C413.735 126.817 407.826 132.6 406.44 138.42C405.544 142.213 405.707 148.107 400.695 149.617C397.19 150.685 393.237 149.028 390.018 151.201C387.369 152.969 386.595 156.21 386.636 159.046C386.758 163.208 388.184 167.26 386.147 171.238C384.272 174.995 380.564 177.242 375.959 176.984C371.884 176.763 367.85 175.253 363.734 176.211C356.766 177.795 353.791 185.235 354.892 191.055C354.973 191.681 356.155 191.386 355.992 190.723Z" fill="#E8E8E8"/>
<path d="M407.5 164.461C405.992 161.367 408.071 158.42 411.371 157.426C413.776 156.689 416.424 156.652 418.503 155.179C420.133 154.037 420.662 152.6 420.459 150.759C420.255 149.028 420.255 147.665 421.763 146.486C423.026 145.492 424.697 145.123 426.327 145.05C430.809 144.902 436.962 146.965 440.222 143.024C441.73 141.182 441.282 138.898 441.975 136.836C442.912 133.963 445.968 132.195 449.228 132.342C450.002 132.379 450.002 131.274 449.228 131.237C446.742 131.127 444.338 131.974 442.627 133.595C440.508 135.62 440.793 137.904 440.141 140.445C438.389 147.407 427.671 142.508 422.618 144.681C420.744 145.492 419.236 146.928 419.073 148.843C418.869 151.09 420.01 152.932 417.484 154.479C416.139 155.289 414.591 155.547 413.042 155.879C410.475 156.431 407.948 157.131 406.644 159.378C405.585 161.146 405.585 163.172 406.481 164.976C406.767 165.676 407.785 165.087 407.5 164.461Z" fill="#E8E8E8"/>
<path d="M480.117 115.399C479.954 115.067 479.791 114.699 479.668 114.331C480.198 113.778 480.687 113.226 481.217 112.673C481.38 112.636 482.113 113.078 482.358 113.078C482.969 113.152 483.499 113.005 483.988 112.673C485.496 111.605 484.966 109.911 485.414 108.474C486.148 106.006 489.367 107.701 490.834 105.859C492.301 104.054 491.771 100.223 495.683 101.255C496.457 101.439 496.783 100.371 496.009 100.187C493.768 99.5973 491.73 100.555 490.915 102.507C490.671 103.06 490.589 103.686 490.345 104.238C489.815 105.527 489.245 105.712 487.696 105.785C486.555 105.859 485.659 105.785 484.884 106.669C484.232 107.443 484.232 108.437 484.11 109.358C483.988 110.721 484.11 111.863 481.869 111.715C481.421 111.679 481.054 111.31 480.565 111.31C477.875 111.274 478.324 114.257 478.976 115.693C479.22 116.356 480.443 116.062 480.117 115.399Z" fill="#E8E8E8"/>
<path d="M487.778 118.456C487.126 117.683 486.025 115.436 487.941 114.846C488.633 114.625 489.53 114.883 490.263 114.883C490.915 114.883 491.486 114.883 492.016 114.478C493.646 113.299 492.464 111.2 493.32 109.727C494.705 107.332 497.476 109.211 499.432 107.959C500.818 107.075 501.184 105.38 501.429 103.98C501.551 103.281 500.369 102.986 500.247 103.686C499.962 105.343 499.636 107.185 497.354 107.369C496.172 107.48 495.276 107.111 494.175 107.59C492.382 108.364 491.812 109.8 491.771 111.458C491.73 112.857 492.097 113.557 489.489 113.668C489.163 113.668 488.837 113.594 488.511 113.594C487.574 113.668 486.759 114.11 486.229 114.81C485.088 116.283 485.74 117.977 486.881 119.266C487.411 119.819 488.267 119.009 487.778 118.456Z" fill="#E8E8E8"/>
<path d="M141.321 138.42C144.703 134.736 149.512 131.716 155.054 132.232C161.085 132.784 164.059 137.131 164.63 142.214C165.608 150.648 163.326 160.741 169.642 167.923C172.128 170.759 175.836 172.269 179.83 171.385C184.638 170.354 188.387 166.929 192.666 164.903C197.719 162.509 204.687 161.22 209.251 165.234C212.593 168.181 213.326 172.675 214.426 176.579C215.445 180.115 217.197 184.019 220.702 186.119C222.821 187.371 225.144 187.482 227.589 187.334C230.319 187.15 235.902 187.003 235.331 190.87C235.25 191.57 236.472 191.57 236.554 190.87C236.757 189.36 235.983 188.145 234.638 187.261C232.519 185.861 230.074 186.082 227.589 186.229C224.777 186.413 222.373 186.192 220.213 184.388C218.257 182.767 217.075 180.483 216.219 178.236C214.793 174.369 214.386 170.133 211.941 166.597C209.536 163.098 205.38 161.404 200.897 161.551C195.233 161.735 190.465 164.682 185.942 167.407C183.782 168.697 181.46 170.059 178.811 170.465C175.632 170.943 172.821 169.691 170.783 167.555C166.953 163.503 166.341 157.72 166.138 152.637C165.934 147.886 166.627 142.729 164.874 138.125C163.285 133.926 159.251 131.311 154.402 131.09C148.778 130.832 143.847 133.889 140.384 137.646C139.935 138.199 140.791 138.972 141.321 138.42Z" fill="#E8E8E8"/>
<path d="M120.742 195.253C127.099 204.83 132.764 214.738 137.776 224.941C138.102 225.604 139.161 225.015 138.835 224.389C133.823 214.186 128.118 204.278 121.802 194.701C121.394 194.075 120.335 194.627 120.742 195.253Z" fill="#E8E8E8"/>
<path d="M121.516 194.812C131.419 189.25 141.606 184.056 152.079 179.342C152.772 179.01 152.16 178.052 151.468 178.384C141.036 183.099 130.848 188.292 120.905 193.854C120.212 194.259 120.824 195.217 121.516 194.812Z" fill="#E8E8E8"/>
<path d="M151.346 178.863C156.521 188.697 161.981 198.384 167.768 207.924C168.135 208.55 169.194 207.998 168.827 207.372C163.041 197.832 157.54 188.145 152.405 178.31C152.038 177.647 151.02 178.2 151.346 178.863Z" fill="#E8E8E8"/>
<path d="M139.161 225.162C148.9 219.858 158.517 214.407 168.053 208.808C168.705 208.44 168.094 207.482 167.442 207.85C157.906 213.449 148.289 218.9 138.55 224.204C137.898 224.573 138.509 225.53 139.161 225.162Z" fill="#E8E8E8"/>
<path d="M138.387 191.57C138.142 198.642 138.591 205.677 139.732 212.676C139.854 213.376 141.036 213.081 140.913 212.381C139.772 205.493 139.365 198.532 139.609 191.57C139.65 190.87 138.428 190.87 138.387 191.57Z" fill="#E8E8E8"/>
<path d="M138.428 191.202C144.092 195.217 149.756 199.158 155.502 203.062C156.113 203.504 156.724 202.547 156.113 202.105C150.449 198.274 144.825 194.37 139.283 190.428C138.672 189.986 137.816 190.76 138.428 191.202Z" fill="#E8E8E8"/>
<path d="M140.995 212.897C145.681 209.103 151.794 207.077 156.236 202.989C156.806 202.473 155.91 201.699 155.38 202.215C150.938 206.267 144.866 208.329 140.139 212.123C139.528 212.565 140.425 213.339 140.995 212.897Z" fill="#E8E8E8"/>
<path d="M122.372 201.036C123.676 200.447 124.98 199.894 126.284 199.305C126.977 199.01 126.366 198.053 125.673 198.348C124.369 198.937 123.065 199.489 121.761 200.079C121.068 200.41 121.68 201.331 122.372 201.036Z" fill="#E8E8E8"/>
<path d="M126.569 207.298C127.67 206.635 128.851 206.082 130.074 205.604C130.807 205.346 130.481 204.278 129.748 204.535C128.403 205.051 127.14 205.64 125.917 206.34C125.306 206.745 125.917 207.703 126.569 207.298Z" fill="#E8E8E8"/>
<path d="M131.174 214.517C132.315 214.002 133.456 213.486 134.597 213.007C135.29 212.676 134.679 211.755 133.986 212.05C132.845 212.565 131.704 213.081 130.563 213.56C129.87 213.854 130.482 214.812 131.174 214.517Z" fill="#E8E8E8"/>
<path d="M133.538 221.737C134.801 220.742 136.105 219.895 137.572 219.158C138.265 218.79 137.653 217.869 136.961 218.201C135.453 218.974 134.027 219.895 132.682 220.963C132.071 221.442 132.926 222.216 133.538 221.737Z" fill="#E8E8E8"/>
<path d="M153.668 186.119C154.605 185.529 155.583 185.124 156.684 184.866C157.458 184.682 157.132 183.651 156.358 183.798C155.176 184.056 154.035 184.498 153.016 185.161C152.405 185.566 153.016 186.524 153.668 186.119Z" fill="#E8E8E8"/>
<path d="M157.295 192.417C158.599 191.681 159.903 190.944 161.166 190.171C161.818 189.802 161.207 188.845 160.555 189.213C159.251 189.95 157.947 190.686 156.684 191.46C155.991 191.865 156.602 192.823 157.295 192.417Z" fill="#E8E8E8"/>
<path d="M161.451 199.968C162.837 199.416 164.263 198.863 165.649 198.311C166.382 198.016 165.73 197.058 165.037 197.353C163.652 197.905 162.226 198.458 160.84 199.01C160.107 199.305 160.759 200.263 161.451 199.968Z" fill="#E8E8E8"/>
<path d="M164.426 204.904C165.526 203.946 166.749 203.136 168.094 202.436C168.786 202.105 168.175 201.147 167.482 201.478C166.056 202.215 164.752 203.062 163.57 204.094C163 204.609 163.856 205.383 164.426 204.904Z" fill="#E8E8E8"/>
<path d="M142.625 220.3C143.644 221.663 144.5 223.1 145.152 224.61C145.437 225.273 146.619 224.978 146.333 224.315C145.641 222.694 144.785 221.147 143.685 219.711C143.236 219.158 142.177 219.711 142.625 220.3Z" fill="#E8E8E8"/>
<path d="M148.86 217.243C149.634 218.495 150.367 219.711 151.142 220.963C151.508 221.589 152.568 221.037 152.201 220.411C151.427 219.158 150.693 217.943 149.919 216.691C149.552 216.064 148.493 216.617 148.86 217.243Z" fill="#E8E8E8"/>
<path d="M156.072 212.565C156.887 213.891 157.702 215.217 158.517 216.543C158.884 217.169 159.944 216.617 159.577 215.991C158.762 214.665 157.947 213.339 157.132 212.013C156.765 211.387 155.706 211.939 156.072 212.565Z" fill="#E8E8E8"/>
<path d="M162.552 209.066C163.204 210.466 163.856 211.865 164.549 213.228C164.875 213.891 165.893 213.302 165.608 212.676C164.956 211.276 164.304 209.876 163.611 208.513C163.285 207.887 162.226 208.44 162.552 209.066Z" fill="#E8E8E8"/>
<path d="M125.592 189.139C126.366 190.281 127.099 191.423 127.874 192.528C128.281 193.154 129.341 192.565 128.933 191.975C128.159 190.834 127.425 189.692 126.651 188.587C126.244 187.997 125.184 188.55 125.592 189.139Z" fill="#E8E8E8"/>
<path d="M132.601 185.456C133.334 186.929 134.068 188.403 134.801 189.876C135.127 190.539 136.187 189.95 135.861 189.323C135.127 187.85 134.394 186.377 133.66 184.903C133.293 184.24 132.275 184.793 132.601 185.456Z" fill="#E8E8E8"/>
<path d="M138.917 181.92C140.017 183.246 140.873 184.682 141.443 186.229C141.688 186.892 142.87 186.598 142.625 185.935C142.014 184.277 141.158 182.73 139.976 181.367C139.528 180.815 138.469 181.331 138.917 181.92Z" fill="#E8E8E8"/>
<path d="M145.722 179.084C146.578 180.262 147.393 181.404 148.248 182.583C148.656 183.172 149.715 182.62 149.308 182.03C148.452 180.852 147.637 179.71 146.781 178.531C146.333 177.942 145.274 178.494 145.722 179.084Z" fill="#E8E8E8"/>
<path d="M209.088 106.043C205.136 104.938 204.932 101.144 206.806 98.3082C208.64 95.5457 212.185 94.809 214.956 97.0927C217.238 99.008 217.442 102.286 215.323 104.386C213.204 106.522 209.74 106.485 207.295 104.865C206.684 104.423 206.073 105.38 206.684 105.822C209.781 107.885 214.304 107.553 216.627 104.644C219.031 101.697 218.176 97.5715 214.793 95.5825C206.643 90.831 199.634 104.533 208.762 107.111C209.537 107.332 209.863 106.264 209.088 106.043Z" fill="#E8E8E8"/>
<path d="M215.649 107.001C212.593 107.848 211.859 104.533 213.204 102.765C214.304 101.328 216.464 100.481 218.42 100.96C220.295 101.402 221.639 103.133 221.15 104.864C220.539 107.038 218.013 107.811 215.771 107.48C214.997 107.369 214.671 108.437 215.445 108.548C218.461 109.027 221.721 107.848 222.373 104.901C222.943 102.36 220.743 100.039 218.013 99.7447C214.997 99.4132 211.696 101.402 211.289 104.201C210.922 106.632 213.367 108.806 216.057 108.032C216.749 107.848 216.423 106.78 215.649 107.001Z" fill="#E8E8E8"/>
<path d="M189.651 130.979C188.673 132.784 190.058 134.589 192.096 135.068C193.644 135.436 195.274 135.105 196.863 135.178C198.575 135.252 200.286 135.62 201.835 136.246C205.258 137.646 207.458 140.188 207.581 143.613C207.703 146.486 206.766 149.47 208.151 152.195C211.085 157.941 219.154 153.558 223.31 157.278C226.774 160.409 225.348 166.118 229.993 168.512C230.686 168.881 231.297 167.923 230.604 167.555C226.448 165.418 227.426 159.857 224.492 156.763C222.943 155.142 220.702 154.7 218.42 154.553C215.649 154.405 212.063 154.921 210.026 152.785C207.662 150.28 208.925 146.523 208.803 143.576C208.722 141.256 207.866 139.156 206.073 137.499C204.484 136.062 202.405 135.068 200.246 134.552C199.145 134.294 198.004 134.11 196.863 134.073C195.396 134 189.039 134.663 190.751 131.532C191.077 130.906 190.017 130.353 189.651 130.979Z" fill="#E8E8E8"/>
<path d="M94.377 329.806C101.753 329.806 109.088 329.806 116.463 329.806C117.238 329.806 117.238 328.701 116.463 328.701C109.088 328.701 101.753 328.701 94.377 328.701C93.562 328.701 93.562 329.806 94.377 329.806Z" fill="#E8E8E8"/>
<path d="M106.276 354.779C120.457 354.779 134.597 354.779 148.778 354.779C149.553 354.779 149.553 353.674 148.778 353.674C134.597 353.674 120.457 353.674 106.276 353.674C105.461 353.674 105.461 354.779 106.276 354.779Z" fill="#E8E8E8"/>
<path d="M147.067 347.854C160.229 347.854 173.432 347.854 186.594 347.854C187.368 347.854 187.368 346.749 186.594 346.749C173.432 346.749 160.229 346.749 147.067 346.749C146.252 346.749 146.252 347.854 147.067 347.854Z" fill="#E8E8E8"/>
<path d="M366.261 345.939C372.903 344.465 379.586 344.318 386.351 345.276C389.203 345.681 392.096 346.086 394.99 345.865C397.801 345.644 400.532 344.87 403.262 344.207C406.359 343.434 409.456 342.845 412.716 343.066C416.057 343.287 419.277 344.134 422.537 344.797C425.348 345.386 428.201 345.791 431.094 345.754C434.15 345.681 437.166 345.202 440.141 344.797C448.291 343.618 455.952 344.355 464.02 345.57C464.794 345.681 465.12 344.613 464.346 344.502C457.826 343.544 451.265 342.55 444.623 343.139C437.696 343.765 431.257 345.312 424.248 344.023C418.38 342.955 412.797 341.298 406.766 342.329C403.547 342.881 400.491 343.913 397.272 344.465C393.686 345.091 390.222 344.723 386.636 344.207C379.668 343.25 372.781 343.323 365.894 344.87C365.201 345.055 365.527 346.123 366.261 345.939Z" fill="#E8E8E8"/>
<path d="M428.853 334.741C441.648 334.115 454.444 333.489 467.239 332.9C473.556 332.605 479.668 332.716 485.944 333.489C488.755 333.821 491.445 333.894 494.257 333.6C497.394 333.268 500.654 332.826 503.588 334.189C504.281 334.52 504.892 333.563 504.2 333.231C499.228 330.948 493.482 333.084 488.144 332.642C484.966 332.384 481.869 331.832 478.69 331.684C475.389 331.537 472.089 331.611 468.788 331.758C455.463 332.31 442.137 333.047 428.812 333.673C428.079 333.673 428.079 334.778 428.853 334.741Z" fill="#E8E8E8"/>
<path d="M178.281 366.381C184.312 366.897 190.384 367.413 196.415 366.786C199.227 366.492 201.916 365.939 204.646 365.203C208.192 364.245 211.37 363.987 215.038 364.576C217.849 365.018 220.62 365.645 223.432 365.866C226.407 366.087 229.382 365.939 232.356 365.681C238.591 365.129 244.826 364.171 251.02 365.424C251.794 365.571 252.12 364.503 251.346 364.355C245.396 363.177 239.447 363.95 233.457 364.503C230.482 364.761 227.507 365.018 224.532 364.871C221.15 364.724 217.89 363.913 214.589 363.435C211.818 363.029 209.17 363.029 206.439 363.619C203.505 364.282 200.735 365.166 197.719 365.571C191.281 366.418 184.72 365.829 178.281 365.313C177.466 365.203 177.507 366.308 178.281 366.381Z" fill="#E8E8E8"/>
<path d="M242.748 69.173C241.159 68.1785 238.999 66.5947 239.651 64.6057C240.344 62.543 242.055 63.5375 243.644 63.0587C245.763 62.4325 245.641 60.112 245.03 58.6018C244.419 57.1285 243.115 53.5557 246.497 54.7712C247.271 55.0658 247.842 55.5447 248.738 55.2868C249.553 55.0658 249.961 54.4028 250.164 53.703C250.327 53.0768 250.205 52.4138 250.164 51.7508C250.083 51.3088 250.042 50.83 250.042 50.388C249.879 49.3198 250.613 48.8778 252.161 49.062C252.202 49.7618 253.424 49.7618 253.384 49.062C253.302 48.0307 252.446 47.294 251.224 47.3308C249.798 47.3677 249.023 48.62 248.86 49.7987C248.738 50.609 249.472 52.4875 249.064 53.1505C248.575 53.4452 248.086 53.7767 247.556 54.0713C247.353 53.9608 247.149 53.8503 246.945 53.7398C246.578 53.6293 246.293 53.4083 245.926 53.3347C244.663 53.0768 243.644 53.7767 243.196 54.808C242.422 56.576 243.807 58.0493 244.215 59.7068C244.745 61.9905 242.829 61.7327 241.159 61.9905C240.425 62.101 239.814 62.4325 239.325 62.9113C236.758 65.6002 239.732 68.5837 242.177 70.1307C242.789 70.5358 243.4 69.5782 242.748 69.173Z" fill="#E8E8E8"/>
<path d="M250.776 68.1417C249.431 66.742 248.412 64.8267 251.02 64.09C251.672 63.9058 252.406 63.9795 253.017 63.6112C254.362 62.764 253.791 61.6222 253.547 60.4435C253.424 59.7805 253.139 58.8965 253.587 58.2335C253.913 57.7547 255.095 57.5705 255.706 57.46C256.562 57.2758 257.459 57.1653 258.192 56.7233C259.292 56.0235 259.7 54.7712 258.966 53.703C258.559 53.1137 257.499 53.6662 257.907 54.2555C259.129 56.0235 253.424 56.5023 252.446 57.7915C251.305 59.3017 253.71 61.9537 251.713 62.9113C250.939 63.2797 249.961 63.0218 249.227 63.5007C248.697 63.8322 248.331 64.3478 248.168 64.9003C247.719 66.4842 248.901 67.847 249.961 68.952C250.45 69.4677 251.305 68.6942 250.776 68.1417Z" fill="#E8E8E8"/>
<path d="M202.65 59.4122C201.59 58.7492 201.468 57.5705 201.794 56.5392C201.998 55.8393 202.976 53.924 203.913 53.8503C205.461 53.703 206.236 55.471 206.643 56.5023C207.01 57.4968 207.132 58.4913 207.173 59.5227C207.173 60.2225 208.395 60.2225 208.395 59.5227C208.355 57.46 206.847 51.1247 203.098 52.9663C201.672 53.6662 200.612 55.692 200.449 57.0917C200.286 58.4177 200.857 59.5963 202.038 60.3698C202.65 60.775 203.261 59.8173 202.65 59.4122Z" fill="#E8E8E8"/>
<path d="M202.161 60.0015C200.694 60.333 199.227 60.6645 197.719 60.996C196.863 61.1802 195.396 61.2538 194.703 61.8432C193.522 62.8377 193.848 65.8948 193.848 67.184C193.848 67.5523 194.255 67.8102 194.622 67.6997C194.826 67.6628 195.029 67.5892 195.274 67.5523C196.333 67.0367 196.863 67.3682 196.904 68.4732C197.719 69.2098 197.719 69.6518 196.904 69.7255C196.415 69.9097 195.926 69.9833 195.396 69.9833C195.07 70.0202 194.785 70.2043 194.785 70.5358C194.866 72.8932 195.07 75.2137 195.355 77.571C195.437 78.2708 196.659 78.2708 196.578 77.571C196.293 75.2137 196.089 72.8932 196.007 70.5358C195.804 70.72 195.6 70.9042 195.396 71.0883C197.108 70.9042 199.838 70.278 199.471 68.1785C199.064 65.9317 196.048 66.1895 194.337 66.6315C194.581 66.8157 194.866 66.9998 195.111 67.1472C195.111 66.3 195.111 65.4897 195.192 64.6425C195.315 63.3165 195.233 62.8377 196.578 62.3588C198.412 61.6958 200.571 61.4748 202.487 61.0328C203.261 60.9223 202.935 59.8542 202.161 60.0015Z" fill="#E8E8E8"/>
<path d="M208.029 60.333C209.74 60.2593 211.493 60.2593 213.204 60.4435C214.834 60.6277 214.753 60.8487 214.997 62.1378C215.16 62.9482 215.201 63.7953 215.282 64.6057C215.608 67.7733 215.853 70.941 216.057 74.1087C216.097 74.8085 217.32 74.8085 217.279 74.1087C217.035 69.7992 216.872 65.3792 216.097 61.1065C215.894 60.0383 215.69 59.7068 214.467 59.5227C212.348 59.1543 210.148 59.1543 208.029 59.2648C207.255 59.2648 207.255 60.3698 208.029 60.333Z" fill="#E8E8E8"/>
<path d="M196.252 78.3445C198.656 77.9762 201.06 77.6078 203.424 77.2395C206.154 76.8343 208.762 77.0185 211.492 76.8343C212.756 76.7238 218.746 76.1713 216.545 73.9245C216.016 73.4088 215.16 74.1823 215.69 74.698C216.016 75.0295 210.474 75.7662 210.351 75.7662C208.64 75.803 206.928 75.7293 205.217 75.9135C202.12 76.245 199.023 76.8343 195.926 77.3132C195.152 77.3868 195.478 78.455 196.252 78.3445Z" fill="#E8E8E8"/>
<path d="M412.716 290.468C412.594 294.335 412.471 298.203 412.349 302.107C417.769 302.438 423.148 302.733 428.568 303.065C428.568 299.087 428.568 295.109 428.568 291.131C423.27 290.91 418.013 290.689 412.716 290.468Z" fill="white" stroke="#161616" stroke-width="2" stroke-miterlimit="10"/>
<path d="M419.766 333.452C420.499 337.725 420.825 341.261 420.988 343.802C421.518 352.237 421.11 354.189 420.295 355.736C418.299 359.53 414.672 361.114 414.998 361.63C415.242 361.961 417.035 361.593 425.022 357.799C424.533 349.401 424.085 341.04 423.596 332.642C422.333 332.936 421.07 333.194 419.766 333.452Z" fill="white" stroke="#161616" stroke-width="2" stroke-miterlimit="10"/>
<path d="M409.211 306.38C416.139 306.417 423.066 306.49 429.994 306.527C429.22 314.925 428.486 323.286 427.712 331.684C421.681 331.242 415.609 330.837 409.578 330.395C409.415 322.402 409.293 314.409 409.211 306.38Z" fill="white" stroke="#161616" stroke-width="2" stroke-miterlimit="10"/>
<path d="M412.023 333.157C414.224 337.983 414.957 342.145 415.202 344.944C415.569 349.069 415.813 352.237 413.612 354.337C412.797 355.147 411.453 355.92 408.845 357.504C406.522 358.904 405.422 359.42 405.503 359.567C405.625 359.788 407.867 359.346 417.647 356.215C418.299 353.232 418.828 349.401 418.706 344.907C418.543 340.119 417.688 336.03 416.75 332.973C415.202 333.047 413.612 333.084 412.023 333.157Z" fill="white" stroke="#161616" stroke-width="2" stroke-miterlimit="10"/>
<path d="M415.568 361.961C416.791 361.04 417.932 360.046 419.032 358.978C420.296 357.725 422.17 355.81 424.126 357.468C424.167 357.173 424.207 356.878 424.248 356.584C421.355 357.873 418.503 359.162 415.609 360.414C415.039 360.672 415.324 361.446 415.935 361.446C418.666 361.482 420.377 357.173 423.189 357.983C423.922 358.204 424.248 357.136 423.515 356.915C422.292 356.584 421.355 356.878 420.336 357.541C419.154 358.315 417.484 360.341 415.976 360.341C416.098 360.672 416.18 361.04 416.302 361.372C419.195 360.083 422.048 358.794 424.941 357.541C425.308 357.394 425.348 356.915 425.063 356.657C423.963 355.736 422.007 355.405 420.621 355.994C419.603 356.399 418.951 357.468 418.217 358.167C417.117 359.236 415.976 360.193 414.753 361.151C414.101 361.63 414.957 362.44 415.568 361.961Z" fill="#161616"/>
<path d="M420.581 356.215C421.803 356.252 422.985 356.473 424.126 356.915C424.819 357.21 425.471 356.252 424.737 355.957C423.392 355.405 422.048 355.11 420.581 355.073C419.806 355.11 419.806 356.215 420.581 356.215Z" fill="#161616"/>
<path d="M413.898 354.926C414.835 355.147 415.65 355.589 416.302 356.252C416.832 356.768 417.687 355.994 417.158 355.478C416.343 354.705 415.324 354.152 414.183 353.895C413.49 353.674 413.164 354.742 413.898 354.926Z" fill="#161616"/>
<path d="M407.296 359.383C408.559 358.536 409.863 357.762 411.208 357.025C411.819 356.694 412.471 356.252 413.123 356.068C414.142 355.736 414.753 355.957 415.691 356.326C415.691 355.994 415.691 355.7 415.691 355.368C414.387 355.884 412.92 355.847 411.575 356.363C410.271 356.841 409.048 358.02 407.704 358.241C407.867 358.572 408.03 358.904 408.193 359.235C410.597 358.167 413.286 357.983 415.691 356.915C416.383 356.584 415.772 355.663 415.079 355.957C412.675 357.026 409.986 357.21 407.581 358.278C406.929 358.573 407.418 359.383 408.07 359.272C409.537 359.051 410.719 357.836 412.105 357.357C413.49 356.878 414.998 356.841 416.343 356.326C416.75 356.178 416.75 355.515 416.343 355.368C414.794 354.742 414.101 354.373 412.553 355.11C410.515 356.068 408.6 357.21 406.766 358.425C406.033 358.83 406.644 359.788 407.296 359.383Z" fill="#161616"/>
<path d="M414.264 338.793C415.283 338.462 416.302 338.498 417.239 338.94C417.932 339.272 418.543 338.314 417.85 337.983C416.628 337.393 415.242 337.283 413.938 337.725C413.205 337.983 413.531 339.051 414.264 338.793Z" fill="#161616"/>
<path d="M415.283 342.476C416.139 342.403 416.954 342.587 417.606 343.103C418.217 343.545 419.073 342.771 418.462 342.329C417.565 341.666 416.465 341.298 415.283 341.371C414.509 341.408 414.509 342.513 415.283 342.476Z" fill="#161616"/>
<path d="M415.732 347.08C416.506 347.007 417.239 347.265 417.688 347.854C418.095 348.443 419.154 347.891 418.747 347.301C418.136 346.381 416.954 345.828 415.772 345.975C415.446 346.012 415.161 346.196 415.161 346.528C415.12 346.786 415.406 347.117 415.732 347.08Z" fill="#161616"/>
<path d="M420.988 338.535C421.722 338.167 422.659 338.204 423.352 338.719C423.963 339.161 424.819 338.388 424.208 337.946C423.107 337.135 421.64 336.951 420.377 337.577C419.684 337.946 420.296 338.903 420.988 338.535Z" fill="#161616"/>
<path d="M421.681 345.497C422.333 345.239 423.067 345.349 423.596 345.791C424.167 346.27 425.063 345.497 424.452 345.018C423.515 344.244 422.211 344.06 421.029 344.576C420.336 344.834 420.988 345.791 421.681 345.497Z" fill="#161616"/>
<path d="M421.844 351.39C422.496 351.022 423.311 351.022 423.922 351.464C424.534 351.906 425.389 351.132 424.778 350.69C423.759 349.917 422.333 349.806 421.233 350.469C420.581 350.837 421.192 351.795 421.844 351.39Z" fill="#161616"/>
<path d="M430.972 306.49C430.157 314.962 429.342 323.433 428.527 331.905" stroke="#161616" stroke-width="6" stroke-miterlimit="10"/>
<path d="M409.456 330.727C416.261 331.169 423.066 331.574 429.872 332.016" stroke="#161616" stroke-width="6" stroke-miterlimit="10"/>
<path d="M429.912 290.799C429.749 294.998 429.546 299.16 429.383 303.359" stroke="#161616" stroke-width="6" stroke-miterlimit="10"/>
<path d="M430.768 311.463C434.558 310.836 438.592 313.525 438.877 317.061C439.285 321.481 433.702 322.255 430.035 321.776C429.26 321.665 428.934 322.734 429.709 322.844C434.191 323.433 440.507 322.292 440.1 317.061C439.774 312.752 435.006 309.621 430.442 310.394C429.668 310.505 429.994 311.573 430.768 311.463Z" fill="#161616"/>
<path d="M429.872 323.728C431.461 324.023 432.724 325.054 433.173 326.454C433.376 327.154 434.558 326.859 434.354 326.159C433.825 324.391 432.235 322.991 430.239 322.66C429.424 322.549 429.098 323.581 429.872 323.728Z" fill="#161616"/>
<path d="M429.26 323.36C430.238 324.649 430.687 326.085 430.524 327.669C430.483 328.369 431.705 328.369 431.746 327.669C431.868 325.938 431.379 324.244 430.279 322.807C429.872 322.218 428.812 322.771 429.26 323.36Z" fill="#161616"/>
<path d="M409.171 310.947C406.481 309.4 401.55 313.857 400.939 316.03C399.717 320.45 405.992 319.934 408.6 321.408C409.252 321.776 409.863 320.818 409.211 320.45C407.337 319.382 404.566 319.787 402.936 318.461C400.939 316.84 402.773 314.888 404.158 313.746C404.892 313.157 407.378 311.205 408.559 311.868C409.211 312.31 409.863 311.352 409.171 310.947Z" fill="#161616"/>
<path d="M408.519 320.892C407.459 321.26 406.481 321.813 405.666 322.586C405.055 323.176 404.281 324.096 404.892 324.907C405.34 325.496 406.4 324.944 405.951 324.354C405.666 323.986 406.726 323.176 407.011 322.955C407.541 322.513 408.152 322.181 408.845 321.96C409.578 321.702 409.293 320.634 408.519 320.892Z" fill="#161616"/>
<path d="M408.03 321.665C407.255 322.77 407.011 324.023 407.296 325.275C407.459 325.975 408.641 325.68 408.478 324.98C408.233 323.986 408.478 323.065 409.089 322.218C409.537 321.629 408.478 321.076 408.03 321.665Z" fill="#161616"/>
<path d="M411.901 310.247C411.697 312.936 411.738 315.662 411.942 318.35C412.023 319.05 413.246 319.05 413.164 318.35C412.92 315.662 412.92 312.936 413.123 310.247C413.205 309.547 411.982 309.547 411.901 310.247Z" fill="#161616"/>
<path d="M412.797 310.542C417.117 310.763 421.396 310.91 425.715 310.984C425.511 310.8 425.308 310.615 425.104 310.431C424.982 313.194 424.859 315.993 424.696 318.756C424.656 319.456 425.878 319.456 425.919 318.756C426.041 315.993 426.163 313.194 426.326 310.431C426.326 310.137 426.041 309.879 425.715 309.879C421.396 309.805 417.117 309.658 412.797 309.437C412.023 309.4 412.023 310.505 412.797 310.542Z" fill="#161616"/>
<path d="M412.308 318.829C414.101 319.271 416.098 319.161 417.891 319.271C420.092 319.382 422.333 319.529 424.533 319.64C425.308 319.677 425.308 318.572 424.533 318.535C422.577 318.424 420.621 318.314 418.665 318.203C416.709 318.093 414.509 318.203 412.594 317.761C411.901 317.577 411.575 318.645 412.308 318.829Z" fill="#161616"/>
<path d="M413.694 324.538C414.427 325.975 416.017 324.723 417.239 325.238C417.81 325.459 417.687 325.791 418.462 325.828C419.358 325.864 421.559 324.244 422.007 325.754C422.129 326.159 422.7 326.27 423.026 326.012C423.433 325.901 423.881 325.791 424.289 325.717C424.778 326.27 425.674 325.459 425.145 324.944C424.207 323.949 423.026 324.502 422.129 325.238C422.455 325.312 422.822 325.386 423.148 325.496C422.781 324.207 421.273 323.36 419.847 323.949C419.154 324.244 419.073 324.796 418.013 324.428C417.81 324.354 417.728 324.06 417.524 323.986C417.076 323.839 414.713 324.06 414.713 324.023C414.427 323.323 413.368 323.875 413.694 324.538Z" fill="#161616"/>
<path d="M415.854 295.551C415.935 295.146 416.465 295.035 416.832 295.182C417.361 295.367 417.647 295.919 417.891 296.324C418.217 296.95 419.277 296.398 418.951 295.772C418.502 294.961 417.81 294.114 416.709 294.004C415.813 293.93 414.876 294.409 414.713 295.219C414.509 295.956 415.691 296.251 415.854 295.551Z" fill="#161616"/>
<path d="M423.352 296.066C423.433 295.698 423.8 295.477 424.207 295.624C424.696 295.772 424.9 296.324 424.982 296.729C425.104 297.429 426.286 297.134 426.164 296.435C426.001 295.551 425.348 294.63 424.289 294.482C423.352 294.372 422.333 294.888 422.17 295.772C422.048 296.471 423.229 296.766 423.352 296.066Z" fill="#161616"/>
<path d="M416.465 297.871C417.85 300.081 421.151 300.413 422.944 298.424C423.433 297.871 422.577 297.098 422.088 297.65C420.784 299.087 418.543 298.976 417.524 297.319C417.158 296.693 416.098 297.245 416.465 297.871Z" fill="#161616"/>
<path d="M373.718 97.7188C368.584 95.8403 365.487 91.3467 363.612 86.853C361.616 82.1752 360.76 77.0922 361.045 72.0828C361.534 62.8377 365.894 53.482 373.963 47.5887C381.583 41.99 392.871 40.4062 401.347 45.4892C410.19 50.7932 411.779 61.7327 411.86 70.5358C411.942 80.3335 409.415 90.61 401.388 97.6452C400.817 98.124 401.673 98.9343 402.243 98.4187C409.864 91.715 412.757 82.1383 413.042 72.7827C413.327 63.6112 412.105 52.0087 403.751 45.7102C395.927 39.8168 384.313 40.1115 375.96 44.8998C366.709 50.2038 361.249 59.8173 360.067 69.5045C359.334 75.5083 360.149 81.7332 362.594 87.4055C364.672 92.1938 367.973 96.7612 373.433 98.7502C374.126 99.0448 374.411 97.9767 373.718 97.7188Z" fill="#161616"/>
<path d="M373.148 98.4187C371.762 100.187 372.047 102.802 374.085 104.128C375.633 105.122 377.915 105.27 379.749 105.491C381.95 105.785 384.191 105.896 386.432 105.896C390.426 105.859 394.99 105.601 398.698 104.201C401.387 103.17 403.425 100.739 401.999 98.124C401.673 97.4978 400.613 98.0503 400.939 98.6765C403.995 104.312 389.529 104.791 386.391 104.791C383.498 104.791 380.605 104.57 377.793 104.091C376.448 103.87 374.941 103.649 374.085 102.581C373.229 101.476 373.392 100.039 374.207 99.008C374.655 98.3818 373.596 97.8293 373.148 98.4187Z" fill="#161616"/>
<path d="M374.452 104.386C374.452 106.227 374.493 108.106 374.737 109.948C374.859 110.795 375.063 111.531 375.837 112.047C376.938 112.784 378.771 112.747 380.075 112.857C382.276 113.005 384.517 113.005 386.718 112.931C388.796 112.857 390.874 112.71 392.952 112.526C394.175 112.415 395.56 112.452 396.498 111.605C398.576 109.763 398.617 106.264 398.087 103.944C397.924 103.244 396.742 103.539 396.905 104.238C397.19 105.491 397.272 106.743 396.987 108.032C396.579 109.837 396.009 111.016 393.767 111.384C391.159 111.826 388.225 111.826 385.577 111.863C382.969 111.9 380.035 112.01 377.467 111.458C375.104 110.942 375.715 106.154 375.715 104.386C375.674 103.686 374.452 103.686 374.452 104.386Z" fill="#161616"/>
<path d="M374.859 64.7162C379.749 67.4787 383.458 71.5303 385.536 76.3923C385.821 77.0553 387.003 76.7607 386.718 76.0977C384.517 70.941 380.646 66.6683 375.511 63.7585C374.819 63.3533 374.207 64.311 374.859 64.7162Z" fill="#161616"/>
<path d="M386.514 76.3923C388.918 71.825 392.422 67.9207 396.905 64.9003C397.516 64.4952 396.905 63.5007 396.294 63.9427C391.648 67.0735 387.981 71.1252 385.454 75.8398C385.128 76.466 386.188 77.0185 386.514 76.3923Z" fill="#161616"/>
<path d="M385.536 75.1032C386.147 82.6908 386.432 90.2785 386.31 97.8662C386.31 98.566 387.533 98.566 387.533 97.8662C387.655 90.2785 387.37 82.654 386.758 75.1032C386.677 74.3665 385.454 74.3665 385.536 75.1032Z" fill="#161616"/>
<path d="M337.818 93.6672C343.237 92.0097 348.616 90.3522 354.036 88.6947C354.77 88.4737 354.444 87.4055 353.71 87.6265C348.29 89.284 342.911 90.9415 337.492 92.599C336.717 92.82 337.043 93.8882 337.818 93.6672Z" fill="#161616"/>
<path d="M344.011 86.3005C345.886 85.8217 347.76 85.306 349.635 84.8272C350.368 84.643 350.083 83.5748 349.309 83.759C347.434 84.2378 345.56 84.7535 343.685 85.2323C342.952 85.4533 343.237 86.5215 344.011 86.3005Z" fill="#161616"/>
<path d="M330.442 74.035C337.614 73.9613 344.745 74.1455 351.876 74.5507C352.651 74.5875 352.651 73.4825 351.876 73.4457C344.745 73.0405 337.573 72.8932 330.442 72.93C329.668 72.93 329.668 74.035 330.442 74.035Z" fill="#161616"/>
<path d="M345.601 69.0257C347.312 69.4308 349.065 69.615 350.817 69.6518C351.591 69.6518 351.591 68.5468 350.817 68.5468C349.146 68.51 347.516 68.3258 345.927 67.9575C345.153 67.7733 344.827 68.8415 345.601 69.0257Z" fill="#161616"/>
<path d="M342.952 34.7338C349.35 39.7063 355.177 45.1577 360.434 51.1247C360.923 51.6772 361.779 50.9037 361.29 50.3512C356.033 44.3842 350.206 38.896 343.808 33.9603C343.237 33.4815 342.341 34.255 342.952 34.7338Z" fill="#161616"/>
<path d="M360.841 45.1945C361.942 46.2258 363.001 47.2572 364.101 48.3253C364.631 48.841 365.487 48.0675 364.957 47.5518C363.857 46.5205 362.797 45.4892 361.697 44.421C361.167 43.9053 360.312 44.6788 360.841 45.1945Z" fill="#161616"/>
<path d="M336.025 47.2572C338.021 48.3253 340.059 49.3198 342.137 50.2407C342.83 50.5722 343.441 49.6145 342.748 49.283C340.67 48.3253 338.633 47.3308 336.636 46.2995C335.943 45.9312 335.332 46.8888 336.025 47.2572Z" fill="#161616"/>
<path d="M406.93 38.8592C412.961 33.4078 418.992 27.9565 425.023 22.5052C425.593 21.9895 424.697 21.216 424.167 21.7317C418.136 27.183 412.105 32.6343 406.074 38.0857C405.503 38.6013 406.359 39.3748 406.93 38.8592Z" fill="#161616"/>
<path d="M413.001 41.4007C414.55 40.3693 416.098 39.3748 417.647 38.3435C418.258 37.9383 417.688 36.9807 417.036 37.3858C415.487 38.4172 413.939 39.4117 412.39 40.443C411.738 40.8482 412.349 41.8058 413.001 41.4007Z" fill="#161616"/>
<path d="M388.103 31.6398C389.326 26.299 390.263 20.9213 390.833 15.5068C390.915 14.807 389.692 14.807 389.611 15.5068C389.04 20.8108 388.144 26.1148 386.921 31.3452C386.758 32.045 387.94 32.3397 388.103 31.6398Z" fill="#161616"/>
<path d="M422.374 65.5265C433.458 64.6057 444.501 63.6848 455.585 62.764C456.359 62.6903 456.359 61.5853 455.585 61.659C444.501 62.5798 433.458 63.5007 422.374 64.4215C421.6 64.4583 421.559 65.5633 422.374 65.5265Z" fill="#161616"/>
<path d="M375.796 99.7447C382.683 101.107 389.692 101.071 396.538 99.671C397.312 99.5237 396.986 98.4555 396.212 98.6028C389.57 99.9657 382.765 100.002 376.122 98.6765C375.348 98.5292 375.022 99.5973 375.796 99.7447Z" fill="#161616"/>
<path d="M376.815 109.1C382.072 109.727 387.329 109.874 392.626 109.542C393.401 109.506 393.401 108.401 392.626 108.437C387.329 108.769 382.072 108.622 376.815 107.995C376.041 107.922 376.041 109.027 376.815 109.1Z" fill="#161616"/>
<path d="M414.672 96.0245C422.944 101.292 431.38 106.375 439.937 111.273C440.589 111.642 441.2 110.684 440.548 110.316C431.991 105.417 423.556 100.334 415.283 95.0668C414.631 94.6617 414.02 95.6193 414.672 96.0245Z" fill="#161616"/>
<path d="M310.556 355.11C302.813 363.692 295.112 372.238 287.369 380.82C296.456 409.697 301.591 417.285 304.647 416.88C306.848 416.585 307.907 412.275 309.089 407.45C312.023 395.406 310.271 385.056 308.478 378.61C313.368 373.674 318.217 368.702 323.107 363.766C318.91 360.893 314.753 358.02 310.556 355.11Z" fill="#161616" stroke="#161616" stroke-width="2" stroke-miterlimit="10"/>
<path d="M281.99 310.91C286.839 314.299 291.485 313.083 301.102 314.557C309.293 315.809 318.502 318.571 328.282 324.096C317.85 335.146 307.418 346.823 297.068 359.125C294.582 362.108 292.096 365.092 289.692 368.075C293.685 368.923 298.494 370.249 303.71 372.385C308.804 374.448 312.96 376.768 316.261 378.868C331.787 366.639 345.642 354.815 357.989 343.655C363.694 338.498 371.762 330.616 373.026 319.455C373.107 318.829 373.107 318.277 373.107 317.724C372.822 299.197 347.027 285.79 331.338 280.854C314.183 275.476 284.68 272.567 276.448 285.421C271.599 293.009 274.451 305.643 281.99 310.91Z" fill="#EC615B"/>
<path opacity="0.26" d="M312.104 292.383C311.819 295.882 311.126 300.044 309.7 304.648C308.681 307.927 307.459 310.836 306.236 313.304C304.892 313.783 303.588 314.262 302.243 314.741C311.004 317.872 319.806 321.003 328.567 324.133C322.047 330.874 315.487 337.946 308.885 345.313C302.08 352.9 295.601 360.341 289.447 367.67C293.808 368.96 298.127 370.249 302.487 371.501C318.095 355.957 333.702 340.377 349.309 324.833C350.939 320.597 350.858 317.282 350.369 314.962C348.127 303.617 332.765 294.372 312.104 292.383Z" fill="#6D6C6C"/>
<path opacity="0.23" d="M328.486 324.06C329.912 326.012 331.298 328.001 332.724 329.953C320.58 343.176 308.437 356.363 296.293 369.586C294.134 369.07 291.933 368.517 289.773 368.002C297.557 358.351 305.951 348.443 315.038 338.462C319.562 333.489 324.044 328.701 328.486 324.06Z" fill="#6D6C6C"/>
<path d="M287.939 341.113C299.961 343.102 312.023 345.055 324.044 347.044C337.94 374.448 339.488 383.288 336.88 384.798C335.006 385.866 331.094 383.214 326.733 380.231C315.812 372.753 309.741 363.84 306.44 357.836C299.186 356.952 291.933 356.031 284.679 355.147C285.739 350.469 286.839 345.791 287.939 341.113Z" fill="#161616" stroke="#161616" stroke-width="2" stroke-miterlimit="10"/>
<path d="M263.163 280.081C241.24 285.9 227.874 297.982 219.276 305.938C207.662 316.73 193.399 329.953 197.515 339.714C199.634 344.686 206.073 347.744 236.065 352.458C258.722 356.031 278.363 357.946 293.685 359.015C295.6 352.679 297.516 346.381 299.39 340.045C283.987 335.552 268.624 331.095 253.22 326.601C262.674 324.796 272.617 322.66 282.968 320.045C290.833 318.056 298.331 315.993 305.462 313.82C312.063 301.776 313.49 288.773 306.603 281.407C296.986 271.093 275.429 276.803 263.163 280.081Z" fill="#EC615B"/>
<path opacity="0.29" d="M311.941 292.825C311.737 296.471 311.045 301.149 309.17 306.306C308.029 309.437 306.725 312.162 305.421 314.409C304.321 314.483 303.221 314.593 302.12 314.667C292.829 317.43 282.927 320.045 272.454 322.476C265.69 324.06 259.088 325.423 252.691 326.675C268.135 331.058 283.579 335.404 299.023 339.787C298.697 341.298 298.29 342.882 297.801 344.539C297.23 346.454 296.578 348.222 295.967 349.843C274.655 345.091 253.343 340.34 232.03 335.588C231.052 334.52 227.833 330.653 228.322 325.533C228.852 319.971 234.72 316.03 242.218 312.42C263.897 302.033 300.246 294.998 311.941 292.825Z" fill="#6D6C6C"/>
<path opacity="0.24" d="M241.729 327.448C245.6 327.191 249.512 326.933 253.383 326.638C268.583 331.205 283.783 335.809 298.983 340.377C298.331 342.55 297.679 344.76 297.027 346.933C278.608 340.414 260.148 333.931 241.729 327.448Z" fill="#6D6C6C"/>
<path d="M257.418 196.616C263.449 193.412 273.921 188.845 287.858 187.519C309.211 185.493 325.592 192.417 332.072 195.548C330.89 210.024 329.056 221.589 327.589 229.545C325.837 239.048 324.411 244.316 323.759 253.045C322.944 263.985 323.962 272.972 324.9 278.865C317.809 280.854 307.092 283.027 293.889 282.77C281.175 282.512 270.906 280.007 264.019 277.834C265.853 264.648 265.242 254.187 264.345 247.078C263.326 239.159 261.941 235.291 260.27 225.715C258.11 213.339 257.54 203.21 257.418 196.616Z" fill="white" stroke="#161616" stroke-width="2" stroke-miterlimit="10"/>
<path opacity="0.14" d="M301.509 191.902C302.365 194.701 303.343 198.569 303.995 203.21C304.443 206.34 306.277 220.521 300.572 239.233C297.067 250.761 293.359 262.953 281.216 272.972C277.304 276.213 273.514 278.386 270.743 279.749C276.896 281.186 284.924 282.549 294.419 282.622C306.847 282.733 317.116 280.707 324.248 278.718C323.84 275.955 323.31 271.793 323.107 266.784C322.944 262.401 322.944 255.402 326.285 235.697C328.934 220.19 330.808 213.523 331.746 199.489C331.868 197.869 331.909 196.506 331.99 195.585C329.015 194.001 325.144 192.27 320.376 190.87C315.975 189.581 312.023 188.918 308.763 188.623C306.399 189.692 303.954 190.797 301.509 191.902Z" fill="#6D6C6C"/>
<path opacity="0.17" d="M330.808 201.589C328.526 213.265 325.511 222.694 323.147 229.251C316.22 248.404 311.371 261.296 298.29 270.725C290.181 276.581 281.745 279.049 276.326 280.228C281.827 281.628 289.61 282.99 299.023 282.806C309.863 282.585 318.624 280.375 324.37 278.497C323.596 274.003 322.699 267.263 322.944 259.049C323.229 248.404 325.144 241.995 327.263 230.319C328.445 223.468 329.953 213.67 330.808 201.589Z" fill="#6D6C6C"/>
<path d="M257.173 196.432C251.876 199.747 245.071 204.977 239.121 212.749C225.714 230.356 226.081 249.03 226.611 255.918C229.056 261.848 233.253 269.62 240.588 277.244C244.867 281.701 251.142 288.11 261.86 292.236C265.446 293.635 268.583 294.409 270.865 294.851C272.821 293.267 274.737 291.683 276.693 290.099C270.417 283.469 264.101 276.508 257.785 269.325C252.935 263.837 248.29 258.386 243.807 253.008C243.97 248.478 245.03 240.264 250.49 231.682C253.587 226.82 257.214 223.284 260.107 220.889C259.129 212.749 258.151 204.609 257.173 196.432Z" fill="white" stroke="#161616" stroke-width="2" stroke-miterlimit="10"/>
<path opacity="0.13" d="M257.948 204.646C246.212 216.617 240.629 227.961 237.858 235.107C233.009 247.483 234.027 253.966 234.761 257.06C235.372 259.491 236.717 263.653 241.648 269.988C245.926 275.476 254.932 285.311 272.088 293.414C273.596 292.088 275.103 290.799 276.611 289.473C271.762 284.538 266.872 279.344 261.941 273.93C255.462 266.821 249.431 259.822 243.848 252.971C244.011 249.251 244.704 244.058 247.108 238.238C250.735 229.508 256.44 223.763 259.985 220.705C259.252 215.365 258.6 210.024 257.948 204.646Z" fill="#6D6C6C"/>
<path opacity="0.16" d="M243.807 253.45C244.541 257.76 246.048 263.248 249.227 269.178C256.236 282.07 267.198 289.179 272.781 292.273C273.881 291.389 274.94 290.541 276.041 289.657C265.283 277.576 254.565 265.495 243.807 253.45Z" fill="#6D6C6C"/>
<path d="M332.683 195.769C338.633 199.047 346.294 204.167 352.936 211.792C368.013 229.066 367.565 247.409 366.995 254.187C364.224 260.006 359.537 267.631 351.306 275.145C346.497 279.491 339.448 285.79 327.426 289.878C323.392 291.241 319.847 292.015 317.28 292.457C315.12 290.91 312.919 289.363 310.76 287.816C317.769 281.296 324.9 274.482 331.99 267.41C337.41 261.995 342.626 256.655 347.679 251.387C347.475 246.967 346.334 238.901 340.181 230.429C336.677 225.641 332.642 222.179 329.382 219.821C330.523 211.792 331.624 203.799 332.683 195.769Z" fill="white" stroke="#161616" stroke-width="2" stroke-miterlimit="10"/>
<path opacity="0.16" d="M332.398 204.72C337.573 209.618 344.623 217.464 350.124 228.403C352.732 233.597 356.97 242.032 357.052 249.988C357.337 274.187 319.439 290.836 317.239 291.794C315.079 290.541 312.96 289.326 310.8 288.073C323.066 275.918 335.291 263.763 347.557 251.608C347.312 247.63 346.294 240.227 341.404 232.345C337.369 225.862 332.357 221.663 329.056 219.343C330.197 214.481 331.298 209.618 332.398 204.72Z" fill="#6D6C6C"/>
<path opacity="0.12" d="M347.964 251.719C347.353 254.924 346.334 258.423 344.745 262.032C337.573 278.386 323.066 287.337 315.731 291.168C313.979 290.136 312.267 289.105 310.515 288.073C322.985 275.955 335.454 263.837 347.964 251.719Z" fill="#6D6C6C"/>
<path d="M342.055 254.445H241.851V311.794H342.055V254.445Z" fill="white" stroke="#161616" stroke-width="2" stroke-miterlimit="10"/>
<path d="M290.507 288.589C285.209 289.179 282.642 283.359 284.028 279.491C285.372 275.661 290.384 273.856 294.459 275.182C298.494 276.508 300.45 280.965 299.024 284.538C297.434 288.516 291.892 290.136 287.817 288.368C287.125 288.074 286.473 289.031 287.206 289.326C290.833 290.91 295.275 290.32 298.168 287.742C300.98 285.201 301.387 281.186 299.635 278.055C295.641 270.909 283.294 273.193 282.438 281.038C281.99 285.237 285.332 290.284 290.507 289.731C291.281 289.621 291.281 288.516 290.507 288.589Z" fill="#161616"/>
<path opacity="0.14" d="M279.463 254.297C293.033 258.57 302.283 269.509 302.569 281.259C302.935 295.993 289.243 309.842 270.58 311.242C294.337 311.426 318.094 311.61 341.892 311.794C341.811 292.567 341.77 273.34 341.689 254.15C320.947 254.15 300.205 254.224 279.463 254.297Z" fill="#6D6C6C"/>
<path opacity="0.26" d="M341.893 254.113C341.526 265.826 338.959 274.961 336.799 280.965C333.62 289.694 331.338 296.066 324.778 301.702C315.853 309.437 304.729 310.873 299.839 311.242C313.734 311.352 327.63 311.463 341.526 311.61C341.566 300.67 341.648 289.731 341.729 278.755C341.729 270.541 341.811 262.327 341.893 254.113Z" fill="#6D6C6C"/>
<path d="M288.999 166.892C286.758 169.36 288.917 172.38 288.51 180.446C288.306 184.461 287.573 187.703 287.002 189.876C288.917 190.686 292.3 191.828 296.66 191.938C302.039 192.049 306.114 190.539 308.111 189.655C307.214 188.034 306.032 185.529 305.299 182.288C303.465 174.037 306.725 170.17 304.036 167.113C300.898 163.577 292.014 163.54 288.999 166.892Z" fill="white" stroke="#161616" stroke-width="2" stroke-miterlimit="10"/>
<path d="M274.777 131.458C272.21 137.425 273.188 142.803 273.759 145.123C273.514 145.16 268.746 146.081 267.442 149.396C266.138 152.748 268.828 157.499 274.451 159.046C276.489 163.54 281.42 172.233 291.811 176.984C293.563 177.758 295.234 178.384 296.905 178.826C298.412 178.31 300.45 177.5 302.773 176.284C310.026 172.49 314.06 167.776 314.998 166.634C316.709 164.571 319.032 161.256 320.662 156.689C321.558 156.836 323.148 156.91 324.696 156.21C328.201 154.589 329.953 149.543 327.508 146.265C325.47 143.539 321.518 143.429 321.029 143.429C321.558 141.514 323.188 134.626 319.073 127.812C314.346 119.966 304.199 115.841 294.663 117.019C280.564 118.677 275.022 130.869 274.777 131.458Z" fill="white" stroke="#161616" stroke-width="2" stroke-miterlimit="10"/>
<path d="M288.469 176.653C290.955 177.979 293.685 180.041 296.741 179.82C299.268 179.636 302.08 178.31 303.995 176.91C304.606 176.468 303.75 175.695 303.139 176.137C301.346 177.426 298.453 178.789 296.089 178.752C293.604 178.715 291.077 176.837 289.04 175.695C288.428 175.327 287.817 176.284 288.469 176.653Z" fill="#161616"/>
<path d="M288.306 177.131C290.629 178.936 293.278 180.962 296.538 180.815C299.716 180.667 302.691 178.752 304.769 176.69C305.299 176.174 304.443 175.4 303.913 175.916C302.12 177.684 299.594 179.415 296.823 179.673C293.767 179.931 291.322 178.052 289.162 176.358C288.591 175.879 287.736 176.653 288.306 177.131Z" fill="#161616"/>
<path d="M289.855 177.352C289.855 177.316 289.855 177.316 289.855 177.352C289.61 177.021 289.162 176.947 288.877 177.205C288.877 177.205 288.877 177.205 288.836 177.242C288.591 177.426 288.591 177.831 288.836 178.015C293.318 181.883 301.55 183.135 304.769 177.205C305.095 176.579 304.076 175.99 303.71 176.653C300.857 181.957 293.644 180.667 289.732 177.242C289.732 177.5 289.732 177.758 289.732 178.015C289.732 178.015 289.732 178.015 289.773 177.979C289.447 177.942 289.121 177.905 288.795 177.868V177.905C289.203 178.494 290.262 177.942 289.855 177.352Z" fill="#161616"/>
<path d="M294.745 143.282C294.215 149.249 294.5 155.179 295.56 161.072C295.601 161.367 296.008 161.551 296.293 161.44C297.883 160.962 299.024 160.114 299.879 158.825C300.287 158.199 299.227 157.647 298.82 158.273C298.127 159.341 297.271 159.967 295.967 160.372C296.212 160.483 296.456 160.63 296.701 160.741C295.641 154.958 295.397 149.101 295.927 143.245C296.049 142.545 294.826 142.545 294.745 143.282Z" fill="#161616"/>
<path d="M287.491 149.138C287.573 149.47 288.184 151.532 287.491 151.864C286.799 152.195 284.843 150.869 284.231 149.138C283.742 147.665 284.15 145.823 284.924 145.676C285.739 145.492 287.002 147.518 287.491 149.138Z" fill="#161616" stroke="#161616" stroke-miterlimit="10"/>
<path d="M308.518 149.138C308.6 149.47 309.211 151.532 308.518 151.864C307.825 152.195 305.869 150.869 305.258 149.138C304.769 147.665 305.177 145.823 305.951 145.676C306.766 145.492 308.029 147.518 308.518 149.138Z" fill="#161616" stroke="#161616" stroke-miterlimit="10"/>
<path d="M293.278 165.934C298.249 167.849 302.772 165.161 306.44 162.251C307.051 161.772 306.155 160.998 305.584 161.477C302.406 163.982 298.331 166.671 293.93 164.976C293.155 164.719 292.544 165.676 293.278 165.934Z" fill="#161616"/>
<path d="M307.622 154.995C308.396 154.995 308.396 153.89 307.622 153.89C306.847 153.89 306.847 154.995 307.622 154.995Z" fill="#161616"/>
<path d="M312.145 152.932C312.186 152.895 312.226 152.858 312.267 152.821C312.512 152.6 312.512 152.269 312.267 152.048C312.023 151.827 311.656 151.827 311.411 152.048C311.371 152.085 311.33 152.122 311.289 152.158C311.045 152.379 311.045 152.711 311.289 152.932C311.534 153.153 311.9 153.153 312.145 152.932Z" fill="#161616"/>
<path d="M310.8 155.621C310.841 155.621 310.882 155.621 310.922 155.621C311.248 155.621 311.534 155.363 311.534 155.068C311.534 154.774 311.248 154.516 310.922 154.516C310.882 154.516 310.841 154.516 310.8 154.516C310.474 154.516 310.189 154.774 310.189 155.068C310.189 155.363 310.433 155.621 310.8 155.621Z" fill="#161616"/>
<path d="M282.683 142.545C284.231 141.366 286.513 141.329 288.062 142.471C288.673 142.913 289.529 142.14 288.917 141.698C286.798 140.151 283.864 140.151 281.786 141.771C281.216 142.213 282.112 142.987 282.683 142.545Z" fill="#161616"/>
<path d="M302.569 142.14C304.321 140.74 306.807 140.482 308.885 141.477C309.578 141.808 310.189 140.851 309.496 140.519C306.929 139.267 303.873 139.598 301.713 141.366C301.102 141.845 301.957 142.619 302.569 142.14Z" fill="#161616"/>
<path d="M283.009 154.884C283.783 154.884 283.783 153.779 283.009 153.779C282.234 153.779 282.234 154.884 283.009 154.884Z" fill="#161616"/>
<path d="M287.328 154.369C288.102 154.369 288.102 153.264 287.328 153.264C286.554 153.264 286.554 154.369 287.328 154.369Z" fill="#161616"/>
<path d="M285.168 155.216C285.128 155.252 285.087 155.289 285.046 155.326C284.802 155.547 284.802 155.879 285.046 156.1C285.291 156.321 285.657 156.321 285.902 156.1C285.943 156.063 285.983 156.026 286.024 155.989C286.269 155.768 286.269 155.437 286.024 155.216C285.78 154.995 285.413 154.995 285.168 155.216Z" fill="#161616"/>
<path d="M281.419 119.487C278.974 120.85 273.636 123.834 270.009 129.948C266.383 136.025 266.423 141.771 266.586 144.239C260.637 153.926 257.947 162.472 256.643 168.291C254.524 177.537 255.665 180.925 257.132 183.172C260.718 188.697 267.931 190.06 269.683 190.392C278.689 192.123 285.861 187.96 287.491 187.003C287.939 185.787 288.388 184.277 288.632 182.583C289.08 179.673 288.836 177.168 288.469 175.363C286.432 173.853 284.068 171.827 281.786 169.175C278.322 165.124 276.366 161.146 275.266 158.273C271.68 157.941 268.991 155.731 268.746 153.263C268.502 150.943 270.295 147.96 272.658 147.96C274.41 147.96 275.674 149.58 275.918 149.875C277.263 149.175 279.137 147.959 280.808 146.044C283.212 143.282 283.62 140.814 284.72 138.235C285.78 135.731 287.817 132.268 292.218 128.659C296.456 130.022 299.838 131.348 302.161 132.342C309.618 135.473 313.856 137.315 317.157 141.33C318.991 143.54 319.928 145.713 320.417 147.075C324.207 144.46 325.755 145.16 326.081 145.307C328.486 146.523 328.404 153.19 324.655 155.031C323.229 155.731 321.599 155.547 320.58 155.326C319.398 159.046 316.79 165.124 310.8 170.501C308.803 172.306 306.766 173.706 304.932 174.774C304.769 176.137 304.688 178.015 305.095 180.225C305.462 182.251 306.114 183.909 306.725 185.087C316.627 190.981 328.934 189.913 335.617 183.577C341.566 177.905 341.566 169.323 339.325 163.466C337.288 158.125 333.335 154.921 331.379 153.521C331.909 151.459 334.843 139.23 326.326 127.996C324.125 125.086 317.972 118.051 306.888 115.62C295.152 113.041 285.494 117.24 281.419 119.487Z" fill="#5222D0"/>
<path opacity="0.17" d="M307.255 134.626C311.86 139.856 313.082 144.681 313.49 147.186C315.16 157.72 308.396 166.266 304.973 170.649C302.161 174.222 299.268 176.763 297.19 178.421C298.983 182.767 300.735 187.077 302.528 191.423C304.362 190.87 306.195 190.318 308.029 189.765C307.173 188.403 306.277 186.708 305.584 184.645C304.321 180.962 304.239 177.721 304.362 175.511C306.603 174.074 309.211 172.122 311.737 169.544C316.79 164.387 319.317 159.083 320.621 155.51C321.436 155.658 323.188 155.842 324.859 154.995C328.363 153.19 327.793 148.696 327.752 148.401C327.63 147.444 327.385 145.897 326.163 145.271C324.737 144.571 322.373 145.234 320.499 147.223C319.928 145.418 318.298 141.256 313.897 137.941C311.452 136.099 308.966 135.141 307.255 134.626Z" fill="#6D6C6C"/>
<path opacity="0.19" d="M295.315 143.613C295.071 143.576 294.256 146.781 291.77 160.925C293.196 160.925 294.623 160.925 296.049 160.925C295.764 159.046 295.438 156.321 295.275 153.006C295.071 147.333 295.56 143.65 295.315 143.613Z" fill="#6D6C6C"/>
<path opacity="0.54" d="M331.135 153.89C330.442 154.258 333.05 157.426 332.683 162.14C332.561 163.614 332.316 166.966 329.382 169.212C329.179 169.36 324.818 172.601 320.499 170.538C317.932 169.323 316.383 166.745 316.465 163.945C315.242 166.008 313.245 168.733 310.108 171.385C308.152 173.043 306.236 174.259 304.566 175.179C304.443 176.8 304.443 179.01 305.095 181.515C305.462 182.878 305.91 184.056 306.359 185.014C307.622 185.751 309.496 186.745 311.941 187.519C313.49 187.997 322.007 190.686 330.32 186.966C331.787 186.303 335.047 184.793 337.41 181.552C337.695 181.146 338.755 179.71 339.529 177.279C342.3 168.954 338.225 161.441 337.858 160.814C335.617 156.726 331.99 153.448 331.135 153.89Z" fill="#341999"/>
<path opacity="0.35" d="M275.226 158.42C274.859 158.457 275.674 161.477 274.777 164.461C274.125 166.671 272.047 170.28 268.502 171.017C264.794 171.754 260.189 169.286 258.07 164.682C257.092 166.708 255.788 169.949 255.584 174.074C255.462 176.763 255.299 179.636 256.766 182.472C260.066 188.808 269.765 191.276 276.978 190.686C281.786 190.281 285.413 188.587 287.369 187.445C287.858 186.192 288.347 184.682 288.673 182.951C289.203 179.968 289.08 177.352 288.795 175.437C285.576 173.338 283.375 171.164 281.99 169.581C280.034 167.334 277.385 164.314 276.041 160.115C275.837 159.636 275.47 158.383 275.226 158.42Z" fill="#341999"/>
</svg>
