<svg width="482" height="362" viewBox="0 0 482 362" fill="none" xmlns="http://www.w3.org/2000/svg">
<path d="M417.894 287.669C413.405 280.791 410.483 273.008 409.369 264.863C409.218 265.044 409.067 265.256 408.947 265.437C409.971 265.346 410.845 265.557 411.658 266.191C412.11 266.553 412.743 265.919 412.291 265.557C411.266 264.773 410.212 264.411 408.947 264.532C408.615 264.562 408.465 264.803 408.525 265.105C409.67 273.34 412.592 281.184 417.141 288.122C417.442 288.605 418.225 288.152 417.894 287.669Z" fill="#E8E8E8"/>
<path d="M412.261 265.708C411.236 255.119 412.863 244.44 417.02 234.636C416.749 234.636 416.508 234.636 416.237 234.636C416.689 235.3 417.02 235.933 417.291 236.688C417.472 237.231 418.346 236.989 418.165 236.446C417.864 235.632 417.533 234.908 417.02 234.184C416.84 233.942 416.388 233.852 416.237 234.184C412.02 244.139 410.333 254.969 411.357 265.708C411.417 266.281 412.321 266.311 412.261 265.708Z" fill="#E8E8E8"/>
<path d="M418.436 236.295C419.491 233.731 420.666 231.197 421.991 228.784C423.106 226.763 424.702 222.69 427.594 223.263C430.516 223.837 431.48 227.728 432.113 230.172C432.806 232.887 433.107 235.692 433.197 238.467C433.378 243.716 432.956 248.996 432.595 254.214C432.203 259.765 431.571 265.316 430.275 270.746C428.86 276.779 426.751 282.601 424.07 288.152C423.829 288.665 424.582 289.147 424.853 288.604C427.504 283.144 429.613 277.413 431.029 271.5C432.505 265.436 433.167 259.252 433.559 253.038C433.951 246.854 434.553 240.519 433.8 234.335C433.348 230.624 432.264 222.479 427.203 222.238C424.552 222.117 423.166 224.892 422.051 226.823C420.334 229.779 418.858 232.856 417.563 236.024C417.352 236.597 418.225 236.838 418.436 236.295Z" fill="#E8E8E8"/>
<path d="M433.288 257.895C434.312 255.844 435.517 253.913 436.963 252.163C437.656 251.319 440.909 246.975 442.205 247.97C442.476 248.181 442.566 249.207 442.627 249.569C442.807 250.323 442.928 251.107 442.988 251.892C443.109 253.098 443.139 254.275 443.078 255.482C442.958 258.046 442.506 260.61 441.873 263.114C439.584 272.254 435.487 280.882 430.155 288.605C429.823 289.087 430.607 289.54 430.938 289.057C437.114 280.158 442.145 269.479 443.681 258.649C444.042 256.085 444.163 253.491 443.801 250.926C443.651 249.81 443.44 246.19 441.602 246.552C440.759 246.733 439.976 247.699 439.373 248.242C438.409 249.147 437.475 250.112 436.632 251.107C435.005 253.038 433.619 255.15 432.504 257.412C432.233 257.955 433.017 258.408 433.288 257.895Z" fill="#E8E8E8"/>
<path d="M196.445 288.816C192.469 284.26 189.185 279.132 186.715 273.612C186.654 273.823 186.594 274.034 186.564 274.245C187.769 273.702 188.974 273.491 190.3 273.581C190.872 273.612 190.872 272.707 190.3 272.676C188.823 272.586 187.468 272.857 186.112 273.461C185.871 273.581 185.871 273.883 185.962 274.094C188.492 279.705 191.806 284.864 195.843 289.479C196.174 289.902 196.837 289.268 196.445 288.816Z" fill="#E8E8E8"/>
<path d="M190.36 272.314C187.98 268.151 186.474 263.536 186.052 258.77C185.781 255.753 185.239 244.953 190.872 247.91C192.86 248.965 194.005 251.228 195.029 253.128C196.234 255.331 197.289 257.623 198.222 259.946C199.909 264.2 201.145 268.634 201.898 273.129C202.801 278.468 203.012 283.898 202.591 289.328C202.53 289.902 203.464 289.902 203.494 289.328C204.338 278.438 202.5 267.427 198.102 257.412C197.017 254.938 195.812 252.404 194.306 250.142C193.222 248.513 191.746 246.914 189.727 246.552C184.907 245.677 184.967 252.947 184.967 255.964C184.998 261.877 186.594 267.669 189.546 272.797C189.878 273.25 190.661 272.797 190.36 272.314Z" fill="#E8E8E8"/>
<path d="M200.904 264.712C200.723 262.45 201.386 252.133 205.663 254.305C209.067 256.024 209.79 261.364 209.971 264.743C210.182 268.574 210.031 272.435 209.941 276.266C209.821 280.278 209.519 284.26 208.134 288.061C207.923 288.604 208.796 288.846 209.007 288.303C210.724 283.657 210.815 278.71 210.905 273.823C210.995 269.207 211.387 264.29 210.152 259.765C209.459 257.261 206.989 251.741 203.434 253.4C201.928 254.124 201.265 256.175 200.783 257.653C200.06 259.976 199.819 262.359 200 264.773C200.03 265.316 200.934 265.316 200.904 264.712Z" fill="#E8E8E8"/>
<path d="M188.07 247.306C191.956 255.994 195.15 264.954 197.59 274.155C197.74 274.728 198.614 274.487 198.463 273.913C195.993 264.652 192.8 255.602 188.854 246.854C188.613 246.311 187.829 246.763 188.07 247.306Z" fill="#E8E8E8"/>
<path d="M185.57 259.222C190.179 260.851 193.915 264.2 196.053 268.604C196.325 269.117 197.078 268.664 196.837 268.152C194.577 263.536 190.631 260.067 185.811 258.347C185.269 258.166 185.028 259.041 185.57 259.222Z" fill="#E8E8E8"/>
<path d="M194.577 251.379C193.764 254.064 193.342 256.809 193.252 259.584C193.222 260.157 194.125 260.157 194.156 259.584C194.246 256.869 194.668 254.215 195.451 251.62C195.602 251.047 194.728 250.806 194.577 251.379Z" fill="#E8E8E8"/>
<path d="M200.663 259.222C203.494 262.54 205.513 266.341 206.718 270.535C206.868 271.108 207.742 270.866 207.591 270.293C206.356 265.949 204.247 261.997 201.325 258.589C200.934 258.136 200.301 258.77 200.663 259.222Z" fill="#E8E8E8"/>
<path d="M205.151 258.981C207.109 268.725 206.778 278.348 205.754 288.182C205.693 288.755 206.597 288.755 206.657 288.182C207.712 278.287 208.013 268.574 206.025 258.739C205.904 258.166 205.031 258.408 205.151 258.981Z" fill="#E8E8E8"/>
<path d="M146.468 180.548C146.468 182.689 146.468 184.831 146.468 187.003C146.468 187.576 147.371 187.576 147.371 187.003C147.371 184.861 147.371 182.72 147.371 180.548C147.371 179.974 146.468 179.974 146.468 180.548Z" fill="#E8E8E8"/>
<path d="M146.92 187.607C157.463 187.607 167.977 187.607 178.521 187.607C179.093 187.607 179.093 186.702 178.521 186.702C167.977 186.702 157.463 186.702 146.92 186.702C146.347 186.702 146.347 187.607 146.92 187.607Z" fill="#E8E8E8"/>
<path d="M146.92 180.91C157.524 180.91 168.128 180.91 178.732 180.91C179.304 180.91 179.304 180.005 178.732 180.005C168.128 180.005 157.524 180.005 146.92 180.005C146.347 180.005 146.347 180.91 146.92 180.91Z" fill="#E8E8E8"/>
<path d="M178.28 180.397C178.28 182.599 178.28 184.801 178.28 187.003C178.28 187.576 179.183 187.576 179.183 187.003C179.183 184.801 179.183 182.599 179.183 180.397C179.183 179.793 178.28 179.793 178.28 180.397Z" fill="#E8E8E8"/>
<path d="M158.367 187.486C158.367 189.326 158.367 191.166 158.367 193.006C158.367 193.579 159.271 193.579 159.271 193.006C159.271 191.166 159.271 189.326 159.271 187.486C159.271 186.913 158.367 186.913 158.367 187.486Z" fill="#E8E8E8"/>
<path d="M158.879 193.791C167.284 193.791 175.689 193.791 184.094 193.791C184.666 193.791 184.666 192.886 184.094 192.886C175.689 192.886 167.284 192.886 158.879 192.886C158.277 192.886 158.277 193.791 158.879 193.791Z" fill="#E8E8E8"/>
<path d="M178.792 187.667C180.66 187.667 182.527 187.667 184.425 187.667C184.998 187.667 184.998 186.762 184.425 186.762C182.557 186.762 180.69 186.762 178.792 186.762C178.189 186.762 178.189 187.667 178.792 187.667Z" fill="#E8E8E8"/>
<path d="M184.003 187.546C184.003 189.417 184.003 191.287 184.003 193.187C184.003 193.761 184.907 193.761 184.907 193.187C184.907 191.317 184.907 189.447 184.907 187.546C184.907 186.973 184.003 186.973 184.003 187.546Z" fill="#E8E8E8"/>
<path d="M181.111 193.459C181.111 195.51 181.111 197.531 181.111 199.583C181.111 200.156 182.015 200.156 182.015 199.583C182.015 197.531 182.015 195.51 182.015 193.459C182.015 192.856 181.111 192.856 181.111 193.459Z" fill="#E8E8E8"/>
<path d="M181.684 200.065C188.613 200.065 195.541 200.065 202.47 200.065C203.042 200.065 203.042 199.16 202.47 199.16C195.541 199.16 188.613 199.16 181.684 199.16C181.081 199.16 181.081 200.065 181.684 200.065Z" fill="#E8E8E8"/>
<path d="M184.516 193.851C190.541 193.851 196.566 193.851 202.591 193.851C203.163 193.851 203.163 192.946 202.591 192.946C196.566 192.946 190.541 192.946 184.516 192.946C183.943 192.946 183.943 193.851 184.516 193.851Z" fill="#E8E8E8"/>
<path d="M202.078 193.338C202.078 195.299 202.078 197.23 202.078 199.191C202.078 199.764 202.982 199.764 202.982 199.191C202.982 197.23 202.982 195.299 202.982 193.338C202.982 192.765 202.078 192.765 202.078 193.338Z" fill="#E8E8E8"/>
<path d="M181.533 199.13C175.779 199.13 170.025 199.13 164.272 199.13C163.699 199.13 163.699 200.035 164.272 200.035C170.025 200.035 175.779 200.035 181.533 200.035C182.106 200.035 182.106 199.13 181.533 199.13Z" fill="#E8E8E8"/>
<path d="M164.633 199.522C164.633 197.592 164.633 195.661 164.633 193.7C164.633 193.127 163.729 193.127 163.729 193.7C163.729 195.631 163.729 197.561 163.729 199.522C163.729 200.095 164.633 200.095 164.633 199.522Z" fill="#E8E8E8"/>
<path d="M127.489 51.1928C127.489 73.0033 127.489 94.7836 127.489 116.594C127.489 117.167 128.393 117.167 128.393 116.594C128.393 94.7836 128.393 73.0033 128.393 51.1928C128.393 50.6196 127.489 50.6196 127.489 51.1928Z" fill="#E8E8E8"/>
<path d="M127.881 117.258C149.089 117.258 170.297 117.258 191.505 117.258C197.499 117.258 203.524 117.258 209.519 117.258C210.092 117.258 210.092 116.353 209.519 116.353C188.311 116.353 167.103 116.353 145.895 116.353C139.9 116.353 133.875 116.353 127.881 116.353C127.308 116.353 127.308 117.258 127.881 117.258Z" fill="#E8E8E8"/>
<path d="M128.092 51.1928C149.059 51.1928 170.026 51.1928 190.993 51.1928C196.927 51.1928 202.832 51.1928 208.766 51.1928C209.339 51.1928 209.339 50.2878 208.766 50.2878C187.799 50.2878 166.832 50.2878 145.865 50.2878C139.931 50.2878 134.026 50.2878 128.092 50.2878C127.519 50.2878 127.519 51.1928 128.092 51.1928Z" fill="#E8E8E8"/>
<path d="M209.248 51.0119C209.248 72.8224 209.248 94.6329 209.248 116.474C209.248 117.047 210.152 117.047 210.152 116.474C210.152 94.6631 210.152 72.8526 210.152 51.0119C210.152 50.4387 209.248 50.4387 209.248 51.0119Z" fill="#E8E8E8"/>
<path d="M131.947 54.5112C131.947 74.2101 131.947 93.9089 131.947 113.578C131.947 114.151 132.851 114.151 132.851 113.578C132.851 93.8787 132.851 74.1799 132.851 54.5112C132.851 53.9079 131.947 53.9079 131.947 54.5112Z" fill="#E8E8E8"/>
<path d="M132.339 114.211C156.499 114.211 180.66 114.211 204.79 114.211C205.362 114.211 205.362 113.306 204.79 113.306C180.629 113.306 156.469 113.306 132.339 113.306C131.767 113.306 131.737 114.211 132.339 114.211Z" fill="#E8E8E8"/>
<path d="M132.52 54.5414C156.379 54.5414 180.268 54.5414 204.127 54.5414C204.699 54.5414 204.699 53.6364 204.127 53.6364C180.268 53.6364 156.379 53.6364 132.52 53.6364C131.947 53.6364 131.947 54.5414 132.52 54.5414Z" fill="#E8E8E8"/>
<path d="M204.488 54.3301C204.488 74.029 204.488 93.758 204.488 113.457C204.488 114.03 205.392 114.03 205.392 113.457C205.392 93.758 205.392 74.029 205.392 54.3301C205.392 53.757 204.488 53.757 204.488 54.3301Z" fill="#E8E8E8"/>
<path d="M167.405 54.6017C167.405 64.2248 167.405 73.8178 167.405 83.441C167.405 84.0142 168.308 84.0142 168.308 83.441C168.308 73.8178 168.308 64.2248 168.308 54.6017C168.308 53.9983 167.405 53.9983 167.405 54.6017Z" fill="#E8E8E8"/>
<path d="M167.856 82.9584C156.379 82.9584 144.871 82.9584 133.393 82.9584C132.821 82.9584 132.821 83.8634 133.393 83.8634C144.871 83.8634 156.379 83.8634 167.856 83.8634C168.429 83.8634 168.429 82.9584 167.856 82.9584Z" fill="#E8E8E8"/>
<path d="M171.893 54.6017C171.893 64.1343 171.893 73.6368 171.893 83.1695C171.893 83.7427 172.797 83.7427 172.797 83.1695C172.797 73.6368 172.797 64.1343 172.797 54.6017C172.797 53.9983 171.893 53.9983 171.893 54.6017Z" fill="#E8E8E8"/>
<path d="M172.345 84.1349C182.949 84.1349 193.553 84.1349 204.157 84.1349C204.729 84.1349 204.729 83.2299 204.157 83.2299C193.553 83.2299 182.949 83.2299 172.345 83.2299C171.743 83.2299 171.743 84.1349 172.345 84.1349Z" fill="#E8E8E8"/>
<path d="M133.122 88.3581C144.66 88.3581 156.198 88.3581 167.706 88.3581C168.278 88.3581 168.278 87.4531 167.706 87.4531C156.168 87.4531 144.63 87.4531 133.122 87.4531C132.55 87.4531 132.52 88.3581 133.122 88.3581Z" fill="#E8E8E8"/>
<path d="M167.254 88.0263C167.254 96.5031 167.254 104.95 167.254 113.427C167.254 114 168.158 114 168.158 113.427C168.158 104.95 168.158 96.5031 168.158 88.0263C168.158 87.4531 167.254 87.4531 167.254 88.0263Z" fill="#E8E8E8"/>
<path d="M171.743 88.69C171.743 96.9255 171.743 105.161 171.743 113.427C171.743 114 172.646 114 172.646 113.427C172.646 105.191 172.646 96.9557 172.646 88.69C172.646 88.1168 171.743 88.1168 171.743 88.69Z" fill="#E8E8E8"/>
<path d="M172.074 89.2933C182.949 89.2933 193.824 89.2933 204.699 89.2933C205.272 89.2933 205.272 88.3883 204.699 88.3883C193.824 88.3883 182.949 88.3883 172.074 88.3883C171.502 88.3883 171.471 89.2933 172.074 89.2933Z" fill="#E8E8E8"/>
<path d="M194.607 54.8128C187.829 62.4752 181.473 70.4995 175.508 78.8255C175.177 79.3082 175.96 79.7607 176.291 79.278C182.196 71.0123 188.522 63.0484 195.24 55.4464C195.632 55.024 194.999 54.3603 194.607 54.8128Z" fill="#E8E8E8"/>
<path d="M194.547 65.9745C191.414 69.7755 188.281 73.5765 185.148 77.3474C184.787 77.7999 185.419 78.4334 185.781 77.9809C188.914 74.1799 192.047 70.3789 195.18 66.608C195.541 66.1555 194.909 65.522 194.547 65.9745Z" fill="#E8E8E8"/>
<path d="M136.587 113.095C144.479 105.191 152.372 97.2574 160.265 89.3537C160.687 88.9314 160.024 88.2979 159.632 88.7202C151.74 96.6239 143.847 104.558 135.954 112.461C135.562 112.854 136.195 113.487 136.587 113.095Z" fill="#E8E8E8"/>
<path d="M150.233 110.319C152.914 106.88 155.746 103.622 158.789 100.515C159.211 100.093 158.548 99.4595 158.156 99.8818C155.114 102.989 152.252 106.247 149.601 109.686C149.239 110.138 149.872 110.802 150.233 110.319Z" fill="#E8E8E8"/>
<path d="M355.897 50.1973C355.897 72.0078 355.897 93.7882 355.897 115.599C355.897 116.172 356.8 116.172 356.8 115.599C356.8 93.7882 356.8 72.0078 356.8 50.1973C356.8 49.6242 355.897 49.6242 355.897 50.1973Z" fill="#E8E8E8"/>
<path d="M356.288 116.262C377.496 116.262 398.704 116.262 419.912 116.262C425.907 116.262 431.932 116.262 437.927 116.262C438.499 116.262 438.499 115.357 437.927 115.357C416.719 115.357 395.511 115.357 374.303 115.357C368.308 115.357 362.283 115.357 356.288 115.357C355.716 115.357 355.716 116.262 356.288 116.262Z" fill="#E8E8E8"/>
<path d="M356.499 50.2275C377.466 50.2275 398.433 50.2275 419.4 50.2275C425.335 50.2275 431.239 50.2275 437.174 50.2275C437.746 50.2275 437.746 49.3225 437.174 49.3225C416.207 49.3225 395.24 49.3225 374.273 49.3225C368.338 49.3225 362.434 49.3225 356.499 49.3225C355.927 49.3225 355.927 50.2275 356.499 50.2275Z" fill="#E8E8E8"/>
<path d="M437.656 50.0163C437.656 71.8268 437.656 93.6373 437.656 115.478C437.656 116.051 438.56 116.051 438.56 115.478C438.56 93.6675 438.56 71.857 438.56 50.0163C438.56 49.4431 437.656 49.4431 437.656 50.0163Z" fill="#E8E8E8"/>
<path d="M360.355 53.5157C360.355 73.2146 360.355 92.9134 360.355 112.582C360.355 113.155 361.259 113.155 361.259 112.582C361.259 92.8832 361.259 73.1844 361.259 53.5157C361.259 52.9124 360.355 52.9124 360.355 53.5157Z" fill="#E8E8E8"/>
<path d="M360.747 113.216C384.907 113.216 409.067 113.216 433.197 113.216C433.77 113.216 433.77 112.311 433.197 112.311C409.037 112.311 384.877 112.311 360.747 112.311C360.144 112.311 360.144 113.216 360.747 113.216Z" fill="#E8E8E8"/>
<path d="M360.928 53.5459C384.787 53.5459 408.676 53.5459 432.535 53.5459C433.107 53.5459 433.107 52.6409 432.535 52.6409C408.676 52.6409 384.787 52.6409 360.928 52.6409C360.355 52.6409 360.355 53.5459 360.928 53.5459Z" fill="#E8E8E8"/>
<path d="M432.896 53.3347C432.896 73.0335 432.896 92.7625 432.896 112.461C432.896 113.034 433.8 113.034 433.8 112.461C433.8 92.7625 433.8 73.0335 433.8 53.3347C433.8 52.7615 432.896 52.7615 432.896 53.3347Z" fill="#E8E8E8"/>
<path d="M395.812 53.6062C395.812 63.2294 395.812 72.8224 395.812 82.4455C395.812 83.0187 396.716 83.0187 396.716 82.4455C396.716 72.8224 396.716 63.2294 396.716 53.6062C396.716 53.0029 395.812 53.0029 395.812 53.6062Z" fill="#E8E8E8"/>
<path d="M396.264 81.9629C384.787 81.9629 373.279 81.9629 361.801 81.9629C361.229 81.9629 361.229 82.8679 361.801 82.8679C373.279 82.8679 384.787 82.8679 396.264 82.8679C396.837 82.8679 396.837 81.9629 396.264 81.9629Z" fill="#E8E8E8"/>
<path d="M400.301 53.6062C400.301 63.1389 400.301 72.6414 400.301 82.174C400.301 82.7472 401.205 82.7472 401.205 82.174C401.205 72.6414 401.205 63.1389 401.205 53.6062C401.205 53.0029 400.301 53.0029 400.301 53.6062Z" fill="#E8E8E8"/>
<path d="M400.753 83.1394C411.357 83.1394 421.961 83.1394 432.565 83.1394C433.137 83.1394 433.137 82.2344 432.565 82.2344C421.961 82.2344 411.357 82.2344 400.753 82.2344C400.15 82.2344 400.15 83.1394 400.753 83.1394Z" fill="#E8E8E8"/>
<path d="M361.53 87.3626C373.068 87.3626 384.606 87.3626 396.114 87.3626C396.686 87.3626 396.686 86.4576 396.114 86.4576C384.576 86.4576 373.038 86.4576 361.53 86.4576C360.927 86.4576 360.927 87.3626 361.53 87.3626Z" fill="#E8E8E8"/>
<path d="M395.662 87.061C395.662 95.5379 395.662 103.985 395.662 112.461C395.662 113.035 396.565 113.035 396.565 112.461C396.565 103.985 396.565 95.5379 396.565 87.061C396.565 86.4577 395.662 86.4577 395.662 87.061Z" fill="#E8E8E8"/>
<path d="M400.15 87.7247C400.15 95.9602 400.15 104.196 400.15 112.461C400.15 113.035 401.054 113.035 401.054 112.461C401.054 104.226 401.054 95.9904 401.054 87.7247C401.054 87.1214 400.15 87.1214 400.15 87.7247Z" fill="#E8E8E8"/>
<path d="M400.482 88.2978C411.357 88.2978 422.232 88.2978 433.107 88.2978C433.679 88.2978 433.679 87.3928 433.107 87.3928C422.232 87.3928 411.357 87.3928 400.482 87.3928C399.879 87.3928 399.879 88.2978 400.482 88.2978Z" fill="#E8E8E8"/>
<path d="M423.015 53.8174C416.237 61.4797 409.881 69.504 403.916 77.83C403.585 78.3127 404.368 78.7652 404.699 78.2825C410.604 70.0169 416.93 62.0529 423.648 54.4509C424.04 54.0285 423.407 53.395 423.015 53.8174Z" fill="#E8E8E8"/>
<path d="M422.955 64.979C419.822 68.78 416.689 72.581 413.556 76.3519C413.194 76.8044 413.827 77.4379 414.189 76.9854C417.322 73.1844 420.455 69.3834 423.588 65.6125C423.949 65.16 423.316 64.5265 422.955 64.979Z" fill="#E8E8E8"/>
<path d="M364.994 112.099C372.887 104.196 380.78 96.2619 388.673 88.3582C389.094 87.9359 388.432 87.3024 388.04 87.7247C380.147 95.6284 372.255 103.562 364.362 111.466C363.97 111.858 364.603 112.492 364.994 112.099Z" fill="#E8E8E8"/>
<path d="M378.641 109.354C381.322 105.915 384.154 102.657 387.197 99.55C387.618 99.1277 386.956 98.4942 386.564 98.9165C383.521 102.024 380.659 105.282 378.008 108.721C377.647 109.143 378.28 109.807 378.641 109.354Z" fill="#E8E8E8"/>
<path d="M354.27 147.877C364.904 147.877 375.568 147.877 386.202 147.877C386.775 147.877 386.775 146.972 386.202 146.972C375.568 146.972 364.904 146.972 354.27 146.972C353.698 146.972 353.698 147.877 354.27 147.877Z" fill="#E8E8E8"/>
<path d="M369.875 147.817C369.875 149.838 369.875 151.829 369.875 153.85C369.875 154.423 370.779 154.423 370.779 153.85C370.779 151.829 370.779 149.838 370.779 147.817C370.779 147.244 369.875 147.244 369.875 147.817Z" fill="#E8E8E8"/>
<path d="M370.327 154.302C378.701 154.302 387.076 154.302 395.421 154.302C395.993 154.302 395.993 153.397 395.421 153.397C387.046 153.397 378.671 153.397 370.327 153.397C369.754 153.397 369.754 154.302 370.327 154.302Z" fill="#E8E8E8"/>
<path d="M386.142 147.606C386.142 149.536 386.142 151.497 386.142 153.428C386.142 154.001 387.046 154.001 387.046 153.428C387.046 151.497 387.046 149.536 387.046 147.606C387.046 147.032 386.142 147.032 386.142 147.606Z" fill="#E8E8E8"/>
<path d="M354.722 147.213C354.722 145.614 354.722 143.985 354.722 142.387C354.722 141.813 353.818 141.813 353.818 142.387C353.818 143.985 353.818 145.614 353.818 147.213C353.818 147.786 354.722 147.786 354.722 147.213Z" fill="#E8E8E8"/>
<path d="M354.662 142.628C362.434 142.628 370.206 142.628 377.948 142.628C378.521 142.628 378.521 141.723 377.948 141.723C370.176 141.723 362.404 141.723 354.662 141.723C354.089 141.723 354.089 142.628 354.662 142.628Z" fill="#E8E8E8"/>
<path d="M377.707 142.779C377.707 144.317 377.707 145.856 377.707 147.394C377.707 147.968 378.611 147.968 378.611 147.394C378.611 145.856 378.611 144.317 378.611 142.779C378.611 142.206 377.707 142.206 377.707 142.779Z" fill="#E8E8E8"/>
<path d="M349.45 154.514C356.891 154.514 364.302 154.514 371.742 154.514C372.315 154.514 372.315 153.609 371.742 153.609C364.302 153.609 356.891 153.609 349.45 153.609C348.878 153.609 348.878 154.514 349.45 154.514Z" fill="#E8E8E8"/>
<path d="M348.787 154.453C348.787 156.143 348.787 157.802 348.787 159.491C348.787 160.064 349.691 160.064 349.691 159.491C349.691 157.802 349.691 156.143 349.691 154.453C349.691 153.88 348.787 153.88 348.787 154.453Z" fill="#E8E8E8"/>
<path d="M349.239 160.336C356.349 160.336 363.428 160.336 370.537 160.336C371.11 160.336 371.11 159.431 370.537 159.431C363.428 159.431 356.349 159.431 349.239 159.431C348.667 159.431 348.667 160.336 349.239 160.336Z" fill="#E8E8E8"/>
<path d="M370.086 154.453C370.086 156.203 370.086 157.953 370.086 159.672C370.086 160.245 370.989 160.245 370.989 159.672C370.989 157.922 370.989 156.173 370.989 154.453C370.989 153.88 370.086 153.88 370.086 154.453Z" fill="#E8E8E8"/>
<path d="M200.271 134.573C213.405 134.573 226.51 134.573 239.644 134.573C240.217 134.573 240.217 133.668 239.644 133.668C226.51 133.668 213.405 133.668 200.271 133.668C199.699 133.668 199.699 134.573 200.271 134.573Z" fill="#E8E8E8"/>
<path d="M200.542 134.121C200.542 132.432 200.542 130.742 200.542 129.053C200.542 128.48 199.638 128.48 199.638 129.053C199.638 130.742 199.638 132.432 199.638 134.121C199.638 134.694 200.542 134.694 200.542 134.121Z" fill="#E8E8E8"/>
<path d="M200.602 128.962C207.622 128.962 214.671 128.962 221.69 128.962C222.262 128.962 222.262 128.057 221.69 128.057C214.671 128.057 207.622 128.057 200.602 128.057C200.03 128.057 200.03 128.962 200.602 128.962Z" fill="#E8E8E8"/>
<path d="M221.238 129.053C221.238 130.682 221.238 132.311 221.238 133.94C221.238 134.513 222.142 134.513 222.142 133.94C222.142 132.311 222.142 130.682 222.142 129.053C222.142 128.45 221.238 128.45 221.238 129.053Z" fill="#E8E8E8"/>
<path d="M215.484 134.815C215.484 136.504 215.484 138.193 215.484 139.883C215.484 140.456 216.388 140.456 216.388 139.883C216.388 138.193 216.388 136.504 216.388 134.815C216.388 134.211 215.484 134.211 215.484 134.815Z" fill="#E8E8E8"/>
<path d="M216.117 140.667C223.768 140.667 231.45 140.667 239.102 140.667C239.674 140.667 239.674 139.762 239.102 139.762C231.45 139.762 223.768 139.762 216.117 139.762C215.544 139.762 215.544 140.667 216.117 140.667Z" fill="#E8E8E8"/>
<path d="M239.192 134.634C239.192 136.565 239.192 138.465 239.192 140.396C239.192 140.969 240.096 140.969 240.096 140.396C240.096 138.465 240.096 136.565 240.096 134.634C240.096 134.061 239.192 134.061 239.192 134.634Z" fill="#E8E8E8"/>
<path d="M221.057 140.547C221.057 142.115 221.057 143.684 221.057 145.253C221.057 145.826 221.961 145.826 221.961 145.253C221.961 143.684 221.961 142.115 221.961 140.547C221.961 139.973 221.057 139.973 221.057 140.547Z" fill="#E8E8E8"/>
<path d="M221.178 145.162C214.49 145.162 207.832 145.162 201.145 145.162C200.572 145.162 200.572 146.067 201.145 146.067C207.832 146.067 214.49 146.067 221.178 146.067C221.75 146.067 221.75 145.162 221.178 145.162Z" fill="#E8E8E8"/>
<path d="M216.99 139.943C211.749 139.943 206.537 139.943 201.295 139.943C200.723 139.943 200.723 140.848 201.295 140.848C206.537 140.848 211.749 140.848 216.99 140.848C217.563 140.848 217.563 139.943 216.99 139.943Z" fill="#E8E8E8"/>
<path d="M200.873 140.396C200.873 142.085 200.873 143.774 200.873 145.464C200.873 146.037 201.777 146.037 201.777 145.464C201.777 143.774 201.777 142.085 201.777 140.396C201.777 139.792 200.873 139.792 200.873 140.396Z" fill="#E8E8E8"/>
<path d="M409.218 208.542C417.502 208.542 425.787 208.542 434.071 208.542C434.643 208.542 434.643 207.637 434.071 207.637C425.787 207.637 417.502 207.637 409.218 207.637C408.646 207.637 408.646 208.542 409.218 208.542Z" fill="#E8E8E8"/>
<path d="M424.009 207.848C424.009 205.978 424.009 204.108 424.009 202.237C424.009 201.664 423.105 201.664 423.105 202.237C423.105 204.108 423.105 205.978 423.105 207.848C423.105 208.422 424.009 208.422 424.009 207.848Z" fill="#E8E8E8"/>
<path d="M423.799 202.569C430.878 202.569 437.957 202.569 445.067 202.569C445.639 202.569 445.639 201.664 445.067 201.664C437.987 201.664 430.908 201.664 423.799 201.664C423.196 201.664 423.196 202.569 423.799 202.569Z" fill="#E8E8E8"/>
<path d="M444.585 202.358C444.585 203.957 444.585 205.556 444.585 207.155C444.585 207.728 445.488 207.728 445.488 207.155C445.488 205.556 445.488 203.957 445.488 202.358C445.488 201.755 444.585 201.755 444.585 202.358Z" fill="#E8E8E8"/>
<path d="M433.468 208.421C437.204 208.421 440.939 208.421 444.705 208.421C445.277 208.421 445.277 207.516 444.705 207.516C440.97 207.516 437.234 207.516 433.468 207.516C432.866 207.516 432.866 208.421 433.468 208.421Z" fill="#E8E8E8"/>
<path d="M408.284 208.572C408.284 210.02 408.284 211.438 408.284 212.886C408.284 213.459 409.188 213.459 409.188 212.886C409.188 211.438 409.188 210.02 409.188 208.572C409.188 207.999 408.284 207.969 408.284 208.572Z" fill="#E8E8E8"/>
<path d="M408.856 213.791C416.689 213.791 424.552 213.791 432.384 213.791C432.956 213.791 432.956 212.886 432.384 212.886C424.552 212.886 416.689 212.886 408.856 212.886C408.284 212.886 408.284 213.791 408.856 213.791Z" fill="#E8E8E8"/>
<path d="M432.173 208.21C432.173 209.839 432.173 211.468 432.173 213.128C432.173 213.701 433.077 213.701 433.077 213.128C433.077 211.499 433.077 209.87 433.077 208.21C433.077 207.637 432.173 207.637 432.173 208.21Z" fill="#E8E8E8"/>
<path d="M411.598 195.269C419.189 195.269 426.811 195.269 434.402 195.269C434.975 195.269 434.975 194.364 434.402 194.364C426.811 194.364 419.189 194.364 411.598 194.364C411.025 194.364 411.025 195.269 411.598 195.269Z" fill="#E8E8E8"/>
<path d="M433.951 195.178C433.951 197.501 433.951 199.794 433.951 202.117C433.951 202.69 434.854 202.69 434.854 202.117C434.854 199.794 434.854 197.501 434.854 195.178C434.854 194.575 433.951 194.575 433.951 195.178Z" fill="#E8E8E8"/>
<path d="M411.387 194.937C411.387 197.079 411.387 199.251 411.387 201.393C411.387 201.966 412.291 201.966 412.291 201.393C412.291 199.251 412.291 197.079 412.291 194.937C412.291 194.364 411.387 194.364 411.387 194.937Z" fill="#E8E8E8"/>
<path d="M412.441 202.328C417.803 202.328 423.196 202.328 428.558 202.328C429.13 202.328 429.13 201.423 428.558 201.423C423.196 201.423 417.803 201.423 412.441 201.423C411.869 201.423 411.869 202.328 412.441 202.328Z" fill="#E8E8E8"/>
<path d="M160.747 289.781C165.688 289.781 170.628 289.781 175.569 289.781C176.141 289.781 176.141 288.876 175.569 288.876C170.628 288.876 165.688 288.876 160.747 288.876C160.175 288.876 160.175 289.781 160.747 289.781Z" fill="#161616"/>
<path d="M122.759 289.841C165.868 289.841 208.947 289.841 252.056 289.841C294.924 289.841 337.822 289.841 380.69 289.841C404.88 289.841 429.07 289.841 453.261 289.841C454.436 289.841 454.436 288.031 453.261 288.031C410.152 288.031 367.073 288.031 323.964 288.031C281.096 288.031 238.198 288.031 195.33 288.031C171.14 288.031 146.95 288.031 122.759 288.031C121.584 288.031 121.584 289.841 122.759 289.841Z" fill="#161616"/>
<path d="M395.511 295.935C416.418 295.935 437.295 295.935 458.201 295.935C459.376 295.935 459.376 294.125 458.201 294.125C437.295 294.125 416.418 294.125 395.511 294.125C394.366 294.125 394.366 295.935 395.511 295.935Z" fill="#161616"/>
<path d="M180.509 318.741C203.946 318.741 227.353 318.741 250.791 318.741C251.965 318.741 251.965 316.931 250.791 316.931C227.353 316.931 203.946 316.931 180.509 316.931C179.334 316.931 179.334 318.741 180.509 318.741Z" fill="#161616"/>
<path d="M53.6225 309.902C69.2574 309.902 84.8922 309.902 100.527 309.902C101.702 309.902 101.702 308.092 100.527 308.092C84.8922 308.092 69.2574 308.092 53.6225 308.092C52.4476 308.092 52.4476 309.902 53.6225 309.902Z" fill="#161616"/>
<path d="M110.408 301.667C127.549 301.667 144.69 301.667 161.832 301.667C163.006 301.667 163.006 299.857 161.832 299.857C144.69 299.857 127.549 299.857 110.408 299.857C109.233 299.857 109.233 301.667 110.408 301.667Z" fill="#161616"/>
<path d="M99.3824 277.232C122.518 264.532 144.6 249.961 166.2 234.787C187.829 219.583 209.067 203.776 230.667 188.512C242.777 179.974 255.008 171.588 267.48 163.594C267.962 163.292 267.51 162.508 267.028 162.81C244.766 177.078 223.317 192.554 201.898 208.06C180.509 223.565 159.12 239.131 136.978 253.521C124.567 261.575 111.944 269.298 98.9606 276.417C98.4184 276.719 98.8702 277.503 99.3824 277.232Z" fill="#161616"/>
<path d="M82.6329 271.017C80.8254 272.013 79.6204 273.31 78.9878 274.004C78.0238 275.06 77.3611 275.753 76.8489 276.809C76.0657 278.499 76.1561 280.399 76.3971 284.14C76.5778 286.915 76.7586 286.644 76.6381 287.277C75.9753 290.716 72.2097 291.35 72.3001 293.673C72.3603 295.121 73.8063 296.297 75.0414 296.719C76.9393 297.383 79.2288 296.538 80.5844 294.577C79.1384 295.302 77.0297 296.689 75.7042 299.163C75.2222 300.068 74.5896 301.244 75.0113 301.818C75.7343 302.813 79.0179 301.637 81.9401 300.37C81.7894 301.063 81.7593 301.908 82.2413 302.511C83.4162 303.989 86.8806 302.813 87.7843 302.511C88.8086 302.149 88.9592 301.968 93.5683 299.072C95.9783 297.564 96.8218 297.051 98.2076 296.025C99.3824 295.151 100.286 294.396 100.949 293.823C103.118 293.884 105.739 293.763 108.631 293.22C114.083 292.164 118.271 290.022 120.952 288.333C121.163 289.208 121.344 290.113 121.554 290.988C118.934 292.617 116.915 293.823 115.529 294.638C114.656 295.151 113.752 295.694 113.842 296.086C113.993 296.659 116.042 296.629 117.337 296.629C118.783 296.629 119.988 296.448 120.831 296.327C120.892 296.538 121.103 297.111 121.675 297.383C122.518 297.835 123.603 297.323 123.573 297.232C123.573 297.172 123.121 297.172 123.121 297.142C123.121 297.081 126.405 297.081 128.664 296.9C130.562 296.75 133.333 296.388 136.737 295.302C137.31 292.979 137.43 291.169 137.43 289.902C137.43 288.966 137.37 288.484 137.521 287.549C137.792 285.709 138.364 285.105 138.665 283.748C138.876 282.843 138.937 281.485 138.364 279.705C139.358 279.313 140.021 278.77 140.413 278.408C140.503 278.318 142.552 276.327 142.311 273.612C142.25 273.038 142.19 272.284 141.708 272.013C140.925 271.591 139.569 272.676 138.906 273.461C137.732 274.818 137.671 276.508 137.701 277.262C136.888 275.995 135.261 273.823 132.46 272.465C131.345 271.922 130.23 271.591 129.025 271.41C123.362 270.444 116.704 272.405 112.517 273.913C107.034 275.904 104.413 277.624 101.039 277.051C100.015 276.87 97.7858 276.477 96.2494 274.758C95.6469 274.094 95.5867 273.702 94.8034 272.767C94.5323 272.435 93.1164 270.776 91.3089 269.962C87.6337 268.272 83.4764 270.565 82.6329 271.017Z" fill="white"/>
<path d="M98.0569 276.478C97.364 278.076 96.4 279.524 95.195 280.822C94.8034 281.244 95.436 281.877 95.8276 281.455C97.0929 280.128 98.087 278.619 98.81 276.93C99.0811 276.387 98.2979 275.935 98.0569 276.478Z" fill="#EC615B"/>
<path d="M98.4786 276.84C97.7857 278.77 96.7314 280.46 95.3155 281.908C94.9239 282.33 95.5565 282.963 95.9481 282.541C97.4845 280.972 98.5991 279.132 99.3522 277.081C99.533 276.538 98.6594 276.297 98.4786 276.84Z" fill="#EC615B"/>
<path d="M83.627 278.107C84.1994 281.787 84.7417 285.588 86.519 288.936C87.7843 291.35 90.4353 293.642 93.267 292.164C96.0686 290.686 96.4603 287.066 96.2795 284.23C96.0686 281.123 94.9841 278.137 92.7248 275.935C92.303 275.542 91.6704 276.176 92.0922 276.568C93.99 278.438 95.0143 280.912 95.3155 283.537C95.6168 286.221 95.5264 290.113 92.6947 291.44C89.2604 293.009 87.1215 288.484 86.278 285.95C85.3743 283.325 84.9525 280.61 84.5609 277.865C84.4103 277.292 83.5366 277.533 83.627 278.107Z" fill="#161616"/>
<path d="M82.4822 270.535C79.0781 272.918 75.9752 275.995 75.5233 280.339C75.433 281.364 75.4932 282.39 75.7342 283.355C76.0957 284.773 76.879 285.95 76.0355 287.398C74.71 289.691 72.8121 291.832 71.2456 293.974C70.9142 294.457 71.6975 294.909 72.0288 294.427C73.505 292.406 75.0413 290.415 76.4572 288.363C77.6622 286.644 77.3308 285.497 76.7585 283.567C75.1317 278.348 79.0178 274.034 82.9642 271.289C83.4161 270.987 82.9642 270.203 82.4822 270.535Z" fill="#161616"/>
<path d="M71.2155 294.759C72.4808 295.905 73.8665 297.142 75.6439 297.323C77.2706 297.474 78.8371 296.599 80.1024 295.694C82.9643 293.673 85.0128 290.807 86.3383 287.579C86.5491 287.036 85.6755 286.795 85.4646 287.338C84.4103 289.932 82.7835 292.315 80.6446 294.125C79.4396 295.121 77.8731 296.327 76.2464 296.418C74.469 296.538 73.0531 295.211 71.8481 294.095C71.4264 293.733 70.7938 294.366 71.2155 294.759Z" fill="#161616"/>
<path d="M76.9995 284.08C77.4514 284.924 77.9635 285.709 78.5961 286.402C78.9878 286.855 79.6204 286.191 79.2288 285.769C78.6564 285.105 78.1744 284.381 77.7828 283.627C77.4815 283.114 76.7284 283.567 76.9995 284.08Z" fill="#161616"/>
<path d="M72.6013 293.16C73.2038 293.854 73.3845 294.728 73.2941 295.603C73.2339 296.176 74.1376 296.176 74.1979 295.603C74.3184 294.487 73.987 293.371 73.2339 292.526C72.8423 292.104 72.2096 292.737 72.6013 293.16Z" fill="#161616"/>
<path d="M71.7879 294.487C72.1494 294.759 72.4808 295.06 72.8423 295.332C73.2038 295.633 73.8666 295.241 73.5653 294.789C73.3243 294.427 73.1737 294.004 73.1737 293.552C72.9026 293.642 72.6013 293.703 72.3302 293.793C72.4206 293.914 72.5109 294.035 72.5712 294.155C72.9026 294.638 73.6858 294.185 73.3544 293.703C73.2641 293.582 73.1737 293.461 73.1134 293.341C72.8724 293.009 72.2699 293.099 72.2699 293.582C72.2699 294.185 72.4507 294.759 72.7821 295.271C73.0231 295.09 73.2641 294.909 73.5051 294.728C73.1436 294.457 72.8122 294.155 72.4507 293.884C72.2699 293.733 71.9988 293.703 71.8181 293.884C71.6373 294.004 71.6072 294.336 71.7879 294.487Z" fill="#161616"/>
<path d="M89.6822 269.871C92.2729 270.504 94.0202 272.495 95.5867 274.517C97.0929 276.417 98.1172 277.443 100.648 277.292C105.889 276.96 110.89 274.969 115.861 273.461C120.982 271.922 127.459 270.233 132.52 272.827C137.762 275.512 139.72 281.968 137.099 287.187C136.828 287.699 137.611 288.152 137.882 287.639C141.648 280.097 136.647 271.621 128.453 270.746C119.054 269.75 110.559 275.331 101.401 276.296C99.6837 276.477 98.2377 276.387 97.0327 274.939C96.3097 274.064 95.6469 273.129 94.8938 272.284C93.508 270.746 91.9114 269.479 89.8629 268.966C89.3508 268.845 89.1098 269.72 89.6822 269.871Z" fill="#161616"/>
<path d="M128.152 278.499C125.802 280.369 124.085 282.813 124.266 285.95C124.446 288.725 126.103 291.108 128.573 292.375C129.086 292.647 129.537 291.863 129.025 291.591C126.706 290.384 125.139 288.122 125.169 285.437C125.199 282.722 126.766 280.731 128.784 279.132C129.236 278.8 128.604 278.137 128.152 278.499Z" fill="#161616"/>
<path d="M128.634 292.134C126.947 292.647 125.29 293.25 123.663 293.974C122.759 294.397 120.53 295 120.229 296.116C119.596 298.469 125.441 297.534 126.314 297.474C128.061 297.353 129.809 297.172 131.556 296.9C133.092 296.659 135.171 296.629 136.557 295.875C137.611 295.332 137.521 294.155 137.581 293.099C137.732 291.018 137.912 288.967 138.063 286.885C138.123 286.312 137.219 286.312 137.159 286.885C137.069 288.212 136.948 289.51 136.858 290.837C136.768 292.044 137.039 294.457 135.864 295.151C135.05 295.633 133.635 295.633 132.701 295.784C131.225 296.026 129.779 296.237 128.272 296.388C127.037 296.508 125.802 296.599 124.567 296.629C123.904 296.659 123.241 296.719 122.579 296.689C122.006 296.659 121.042 296.87 121.434 296.056C121.615 295.724 122.759 295.332 123.121 295.181C123.814 294.849 124.537 294.517 125.26 294.216C126.435 293.733 127.64 293.341 128.845 292.979C129.447 292.828 129.206 291.953 128.634 292.134Z" fill="#161616"/>
<path d="M95.5264 285.95C95.7373 290.988 91.6102 294.366 87.5734 296.538C85.8563 297.443 79.3794 299.495 81.6689 302.572C83.6873 305.287 88.6579 302.481 90.857 301.305C94.6528 299.283 97.9665 296.538 101.28 293.793C101.732 293.431 101.1 292.798 100.648 293.16C97.7858 295.513 94.9239 297.896 91.7307 299.766C90.1039 300.732 88.3868 301.576 86.5793 302.18C85.555 302.511 84.1994 303.054 83.1752 302.542C81.0664 301.516 82.8137 299.977 84.0187 299.314C89.4412 296.448 96.7615 293.25 96.4302 285.92C96.4 285.377 95.4963 285.377 95.5264 285.95Z" fill="#161616"/>
<path d="M77.9334 284.11C78.084 283.084 78.6263 282.149 79.5601 281.666C80.0723 281.395 79.6204 280.61 79.1083 280.882C77.9635 281.485 77.2405 282.632 77.0598 283.868C76.9694 284.442 77.843 284.683 77.9334 284.11Z" fill="#161616"/>
<path d="M81.699 292.737C81.217 293.642 80.3132 294.155 79.53 294.789C78.7166 295.452 77.9334 296.176 77.1802 296.931C76.2765 297.866 74.2581 299.495 74.1677 300.913C73.9569 304.412 80.4639 301.395 81.699 301.003C82.2412 300.822 82.0002 299.947 81.458 300.128C80.1024 300.581 78.7769 301.063 77.3911 301.456C76.9995 301.606 76.5777 301.697 76.1861 301.727C75.433 300.852 75.4029 300.098 76.0355 299.525C76.3367 299.012 76.879 298.56 77.2706 298.137C78.1744 297.172 79.1384 296.267 80.1626 295.422C81.0061 294.728 81.94 294.185 82.4521 293.19C82.7534 292.677 81.9701 292.225 81.699 292.737Z" fill="#161616"/>
<path d="M101.19 294.125C109.655 294.155 117.97 291.531 124.868 286.614C125.35 286.282 124.898 285.497 124.416 285.829C117.638 290.656 109.535 293.25 101.19 293.22C100.618 293.19 100.618 294.095 101.19 294.125Z" fill="#161616"/>
<path d="M120.199 288.755C120.379 289.268 120.53 289.751 120.711 290.264C120.982 291.018 121.223 291.259 120.47 291.712C119.536 292.285 118.421 292.707 117.427 293.19C116.403 293.673 115.379 294.125 114.385 294.668C113.903 294.909 113.451 295.181 113.24 295.694C112.155 298.59 119.265 296.961 120.319 296.629C120.861 296.448 120.621 295.573 120.078 295.754C119.265 296.026 118.421 296.237 117.578 296.327C117.036 296.388 115.529 296.719 114.987 296.418C113.541 295.603 115.861 294.94 116.343 294.698C117.096 294.336 117.849 293.944 118.632 293.582C119.476 293.16 121.524 292.677 121.916 291.742C122.277 290.897 121.313 289.268 121.042 288.484C120.892 287.971 120.018 288.212 120.199 288.755Z" fill="#161616"/>
<path d="M138.123 277.141C138.093 275.965 138.304 274.849 138.936 273.823C139.208 273.401 139.599 272.827 140.081 272.616C142.612 271.56 142.16 273.944 141.949 274.788C141.407 276.719 139.9 278.288 138.244 279.313C137.731 279.615 138.213 280.399 138.695 280.098C140.322 279.132 141.648 277.745 142.461 275.995C142.973 274.849 143.485 273.159 142.491 272.134C141.587 271.198 140.141 271.44 139.208 272.164C137.731 273.31 137.189 275.361 137.249 277.171C137.249 277.714 138.153 277.745 138.123 277.141Z" fill="#161616"/>
<path d="M82.7836 271.56C84.7718 270.233 87.9349 268.876 90.2546 270.082C90.7667 270.354 91.2186 269.569 90.7064 269.298C88.0554 267.91 84.6212 269.268 82.3317 270.776C81.8497 271.078 82.3016 271.862 82.7836 271.56Z" fill="#161616"/>
<path opacity="0.09" d="M92.785 275.874C93.6888 276.236 95.9783 277.262 97.605 279.735C98.2979 280.791 100.015 283.416 99.051 286.372C98.1774 289.027 95.7072 290.203 95.1348 290.445C95.5264 289.6 96.0687 288.242 96.1892 286.523C96.3398 284.351 95.7975 282.722 95.195 280.942C94.7733 279.645 94.0503 277.865 92.785 275.874Z" fill="#6D6C6C"/>
<path opacity="0.13" d="M83.7475 285.316C82.904 288.605 81.3375 290.746 80.494 291.893C78.7467 294.276 76.7886 295.875 75.2823 296.87C76.4271 296.719 78.084 296.297 79.8011 295.271C80.2831 294.97 82.4521 293.673 84.109 290.958C85.0127 289.479 85.4646 288.122 85.7056 287.187C85.1935 284.351 84.7115 281.515 84.1994 278.65C84.3801 280.128 84.4705 282.511 83.7475 285.316Z" fill="#6D6C6C"/>
<path opacity="0.07" d="M135.864 275.06C136.135 276.478 136.436 278.68 136.014 281.334C135.291 286.04 132.821 289.117 131.707 290.475C128.182 294.789 123.814 296.508 121.765 297.202C126.525 297.051 130.381 296.629 133.213 296.207C135.141 295.935 136.376 295.694 137.129 294.698C138.394 293.009 136.888 291.199 137.581 287.157C138.033 284.411 138.846 284.23 138.937 282.239C139.027 280.429 138.485 278.016 135.864 275.06Z" fill="#6D6C6C"/>
<path opacity="0.14" d="M120.892 288.846C121.102 289.178 121.795 290.294 121.434 291.35C121.343 291.591 121.102 292.134 119.687 292.858C117.277 294.125 115.921 293.612 114.776 294.909C114.686 295 113.903 295.905 114.174 296.508C114.445 297.081 115.65 297.021 116.674 296.961C117.668 296.9 119.084 296.689 120.741 296.056C121.705 295.422 122.88 294.728 124.296 294.095C125.862 293.401 127.308 292.948 128.513 292.647C128.393 292.255 128.122 291.682 127.67 291.048C126.856 289.962 126.103 289.811 125.41 288.846C125.109 288.424 124.717 287.73 124.567 286.644C123.332 287.398 122.097 288.122 120.892 288.846Z" fill="#6D6C6C"/>
<path opacity="0.25" d="M141.738 272.254C141.678 273.038 141.497 274.215 140.985 275.512C140.081 277.835 138.726 279.072 138.937 279.283C139.117 279.464 140.443 278.649 141.286 277.473C141.979 276.477 142.16 275.512 142.19 275.21C142.401 273.793 141.949 272.676 141.738 272.254Z" fill="#6D6C6C"/>
<path d="M330.351 268.845C337.159 275.241 343.937 281.666 350.745 288.062C342.792 304.261 339.599 312.828 341.166 313.794C343.094 315 352.432 304.352 369.212 281.787C357.644 273.34 346.076 264.894 334.508 256.417C333.122 260.58 331.737 264.713 330.351 268.845Z" fill="#191919"/>
<path d="M301.19 175.449C298.659 179.311 300.105 182.84 301.551 196.174C303.027 209.689 301.792 208.271 302.997 217.622C305.046 233.43 309.565 244.863 313.18 253.822C313.18 253.822 318.271 266.523 328.242 278.197C328.513 278.529 329.146 279.193 330.05 279.826C330.953 280.46 332.881 281.787 335.141 281.455C337.521 281.123 339.328 279.102 340.051 277.262C340.864 275.18 339.9 274.215 340.955 272.526C341.738 271.319 342.431 271.5 344.419 269.992C345.805 268.906 347.582 267.548 348.426 265.256C349.36 262.661 348.637 260.308 348.426 259.614C347.793 257.623 346.588 256.356 346.257 255.964C344.781 254.365 342.491 249.871 337.912 240.881C334.357 233.943 328.784 218.226 327.007 198.527C325.44 181.03 328.152 174.846 323.181 171.075C317.307 166.611 305.377 169.054 301.19 175.449Z" fill="white"/>
<path d="M325.681 181.845C325.41 192.343 326.706 202.811 328.965 213.067C331.164 223.022 333.996 233.068 337.912 242.48C339.9 247.306 342.371 251.922 345.594 256.025C345.956 256.477 346.588 255.844 346.227 255.391C340.202 247.789 337.069 238.407 334.237 229.267C331.164 219.402 328.724 209.327 327.459 199.04C326.766 193.338 326.465 187.576 326.615 181.845C326.615 181.241 325.712 181.241 325.681 181.845Z" fill="#161616"/>
<path d="M301.31 195.178C301.371 211.317 303.509 227.547 308.54 242.932C311.011 250.474 314.174 257.834 318.12 264.713C320.108 268.212 322.307 271.621 324.717 274.879C326.736 277.624 329.116 280.671 332.61 281.545C335.834 282.36 339.057 281.063 340.322 277.895C341.618 274.607 340.744 270.323 343.455 267.669C343.877 267.246 343.244 266.613 342.823 267.035C340.744 269.057 340.623 271.983 340.202 274.667C339.991 275.995 339.75 277.382 339.027 278.529C337.822 280.52 335.502 281.184 333.303 280.761C329.357 280.007 326.796 276.236 324.627 273.189C322.488 270.173 320.5 267.035 318.662 263.808C311.221 250.594 306.612 235.903 304.232 220.941C302.877 212.434 302.244 203.806 302.214 195.178C302.214 194.575 301.31 194.575 301.31 195.178Z" fill="#161616"/>
<path d="M344.871 255.18C347.311 258.076 349.209 261.847 347.914 265.678C347.251 267.699 345.745 268.453 344.088 269.509C342.642 270.444 341.437 271.681 340.443 273.099C340.111 273.582 340.895 274.034 341.226 273.551C342.069 272.405 343.033 271.319 344.208 270.505C344.961 269.992 345.805 269.6 346.558 269.057C347.974 268.031 348.757 266.432 349.058 264.743C349.721 260.881 347.914 257.412 345.504 254.516C345.142 254.094 344.51 254.758 344.871 255.18Z" fill="#161616"/>
<path opacity="0.16" d="M301.883 194.485C301.822 198.467 301.943 202.63 302.244 207.004C303.329 222.419 306.612 235.783 310.378 246.703C310.378 246.703 315.108 260.248 321.404 269.72C322.097 270.746 323.422 272.465 326.103 275.874C328.875 279.434 329.688 280.309 331.164 280.942C331.375 281.033 335.141 282.601 337.671 280.761C338.364 280.279 338.906 279.102 340.021 276.779C341.166 274.396 341.738 273.129 342.009 271.349C343.485 271.289 344.57 270.474 344.721 269.539C344.901 268.393 343.576 267.428 343.455 267.367C341.648 266.13 339.147 267.156 338.033 267.367C332.52 268.363 325.621 255.21 323.543 251.228C314.957 234.546 310.649 226.22 307.606 216.989C305.829 211.287 303.63 203.685 301.883 194.485Z" fill="#6D6C6C"/>
<path opacity="0.13" d="M305.859 229.659C306.13 229.568 306.612 230.926 311.282 240.338C320.379 258.649 322.548 261.304 324.868 263.355C327.64 265.829 332.61 269.207 341.166 270.595C341.256 271.138 342.341 277.111 338.816 279.826C337.28 281.033 335.502 281.093 335.02 281.093C329.568 281.274 323.904 273.823 318.903 264.954C309.173 247.699 304.865 229.991 305.859 229.659Z" fill="#6D6C6C"/>
<path d="M264.046 270.716C260.009 279.162 256.002 287.579 251.966 296.026C234.162 293.371 225.004 292.949 224.552 294.728C223.979 296.931 236.993 302.602 263.534 311.712C268.052 298.107 272.571 284.502 277.06 270.867C272.752 270.836 268.414 270.776 264.046 270.716Z" fill="#191919"/>
<path d="M299.864 172.674C296.761 175.329 295.858 178.164 293.357 183.956C289.501 192.856 285.133 201.544 281.217 210.443C273.414 228.181 270.884 232.102 264.979 246.039C261.575 254.064 261.605 254.637 259.768 257.985C257.87 261.424 255.912 264.32 254.556 269.268C253.743 272.224 253.562 274.426 254.345 276.659C254.647 277.533 255.58 280.279 258.021 281.214C259.587 281.817 261.184 281.455 262.991 281.003C264.467 280.641 265.642 280.128 266.456 279.705C266.998 280.399 267.962 281.425 269.498 282.089C272.36 283.386 275.101 282.511 276.427 282.089C277.21 281.847 280.132 280.822 282.271 277.956C283.747 275.995 284.169 274.034 284.44 272.978C285.525 268.483 287.754 264.351 289.2 259.946C289.983 257.533 291.489 253.853 301.551 239.131C312.396 223.264 312.938 224.199 318.241 215.481C323.994 206.008 327.218 200.82 328.634 192.916C329.778 186.521 331.465 177.139 325.862 171.588C319.506 165.132 306.642 166.822 299.864 172.674Z" fill="white"/>
<path d="M328.784 178.526C330.682 195.902 321.283 211.68 311.432 225.134C306.432 231.952 301.16 238.558 296.611 245.647C291.911 252.948 288.266 260.791 285.284 268.936C283.778 273.069 282.814 278.378 278.747 280.852C275.343 282.903 270.884 282.752 267.721 280.339C267.269 279.977 266.817 280.761 267.269 281.123C272.661 285.196 280.343 282.933 283.235 277.021C285.133 273.129 286.248 268.785 287.844 264.773C289.652 260.278 291.7 255.844 294.05 251.62C302.907 235.843 316.222 222.962 324.055 206.551C328.212 197.803 330.773 188.21 329.688 178.496C329.628 177.953 328.724 177.923 328.784 178.526Z" fill="#161616"/>
<path d="M299.382 169.959C291.128 188.029 282.874 206.129 274.589 224.199C270.432 233.339 266.245 242.449 262.088 251.59C260.129 255.904 258.081 260.188 256.183 264.532C254.677 267.94 253.231 271.771 253.803 275.542C254.285 278.589 256.183 281.817 259.527 282.058C261.937 282.239 264.377 281.093 266.606 280.369C269.227 279.524 271.878 278.65 274.499 277.805C275.041 277.624 274.8 276.749 274.258 276.93C272.179 277.594 270.131 278.257 268.052 278.951C265.883 279.645 263.714 280.52 261.485 281.002C257.117 281.907 254.707 278.167 254.556 274.245C254.406 269.901 256.575 265.708 258.322 261.877C260.25 257.684 262.148 253.49 264.076 249.267C271.758 232.464 279.44 215.662 287.091 198.859C291.429 189.356 295.767 179.854 300.105 170.381C300.407 169.868 299.623 169.416 299.382 169.959Z" fill="#161616"/>
<path d="M266.486 280.55C266.787 280.731 267.088 280.942 267.359 281.153C267.54 281.304 267.811 281.334 267.992 281.153C268.143 281.003 268.173 280.671 267.992 280.52C267.661 280.248 267.299 280.007 266.938 279.766C266.456 279.464 266.004 280.248 266.486 280.55Z" fill="#161616"/>
<path opacity="0.09" d="M315.469 167.304C311.824 169.114 312.939 176.475 312.396 184.53C312.005 190.472 311.011 192.282 297.183 223.867C285.555 250.444 284.169 253.943 279.62 260.851C273.987 269.388 268.323 275.814 264.226 280.067C265.19 280.007 266.154 279.947 267.118 279.886C267.751 280.49 268.775 281.274 270.191 281.877C270.884 282.179 273.987 283.506 277.24 282.42C280.434 281.365 282 278.589 283.205 276.447C285.013 273.22 285.495 270.354 285.736 269.026C286.398 265.497 288.477 261.485 292.604 253.43C298.177 242.6 303.6 238.166 313.601 223.354C321.795 211.167 326.314 204.319 328.453 194.002C330.17 185.766 329.658 178.677 328.995 174.062C324.567 169.869 318.903 165.585 315.469 167.304Z" fill="#6D6C6C"/>
<path opacity="0.16" d="M328.483 188.512C327.971 188.3 325.44 194.394 320.349 203.384C313.33 215.692 310.89 216.838 301.521 230.926C292.062 245.165 292.212 247.548 282.331 262.088C277.21 269.63 272.691 275.603 269.649 279.494C268.775 280.912 268.926 281.576 269.107 281.847C269.86 283.144 273.655 282.27 275.433 281.847C277.722 281.304 278.897 281.033 280.132 280.218C282.753 278.499 283.326 275.814 285.193 270.263C286.187 267.277 287.453 264.381 288.447 261.394C290.616 254.999 293.689 250.504 298.75 243.264C316.102 218.558 316.041 219.945 319.024 214.455C326.163 201.423 329.206 188.813 328.483 188.512Z" fill="#6D6C6C"/>
<path d="M242.868 82.6266C242.084 83.9539 241.934 85.2209 241.874 85.7941C241.572 88.2678 242.416 90.1984 242.777 90.9526C244.766 95.2664 249.314 96.7446 250.128 96.9859C250.67 99.0071 251.212 101.028 251.815 103.08C253.17 107.876 254.586 112.582 256.032 117.167C257.96 116.896 259.888 116.624 261.816 116.353C261.274 113.789 260.611 111.737 260.129 110.38C258.683 106.217 257.328 104.135 256.153 99.6104C255.852 98.4038 255.641 97.3781 255.52 96.7446C256.002 96.4128 256.665 95.8396 257.298 95.0251C259.798 91.7671 259.195 87.7851 259.075 86.9404C258.864 85.6433 258.533 83.2903 256.544 81.2993C254.014 78.7351 250.76 78.6748 250.278 78.6748C247.356 78.5843 244.344 80.0926 242.868 82.6266Z" fill="#5222D0"/>
<path d="M244.615 85.07C244.494 85.432 244.163 86.7292 244.525 88.328C245.067 90.681 246.935 92.8229 249.435 93.5469C251.393 94.12 254.375 94.0597 255.972 92.0989C257.087 90.7414 257.057 89.1124 257.026 87.604C256.996 85.9147 256.936 83.3204 254.888 81.631C252.417 79.5797 249.134 80.6054 248.923 80.6657C246.784 81.3595 245.187 83.079 244.615 85.07Z" fill="white"/>
<path d="M250.068 104.105C249.977 104.558 249.857 105.221 249.857 105.976C249.857 106.338 249.857 107.333 250.218 108.841C250.459 109.777 250.61 110.018 251.604 112.431C252.688 115.056 252.899 115.78 253.713 116.112C254.255 116.353 254.827 116.262 255.189 116.172C254.315 114.784 254.375 113.97 254.586 113.487C254.767 113.035 255.068 112.944 255.249 112.371C255.309 112.16 255.4 111.768 255.068 110.41C254.737 109.083 254.586 109.083 254.496 108.298C254.375 107.393 254.586 107.363 254.466 106.519C254.436 106.368 254.315 105.553 253.803 104.618C253.321 103.773 253.02 103.23 252.417 103.049C251.634 102.868 250.76 103.321 250.068 104.105Z" fill="white"/>
<path d="M257.569 103.743C256.816 104.497 255.761 105.915 256.183 106.669C256.545 107.273 257.81 107.333 258.442 107.363C258.894 107.393 259.256 107.363 259.527 107.333C259.647 107.665 259.768 107.967 259.858 108.298C260.702 110.772 261.425 113.216 262.027 115.629C262.118 115.961 262.208 116.293 262.268 116.594C261.997 116.986 261.485 117.59 260.672 118.072C259.557 118.706 258.503 118.796 257.991 118.796C258.563 120.184 259.406 121.934 260.672 123.834C261.033 124.377 262.088 125.976 263.835 127.877C265.492 129.687 267.149 131.497 269.8 133.065C273.384 135.207 276.758 135.69 278.626 135.931C281.428 136.293 283.627 136.142 284.742 136.022C285.706 135.931 289.531 135.448 293.96 133.186C298.087 131.074 300.587 128.54 302.485 126.579C303.961 125.071 306.492 122.386 308.691 118.133C310.197 115.176 310.77 112.974 311.854 108.66C313.39 102.567 314.144 99.5199 312.637 98.1322C311.372 96.9859 309.143 97.4686 307.335 97.8909C304.353 98.5546 302.335 100.153 299.894 102.144C298.659 103.17 297.575 104.226 295.496 106.277C291.098 110.621 290.827 111.315 288.417 113.306C286.971 114.513 285.796 115.297 283.446 116.836C278.747 119.973 277.421 120.244 276.397 120.305C274.529 120.395 273.113 119.762 271.818 119.189C267.962 117.439 266.124 114.362 265.552 113.397C264.799 112.099 264.226 111.104 264.196 109.716C264.166 108.117 264.859 107.605 264.889 105.644C264.919 104.497 264.949 102.899 263.985 102.084C262.479 100.757 259.286 102.054 257.569 103.743Z" fill="white"/>
<path d="M263.684 111.375C266.516 116.262 270.884 121.391 277.15 120.637C277.722 120.576 277.722 119.671 277.15 119.732C271.185 120.456 267.148 115.538 264.437 110.923C264.166 110.41 263.383 110.863 263.684 111.375Z" fill="#161616"/>
<path d="M270.553 121.723C274.529 122.085 278.204 120.365 281.548 118.434C285.013 116.443 288.206 114.03 291.098 111.255C296.882 105.674 302.907 96.6843 312.155 98.3434C312.728 98.4339 312.969 97.5591 312.396 97.4686C304.172 95.9904 298.087 102.597 292.996 107.997C290.013 111.164 286.79 114.06 283.115 116.413C279.379 118.827 275.132 121.21 270.553 120.818C269.98 120.757 269.98 121.662 270.553 121.723Z" fill="#161616"/>
<path d="M256.454 117.228C260.883 125.644 266.335 133.94 276.246 136.052C285.374 138.013 294.653 134.694 301.34 128.42C305.257 124.739 308.269 120.214 310.438 115.327C310.679 114.814 309.896 114.332 309.655 114.875C306.01 123.02 299.834 130.441 291.399 133.819C282.904 137.198 272.812 136.112 266.064 129.687C262.268 126.067 259.678 121.391 257.237 116.775C256.966 116.232 256.183 116.715 256.454 117.228Z" fill="#161616"/>
<path d="M258.894 102.476C257.358 103.14 255.189 105.161 256.032 107.062C256.966 109.113 260.28 107.333 261.455 106.458C261.907 106.126 261.455 105.342 261.003 105.674C260.31 106.187 257.087 108.117 256.786 106.338C256.545 105.01 258.352 103.713 259.376 103.261C259.888 103.019 259.406 102.235 258.894 102.476Z" fill="#161616"/>
<path d="M259.075 103.321C260.22 102.446 262.027 101.058 263.473 102.325C264.648 103.381 264.407 105.221 264.196 106.579C263.925 108.329 263.232 110.772 264.347 112.341C264.678 112.823 265.461 112.371 265.13 111.888C264.046 110.35 265.04 107.574 265.22 105.885C265.371 104.618 265.311 103.321 264.588 102.265C263.021 99.9724 260.37 101.209 258.623 102.537C258.171 102.899 258.623 103.683 259.075 103.321Z" fill="#161616"/>
<path d="M258.563 107.333C259.587 110.38 260.521 113.457 261.425 116.564C261.515 116.383 261.636 116.202 261.726 116.021C259.678 116.504 257.569 115.991 255.641 116.986C255.852 117.077 256.093 117.167 256.304 117.258C255.942 115.961 255.49 114.664 255.038 113.397C254.827 112.854 253.954 113.095 254.165 113.638C254.647 114.905 255.068 116.202 255.43 117.499C255.52 117.801 255.822 117.891 256.093 117.771C257.9 116.836 260.039 117.348 261.967 116.896C262.208 116.836 262.359 116.564 262.268 116.353C261.365 113.246 260.431 110.199 259.406 107.122C259.256 106.519 258.382 106.76 258.563 107.333Z" fill="#161616"/>
<path d="M255.761 117.56C257.087 119.732 261.214 118.917 262.148 116.745C262.389 116.202 261.605 115.75 261.364 116.293C260.732 117.801 257.508 118.706 256.514 117.107C256.243 116.594 255.46 117.047 255.761 117.56Z" fill="#161616"/>
<path d="M256.575 117.831C258.111 118.163 259.617 118.072 261.093 117.529C261.636 117.318 261.395 116.443 260.852 116.655C259.527 117.137 258.171 117.228 256.816 116.956C256.243 116.836 256.002 117.71 256.575 117.831Z" fill="#161616"/>
<path d="M256.304 117.68C257.388 116.021 259.437 115.569 261.124 116.564C261.636 116.866 262.088 116.081 261.575 115.78C259.406 114.543 256.876 115.146 255.49 117.228C255.189 117.71 255.972 118.193 256.304 117.68Z" fill="#161616"/>
<path d="M257.96 117.137C258.322 115.991 259.858 116.624 260.581 116.956C261.093 117.198 261.575 116.413 261.033 116.172C259.738 115.569 257.659 115.056 257.087 116.896C256.936 117.469 257.81 117.71 257.96 117.137Z" fill="#161616"/>
<path d="M254.195 115.719C253.411 115.207 252.899 114.332 252.929 113.366C252.96 112.944 253.08 112.552 253.261 112.19C253.351 112.039 254.195 110.953 254.406 111.104C254.857 111.466 255.49 110.832 255.038 110.47C253.893 109.565 252.508 111.406 252.206 112.401C251.694 114 252.387 115.599 253.743 116.504C254.225 116.805 254.677 116.021 254.195 115.719Z" fill="#161616"/>
<path d="M254.466 113.97C255.791 113.216 256.002 111.436 254.827 110.44C254.375 110.078 253.743 110.712 254.195 111.074C254.918 111.677 254.857 112.703 254.014 113.185C253.502 113.487 253.954 114.271 254.466 113.97Z" fill="#161616"/>
<path d="M253.17 115.991C253.833 116.655 254.888 116.805 255.671 116.293C256.153 115.991 255.701 115.207 255.219 115.508C254.767 115.81 254.195 115.75 253.803 115.357C253.411 114.935 252.779 115.569 253.17 115.991Z" fill="#161616"/>
<path d="M252.447 112.974C251.905 112.16 251.724 111.225 251.935 110.259C252.176 109.113 253.201 107.725 254.406 108.902C254.827 109.324 255.46 108.66 255.038 108.268C253.863 107.092 252.417 107.424 251.574 108.811C250.7 110.229 250.791 112.069 251.694 113.427C251.996 113.909 252.779 113.457 252.447 112.974Z" fill="#161616"/>
<path d="M251.393 110.893C251.333 110.47 251.182 110.139 250.971 109.746C250.58 109.022 250.489 108.479 250.7 107.665C251.062 106.277 252.237 105.252 253.653 106.096C254.165 106.398 254.617 105.614 254.104 105.312C252.809 104.558 251.152 104.859 250.339 106.157C249.917 106.82 249.646 107.695 249.646 108.479C249.616 109.475 250.369 110.169 250.52 111.134C250.61 111.707 251.484 111.466 251.393 110.893Z" fill="#161616"/>
<path d="M250.52 106.488C250.038 105.795 250.007 104.829 250.61 104.196C251.212 103.562 252.176 103.532 252.899 103.985C253.381 104.286 253.833 103.502 253.351 103.2C252.297 102.537 250.851 102.657 249.977 103.562C249.104 104.467 249.043 105.945 249.736 106.971C250.068 107.424 250.851 106.971 250.52 106.488Z" fill="#161616"/>
<path d="M253.321 105.976C253.984 106.307 254.225 107.243 253.713 107.816C253.321 108.238 253.954 108.902 254.345 108.449C255.219 107.484 254.978 105.795 253.773 105.191C253.261 104.95 252.779 105.704 253.321 105.976Z" fill="#161616"/>
<path d="M252.538 104.015C253.11 104.286 253.442 104.89 253.321 105.553C253.201 106.126 254.074 106.368 254.195 105.795C254.406 104.769 253.924 103.713 252.99 103.261C252.478 102.959 252.026 103.743 252.538 104.015Z" fill="#161616"/>
<path d="M254.345 109.294C254.556 109.626 254.616 110.048 254.436 110.44C254.345 110.651 254.375 110.923 254.586 111.074C254.767 111.194 255.098 111.134 255.219 110.923C255.52 110.259 255.49 109.505 255.129 108.872C254.827 108.329 254.044 108.781 254.345 109.294Z" fill="#161616"/>
<path d="M249.887 97.3479C250.248 99.3992 250.7 101.42 251.273 103.442C251.423 104.015 252.297 103.773 252.146 103.2C251.574 101.209 251.122 99.1579 250.761 97.1065C250.67 96.5334 249.797 96.7747 249.887 97.3479Z" fill="#161616"/>
<path d="M254.948 96.8652C255.671 99.2785 256.394 101.662 257.087 104.075C257.267 104.618 258.111 104.407 257.96 103.834C257.237 101.42 256.514 99.0372 255.821 96.6239C255.641 96.0507 254.767 96.292 254.948 96.8652Z" fill="#161616"/>
<path d="M249.977 96.4731C246.151 96.111 242.657 91.2241 242.115 87.6644C241.452 83.3506 245.458 79.7909 249.435 79.0367C257.96 77.4681 262.479 92.4307 255.189 96.3524C254.677 96.6239 255.129 97.4082 255.641 97.1367C261.967 93.7279 260.25 82.9282 254.948 79.3987C248.561 75.1452 238.982 81.9931 241.633 89.4141C242.868 92.8531 246.091 96.9859 249.977 97.3479C250.55 97.4384 250.55 96.5334 249.977 96.4731Z" fill="#161616"/>
<path d="M249.947 93.3056C247.025 92.6419 244.736 90.0778 244.766 87.0008C244.796 83.7428 247.477 80.8468 250.761 80.7261C254.707 80.6054 256.635 84.4366 256.575 87.9359C256.545 89.9571 256.243 91.8878 254.165 92.7023C252.568 93.3056 250.821 93.8486 249.134 93.1849C248.592 92.9738 248.351 93.8486 248.893 94.0598C250.821 94.8139 253.05 94.1804 254.888 93.3659C256.635 92.5816 257.147 91.1939 257.388 89.3538C257.87 85.3416 256.304 80.4244 251.694 79.8814C247.899 79.4289 244.525 82.3853 243.982 86.0958C243.44 89.8666 246.121 93.3358 249.766 94.1804C250.279 94.3011 250.52 93.4263 249.947 93.3056Z" fill="#161616"/>
<path d="M250.911 80.3942C249.676 84.2857 248.441 88.2074 247.236 92.0989C247.055 92.6419 247.929 92.8832 248.11 92.3402C249.345 88.4487 250.58 84.527 251.785 80.6355C251.966 80.0925 251.092 79.8512 250.911 80.3942Z" fill="#161616"/>
<path d="M252.689 84.7383C251.755 87.5438 250.73 90.3191 249.676 93.0643C249.465 93.6073 250.339 93.8486 250.55 93.3056C251.604 90.5604 252.628 87.7549 253.562 84.9796C253.743 84.4064 252.869 84.1651 252.689 84.7383Z" fill="#161616"/>
<path opacity="0.12" d="M312.336 98.2529C311.01 101.601 308.691 106.579 304.714 111.888C300.437 117.65 295.586 124.166 286.85 127.002C284.681 127.696 278.204 129.717 270.432 127.303C263.654 125.192 259.587 120.848 257.99 118.947C258.744 120.968 260.159 124.076 262.81 127.153C264.196 128.751 269.287 134.513 278.054 135.961C279.138 136.142 284.802 137.017 291.399 134.483C298.659 131.708 302.575 126.549 305.317 122.899C307.245 120.335 310.679 115.629 312.065 108.51C312.878 104.286 312.667 100.666 312.336 98.2529Z" fill="#6D6C6C"/>
<path opacity="0.21" d="M264.287 127.605C266.546 129.053 270.643 131.255 276.156 131.859C282.994 132.613 288.176 130.471 291.972 128.932C299.503 125.825 304.775 121.149 308.088 117.499C306.944 120.214 304.534 124.86 299.744 128.932C297.484 130.863 289.682 137.5 279.078 135.961C271.005 134.785 265.943 129.506 264.287 127.605Z" fill="#6D6C6C"/>
<path d="M307.004 95.2965C302.003 99.007 300.166 103.954 298.087 109.445C294.231 119.641 294.864 127.756 295.285 140.607C295.556 148.782 295.797 160.637 295.556 175.419C300.738 176.716 307.245 177.832 314.776 178.104C320.62 178.285 325.832 177.923 330.23 177.32C332.701 165.947 335.291 156.776 337.219 150.411C343.666 129.113 350.203 113.517 344.238 101.028C343.937 100.425 343.636 99.912 343.305 99.4595C336.436 89.7458 317.186 87.7246 307.004 95.2965Z" fill="#EC615B"/>
<path opacity="0.15" d="M328.754 91.3748C328.363 93.5769 327.7 97.0461 326.706 101.209C321.072 124.739 315.409 126.036 314.415 139.068C313.39 152.191 318.692 156.927 314.264 166.791C311.944 171.95 308.39 175.389 305.769 177.501C309.956 177.802 314.445 177.983 319.235 177.953C323 177.923 326.555 177.772 329.929 177.501C332.068 168.179 334.116 160.728 335.653 155.509C336.406 152.945 337.31 149.898 339.027 144.227C341.828 134.935 342.551 132.643 343.726 128.238C345.443 121.692 346.317 118.344 346.498 115.025C346.799 110.048 347.13 104.377 343.576 99.6103C341.316 96.5634 338.213 94.9344 336.557 94.0294C333.484 92.3703 330.652 91.6764 328.754 91.3748Z" fill="#6D6C6C"/>
<path opacity="0.17" d="M341.346 133.186C340.714 132.944 337.49 141.512 331.827 153.126C326.555 163.926 321.554 172.433 318.06 178.074C322.006 177.772 325.983 177.501 329.929 177.199C330.953 173.187 332.52 167.184 334.478 159.883C339.298 141.904 341.979 133.397 341.346 133.186Z" fill="#6D6C6C"/>
<path d="M339.147 98.1019C338.153 98.4639 336.737 99.0673 335.111 100.002C329.387 103.291 326.344 107.816 324.476 110.531C324.476 110.531 318.18 119.701 308.48 132.009C305.468 135.84 302.455 139.4 298.75 143.261C291.068 151.286 287.664 152.945 286.188 153.578C282.512 155.207 279.289 156.625 275.041 156.293C272.24 156.082 270.492 155.207 268.564 156.384C266.516 157.621 265.16 160.577 265.431 162.206C265.462 162.387 265.582 162.96 265.642 163.775C265.672 163.986 265.703 164.71 265.642 165.766C265.552 167.395 265.371 167.244 265.431 167.847C265.612 169.144 266.516 169.808 266.245 170.23C266.064 170.532 265.582 170.261 265.221 170.653C264.799 171.075 264.98 171.89 265.01 172.01C265.221 172.945 266.004 173.488 266.335 173.669C267.631 174.514 268.504 174.062 271.788 174.182C274.107 174.273 274.8 174.544 275.945 173.971C276.246 173.82 276.758 173.549 277.662 172.523C280.253 169.627 279.952 167.696 282.211 165.856C283.024 165.193 283.838 164.831 284.35 164.619C286.007 163.895 287.091 163.926 288.688 163.564C289.772 163.352 290.857 162.9 293.026 161.995C296.551 160.547 299.262 159.129 300.316 158.556C306.673 155.117 312.426 150.773 313.661 149.808C320.259 144.77 324.476 140.516 329.959 134.996C333.906 131.044 338.063 126.579 342.1 120.516C343.335 118.645 345.534 115.176 346.257 110.289C346.588 108.087 346.92 105.613 345.654 103.11C343.907 99.4594 340.081 98.3433 339.147 98.1019Z" fill="white"/>
<path d="M338.243 97.8305C332.55 99.6104 328.212 104.769 324.657 109.294C320.62 114.452 316.975 119.882 313.059 125.101C308.872 130.682 304.534 136.142 299.804 141.271C295.315 146.097 290.405 150.864 284.35 153.639C280.825 155.238 276.939 156.143 273.083 155.811C270.884 155.63 268.082 155.087 266.727 157.319C266.425 157.802 267.209 158.285 267.51 157.772C268.323 156.414 270.01 156.444 271.396 156.565C272.842 156.656 274.258 156.837 275.704 156.776C278.566 156.625 281.398 155.901 284.049 154.785C289.682 152.402 294.381 148.299 298.599 143.925C307.697 134.513 315.168 123.774 322.88 113.246C325.049 110.289 327.278 107.393 329.839 104.769C332.309 102.235 335.11 99.7914 338.575 98.7054C339.027 98.5244 338.786 97.6495 338.243 97.8305Z" fill="#161616"/>
<path d="M338.153 98.4036C343.184 97.7098 345.986 103.049 345.956 107.363C345.925 111.647 344.118 115.87 342.009 119.52C338.093 126.368 332.399 132.22 326.886 137.801C315.981 148.752 303.268 158.677 288.236 163.111C286.398 163.654 284.169 163.835 282.542 164.921C281.006 165.947 280.223 167.938 279.168 169.416C278.385 170.502 277.542 171.558 276.638 172.553C275.463 173.82 274.379 173.941 272.782 173.82C271.577 173.73 270.372 173.639 269.137 173.549C267.902 173.458 266.154 173.549 265.552 172.221C265.311 171.678 264.528 172.161 264.769 172.674C265.401 174.092 266.908 174.273 268.293 174.393C269.408 174.484 270.523 174.574 271.637 174.635C272.722 174.725 273.957 174.967 275.041 174.755C276.849 174.393 278.204 172.131 279.259 170.804C280.524 169.175 281.578 166.49 283.416 165.464C284.44 164.891 285.736 164.74 286.85 164.438C287.965 164.137 289.049 163.835 290.134 163.473C292.092 162.84 294.05 162.085 295.948 161.271C299.925 159.551 303.72 157.5 307.365 155.147C314.656 150.441 321.283 144.74 327.399 138.616C333.604 132.401 340.141 125.735 344.058 117.74C346.106 113.547 347.793 108.479 346.468 103.834C345.413 100.093 342.009 97.016 337.972 97.559C337.34 97.6193 337.581 98.4941 338.153 98.4036Z" fill="#161616"/>
<path d="M265.733 161.995C266.004 160.155 270.673 160.336 271.908 160.215C273.595 160.064 275.101 159.702 276.427 158.586C276.879 158.194 276.216 157.56 275.794 157.953C273.866 159.582 271.215 159.25 268.866 159.551C267.63 159.732 265.1 160.185 264.889 161.723C264.769 162.327 265.642 162.568 265.733 161.995Z" fill="#161616"/>
<path d="M264.829 162.116C266.305 165.042 269.498 166.641 272.692 165.947C273.264 165.826 273.023 164.951 272.451 165.072C269.619 165.706 266.877 164.227 265.582 161.663C265.341 161.15 264.558 161.603 264.829 162.116Z" fill="#161616"/>
<path d="M265.251 162.96C264.648 164.529 265.341 166.279 266.666 167.244C268.173 168.36 270.131 168.24 271.878 167.938C272.45 167.847 272.209 166.973 271.637 167.063C270.281 167.304 268.745 167.425 267.48 166.701C266.245 166.007 265.612 164.529 266.094 163.202C266.335 162.659 265.461 162.417 265.251 162.96Z" fill="#161616"/>
<path d="M265.311 165.464C264.467 166.852 264.829 168.692 266.004 169.808C267.389 171.135 269.498 170.985 271.095 170.2C271.607 169.959 271.155 169.175 270.643 169.416C269.408 169.989 267.811 170.17 266.697 169.205C265.763 168.39 265.461 167.003 266.094 165.917C266.395 165.404 265.612 164.951 265.311 165.464Z" fill="#161616"/>
<path d="M265.702 172.342C265.1 171.377 265.913 170.17 267.058 170.592C267.6 170.804 267.841 169.929 267.299 169.718C265.431 169.024 263.955 171.196 264.949 172.795C265.22 173.277 266.004 172.825 265.702 172.342Z" fill="#161616"/>
<path d="M266.697 157.923C268.384 157.319 270.161 158.134 270.884 159.763C271.125 160.306 271.908 159.823 271.667 159.31C270.794 157.349 268.504 156.324 266.456 157.078C265.913 157.259 266.154 158.134 266.697 157.923Z" fill="#161616"/>
<path d="M266.365 157.379C265.16 158.254 265.19 160.336 266.546 161.06C267.058 161.331 267.51 160.547 266.998 160.275C266.275 159.883 266.094 158.646 266.817 158.164C267.299 157.802 266.847 157.017 266.365 157.379Z" fill="#161616"/>
<path d="M266.636 159.883C266.697 159.22 266.908 158.677 267.299 158.134C267.028 158.134 266.787 158.134 266.516 158.134C266.817 158.647 266.817 159.129 266.516 159.612C266.787 159.642 267.058 159.672 267.329 159.733C267.269 159.552 267.239 158.164 267.6 158.405C267.872 158.586 267.269 159.521 267.149 159.733C267.42 159.733 267.661 159.733 267.932 159.733C267.811 159.521 267.721 159.31 267.721 159.069C267.841 158.405 268.022 158.345 268.233 158.918C268.384 159.039 268.534 159.129 268.655 159.25C268.564 158.918 268.655 158.737 268.926 158.797C269.197 158.677 269.257 158.767 269.107 159.039C269.318 159.099 269.528 159.159 269.739 159.19C269.83 159.28 269.89 159.371 269.98 159.461C269.89 160.034 270.764 160.276 270.854 159.702C270.974 158.948 270.282 157.923 269.498 158.616C268.836 159.22 269.498 160.336 270.342 159.883C271.155 159.431 270.824 158.194 269.98 157.983C269.016 157.772 268.534 158.918 268.956 159.642C269.077 159.853 269.378 159.914 269.589 159.793C270.342 159.34 270.282 158.073 269.438 157.742C268.354 157.289 267.661 158.586 267.811 159.491C267.841 159.702 268.052 159.823 268.233 159.823C269.498 159.883 269.8 158.013 268.625 157.621C266.998 157.078 266.546 159.129 267.149 160.215C267.329 160.547 267.751 160.487 267.932 160.215C268.354 159.612 269.227 157.44 267.841 157.319C266.546 157.229 266.185 159.099 266.456 160.004C266.576 160.366 267.088 160.457 267.269 160.125C267.721 159.371 267.721 158.496 267.269 157.711C267.088 157.41 266.667 157.44 266.486 157.711C266.004 158.375 265.793 159.099 265.703 159.914C265.672 160.487 266.576 160.457 266.636 159.883Z" fill="#161616"/>
<path d="M265.883 160.879C267.42 161.15 271.155 161.452 271.547 159.22C271.637 158.647 270.763 158.405 270.673 158.978C270.402 160.517 267.179 160.185 266.124 160.004C265.552 159.914 265.311 160.788 265.883 160.879Z" fill="#161616"/>
<path d="M269.528 160.426C270.673 165.042 270.553 169.778 269.137 174.303C268.956 174.846 269.83 175.087 270.01 174.544C271.456 169.869 271.607 164.951 270.402 160.185C270.251 159.612 269.378 159.853 269.528 160.426Z" fill="#161616"/>
<path d="M269.348 160.487C269.558 162.779 269.679 165.042 269.739 167.334C269.799 169.537 269.95 171.799 269.227 173.911C269.046 174.454 269.92 174.695 270.101 174.152C270.794 172.131 270.703 170.019 270.673 167.908C270.613 165.434 270.492 162.96 270.281 160.487C270.191 159.913 269.287 159.913 269.348 160.487Z" fill="#161616"/>
<path d="M270.522 160.457C271.185 160.939 271.065 163.322 271.095 164.077C271.125 165.102 271.125 166.098 271.065 167.123C270.944 169.295 270.613 171.467 270.071 173.579C269.92 174.152 270.794 174.394 270.944 173.82C271.607 171.166 271.968 168.481 271.999 165.736C271.999 164.348 271.938 162.96 271.788 161.573C271.697 160.758 271.637 160.155 270.974 159.672C270.492 159.34 270.04 160.125 270.522 160.457Z" fill="#161616"/>
<path d="M270.312 160.215C270.703 162.659 270.824 165.102 270.643 167.546C270.613 168.119 271.517 168.119 271.547 167.546C271.727 165.012 271.607 162.478 271.185 159.974C271.095 159.401 270.221 159.642 270.312 160.215Z" fill="#161616"/>
<path d="M268.112 160.396C269.107 163.745 269.498 167.214 269.227 170.713C269.167 171.618 268.233 175.872 270.673 174.725C271.577 174.303 271.667 173.247 271.758 172.403C271.938 170.683 271.968 168.964 271.968 167.244C271.968 164.529 272.33 161.241 270.763 158.888C270.432 158.405 269.649 158.858 269.98 159.34C271.276 161.301 271.035 163.835 271.065 166.098C271.065 167.335 271.065 168.571 271.035 169.808C271.004 170.381 270.974 170.955 270.944 171.528C270.914 171.829 270.733 174.303 269.86 173.277C269.86 173.277 270.04 171.95 270.071 171.799C270.131 171.256 270.191 170.683 270.221 170.14C270.281 169.024 270.281 167.908 270.221 166.822C270.101 164.559 269.679 162.327 269.046 160.155C268.835 159.582 267.962 159.823 268.112 160.396Z" fill="#161616"/>
<path d="M269.227 160.275C269.408 161.723 269.559 163.171 269.739 164.589C269.8 165.162 270.703 165.162 270.643 164.589C270.462 163.141 270.312 161.693 270.131 160.275C270.041 159.702 269.137 159.702 269.227 160.275Z" fill="#161616"/>
<path d="M268.323 159.401C268.956 161.03 269.468 162.719 269.799 164.439C269.92 165.012 270.794 164.77 270.673 164.197C270.342 162.478 269.86 160.788 269.197 159.159C268.986 158.616 268.112 158.858 268.323 159.401Z" fill="#161616"/>
<path opacity="0.15" d="M344.57 101.33C343.425 101.33 343.124 107.423 341.497 112.612C340.081 117.107 337.671 120.787 327.429 130.803C313.21 144.679 305.859 151.708 293.749 157.802C288.628 160.366 284.139 162.025 281.006 163.081C280.012 163.956 276.728 166.61 271.938 166.61C269.589 166.61 267.691 165.977 266.516 165.434C266.305 165.555 265.642 165.947 265.341 166.761C265.01 167.636 265.251 168.662 265.913 169.416C265.672 169.627 265.01 170.351 265.04 171.317C265.07 172.433 265.943 173.127 266.215 173.368C267.239 174.213 268.986 174.243 272.36 174.243C273.234 174.243 274.499 174.243 276.035 174.243C276.608 173.639 277.451 172.704 278.385 171.467C280.614 168.451 280.855 166.942 282.482 165.585C284.35 164.046 286.519 163.986 287.453 163.835C295.496 162.447 305.467 155.811 311.041 152.1C319.927 146.188 324.988 140.607 335.08 129.505C335.08 129.505 340.443 123.593 344.6 114.543C345.232 113.185 346.588 110.018 346.196 106.036C345.986 104.135 345.353 101.36 344.57 101.33Z" fill="#6D6C6C"/>
<path d="M331.887 70.8916C332.128 78.192 331.857 82.3248 333.092 89.2933C333.665 92.5513 334.357 95.1758 334.87 96.9255C331.767 97.921 326.555 99.1276 320.169 98.4338C315.981 97.9813 312.577 96.8652 310.137 95.8395C311.252 93.7278 312.607 90.6206 313.36 86.699C314.023 83.2901 314.023 80.3338 313.872 78.1015C310.739 76.8345 307.606 75.5373 304.473 74.2703C304.202 72.6715 303.961 71.0726 303.69 69.504C302.817 69.2325 301.913 68.961 301.039 68.6895C302.214 66.9096 304.052 64.1041 306.221 60.6048C310.288 53.9983 310.529 52.9726 312.155 51.6755C316.554 48.1158 324.627 47.2108 328.814 50.861C331.285 53.033 331.526 59.006 331.887 70.8916Z" fill="white" stroke="#161616" stroke-width="2" stroke-miterlimit="10"/>
<path d="M300.979 69.2023C302.636 69.685 304.323 69.9866 306.04 70.1676C306.612 70.228 306.612 69.323 306.04 69.2626C304.413 69.0816 302.786 68.78 301.22 68.3275C300.648 68.1766 300.407 69.0515 300.979 69.2023Z" fill="#161616"/>
<path d="M303.69 56.1402C304.805 55.8687 306.01 56.4721 306.432 57.5581C306.642 58.1011 307.516 57.8597 307.305 57.3167C306.703 55.7481 305.106 54.8732 303.479 55.2654C302.877 55.4162 303.118 56.2911 303.69 56.1402Z" fill="#161616"/>
<path d="M310.468 59.006C311.824 58.9456 313.059 59.73 313.511 60.997C313.692 61.54 314.565 61.2986 314.385 60.7556C313.812 59.0965 312.246 57.9803 310.498 58.0708C309.896 58.1311 309.896 59.0361 310.468 59.006Z" fill="#161616"/>
<path d="M310.769 62.8372C310.559 62.3847 310.649 61.9925 310.709 61.5099C310.8 61.3892 310.8 61.3289 310.709 61.3892C310.619 61.4194 310.619 61.4797 310.709 61.5702C310.739 61.7814 310.8 61.9925 310.83 62.2037C310.83 62.3545 310.769 62.6562 310.8 62.7769C310.86 62.8372 310.92 62.8975 310.98 62.9579C310.98 62.8674 311.01 62.7769 311.01 62.6864C311.071 62.2339 311.131 61.7814 311.191 61.2987C311.251 60.8462 310.528 60.6954 310.348 61.0574C310.197 61.359 310.137 61.6305 310.137 61.9624C310.167 62.5355 311.071 62.5355 311.041 61.9624C311.041 61.7814 311.041 61.6909 311.131 61.5099C310.86 61.4194 310.559 61.3591 310.287 61.2686C310.227 61.8116 310.077 62.3847 310.077 62.9277C310.077 63.3199 310.288 63.6517 310.679 63.712C311.673 63.8629 311.764 62.5959 311.703 61.902C311.613 61.2685 311.131 59.911 310.257 60.635C309.504 61.2384 309.685 62.5355 310.016 63.2897C310.227 63.8026 311.01 63.3501 310.769 62.8372Z" fill="#161616"/>
<path d="M310.468 53.1537C311.071 51.7358 312.276 49.5035 314.535 47.422C315.318 46.698 317.005 45.1595 319.265 44.4053C323.543 42.9875 329.116 44.6467 332.429 48.6589C335.683 52.5805 336.316 58.2518 334.116 63.1087C326.254 59.7903 318.361 56.472 310.468 53.1537Z" fill="#5222D0"/>
<path d="M297.063 49.5035C309.263 54.4207 321.464 59.3077 333.634 64.2248C335.261 64.8885 335.954 62.264 334.357 61.6003C322.157 56.6832 309.956 51.7962 297.786 46.879C296.189 46.2455 295.466 48.87 297.063 49.5035Z" fill="#161616"/>
<path d="M326.043 60.6351C323.603 60.8764 321.916 62.0529 319.927 63.4707C315.74 66.4874 316.312 68.1466 313.451 69.9566C308.902 72.8526 305.889 69.6549 301.762 72.5509C298.238 75.0246 297.484 79.3686 297.334 80.3942C297.183 81.3596 296.671 85.3114 299.111 88.7504C301.22 91.7369 304.744 93.2151 305.106 92.7626C305.226 92.6117 305.046 92.0687 303.389 90.1984C303.871 90.7716 304.654 91.5257 305.799 92.0386C307.124 92.6419 308.48 92.7626 308.54 92.5514C308.6 92.4006 307.847 92.2196 307.426 91.4654C307.185 91.0129 307.154 90.5604 307.154 90.1984C308.058 91.1939 309.293 92.1894 310.709 92.1592C314.595 92.0084 317.337 84.1952 318.241 81.6009C321.163 73.2146 319.927 67.8751 323.723 65.6427C324.055 65.4617 325.561 64.5567 326.826 65.1601C328.453 65.9142 329.025 68.8404 328.031 70.4392C327.158 71.7967 325.38 71.7666 325.41 72.0682C325.47 72.4604 328.483 72.6716 331.345 71.4046C332.399 70.9521 333.243 70.5599 333.906 69.6549C335.02 68.0561 334.779 65.7936 334.116 64.3456C332.67 61.2384 328.694 60.3636 326.043 60.6351Z" fill="#161616" stroke="#161616" stroke-width="2" stroke-miterlimit="10"/>
<path opacity="0.22" d="M326.465 72.5509C325.922 72.4604 325.139 72.2794 325.139 72.0984C325.139 72.0079 325.35 71.9174 325.35 71.9174C325.35 71.8872 324.507 72.5509 323.663 72.4604C323.271 72.4 322.97 72.1889 322.789 72.0079C323.452 75.296 324.025 79.278 324.055 83.8634C324.115 89.6855 323.362 94.663 322.518 98.4942C324.326 98.7054 326.917 98.7657 329.899 98.1322C331.767 97.74 333.363 97.1367 334.598 96.5635C332.791 91.0129 332.249 86.7895 332.098 83.984C332.008 82.6567 331.917 79.5495 331.857 78.0412C331.767 75.2659 331.676 72.9732 331.646 71.4347C331.375 71.5554 330.953 71.7665 330.411 71.9777C329.688 72.2794 328.182 72.8224 326.465 72.5509Z" fill="#6D6C6C"/>
<path d="M324.235 44.1338C327.338 45.6421 329.116 48.9001 328.694 52.0978C328.182 55.8988 324.808 57.6786 324.476 57.8596C327.85 59.2171 331.224 60.5445 334.598 61.902C334.869 61.1176 335.171 60.0316 335.321 58.6741C335.743 54.3905 333.996 51.1928 333.604 50.5593C333.002 49.5336 330.863 46.0645 326.645 44.6768C325.711 44.3148 324.868 44.1941 324.235 44.1338Z" fill="#321693"/>
</svg>
