<svg width="482" height="362" viewBox="0 0 482 362" fill="none" xmlns="http://www.w3.org/2000/svg">
<path d="M330.984 211.68C330.953 216.567 330.893 221.484 330.863 226.371C330.863 227.577 330.833 228.784 330.833 229.96C330.833 230.775 330.652 231.801 330.984 232.585C331.496 233.912 333.213 233.55 333.845 234.667C333.906 234.455 333.966 234.244 333.996 234.033C331.797 235.119 331.225 237.563 331.044 239.825C330.893 241.997 330.803 245.496 333.635 245.919C333.604 245.647 333.574 245.376 333.514 245.104C329.236 247.065 330.953 254.727 332.761 257.804C334.086 260.067 336.045 261.907 338.063 263.536C339.208 264.471 340.352 265.346 341.527 266.251C342.22 266.794 342.913 267.307 343.576 267.85C343.937 268.121 345.474 268.966 345.534 269.479C345.654 269.328 345.745 269.177 345.865 269.057C345.895 269.057 345.895 269.057 345.926 269.057C345.986 269.268 346.046 269.479 346.076 269.69C346.106 269.66 346.106 269.63 346.136 269.6C346.377 269.087 345.624 268.634 345.353 269.147C345.323 269.177 345.323 269.207 345.293 269.237C345.172 269.479 345.233 269.69 345.444 269.871C345.654 270.052 345.805 270.052 346.076 269.962C346.257 269.901 346.438 269.72 346.408 269.539C346.287 268.604 345.353 268.182 344.63 267.639C343.576 266.794 342.491 265.98 341.437 265.135C339.449 263.596 337.43 262.058 335.713 260.248C333.785 258.227 332.46 255.874 332.068 253.068C331.737 250.776 331.435 247.095 333.966 245.919C334.297 245.768 334.237 245.134 333.845 245.104C331.435 244.742 331.767 241.303 331.948 239.463C332.128 237.653 332.64 235.752 334.418 234.878C334.629 234.757 334.689 234.455 334.568 234.244C333.936 233.158 332.399 233.369 331.827 232.404C331.375 231.68 331.676 229.991 331.707 229.116C331.707 227.909 331.737 226.702 331.737 225.526C331.767 220.941 331.797 216.325 331.857 211.74C331.887 211.106 330.984 211.076 330.984 211.68Z" fill="#E8E8E8"/>
<path d="M331.465 211.921C335.683 212.132 338.635 215.36 341.166 218.377C342.371 219.825 343.636 221.182 344.871 222.54C346.136 223.897 347.793 226.642 345.504 227.97C345.112 228.211 345.293 228.814 345.745 228.814C349.239 228.905 350.775 233.158 351.86 235.843C353.155 239.101 354.18 242.45 354.933 245.858C356.469 252.857 356.77 260.067 355.897 267.156C355.837 267.729 356.74 267.729 356.801 267.156C357.734 259.252 357.252 251.228 355.294 243.536C354.391 239.916 353.185 236.265 351.559 232.887C350.414 230.473 348.637 227.97 345.745 227.909C345.835 228.181 345.895 228.482 345.986 228.754C350.384 226.22 344.931 221.393 343.154 219.312C339.991 215.631 336.798 211.257 331.496 210.986C330.893 210.986 330.893 211.891 331.465 211.921Z" fill="#E8E8E8"/>
<path d="M346.588 222.781C348.697 215.3 351.649 208.09 355.445 201.302C355.234 201.363 355.023 201.423 354.812 201.453C355.626 201.936 356.469 202.418 357.283 202.901C357.704 203.142 358.096 202.66 357.915 202.268C355.746 197.924 362.253 195.148 364.452 192.554C364.272 192.584 364.091 192.614 363.91 192.614C364.332 192.856 364.784 193.097 365.206 193.338C365.416 193.459 365.688 193.399 365.838 193.187C368.248 189.085 372.496 186.792 376.593 184.68C376.382 184.499 376.141 184.349 375.93 184.168C374.635 188.421 376.683 193.067 377.075 197.32C377.286 199.613 377.316 201.936 377.135 204.259C377.045 205.405 377.135 207.124 376.683 208.15C376.683 208.904 376.261 209.327 375.388 209.477C375.117 209.508 374.876 209.538 374.604 209.568C374.002 209.628 373.369 209.689 372.767 209.749C372.526 209.779 372.285 209.93 372.315 210.201C372.345 210.805 372.526 210.986 372.978 211.378C373.55 211.861 374.002 211.921 374.273 212.766C374.424 213.218 374.424 213.731 374.424 214.183C374.394 216.627 374.032 219.131 373.61 221.544C373.189 223.897 372.586 226.22 371.863 228.482C371.231 230.383 370.387 233.219 368.037 233.52C367.736 233.55 367.435 233.882 367.646 234.214C369.393 236.899 366.802 240.157 365.537 242.48C364.151 244.953 362.886 247.487 361.711 250.052C359.361 255.15 357.433 260.429 355.867 265.829C355.716 266.402 356.59 266.643 356.74 266.07C358.518 259.856 360.837 253.822 363.669 248.03C364.995 245.285 366.591 242.691 367.977 239.976C368.971 238.015 369.754 235.722 368.459 233.731C368.338 233.973 368.188 234.184 368.067 234.425C369.845 234.214 370.989 232.947 371.773 231.409C372.948 229.056 373.58 226.341 374.153 223.776C374.785 220.941 375.207 218.045 375.358 215.149C375.418 214.183 375.508 213.097 375.086 212.192C374.845 211.589 373.309 210.654 373.279 210.232C373.128 210.382 372.978 210.533 372.827 210.684C374.514 210.503 376.924 210.925 377.496 208.995C378.25 206.581 378.22 203.595 378.189 201.121C378.189 198.467 377.918 195.842 377.436 193.248C376.894 190.322 375.93 187.395 376.834 184.439C376.954 184.047 376.502 183.745 376.171 183.926C371.923 186.128 367.555 188.512 365.085 192.765C365.296 192.705 365.507 192.644 365.718 192.614C365.296 192.373 364.844 192.132 364.422 191.89C364.272 191.8 364.001 191.8 363.88 191.951C361.35 194.937 354.692 197.773 357.192 202.75C357.403 202.539 357.614 202.328 357.825 202.117C357.012 201.634 356.168 201.151 355.355 200.669C355.144 200.548 354.842 200.608 354.722 200.82C350.926 207.698 347.914 214.968 345.775 222.509C345.534 223.113 346.407 223.354 346.588 222.781Z" fill="#E8E8E8"/>
<path d="M325.29 191.95C320.229 192.312 317.548 186.37 318.391 182.086C319.205 177.893 323.302 174.936 327.489 175.057C333.002 175.178 335.834 180.578 334.839 185.615C333.966 190.11 329.447 193.429 324.928 191.649C324.386 191.438 324.145 192.312 324.687 192.524C328.302 193.941 332.52 192.282 334.508 188.994C336.617 185.495 336.376 180.487 333.936 177.229C331.465 173.911 326.736 173.458 323.151 175.057C319.566 176.626 317.216 180.155 317.307 184.077C317.397 188.361 320.56 193.187 325.26 192.855C325.862 192.825 325.892 191.92 325.29 191.95Z" fill="#E8E8E8"/>
<path d="M371.532 125.674C369.784 128.932 367.766 132.009 365.477 134.905C365.115 135.358 365.748 135.991 366.109 135.539C368.459 132.582 370.538 129.445 372.315 126.127C372.586 125.614 371.803 125.161 371.532 125.674Z" fill="#E8E8E8"/>
<path d="M371.502 126.398C372.586 129.264 373.731 132.13 374.906 134.966C375.117 135.509 375.99 135.267 375.779 134.724C374.604 131.889 373.46 129.023 372.375 126.157C372.164 125.614 371.291 125.855 371.502 126.398Z" fill="#E8E8E8"/>
<path d="M371.291 126.821C371.08 138.043 369.634 149.204 366.953 160.095C366.802 160.668 367.676 160.909 367.826 160.336C370.538 149.355 371.984 138.133 372.194 126.821C372.225 126.217 371.321 126.217 371.291 126.821Z" fill="#E8E8E8"/>
<path d="M376.502 145.253C377.286 151.708 377.105 158.224 375.93 164.62C375.84 165.193 376.683 165.434 376.804 164.861C377.979 158.375 378.189 151.799 377.406 145.253C377.316 144.679 376.412 144.679 376.502 145.253Z" fill="#E8E8E8"/>
<path d="M373.038 157.802C374.092 160.215 375.93 162.417 376.05 165.132C376.081 165.585 376.653 165.766 376.894 165.374C377.948 163.534 379.033 161.693 380.087 159.853C380.388 159.34 379.605 158.888 379.304 159.401C378.25 161.241 377.165 163.081 376.111 164.921C376.382 165.012 376.683 165.072 376.954 165.163C376.834 162.236 374.936 159.974 373.821 157.38C373.58 156.806 372.797 157.259 373.038 157.802Z" fill="#E8E8E8"/>
<path d="M167.495 310.536C185.661 308.846 203.856 306.644 222.082 305.89C240.458 305.136 258.925 305.618 277.301 306.101C287.845 306.373 298.388 306.885 308.872 307.881C309.444 307.941 309.444 307.036 308.872 306.976C290.435 305.226 271.939 305.015 253.442 304.804C244.163 304.683 234.885 304.593 225.636 304.894C216.629 305.166 207.652 305.92 198.675 306.735C188.281 307.7 177.888 308.665 167.495 309.631C166.923 309.661 166.923 310.566 167.495 310.536Z" fill="#E8E8E8"/>
<path d="M262.027 297.202C269.589 298.62 277.06 298.56 284.681 297.866C292.514 297.142 300.316 296.689 308.179 296.327C323.964 295.633 339.75 295 355.505 294.336C364.513 293.944 373.52 293.582 382.527 293.19C383.1 293.16 383.1 292.255 382.527 292.285C366.712 292.949 350.926 293.612 335.111 294.276C319.566 294.94 303.931 295.271 288.417 296.599C284.199 296.961 279.982 297.443 275.764 297.504C271.246 297.564 266.727 297.142 262.268 296.297C261.696 296.237 261.455 297.112 262.027 297.202Z" fill="#E8E8E8"/>
<path d="M57.0569 290.807C71.0951 291.199 85.1334 291.139 99.1716 290.626C99.744 290.596 99.744 289.691 99.1716 289.721C85.1334 290.234 71.0951 290.294 57.0569 289.902C56.4544 289.872 56.4544 290.777 57.0569 290.807Z" fill="#E8E8E8"/>
<path d="M72.3904 302.934C77.5117 301.848 82.9342 302.542 88.1157 302.783C93.3273 303.054 98.5088 303.296 103.72 303.567C114.324 304.11 124.898 304.653 135.502 305.166C136.075 305.196 136.075 304.291 135.502 304.261C124.718 303.718 113.903 303.175 103.118 302.632C97.7256 302.361 92.3332 302.089 86.9408 301.818C82.0304 301.576 77.0297 301.003 72.1796 302.059C71.6072 302.18 71.8482 303.054 72.3904 302.934Z" fill="#E8E8E8"/>
<path d="M153.608 279.947C172.225 281.214 190.541 276.387 209.128 276.447C209.7 276.447 209.7 275.542 209.128 275.542C190.541 275.482 172.225 280.279 153.608 279.042C153.035 278.981 153.035 279.917 153.608 279.947Z" fill="#E8E8E8"/>
<path d="M139.66 186.189C139.81 185.676 139.961 185.163 140.202 184.68C140.353 184.469 140.473 184.288 140.624 184.077C141.256 184.017 141.919 183.926 142.552 183.866C142.732 183.987 142.883 184.349 143.004 184.53C143.455 185.163 143.937 185.706 144.63 186.128C145.956 186.913 147.552 187.094 148.968 186.551C152.674 185.193 154.059 180.276 158.578 180.759C159.783 180.879 160.928 181.362 161.802 182.207C162.464 182.84 162.976 183.625 163.669 184.228C164.904 185.254 166.441 185.404 167.917 184.861C169.724 184.228 171.11 182.87 172.466 181.573C174.303 179.854 176.985 177.772 179.425 179.612C181.021 180.789 181.955 182.599 183.943 183.232C185.811 183.836 187.799 183.474 189.366 182.297C189.818 181.965 189.366 181.151 188.914 181.513C186.745 183.142 184.034 182.87 182.136 180.97C180.871 179.733 179.786 178.195 177.918 177.983C173.52 177.44 171.231 182.81 167.495 184.047C164.663 184.982 163.73 182.448 161.862 181.06C160.476 180.035 158.729 179.612 157.012 179.884C155.204 180.155 153.818 181.241 152.553 182.478C151.077 183.956 149.511 185.978 147.221 185.978C145.685 185.978 144.51 185.133 143.666 183.926C143.184 183.263 142.793 182.72 141.919 182.629C140.021 182.448 139.208 184.439 138.756 185.917C138.605 186.49 139.479 186.732 139.66 186.189Z" fill="#E8E8E8"/>
<path d="M186.112 170.593C187.197 167.425 190.993 170.11 192.439 171.286C193.704 172.312 195.18 173.368 196.897 173.308C199.729 173.187 201.235 170.291 203.555 169.084C206.778 167.425 208.736 171.739 211.869 171.317C213.255 171.136 213.978 170.019 214.852 169.054C215.786 168.028 216.75 168.028 218.075 168.33C219.31 168.632 220.575 168.933 221.811 169.235C222.383 169.386 222.624 168.511 222.052 168.36C220.816 168.059 219.551 167.757 218.316 167.455C217.473 167.244 216.629 167.003 215.786 167.244C214.129 167.757 213.647 169.959 211.99 170.351C210.212 170.774 208.465 168.783 206.929 168.149C205.633 167.606 204.368 167.606 203.133 168.27C201.808 168.964 200.813 170.14 199.639 171.075C198.855 171.709 197.982 172.282 196.957 172.342C195.391 172.433 194.096 171.347 192.951 170.442C191.565 169.356 190.089 168.059 188.191 168.209C186.835 168.3 185.721 169.024 185.269 170.321C185.058 170.894 185.932 171.136 186.112 170.593Z" fill="#E8E8E8"/>
<path d="M322.308 82.5662C322.036 88.2073 321.856 93.8787 321.795 99.55C321.795 100.123 322.699 100.123 322.699 99.55C322.759 93.8787 322.94 88.2375 323.211 82.5662C323.241 81.993 322.338 81.993 322.308 82.5662Z" fill="#E8E8E8"/>
<path d="M322.91 82.9885C329.869 82.0232 336.948 81.088 343.877 82.717C344.449 82.8377 344.69 81.993 344.118 81.8422C337.039 80.1528 329.779 81.1182 322.669 82.1137C322.097 82.174 322.338 83.0489 322.91 82.9885Z" fill="#E8E8E8"/>
<path d="M343.305 83.0187C343.455 94.482 343.244 105.976 342.642 117.439C342.612 118.012 343.515 118.012 343.546 117.439C344.148 105.976 344.359 94.5122 344.208 83.0187C344.208 82.4455 343.305 82.4455 343.305 83.0187Z" fill="#E8E8E8"/>
<path d="M322.549 114.362C322.699 115.81 322.759 117.318 323.031 118.736C323.181 119.43 323.422 119.913 324.025 120.335C325.923 121.572 328.995 120.848 331.074 120.727C334.026 120.546 337.009 120.365 339.961 120.184C341.286 120.094 343.395 119.732 342.582 117.891C342.341 117.348 341.557 117.831 341.798 118.344C341.949 118.676 340.262 119.219 339.961 119.279C339.479 119.37 338.967 119.339 338.485 119.37C337.611 119.43 336.707 119.49 335.834 119.52C334.056 119.641 332.279 119.732 330.502 119.852C328.875 119.943 327.067 120.275 325.441 119.913C323.392 119.43 323.663 116.112 323.452 114.392C323.392 113.789 322.488 113.789 322.549 114.362Z" fill="#E8E8E8"/>
<path d="M317.066 113.246C314.415 117.137 311.673 120.968 308.902 124.769C308.811 124.89 308.811 125.101 308.902 125.222C309.384 125.976 310.197 126.278 311.071 126.006C312.366 125.614 312.999 124.136 313.661 123.11C314.746 121.421 315.981 119.822 317.307 118.284C317.879 117.65 318.451 117.017 319.054 116.413C319.747 115.719 320.922 114.241 321.916 114.09C322.488 114 322.247 113.125 321.675 113.216C320.771 113.366 320.169 114.09 319.506 114.694C318.632 115.508 317.789 116.353 316.975 117.258C315.409 119.008 313.963 120.878 312.698 122.839C312.336 123.382 312.035 124.045 311.583 124.528C311.101 125.222 310.589 125.282 309.986 124.709C310.167 124.468 310.348 124.226 310.498 123.985C311.312 122.869 312.125 121.753 312.908 120.637C314.565 118.314 316.192 115.991 317.789 113.638C318.18 113.216 317.397 112.763 317.066 113.246Z" fill="#E8E8E8"/>
<path d="M321.765 114.362C325.501 114.452 329.086 112.19 330.562 108.751C331.887 105.644 331.164 101.601 328.363 99.55C325.139 97.2272 321.012 98.9768 318.512 101.511C317.036 103.019 315.8 104.92 315.499 107.031C315.379 107.876 315.409 108.721 315.62 109.535C315.74 110.018 315.921 110.47 316.162 110.893C316.222 111.013 317.608 112.974 317.005 112.944C316.433 112.884 316.433 113.789 317.005 113.849C317.939 113.94 318.421 113.095 318.15 112.25C317.939 111.556 317.277 111.074 316.915 110.44C316.373 109.445 316.252 108.298 316.403 107.182C316.915 103.321 321.012 99.2785 324.989 99.3388C328.905 99.369 330.953 103.743 330.14 107.182C329.236 110.923 325.561 113.547 321.765 113.427C321.163 113.457 321.163 114.362 321.765 114.362Z" fill="#E8E8E8"/>
<path d="M326.043 86.1862L326.013 86.156C326.013 86.3672 326.013 86.5783 326.013 86.7895C326.404 86.337 329.116 86.3672 329.839 86.2767C330.983 86.156 332.158 86.0655 333.303 86.0052C334.448 85.9448 335.623 85.8845 336.798 85.8543C337.31 85.8543 339.991 86.0957 340.172 85.613C339.961 86.156 340.834 86.3973 341.045 85.8543C341.075 85.794 341.075 85.7638 341.105 85.7035C341.166 85.5527 341.105 85.3717 340.985 85.251C340.322 84.5873 339.117 84.889 338.244 84.889C336.587 84.889 334.96 84.9493 333.303 85.07C331.767 85.1605 330.23 85.3113 328.664 85.4622C327.881 85.5527 325.922 85.432 325.35 86.0957C325.199 86.2767 325.169 86.5482 325.35 86.7292L325.38 86.7593C325.832 87.242 326.465 86.5783 326.043 86.1862Z" fill="#E8E8E8"/>
<path d="M325.621 90.5905C328.664 91.0128 331.616 90.8922 334.659 90.7715C335.231 90.7413 335.231 89.8363 334.659 89.8665C331.676 89.9872 328.814 90.1078 325.862 89.7157C325.29 89.6553 325.049 90.5302 325.621 90.5905Z" fill="#E8E8E8"/>
<path d="M323.573 93.9994C323.482 94.0899 323.392 94.2105 323.302 94.301C323.031 94.6027 323.211 95.0552 323.633 95.0854C328.875 95.1759 334.117 94.9345 339.328 94.3613C339.901 94.301 339.901 93.396 339.328 93.4563C334.117 94.0295 328.875 94.2709 323.633 94.1804C323.754 94.4519 323.844 94.6932 323.965 94.9647C324.055 94.8742 324.145 94.7535 324.236 94.663C324.597 94.2105 323.964 93.577 323.573 93.9994Z" fill="#E8E8E8"/>
<path d="M330.05 98.9467C332.791 99.1578 335.532 99.0372 338.244 98.5847C338.816 98.4942 338.575 97.6193 338.003 97.7098C335.352 98.1322 332.701 98.2528 330.05 98.0417C329.447 98.0115 329.447 98.9165 330.05 98.9467Z" fill="#E8E8E8"/>
<path d="M322.699 111.164C320.259 111.285 318.18 109.143 318.964 106.669C319.566 104.709 321.825 102.627 323.874 102.295C324.868 102.144 325.953 102.386 326.706 103.08C327.82 104.105 327.519 105.614 327.007 106.85C326.133 109.022 324.537 110.983 322.097 111.255C321.524 111.315 321.524 112.22 322.097 112.16C325.23 111.828 327.459 109.143 328.212 106.187C328.935 103.411 326.886 101.119 324.025 101.36C321.374 101.601 318.451 104.286 317.969 106.911C317.457 109.837 319.837 112.22 322.699 112.069C323.271 112.039 323.271 111.134 322.699 111.164Z" fill="#E8E8E8"/>
<path d="M323.211 102.687C322.006 105.282 320.891 107.906 319.897 110.561C319.686 111.104 320.56 111.345 320.771 110.802C321.765 108.208 322.819 105.644 323.994 103.14C324.235 102.597 323.482 102.144 323.211 102.687Z" fill="#E8E8E8"/>
<path d="M324.597 105.282C323.814 106.911 323.061 108.54 322.277 110.169C322.036 110.682 322.82 111.164 323.061 110.621C323.844 108.992 324.597 107.363 325.38 105.734C325.621 105.221 324.868 104.739 324.597 105.282Z" fill="#E8E8E8"/>
<path d="M100.648 56.0195C100.648 58.7647 100.648 61.54 100.648 64.2852C100.648 64.8583 101.551 64.8583 101.551 64.2852C101.551 61.54 101.551 58.7647 101.551 56.0195C101.551 55.4463 100.648 55.4463 100.648 56.0195Z" fill="#E8E8E8"/>
<path d="M101.22 64.6773C103.781 64.6773 106.311 64.6773 108.872 64.6773C109.444 64.6773 109.444 63.7723 108.872 63.7723C106.311 63.7723 103.781 63.7723 101.22 63.7723C100.648 63.7723 100.648 64.6773 101.22 64.6773Z" fill="#E8E8E8"/>
<path d="M109.414 63.712C109.414 60.7255 109.414 57.7088 109.414 54.7223C109.414 54.1492 108.51 54.1492 108.51 54.7223C108.51 57.7088 108.51 60.7255 108.51 63.712C108.51 64.2852 109.414 64.2852 109.414 63.712Z" fill="#E8E8E8"/>
<path d="M109.083 54.1492C106.462 54.1492 103.841 54.1492 101.25 54.1492C100.678 54.1492 100.678 55.0542 101.25 55.0542C103.871 55.0542 106.492 55.0542 109.083 55.0542C109.655 55.0542 109.655 54.1492 109.083 54.1492Z" fill="#E8E8E8"/>
<path d="M104.474 65.16C104.474 68.237 104.474 71.2838 104.474 74.3608C104.474 74.934 105.377 74.934 105.377 74.3608C105.377 71.2838 105.377 68.237 105.377 65.16C105.377 64.5868 104.474 64.5868 104.474 65.16Z" fill="#E8E8E8"/>
<path d="M93.8696 74.2402C97.2135 71.0425 100.708 67.9655 104.323 65.0393C104.775 64.6773 104.142 64.0438 103.69 64.4058C100.075 67.332 96.611 70.3788 93.237 73.6067C92.8152 73.9988 93.4479 74.6323 93.8696 74.2402Z" fill="#E8E8E8"/>
<path d="M105.438 65.341C109.053 68.0862 112.668 70.8313 116.283 73.5765C116.735 73.9385 117.186 73.1542 116.735 72.7922C113.12 70.047 109.505 67.3018 105.89 64.5567C105.438 64.1947 104.986 64.979 105.438 65.341Z" fill="#E8E8E8"/>
<path d="M90.3751 75.3262C92.3633 75.3262 94.3516 75.3262 96.37 75.3262C96.9423 75.3262 96.9423 74.4212 96.37 74.4212C94.3817 74.4212 92.3935 74.4212 90.3751 74.4212C89.8027 74.4212 89.8027 75.3262 90.3751 75.3262Z" fill="#E8E8E8"/>
<path d="M95.8276 75.5072C95.8276 77.7697 95.8276 80.0623 95.8276 82.3248C95.8276 82.898 96.7314 82.898 96.7314 82.3248C96.7314 80.0623 96.7314 77.7697 96.7314 75.5072C96.7314 74.9038 95.8276 74.9038 95.8276 75.5072Z" fill="#E8E8E8"/>
<path d="M89.7124 75.0848C89.7124 77.7395 89.7124 80.3942 89.7124 83.0488C89.7124 83.622 90.6162 83.622 90.6162 83.0488C90.6162 80.3942 90.6162 77.7395 90.6162 75.0848C90.6162 74.4815 89.7124 74.4815 89.7124 75.0848Z" fill="#E8E8E8"/>
<path d="M90.0738 83.5918C91.9416 83.5918 93.7792 83.5918 95.6469 83.5918C96.2193 83.5918 96.2193 82.6868 95.6469 82.6868C93.7792 82.6868 91.9416 82.6868 90.0738 82.6868C89.5014 82.6868 89.5014 83.5918 90.0738 83.5918Z" fill="#E8E8E8"/>
<path d="M101.702 75.296C101.702 77.9205 101.702 80.545 101.702 83.1393C101.702 83.7125 102.606 83.7125 102.606 83.1393C102.606 80.5148 102.606 77.8903 102.606 75.296C102.606 74.6927 101.702 74.6927 101.702 75.296Z" fill="#E8E8E8"/>
<path d="M102.154 83.3807C103.992 83.3807 105.799 83.3807 107.637 83.3807C108.209 83.3807 108.209 82.4757 107.637 82.4757C105.799 82.4757 103.992 82.4757 102.154 82.4757C101.582 82.4757 101.582 83.3807 102.154 83.3807Z" fill="#E8E8E8"/>
<path d="M102.455 75.7485C104.082 75.7485 105.679 75.7485 107.305 75.7485C107.878 75.7485 107.878 74.8435 107.305 74.8435C105.679 74.8435 104.082 74.8435 102.455 74.8435C101.883 74.8435 101.883 75.7485 102.455 75.7485Z" fill="#E8E8E8"/>
<path d="M106.974 75.1753C106.974 77.649 106.974 80.1227 106.974 82.6265C106.974 83.1997 107.878 83.1997 107.878 82.6265C107.878 80.1528 107.878 77.6792 107.878 75.1753C107.878 74.6022 106.974 74.6022 106.974 75.1753Z" fill="#E8E8E8"/>
<path d="M114.475 75.1753C114.385 77.1362 114.324 79.097 114.324 81.0578C114.324 81.631 115.228 81.631 115.228 81.0578C115.228 79.097 115.288 77.1362 115.379 75.1753C115.409 74.6022 114.505 74.6022 114.475 75.1753Z" fill="#E8E8E8"/>
<path d="M114.867 75.3865C116.855 75.1753 118.843 74.934 120.831 74.7228C121.404 74.6625 121.404 73.7575 120.831 73.8178C118.843 74.029 116.855 74.2703 114.867 74.4815C114.294 74.5418 114.264 75.4468 114.867 75.3865Z" fill="#E8E8E8"/>
<path d="M120.53 74.4513C120.319 76.4725 120.38 78.4635 120.741 80.4545C120.831 81.0277 121.705 80.7863 121.615 80.2132C121.283 78.2825 121.223 76.382 121.434 74.4513C121.494 73.8782 120.59 73.8782 120.53 74.4513Z" fill="#E8E8E8"/>
<path d="M115.168 81.8422C117.156 81.5405 119.144 81.2388 121.133 80.9372C121.705 80.8467 121.464 79.9718 120.892 80.0623C118.903 80.364 116.915 80.6657 114.927 80.9673C114.355 81.0578 114.596 81.9025 115.168 81.8422Z" fill="#E8E8E8"/>
<path d="M104.353 83.6522C103.239 85.3415 102.275 87.1213 101.401 88.9313C101.16 89.4442 101.943 89.9268 102.184 89.3838C103.058 87.5437 104.052 85.794 105.136 84.1047C105.438 83.622 104.654 83.1695 104.353 83.6522Z" fill="#E8E8E8"/>
<path d="M104.624 84.0142C105.739 85.5225 106.703 87.0912 107.516 88.7504C107.787 89.2632 108.571 88.8107 108.3 88.2979C107.456 86.6387 106.492 85.0398 105.408 83.5617C105.076 83.079 104.293 83.5315 104.624 84.0142Z" fill="#E8E8E8"/>
<path d="M99.774 90.1078C100.407 90.1078 101.039 90.1078 101.702 90.138C102.003 90.138 102.274 90.1682 102.576 90.1983C103.118 90.2285 103.058 90.0475 103.148 90.5302C103.359 91.6765 103.118 93.1547 103.028 94.3312C102.967 94.9043 103.871 94.9043 103.931 94.3312C103.992 93.4262 104.052 92.491 104.052 91.586C104.052 91.0732 104.202 90.2285 103.931 89.7458C103.66 89.2933 103.028 89.3537 102.576 89.3235C101.642 89.2632 100.708 89.233 99.774 89.233C99.2016 89.2028 99.2016 90.1078 99.774 90.1078Z" fill="#E8E8E8"/>
<path d="M99.1716 90.0777C99.262 91.1335 99.3523 92.1592 99.4427 93.215C99.503 94.0597 99.3825 95.2965 99.7138 96.111C99.8343 96.4428 99.985 96.5635 100.316 96.6238C101.1 96.7747 102.274 96.3825 103.058 96.2618C103.63 96.1713 103.389 95.3267 102.817 95.387C102.274 95.4473 101.431 95.7792 100.919 95.6585C100.346 95.5077 100.467 94.7233 100.437 94.12C100.316 92.7625 100.196 91.4352 100.075 90.0777C100.015 89.5045 99.1113 89.4743 99.1716 90.0777Z" fill="#E8E8E8"/>
<path d="M105.98 89.957C105.92 90.8318 105.89 91.7368 105.92 92.6117C105.92 92.8228 106.191 94.8138 106.1 94.8742C106.251 94.844 106.402 94.7837 106.552 94.7535C106.522 94.7535 106.492 94.7233 106.432 94.7233C106.552 94.8742 106.643 95.025 106.763 95.1457C106.763 95.1155 106.763 95.0853 106.763 95.025C106.643 95.1758 106.552 95.3267 106.432 95.4473C106.462 95.4473 106.492 95.4473 106.522 95.4172C107.095 95.2965 106.853 94.4217 106.281 94.5423C106.251 94.5423 106.221 94.5423 106.191 94.5725C105.98 94.6027 105.859 94.8138 105.859 94.9948C105.859 95.025 105.859 95.0552 105.859 95.1155C105.859 95.2965 106.01 95.5077 106.191 95.5378C106.974 95.6887 106.974 94.9647 106.944 94.3915C106.823 92.8832 106.763 91.405 106.884 89.8665C106.914 89.3537 106.01 89.3838 105.98 89.957Z" fill="#E8E8E8"/>
<path d="M106.522 90.1682C106.522 89.957 108.45 89.8967 108.721 89.9268C109.474 90.0475 109.324 90.1078 109.444 90.6508C109.535 91.0128 109.414 91.5257 109.384 91.8877C109.354 92.6418 109.354 93.3658 109.384 94.12C109.384 94.5423 109.685 95.8093 109.474 96.111C109.685 96.0507 109.896 95.9903 110.107 95.9602C110.077 95.9602 110.047 95.93 110.017 95.93C110.077 96.111 110.167 96.2618 110.228 96.4428C110.228 96.4127 110.258 96.3825 110.258 96.3523C110.408 95.7792 109.535 95.5378 109.384 96.111C109.384 96.1412 109.354 96.1713 109.354 96.2015C109.294 96.3825 109.384 96.6238 109.565 96.7143C109.595 96.7143 109.625 96.7445 109.655 96.7445C109.896 96.835 110.137 96.8048 110.288 96.5937C110.499 96.292 110.408 95.9903 110.378 95.6283C110.348 94.8138 110.288 93.9692 110.288 93.1547C110.288 92.3402 110.318 91.4955 110.348 90.681C110.378 90.319 110.469 89.8363 110.228 89.5045C109.715 88.8107 108.089 89.0218 107.426 89.1123C106.673 89.2028 105.679 89.2933 105.618 90.1983C105.618 90.7413 106.522 90.7413 106.522 90.1682Z" fill="#E8E8E8"/>
<path d="M106.613 96.292C107.516 96.2317 108.42 96.3222 109.294 96.5333C109.866 96.6842 110.107 95.8093 109.535 95.6585C108.571 95.387 107.607 95.2965 106.613 95.3568C106.01 95.4172 106.01 96.3222 106.613 96.292Z" fill="#E8E8E8"/>
<path d="M117.94 82.0232C117.217 83.622 116.584 85.2812 116.012 86.9403C115.831 87.4833 116.704 87.7247 116.885 87.1817C117.427 85.5828 118.03 84.0142 118.723 82.4757C118.964 81.9327 118.181 81.4802 117.94 82.0232Z" fill="#E8E8E8"/>
<path d="M113.33 89.1727C114.836 88.7503 116.373 88.5392 117.969 88.5995C118.542 88.6297 118.542 87.7247 117.969 87.6945C116.313 87.6342 114.686 87.8453 113.089 88.2978C112.517 88.4487 112.758 89.3235 113.33 89.1727Z" fill="#E8E8E8"/>
<path d="M113.3 88.7503C113.029 89.595 113.24 90.3793 113.33 91.224C113.421 92.2497 113.421 93.2452 113.391 94.2708C113.33 95.5982 113.662 95.749 114.987 95.6283C115.891 95.5378 117.126 95.7792 117.458 94.7837C117.759 93.8183 117.668 92.5212 117.759 91.4955C117.849 90.4095 117.97 89.2933 118.06 88.2073C118.12 87.6342 117.217 87.6342 117.156 88.2073C117.036 89.4743 116.915 90.7715 116.795 92.0385C116.735 92.5513 116.765 93.1848 116.644 93.6977C116.463 94.5423 116.373 94.6027 115.499 94.6932C115.228 94.7233 114.987 94.7535 114.716 94.7837C114.204 94.9647 114.053 94.8138 114.264 94.301C114.144 93.8787 114.325 93.215 114.294 92.7625C114.264 91.6162 113.812 90.0777 114.144 88.9917C114.355 88.4185 113.481 88.1772 113.3 88.7503Z" fill="#E8E8E8"/>
<path d="M119.205 82.8678C119.898 83.9237 120.5 85.0398 121.073 86.1862C121.314 86.699 122.097 86.2465 121.856 85.7337C121.314 84.5873 120.681 83.5013 119.988 82.4153C119.657 81.9025 118.873 82.355 119.205 82.8678Z" fill="#E8E8E8"/>
<path d="M120.229 87.5135C121.735 87.5135 123.241 87.5135 124.748 87.5135C125.32 87.5135 125.32 86.6085 124.748 86.6085C124.657 86.6085 124.567 86.6085 124.477 86.6085C123.904 86.6085 123.904 87.5135 124.477 87.5135C124.567 87.5135 124.657 87.5135 124.748 87.5135C125.32 87.5135 125.32 86.6085 124.748 86.6085C123.241 86.6085 121.735 86.6085 120.229 86.6085C119.626 86.6085 119.626 87.5135 120.229 87.5135Z" fill="#E8E8E8"/>
<path d="M119.777 87.4833C119.898 88.6297 119.988 89.776 120.018 90.9223C120.048 91.7368 119.777 93.1245 120.139 93.8787C120.349 94.3312 120.621 94.3915 121.103 94.3915C122.217 94.3613 123.422 94.0898 124.537 93.939C124.718 93.9088 124.868 93.6675 124.868 93.5167C124.838 91.4653 124.808 89.4442 124.778 87.3928C124.778 86.8197 123.874 86.8197 123.874 87.3928C123.904 89.4442 123.934 91.4653 123.964 93.5167C124.085 93.3658 124.175 93.215 124.296 93.0943C123.573 93.1848 122.85 93.2753 122.127 93.396C121.886 93.4262 121.193 93.6373 120.982 93.4563C120.831 93.3357 120.982 92.4005 120.982 92.2195C120.952 90.6508 120.862 89.0822 120.711 87.5437C120.621 86.9102 119.717 86.9102 119.777 87.4833Z" fill="#E8E8E8"/>
<path d="M86.3384 89.957C87.9049 88.509 89.5015 87.1515 91.2186 85.9147C91.6705 85.5828 91.2186 84.7985 90.7667 85.1303C88.9894 86.4275 87.3024 87.8152 85.7057 89.3235C85.284 89.7157 85.9166 90.3492 86.3384 89.957Z" fill="#E8E8E8"/>
<path d="M90.9475 85.5225C91.8512 86.8197 92.6044 88.1772 93.2069 89.595C93.4479 90.138 94.2311 89.6553 93.9901 89.1425C93.3575 87.6945 92.6044 86.337 91.7307 85.07C91.3994 84.5873 90.6161 85.0398 90.9475 85.5225Z" fill="#E8E8E8"/>
<path d="M82.3318 91.6162C83.1452 91.5559 83.9285 91.4955 84.7418 91.4352C85.1033 91.405 85.495 91.3145 85.8263 91.3447C86.2481 91.1938 86.3686 91.224 86.1878 91.4654C86.0673 91.6464 86.0071 91.8273 86.0372 92.0385C85.7058 93.5167 85.6456 95.0854 85.5853 96.5937C85.8565 96.473 86.0975 96.3825 86.3686 96.2618C86.3385 96.2317 86.3083 96.2015 86.2782 96.1412C85.8866 95.7189 85.254 96.3523 85.6456 96.7747C85.6757 96.8048 85.7058 96.835 85.736 96.8954C86.0071 97.197 86.4891 96.9557 86.5192 96.5635C86.5493 95.2663 86.6698 93.9692 86.8506 92.7022C86.941 92.1592 87.3326 91.2542 87.0012 90.7112C86.7301 90.2889 86.2782 90.3794 85.8565 90.4095C84.6816 90.5 83.5368 90.5905 82.362 90.681C81.7595 90.7715 81.7595 91.6765 82.3318 91.6162Z" fill="#E8E8E8"/>
<path d="M82.9342 90.7413C82.9041 90.7413 82.874 90.7413 82.8137 90.7413C82.6631 90.7413 82.5125 90.8318 82.4221 90.9525C81.9401 91.767 81.9702 93.1848 81.8196 94.12C81.6087 95.4473 81.3979 96.7747 81.187 98.102C81.1569 98.3433 81.2472 98.6148 81.4882 98.645C82.9041 98.9467 84.2296 98.8863 85.5852 98.3735C86.1275 98.1623 85.8865 97.2875 85.3442 97.4987C84.1392 97.9512 82.9945 98.0417 81.7292 97.7702C81.8196 97.9512 81.9401 98.1322 82.0305 98.3132C82.1209 97.7098 83.1752 91.6463 82.874 91.6162C83.5066 91.7067 83.5066 90.8017 82.9342 90.7413Z" fill="#E8E8E8"/>
<path d="M91.1281 90.5905L91.098 90.6207C91.3089 90.6207 91.5198 90.6207 91.7306 90.6207C91.7005 90.6207 91.7005 90.5905 91.6704 90.5905C91.6704 90.8017 91.6704 91.0128 91.6704 91.224C91.7005 91.1938 92.2428 91.1938 92.3633 91.1938C92.6946 91.1637 93.0561 91.1335 93.3875 91.1335C94.0201 91.1033 94.6528 91.1335 95.2854 91.1938C95.1649 90.9223 95.0745 90.681 94.954 90.4095C94.8938 90.4397 94.8335 90.5 94.8034 90.5302C94.231 90.5905 94.231 91.4955 94.8034 91.4352C95.1348 91.405 95.3758 91.3145 95.6168 91.043C95.8879 90.7413 95.7071 90.2888 95.2854 90.2587C94.4118 90.1983 93.5381 90.1682 92.6645 90.2285C92.2428 90.2587 91.3691 90.1682 91.0679 90.5603C90.9173 90.7413 90.857 91.043 91.0679 91.1938C91.098 91.1938 91.098 91.224 91.1281 91.224C91.3089 91.3748 91.6101 91.4352 91.7608 91.224L91.7909 91.1938C92.1524 90.8017 91.5198 90.1682 91.1281 90.5905Z" fill="#E8E8E8"/>
<path d="M90.7666 90.8017C90.6762 92.0385 90.5859 93.2753 90.5256 94.5122C90.4955 95.206 90.1039 96.9858 90.5256 97.6193C90.7365 97.921 90.9474 98.0417 91.339 98.0115C91.7306 98.0115 92.1524 97.74 92.5139 97.6495C93.2369 97.4383 93.99 97.378 94.7431 97.378C95.3155 97.378 95.3155 96.473 94.7431 96.473C94.0804 96.473 93.4176 96.5333 92.7549 96.6842C92.4536 96.7445 91.8812 97.0763 91.6101 97.016C91.3992 97.1668 91.3089 97.1367 91.3691 96.8953C91.339 96.654 91.339 96.4127 91.3691 96.1412C91.3992 94.3915 91.5499 92.6117 91.6704 90.862C91.7306 90.1983 90.8269 90.1983 90.7666 90.8017Z" fill="#E8E8E8"/>
<path d="M94.6528 90.8922C94.4118 92.9133 94.2913 94.9345 94.3214 96.9858C94.3214 97.559 95.2252 97.559 95.2252 96.9858C95.1951 94.9345 95.3156 92.9133 95.5566 90.8922C95.6469 90.319 94.7432 90.319 94.6528 90.8922Z" fill="#E8E8E8"/>
<path d="M335.291 217.441C342.401 233.098 347.371 249.629 350.113 266.613C350.203 267.186 351.077 266.945 350.986 266.372C348.215 249.328 343.214 232.706 336.075 216.989C335.834 216.476 335.05 216.929 335.291 217.441Z" fill="#E8E8E8"/>
<path d="M372.797 190.955C364 204.409 356.349 218.588 350.926 233.762C350.715 234.305 351.589 234.546 351.8 234.003C357.192 218.889 364.814 204.802 373.58 191.408C373.881 190.925 373.098 190.472 372.797 190.955Z" fill="#E8E8E8"/>
<path d="M332.219 233.973C337.099 235.3 341.286 238.317 344.088 242.54C344.419 243.023 345.203 242.57 344.871 242.088C341.949 237.683 337.581 234.486 332.46 233.098C331.887 232.947 331.646 233.822 332.219 233.973Z" fill="#E8E8E8"/>
<path d="M343.967 221.454C342.31 224.199 341.196 227.185 340.744 230.383C340.653 230.956 341.527 231.197 341.617 230.624C342.069 227.517 343.124 224.591 344.75 221.906C345.052 221.423 344.268 220.971 343.967 221.454Z" fill="#E8E8E8"/>
<path d="M353.336 204.5C354.812 206.129 355.837 207.999 356.62 210.02C356.981 210.925 357.283 211.86 357.554 212.765C357.825 213.64 358.457 214.938 358.096 215.812C357.885 216.355 358.759 216.597 358.97 216.054C359.331 215.179 358.97 214.304 358.698 213.459C358.337 212.222 357.945 210.986 357.463 209.779C356.62 207.607 355.505 205.586 353.939 203.836C353.577 203.414 352.945 204.047 353.336 204.5Z" fill="#E8E8E8"/>
<path d="M363.549 207.969C367.314 203.625 372.195 200.548 377.738 199.04C378.31 198.889 378.069 198.014 377.497 198.165C371.833 199.703 366.772 202.871 362.916 207.305C362.555 207.758 363.187 208.422 363.549 207.969Z" fill="#E8E8E8"/>
<path d="M352.914 232.193C355.626 229.78 358.819 228.09 362.193 226.823C363.729 226.25 365.266 225.798 366.832 225.345C367.706 225.104 368.549 224.893 369.423 224.651C369.845 224.561 371.622 223.837 371.953 224.018C371.893 223.807 371.833 223.595 371.803 223.384C371.773 223.414 371.773 223.445 371.743 223.475C371.953 223.414 372.164 223.354 372.375 223.324C372.345 223.324 372.315 223.294 372.285 223.294C371.773 223.022 371.321 223.807 371.833 224.078C371.863 224.078 371.893 224.108 371.923 224.108C372.134 224.229 372.405 224.169 372.556 223.957C372.586 223.927 372.586 223.897 372.616 223.867C372.737 223.656 372.676 223.384 372.466 223.233C372.044 222.992 371.592 223.203 371.14 223.294C370.116 223.535 369.092 223.776 368.067 224.048C366.109 224.561 364.151 225.134 362.223 225.798C358.608 227.095 355.174 228.875 352.312 231.469C351.86 231.921 352.493 232.585 352.914 232.193Z" fill="#E8E8E8"/>
<path d="M337.551 269.418C344.389 271.078 351.348 269.841 358.186 269.026C365.597 268.152 373.038 268.001 380.479 267.88C381.051 267.88 381.051 266.975 380.479 266.975C373.219 267.096 365.959 267.246 358.759 268.061C351.8 268.875 344.721 270.233 337.792 268.544C337.25 268.393 337.009 269.268 337.551 269.418Z" fill="#E8E8E8"/>
<path d="M359.12 266.854C371.291 266.221 383.461 265.557 395.632 264.924C396.204 264.894 396.204 263.989 395.632 264.019C383.461 264.652 371.291 265.316 359.12 265.949C358.548 265.98 358.548 266.885 359.12 266.854Z" fill="#E8E8E8"/>
<path d="M324.266 179.763C321.283 180.336 317.638 177.471 317.728 174.303C317.849 170.713 322.338 169.507 325.2 169.476C328.363 169.476 330.592 171.92 329.839 175.118C329.507 176.505 328.634 177.652 327.549 178.526C326.917 179.039 324.356 180.91 323.633 180.005C323.272 179.552 322.639 180.186 323 180.638C323.964 181.845 325.953 180.608 326.977 180.035C328.543 179.1 329.959 177.682 330.562 175.932C331.767 172.403 329.628 168.873 325.923 168.602C322.398 168.33 316.945 169.959 316.855 174.303C316.795 178.104 320.952 181.302 324.537 180.638C325.079 180.548 324.838 179.673 324.266 179.763Z" fill="#E8E8E8"/>
<path d="M93.0261 193.972C91.9115 195.239 90.9475 196.626 90.1341 198.135C89.863 198.647 90.6462 199.1 90.9173 198.587C91.7006 197.169 92.6043 195.842 93.6888 194.605C94.0503 194.183 93.4177 193.519 93.0261 193.972Z" fill="#161616"/>
<path d="M92.9959 194.334C93.8997 195.601 94.8034 196.837 95.7072 198.104C96.0385 198.587 96.8218 198.135 96.4904 197.652C95.5867 196.385 94.6829 195.148 93.7792 193.881C93.4177 193.398 92.6344 193.851 92.9959 194.334Z" fill="#161616"/>
<path d="M92.9358 196.114C93.2069 206.762 93.4479 217.411 93.719 228.09C93.719 228.663 94.6228 228.663 94.6228 228.09C94.3517 217.441 94.1107 206.793 93.8395 196.114C93.8094 195.54 92.9057 195.51 92.9358 196.114Z" fill="#161616"/>
<path d="M94.7132 228.935C108.089 228.935 121.464 228.935 134.84 228.935C135.412 228.935 135.412 228.03 134.84 228.03C121.464 228.03 108.089 228.03 94.7132 228.03C94.1408 228.03 94.1408 228.935 94.7132 228.935Z" fill="#161616"/>
<path d="M133.092 228.03C134.026 228.392 134.93 228.754 135.864 229.116C135.743 228.784 135.593 228.452 135.472 228.12C135.02 228.935 134.388 229.568 133.604 230.051C132.851 230.504 133.544 231.68 134.297 231.228C135.291 230.654 136.105 229.81 136.677 228.814C136.918 228.392 136.677 227.97 136.286 227.819C135.352 227.457 134.448 227.095 133.514 226.733C132.64 226.401 132.279 227.698 133.092 228.03Z" fill="#161616"/>
<path d="M364.452 65.0997C363.247 63.5008 364.964 61.0573 366.832 62.264C367.676 62.807 368.067 63.9232 367.465 64.798C366.923 65.5823 365.808 65.9142 364.964 65.4918C364.452 65.2203 364 66.0047 364.512 66.2762C365.748 66.8795 367.254 66.5175 368.127 65.4315C369.061 64.255 368.73 62.5958 367.585 61.6908C366.471 60.816 364.904 60.816 363.94 61.902C363.066 62.8975 362.916 64.4963 363.729 65.5823C364 66.0047 364.784 65.5522 364.452 65.0997Z" fill="#5222D0"/>
<path d="M389.516 179.823C389.456 178.406 390.51 177.44 391.896 177.44C392.468 177.44 392.92 177.591 393.463 177.35C394.487 176.897 394.878 175.721 395.21 174.725C395.692 173.277 396.053 172.583 397.861 173.036C398.343 173.157 398.644 173.398 399.156 173.217C400.662 172.644 399.759 170.049 402.048 170.472C402.621 170.592 402.862 169.718 402.289 169.597C401.566 169.446 400.873 169.507 400.241 169.959C399.668 170.381 399.608 170.894 399.277 171.437C399.247 172.01 398.855 172.252 398.132 172.161C397.981 172.071 397.801 171.98 397.65 171.92C397.319 171.89 397.138 171.709 396.776 171.739C396.114 171.769 395.601 172.191 395.21 172.674C394.637 173.368 394.487 174.212 394.155 175.057C393.824 175.902 393.493 176.505 392.468 176.596C392.017 176.626 391.595 176.475 391.143 176.535C389.546 176.777 388.522 178.255 388.582 179.823C388.643 180.427 389.546 180.427 389.516 179.823Z" fill="#5222D0"/>
<path d="M103.72 227.215C107.968 218.678 108.631 209.055 111.131 199.975C111.764 197.652 112.396 194.937 114.144 193.187C116.704 190.623 119.958 192.433 121.012 195.45C121.795 197.742 121.826 200.397 121.976 202.81C122.127 205.405 122.247 207.999 122.398 210.593C122.729 216.144 123.302 221.725 125.169 227.004C125.35 227.547 126.224 227.306 126.043 226.763C124.085 221.212 123.543 215.33 123.241 209.477C123.091 206.611 122.97 203.715 122.759 200.85C122.579 198.557 122.488 196.053 121.404 193.972C120.56 192.343 118.934 191.015 117.036 191.015C115.078 191.015 113.451 192.373 112.457 193.941C111.161 196.023 110.559 198.647 109.956 201C109.294 203.625 108.751 206.28 108.209 208.934C107.004 215.028 105.769 221.152 102.967 226.763C102.666 227.276 103.449 227.728 103.72 227.215Z" fill="#5222D0"/>
<path d="M107.848 189.809C107.245 188.934 108.48 187.757 109.203 188.723C109.896 189.628 108.601 190.533 107.878 189.839C107.456 189.447 106.823 190.08 107.245 190.472C107.878 191.076 108.902 191.136 109.625 190.623C110.438 190.05 110.529 188.964 109.926 188.18C109.324 187.395 108.209 187.184 107.456 187.848C106.793 188.451 106.582 189.507 107.095 190.261C107.396 190.744 108.179 190.291 107.848 189.809Z" fill="#5222D0"/>
<path d="M114.505 185.797C114.023 185.103 115.078 184.469 115.529 185.193C116.011 185.978 114.656 186.852 114.204 185.978C113.933 185.465 113.18 185.917 113.421 186.43C113.812 187.245 114.867 187.456 115.62 187.003C116.403 186.551 116.765 185.525 116.283 184.71C115.861 184.017 114.867 183.655 114.144 184.107C113.451 184.56 113.21 185.525 113.662 186.219C114.053 186.732 114.837 186.279 114.505 185.797Z" fill="#5222D0"/>
<path d="M111.884 179.16C111.643 178.466 112.396 177.742 112.999 178.315C113.601 178.888 112.909 179.703 112.216 179.461C111.673 179.28 111.432 180.155 111.975 180.336C113.541 180.849 114.867 178.858 113.632 177.682C113.089 177.139 112.246 177.048 111.613 177.501C111.041 177.923 110.74 178.707 111.011 179.401C111.222 179.944 112.095 179.733 111.884 179.16Z" fill="#5222D0"/>
<path d="M123.392 187.214C123.302 187.154 123.422 187.245 123.452 187.305C123.452 187.335 123.452 187.365 123.452 187.395C123.452 187.426 123.452 187.425 123.452 187.365V187.395C123.512 187.365 123.452 187.395 123.452 187.395C123.422 187.395 123.543 187.395 123.573 187.395C123.663 187.395 123.753 187.426 123.844 187.456C123.723 187.305 123.633 187.154 123.512 187.033C123.512 187.275 123.512 187.516 123.512 187.757C123.633 187.607 123.723 187.456 123.844 187.335C123.603 187.426 123.362 187.456 123.121 187.395C122.579 187.214 122.338 188.089 122.88 188.27C123.271 188.391 123.723 188.391 124.085 188.21C124.266 188.119 124.416 187.999 124.416 187.788C124.416 187.546 124.416 187.305 124.416 187.063C124.416 186.852 124.266 186.671 124.085 186.641C123.603 186.521 123.03 186.46 122.729 186.943C122.488 187.305 122.518 187.878 122.97 188.059C123.181 188.18 123.452 188.119 123.603 187.908C123.693 187.637 123.633 187.335 123.392 187.214Z" fill="#5222D0"/>
<path d="M173.701 67.1208C173.851 67.1812 173.52 68.6895 173.671 69.0515C173.882 69.504 174.364 69.7755 174.846 69.8358C175.508 69.9565 176.081 69.6548 176.623 69.323C177.165 68.9912 178.461 67.8448 178.852 69.1118C178.943 69.3833 178.641 70.047 178.732 70.409C179.003 71.6157 180.148 71.5553 180.961 70.9218C181.262 70.6805 181.443 70.3788 181.684 70.1073C181.985 69.3833 182.437 69.2325 183.009 69.6548C183.009 69.8358 183.04 70.0168 183.1 70.1677C183.401 70.6202 183.552 70.9218 184.154 70.8917C184.727 70.8615 184.727 69.9565 184.154 69.9867C184.184 69.9867 183.522 68.6292 183.16 68.4783C182.738 68.2973 182.256 68.4482 181.865 68.6895C181.594 68.8403 181.383 69.0817 181.172 69.2928C180.72 69.7453 180.75 70.409 180.027 69.9565C179.334 69.5342 179.907 68.8705 179.425 68.2672C178.641 67.2717 177.316 67.8147 176.472 68.3577C175.99 68.6593 174.785 69.7453 174.484 68.1465C174.454 67.9353 174.635 67.6035 174.635 67.3923C174.635 66.9097 174.544 66.6382 174.123 66.427C173.641 66.065 173.189 66.8493 173.701 67.1208Z" fill="#5222D0"/>
<path d="M142.19 137.681C142.552 141.904 142.913 146.127 143.305 150.351C143.365 150.924 144.148 150.924 144.209 150.351C144.209 150.26 144.239 150.139 144.239 150.049C144.299 149.476 143.395 149.476 143.335 150.049C143.335 150.139 143.305 150.26 143.305 150.351C143.606 150.351 143.907 150.351 144.209 150.351C143.847 146.127 143.486 141.904 143.094 137.681C143.034 137.107 142.13 137.077 142.19 137.681Z" fill="#EC615B"/>
<path d="M142.883 138.013C144.148 137.741 146.347 137.349 147.311 138.405C148.185 139.34 147.974 141.18 148.095 142.447C148.305 144.981 148.516 147.515 148.727 150.019C148.787 150.592 149.691 150.592 149.631 150.019C149.33 146.399 149.3 142.598 148.697 139.008C148.245 136.203 144.751 136.715 142.642 137.138C142.07 137.258 142.311 138.133 142.883 138.013Z" fill="#EC615B"/>
<path d="M150.595 120.999C151.559 130.652 151.89 140.335 151.589 150.049C151.559 150.622 152.463 150.622 152.493 150.049C152.794 140.366 152.463 130.652 151.499 120.999C151.438 120.425 150.535 120.395 150.595 120.999Z" fill="#EC615B"/>
<path d="M151.68 120.999C152.915 121.18 154.421 121.18 155.566 121.602C157.102 122.145 156.861 124.92 157.012 126.338C157.283 129.083 157.464 131.828 157.644 134.574C157.976 140.275 158.096 145.977 158.217 151.678C158.217 152.251 159.12 152.251 159.12 151.678C158.97 145.102 158.819 138.495 158.367 131.919C158.156 128.842 158.006 125.735 157.524 122.688C157.102 120.094 153.999 120.425 151.921 120.094C151.348 120.063 151.107 120.908 151.68 120.999Z" fill="#EC615B"/>
<path d="M159.331 115.327C160.356 126.791 161.41 138.224 162.434 149.687C162.494 150.26 163.398 150.26 163.338 149.687C162.314 138.224 161.259 126.791 160.235 115.327C160.205 114.754 159.301 114.754 159.331 115.327Z" fill="#EC615B"/>
<path d="M159.903 115.78C161.349 115.508 162.826 115.418 164.302 115.569C165.537 115.689 166.41 115.931 166.471 117.258C166.501 117.71 166.501 118.193 166.501 118.645C166.591 120.908 166.682 123.17 166.802 125.433C167.194 134.091 167.646 142.718 168.097 151.376C168.128 151.949 169.031 151.949 169.001 151.376C168.519 142.025 168.037 132.703 167.615 123.352C167.525 121.391 167.435 119.46 167.374 117.499C167.344 116.624 167.344 115.749 166.531 115.176C165.778 114.663 164.603 114.633 163.729 114.603C162.374 114.513 161.018 114.633 159.662 114.905C159.09 115.026 159.331 115.9 159.903 115.78Z" fill="#EC615B"/>
<path d="M135.713 112.431C134.719 114.392 133.755 116.353 132.761 118.314C132.49 118.827 133.273 119.279 133.544 118.766C134.538 116.805 135.502 114.845 136.497 112.884C136.738 112.371 135.954 111.888 135.713 112.431Z" fill="#161616"/>
<path d="M135.834 113.336C136.256 115.086 137.189 116.624 138.575 117.771C139.027 118.133 139.66 117.499 139.208 117.137C137.943 116.081 137.099 114.724 136.707 113.125C136.557 112.522 135.683 112.763 135.834 113.336Z" fill="#161616"/>
<path d="M135.201 113.759C135.02 126.972 136.738 140.154 140.322 152.885C140.473 153.458 141.347 153.217 141.196 152.643C137.641 140.004 135.924 126.911 136.105 113.759C136.105 113.185 135.201 113.185 135.201 113.759Z" fill="#161616"/>
<path d="M141.407 153.669C148.456 153.005 155.535 152.643 162.615 152.613C169.212 152.583 176.352 152.311 182.437 155.298C182.949 155.539 183.401 154.785 182.889 154.514C176.984 151.618 170.236 151.678 163.79 151.708C156.319 151.708 148.848 152.07 141.407 152.764C140.834 152.824 140.834 153.729 141.407 153.669Z" fill="#161616"/>
<path d="M178.732 152.191C180.358 153.186 181.925 154.272 183.371 155.479C183.401 155.238 183.431 154.996 183.461 154.755C182.226 155.69 181.021 156.625 179.786 157.561C179.334 157.923 179.786 158.707 180.238 158.345C181.473 157.41 182.678 156.475 183.913 155.539C184.124 155.389 184.245 155.027 184.004 154.815C182.467 153.548 180.871 152.402 179.184 151.407C178.671 151.135 178.22 151.889 178.732 152.191Z" fill="#161616"/>
<path d="M138.003 129.053C138.454 129.596 138.906 130.139 139.358 130.682C139.539 130.893 139.931 130.833 140.081 130.592C142.491 125.855 144.871 121.089 147.311 116.353C147.944 115.146 148.817 116.142 149.721 116.474C150.294 116.685 150.896 116.624 151.468 116.413C152.914 115.87 153.878 114.362 154.541 113.035C155.626 110.772 156.59 108.419 157.644 106.126C157.915 105.493 158.216 104.859 158.488 104.256C158.638 103.894 158.819 103.14 159.12 102.868C160.054 102.024 162.344 103.954 163.127 104.437C164.422 105.221 166.29 106.971 167.977 106.519C169.242 106.187 169.845 104.799 170.206 103.653C171.953 98.4942 174.183 93.8183 177.617 89.5648C177.888 89.233 177.647 88.6598 177.165 88.8107C175.599 89.3235 174.183 90.1078 172.887 91.1033C172.466 91.4352 173.008 92.0385 173.43 91.8273C174.604 91.2542 175.809 90.6509 176.984 90.0777C176.773 89.9872 176.532 89.8967 176.322 89.8062C176.683 91.6162 177.045 93.4262 177.376 95.2362C177.496 95.8094 178.37 95.568 178.25 94.9948C177.888 93.1848 177.527 91.3748 177.195 89.5648C177.135 89.2632 176.773 89.1727 176.532 89.2933C175.358 89.8665 174.153 90.4698 172.978 91.043C173.159 91.2843 173.339 91.5257 173.52 91.767C174.695 90.8319 175.96 90.1682 177.406 89.6855C177.256 89.4442 177.105 89.1727 176.954 88.9313C174.333 92.1893 172.164 95.7792 170.598 99.6707C170.176 100.696 169.815 101.752 169.483 102.808C169.212 103.653 168.79 105.463 167.676 105.644C166.41 105.855 164.784 104.407 163.759 103.773C162.735 103.14 161.741 102.446 160.687 101.873C159.482 101.239 158.729 101.481 158.126 102.657C156.981 104.92 156.047 107.333 154.993 109.656C154.21 111.406 153.216 114.935 151.077 115.508C149.631 115.9 148.305 113.728 147.01 114.995C146.257 115.719 145.865 117.077 145.413 117.982C144.721 119.339 144.058 120.667 143.365 122.024C142.009 124.709 140.623 127.394 139.268 130.079C139.509 130.049 139.75 130.018 139.991 129.988C139.539 129.445 139.087 128.902 138.635 128.359C138.244 127.967 137.611 128.601 138.003 129.053Z" fill="#161616"/>
<path d="M269.137 54.0888C266.185 52.4598 264.919 48.327 266.787 45.4008C268.685 42.4143 273.294 41.8713 275.975 44.0735C278.717 46.3662 278.747 51.0722 276.126 53.4553C273.415 55.9592 268.866 55.2955 266.636 52.5202C266.275 52.0677 265.642 52.7012 266.004 53.1537C268.082 55.6877 271.788 56.5927 274.83 55.3257C277.783 54.0888 279.319 50.8912 278.927 47.784C278.536 44.5863 276.156 42.2032 272.963 41.8412C269.92 41.4792 266.667 42.9875 265.522 45.9438C264.257 49.2018 265.672 53.1537 268.715 54.8128C269.197 55.1447 269.649 54.3603 269.137 54.0888Z" fill="#EC615B"/>
<path d="M282.211 59.6395C280.946 57.2865 284.199 54.6922 285.826 57.2262C287.272 59.4585 283.717 61.1478 282.573 59.0663C282.302 58.5535 281.518 59.006 281.789 59.5188C282.512 60.8462 284.199 61.2082 285.525 60.635C287.091 59.9713 287.483 58.1613 286.609 56.7737C285.706 55.3257 283.838 54.7525 282.392 55.7782C281.036 56.7435 280.615 58.644 281.398 60.1222C281.729 60.6048 282.512 60.1523 282.211 59.6395Z" fill="#EC615B"/>
<path d="M266.365 287.82C290.074 287.82 313.752 287.82 337.46 287.82C338.033 287.82 338.033 286.915 337.46 286.915C313.752 286.915 290.074 286.915 266.365 286.915C265.763 286.915 265.763 287.82 266.365 287.82Z" fill="#161616"/>
<path d="M352.342 287.82C356.861 287.82 361.38 287.82 365.898 287.82C366.471 287.82 366.471 286.915 365.898 286.915C361.38 286.915 356.861 286.915 352.342 286.915C351.77 286.915 351.77 287.82 352.342 287.82Z" fill="#161616"/>
<path d="M198.072 301.516C213.827 301.516 229.613 301.516 245.368 301.516C245.94 301.516 245.94 300.611 245.368 300.611C229.613 300.611 213.827 300.611 198.072 300.611C197.499 300.611 197.499 301.516 198.072 301.516Z" fill="#161616"/>
<path d="M244.766 297.896C258.412 297.896 272.089 297.896 285.736 297.896C286.308 297.896 286.308 296.991 285.736 296.991C272.089 296.991 258.412 296.991 244.766 296.991C244.193 296.991 244.193 297.896 244.766 297.896Z" fill="#161616"/>
<path d="M134.659 295.422C138.786 295.422 142.883 295.422 147.01 295.422C147.884 295.422 147.884 294.065 147.01 294.065C142.883 294.065 138.786 294.065 134.659 294.065C133.785 294.065 133.785 295.422 134.659 295.422Z" fill="#161616"/>
<path d="M151.227 295.422C152.643 295.422 154.029 295.422 155.445 295.422C156.319 295.422 156.319 294.065 155.445 294.065C154.029 294.065 152.643 294.065 151.227 294.065C150.354 294.065 150.354 295.422 151.227 295.422Z" fill="#161616"/>
<path d="M117.126 240.64C117.698 240.73 118.482 241.454 119.084 244.893C120.861 245.014 122.639 245.134 124.416 245.255C125.892 244.018 127.368 242.781 128.845 241.514C129.055 242.721 129.327 244.501 129.568 246.673C130.11 251.711 129.778 252.917 130.11 255.723C130.26 256.96 130.953 262.179 134.177 267.247C136.647 271.138 138.274 271.259 140.202 275.06C141.708 278.046 142.16 280.852 142.341 282.692C142.642 282.662 146.468 282.36 148.908 285.347C150.022 286.734 151.258 289.329 150.324 291.38C149.42 293.371 147.341 293.069 143.576 296.357C142.25 297.504 140.985 298.65 141.286 299.555C141.587 300.49 143.214 300.309 146.076 301.848C147.582 302.662 148.305 303.084 148.546 303.808C149.45 306.433 143.726 310.475 142.883 311.079C140.111 313.009 136.737 314.518 136.316 313.914C135.683 313.009 142.491 308.032 141.467 306.101C140.714 304.653 136.436 306.463 135.442 304.864C134.357 303.115 138.183 298.741 140.232 296.357C144.178 291.772 146.679 290.626 146.257 289.087C145.805 287.458 142.371 286.372 140.593 287.488C139.087 288.424 139.388 290.535 138.816 291.923C137.731 294.578 132.55 296.749 114.716 294.758C114.957 294.276 115.318 293.703 115.77 293.16C117.307 291.38 119.235 290.746 120.199 290.505C119.928 290.053 118.361 287.368 119.325 284.11C120.048 281.636 121.765 280.279 122.338 279.856C121.133 277.473 119.928 274.879 118.783 272.043C118.06 270.203 117.397 268.423 116.825 266.703C115.138 266.703 113.18 266.402 111.673 265.105C109.414 263.114 110.318 260.67 107.968 258.89C105.769 257.201 103.148 257.955 102.696 256.507C102.485 255.813 102.907 254.999 103.359 254.577C104.504 253.491 106.552 254.033 108.781 254.637C110.318 255.059 112.517 255.844 114.957 257.322C114.144 256.145 112.667 253.672 112.577 250.383C112.366 245.436 115.379 240.398 117.126 240.64Z" fill="#161616"/>
<path d="M116.072 262.299C113.993 263.204 114.776 269.328 115.529 274.909C116.011 278.438 116.825 283.114 118.361 288.574C114.144 291.832 114.355 292.768 114.475 293.009C114.867 293.823 117.668 293.341 118.542 293.19C119.476 293.039 120.801 292.798 121.554 292.315C123.693 290.897 122.579 286.583 121.916 279.705C120.952 269.75 122.097 265.587 118.903 263.204C118.482 262.872 117.096 261.847 116.072 262.299Z" fill="#161616"/>
<path d="M95.4661 274.788C95.5565 274.758 96.3397 274.366 96.3096 274.336C96.2494 274.306 96.2494 274.788 96.2494 274.909C96.2192 275.301 96.0987 275.784 96.159 276.206C96.2795 276.809 96.7314 277.111 97.3339 277.051C97.6652 277.021 97.9062 276.87 98.1774 276.658C98.2376 276.598 98.6594 276.236 98.6895 276.236C98.7497 276.266 98.7497 276.93 98.7799 276.99C98.9004 277.564 99.3221 278.046 99.9547 277.986C100.527 277.925 100.527 277.02 99.9547 277.081C99.6535 277.111 99.5631 275.482 99.051 275.301C98.8401 275.21 98.5991 275.271 98.4184 275.361C97.9665 275.572 97.3037 276.538 97.0928 275.693C96.9422 275.06 97.5749 274.155 97.0025 273.612C96.4602 273.099 95.5565 273.702 95.0444 273.974C94.5021 274.275 94.954 275.06 95.4661 274.788Z" fill="white"/>
<path d="M116.192 250.474C116.704 249.991 117.578 250.112 117.939 250.715C118.18 251.077 118.753 250.745 118.512 250.383C117.909 249.418 116.523 249.237 115.71 249.991C115.409 250.293 115.891 250.776 116.192 250.474Z" fill="white"/>
<path d="M122.639 250.263C123.181 249.72 124.085 249.69 124.657 250.202C124.989 250.504 125.471 250.021 125.139 249.72C124.296 248.935 122.97 248.966 122.157 249.78C121.856 250.082 122.338 250.564 122.639 250.263Z" fill="white"/>
<path d="M117.367 253.792C117.036 254.456 115.62 256.749 117.156 256.93C117.789 256.99 118.391 256.417 118.753 255.994C119.265 255.391 119.566 254.637 119.837 253.913C120.048 253.37 119.174 253.129 118.964 253.672C118.632 254.516 118.271 255.301 117.548 255.904C117.397 256.025 117.307 256.236 117.367 255.964C117.397 255.783 117.487 255.602 117.578 255.451C117.759 255.059 117.939 254.667 118.15 254.275C118.391 253.702 117.608 253.249 117.367 253.792Z" fill="#EC615B"/>
<path d="M118.18 254.275C118.572 254.094 118.873 253.853 119.235 253.611C119.114 253.641 118.994 253.641 118.873 253.672C118.903 253.672 118.933 253.702 118.964 253.702C118.873 253.641 118.783 253.551 118.692 253.491C118.692 253.31 118.662 253.31 118.542 253.521C118.451 253.611 118.391 253.702 118.301 253.822C118.15 254.003 118.03 254.184 117.909 254.365C117.638 254.788 117.397 255.21 117.156 255.663C116.885 256.175 117.668 256.628 117.939 256.115C118.21 255.632 118.482 255.12 118.783 254.667C119.024 254.305 119.536 253.913 119.566 253.46C119.596 253.129 119.325 252.827 119.024 252.827C118.813 252.797 118.662 252.917 118.512 253.038C118.241 253.249 118 253.4 117.668 253.551C117.216 253.702 117.668 254.486 118.18 254.275Z" fill="#EC615B"/>
<path d="M117.277 253.762C118.271 253.792 119.205 253.068 119.385 252.073C119.446 251.65 118.813 251.469 118.723 251.892C118.602 252.616 118 253.129 117.277 253.098C116.825 253.068 116.825 253.732 117.277 253.762Z" fill="white"/>
<path d="M118.813 251.862C118.934 253.068 119.988 254.034 121.223 253.943C121.645 253.913 121.645 253.219 121.223 253.249C120.38 253.31 119.566 252.736 119.476 251.862C119.446 251.439 118.783 251.439 118.813 251.862Z" fill="white"/>
<path d="M301.883 194.997C291.911 207.094 281.97 219.161 271.999 231.258C287.633 235.149 303.268 239.041 318.903 242.932C319.415 236.446 319.536 223.203 312.336 209.357C309.082 203.082 305.196 198.376 301.883 194.997Z" fill="#5222D0"/>
<path d="M269.076 233.701C284.862 237.683 300.678 241.635 316.463 245.617C316.282 248.151 315.77 251.68 314.264 255.602C312.487 260.308 309.986 263.717 308.179 265.829C295.165 255.12 282.121 244.41 269.076 233.701Z" fill="#EC615B"/>
<path d="M266.757 287.368C295.756 287.368 319.265 263.232 319.265 233.46C319.265 203.687 295.756 179.552 266.757 179.552C237.758 179.552 214.249 203.687 214.249 233.46C214.249 263.232 237.758 287.368 266.757 287.368Z" stroke="#161616" stroke-width="3" stroke-miterlimit="10"/>
<path d="M267.42 232.314C267.54 232.193 267.841 232.283 267.902 232.434C267.932 232.314 267.932 232.193 267.962 232.072C267.932 232.133 267.841 232.102 267.811 232.072C267.57 231.982 267.329 232.163 267.269 232.374C267.209 232.615 267.359 232.857 267.57 232.917C267.932 233.038 268.353 232.947 268.594 232.676C268.896 232.374 268.805 231.952 268.534 231.68C268.052 231.197 267.299 231.167 266.817 231.62C266.335 232.042 266.968 232.706 267.42 232.314Z" fill="#161616"/>
<path d="M299.171 191.407C289.561 205.405 279.229 218.919 268.233 231.861C267.871 232.313 268.504 232.947 268.866 232.494C279.921 219.493 290.284 205.948 299.955 191.86C300.286 191.377 299.503 190.925 299.171 191.407Z" fill="#161616"/>
<path d="M267.781 232.887C284.772 235.934 301.642 239.523 318.391 243.686C318.964 243.837 319.204 242.962 318.632 242.812C301.883 238.679 285.013 235.059 268.022 232.012C267.45 231.921 267.209 232.796 267.781 232.887Z" fill="#161616"/>
<path d="M267.721 232.736C280.584 244.531 293.839 255.874 307.486 266.794C307.938 267.156 308.57 266.522 308.118 266.16C294.502 255.27 281.217 243.898 268.353 232.102C267.932 231.71 267.269 232.344 267.721 232.736Z" fill="#161616"/>
<path opacity="0.21" d="M266.787 179.673C267.902 184.65 268.655 191.739 265.913 198.979C259.678 215.511 241.572 216.325 234.704 229.81C230.968 237.14 230.035 249.267 241.844 270.384C241.844 273.943 241.844 277.473 241.844 281.033C238.349 279.072 234.493 276.417 230.788 272.797C216.719 259.011 214.55 241.002 214.098 234.154C214.129 229.206 214.821 213.128 226.661 198.768C229.342 195.51 238.861 184.349 255.068 180.759C259.798 179.733 263.895 179.582 266.787 179.673Z" fill="#6D6C6C"/>
<path d="M177.617 264.26C179.695 269.509 181.774 274.728 183.823 279.977C182.587 282.692 180.69 286.704 178.069 291.5C174.634 297.775 173.008 299.887 173.55 300.52C174.333 301.425 179.424 299.163 199.186 284.351C197.951 280.912 196.686 277.443 195.451 273.913C193.643 268.785 191.896 263.717 190.179 258.679C186.022 260.549 181.834 262.42 177.617 264.26Z" fill="#161616"/>
<path d="M233.167 172.312C236.511 178.014 234.131 186.852 233.8 188.029C231.962 194.877 227.805 195.54 212.562 209.99C203.012 219.07 200.271 222.751 198.252 226.793C195.511 232.344 194.517 237.502 194.125 241.002C195.361 248.242 196.596 255.451 197.831 262.691C194.668 264.743 190.239 267.186 184.576 268.906C180.599 270.112 176.984 270.716 174.002 270.987C171.23 263.958 167.254 250.987 169.393 235.21C171.983 215.993 182.136 203.414 190.571 192.976C203.404 177.109 218.255 166.822 230.968 160.185C230.546 162.447 230.305 165.706 231.571 169.145C232.173 170.774 232.836 171.739 233.167 172.312Z" fill="#EC615B"/>
<path opacity="0.2" d="M228.167 164.137C224.401 174.333 219.882 182.237 215.785 188.18C203.585 205.948 194.577 207.396 187.377 223.897C182.768 234.455 181.774 244.531 181.473 248.151C180.72 256.567 181.382 263.717 182.226 268.966C183.913 268.906 186.022 268.664 188.341 268.001C192.83 266.703 196.023 264.441 197.861 262.842C197.349 260.399 196.596 256.779 195.752 252.344C194.607 246.19 194.035 243.083 194.035 240.881C194.035 234.395 196.776 229.508 199.006 225.617C200.06 223.776 203.133 218.678 213.887 208.814C225.244 198.406 229.974 196.596 232.956 188.964C234.734 184.409 234.704 180.789 234.674 179.612C234.402 171.679 229.944 166.128 228.167 164.137Z" fill="#6D6C6C"/>
<path opacity="0.27" d="M234.643 182.086C228.468 187.275 219.641 195.028 209.489 204.983C194.758 219.463 192.137 223.686 190.992 225.798C187.799 231.68 182.316 245.074 187.739 267.428C189.516 266.704 191.354 265.889 193.282 264.954C194.818 264.2 196.294 263.415 197.68 262.661C196.475 255.602 195.27 248.543 194.065 241.454C194.155 238.799 194.577 234.817 196.355 230.383C196.776 229.327 198.011 226.401 201.114 222.178C203.585 218.799 205.964 216.506 210.634 212.072C214.369 208.512 217.984 204.771 221.87 201.393C228.859 195.329 231.992 193.67 233.679 188.994C234.674 186.249 234.734 183.745 234.643 182.086Z" fill="#6D6C6C"/>
<path d="M210.785 263.596C215.364 267.126 219.943 270.655 224.522 274.185C218.436 289.63 218.436 293.642 219.672 294.336C221.72 295.513 228.438 288.243 232.264 282.903C235.668 278.107 237.656 273.612 238.801 270.474C236.933 268.091 234.794 265.618 232.414 263.084C229.131 259.584 225.907 256.598 222.865 254.003C218.858 257.231 214.821 260.399 210.785 263.596Z" fill="#161616"/>
<path d="M257.78 172.312C260.461 179.431 258.834 186.309 258.412 188.029C255.34 200.819 243.922 211.378 239.885 215.058C232.987 221.393 227.263 224.561 224.07 233.007C222.955 235.903 222.503 238.467 222.323 240.217C224.522 245.255 226.721 250.293 228.92 255.301C227.474 258.408 224.311 264.139 217.924 268.514C215.213 270.384 212.562 271.53 210.393 272.284C205.814 267.608 193.403 253.732 194.065 235.179C194.577 220.941 202.621 209.477 208.827 200.578C215.062 191.679 216.659 192.765 224.522 181.392C231.33 171.528 232.625 167.033 238.349 165.042C244.103 163.021 252.538 164.137 256.243 169.144C256.966 170.2 257.298 171.075 257.78 172.312Z" fill="#EC615B"/>
<path opacity="0.24" d="M243.772 170.954C244.103 173.73 244.344 178.496 242.958 183.986C238.138 202.66 220.485 204.289 211.99 224.5C210.333 228.452 206.477 238.015 209.519 249.086C211.869 257.714 217.352 263.325 220.455 266.04C221.66 265.406 223.648 264.139 225.395 261.907C227.564 259.132 228.257 256.296 228.498 254.878C226.359 249.72 224.22 244.531 222.112 239.372C222.503 237.08 223.317 233.792 225.215 230.262C227.805 225.375 230.938 222.901 234.975 219.251C242.386 212.584 247.115 208.361 251.212 202.539C253.803 198.829 257.569 193.368 258.804 185.374C259.828 178.858 258.744 173.398 257.81 170.11C253.14 170.411 248.441 170.683 243.772 170.954Z" fill="#6D6C6C"/>
<path opacity="0.25" d="M259.105 180.638C256.725 185.012 252.628 191.83 246.302 199.13C234.132 213.158 225.877 216.084 220.214 226.883C217.774 231.529 215.544 239.192 218.286 251.5C221.75 252.887 225.245 254.275 228.709 255.693C226.51 250.504 224.341 245.345 222.142 240.157C222.353 237.593 222.985 233.792 225.124 229.87C227.022 226.371 229.131 224.531 233.77 220.307C241.452 213.309 245.308 209.809 246.874 208.06C250.459 204.108 254.376 199.673 256.846 192.825C258.653 187.969 259.045 183.594 259.105 180.638Z" fill="#6D6C6C"/>
<path d="M185.781 130.26C184.967 128.45 183.552 125.825 180.961 123.442C177.707 120.455 173.158 118.314 172.435 119.188C172.134 119.55 172.164 120.817 177.647 126.881" fill="white"/>
<path d="M185.781 130.26C184.967 128.45 183.552 125.825 180.961 123.442C177.707 120.455 173.158 118.314 172.435 119.188C172.134 119.55 172.164 120.817 177.647 126.881" stroke="#161616" stroke-width="2" stroke-miterlimit="10"/>
<path d="M174.424 125.312C173.249 126.036 171.17 127.575 170.055 130.23C169.634 131.255 169.091 132.583 169.483 134.121C170.176 136.776 173.369 137.892 173.64 138.012C174.936 138.465 175.267 138.133 176.201 138.676C177.707 139.551 177.647 140.728 178.762 141.814C181.051 144.016 185.69 143.141 185.901 142.206C186.022 141.693 184.696 141.21 184.817 140.275C184.877 139.702 185.449 139.461 185.841 139.099C187.95 137.168 185.931 131.527 185.57 130.591C185.238 129.717 184.726 128.45 183.823 127.032" fill="white"/>
<path d="M174.424 125.312C173.249 126.036 171.17 127.575 170.055 130.23C169.634 131.255 169.091 132.583 169.483 134.121C170.176 136.776 173.369 137.892 173.64 138.012C174.936 138.465 175.267 138.133 176.201 138.676C177.707 139.551 177.647 140.728 178.762 141.814C181.051 144.016 185.69 143.141 185.901 142.206C186.022 141.693 184.696 141.21 184.817 140.275C184.877 139.702 185.449 139.461 185.841 139.099C187.95 137.168 185.931 131.527 185.57 130.591C185.238 129.717 184.726 128.45 183.823 127.032" stroke="#161616" stroke-width="2" stroke-miterlimit="10"/>
<path d="M168.971 133.729C169.664 135.539 170.989 137.138 172.827 137.862C174.695 138.616 176.081 137.62 176.111 135.629C176.111 135.056 175.207 135.056 175.207 135.629C175.177 137.952 172.887 137.107 171.743 136.172C170.869 135.478 170.236 134.543 169.845 133.487C169.634 132.944 168.76 133.156 168.971 133.729Z" fill="#161616"/>
<path d="M171.231 131.255C172.134 132.944 173.339 134.815 175.207 135.509C176.894 136.142 177.888 135.116 178.069 133.518C178.129 132.944 177.225 132.944 177.165 133.518C176.894 135.901 174.574 134.242 173.761 133.397C173.038 132.643 172.496 131.738 172.014 130.803C171.743 130.29 170.959 130.742 171.231 131.255Z" fill="#161616"/>
<path d="M173.942 127.183C174.484 128.389 175.026 129.626 175.779 130.712C176.291 131.466 177.014 132.552 178.009 132.733C180.358 133.186 179.605 129.837 179.153 128.691C178.942 128.148 178.069 128.389 178.28 128.932C178.491 129.445 178.942 130.501 178.762 131.074C178.25 132.733 176.864 130.682 176.563 130.26C175.809 129.174 175.267 127.937 174.725 126.73C174.484 126.187 173.701 126.64 173.942 127.183Z" fill="#161616"/>
<path d="M174.393 125.825C175.297 125.373 176.412 126.187 177.044 126.79C177.677 127.394 178.099 128.178 178.43 128.962C178.641 129.505 179.515 129.264 179.304 128.721C178.551 126.851 176.321 123.864 173.942 125.041C173.429 125.282 173.881 126.066 174.393 125.825Z" fill="#161616"/>
<path d="M239.735 116.564C240.699 119.43 239.223 121.873 235.095 129.234C228.167 141.482 227.745 142.568 226.148 144.498C222.383 149.023 220.244 151.587 216.297 153.247C209.097 156.263 201.114 153.609 196.746 151.949C192.679 150.381 189.667 148.36 187.709 146.851C186.383 145.765 185.359 144.921 184.696 144.408C183.31 143.292 182.678 142.809 182.136 141.844C182.105 141.813 181.593 140.878 181.473 139.822C181.021 136.595 184.214 133.88 184.455 133.668C180.629 134.573 179.304 134.392 179.063 133.849C178.491 132.643 182.648 128.208 185.57 129.204C186.956 129.656 187.648 131.225 188.161 132.371C189.155 134.543 189.034 136.564 188.914 137.59C190.751 138.857 193.372 140.335 196.716 141.331C203.313 143.261 208.977 142.236 211.779 141.512C213.315 139.038 215.815 134.996 218.858 129.958C227.172 116.142 229.372 111.767 233.197 111.707C236.059 111.677 238.891 114.06 239.735 116.564Z" fill="white" stroke="#161616" stroke-width="2" stroke-miterlimit="10"/>
<path d="M184.184 134.453C181.594 134.332 181.232 137.681 180.901 139.581C181.202 139.611 181.503 139.672 181.774 139.702C181.804 138.495 182.347 137.5 182.919 136.474C183.22 135.961 182.437 135.509 182.136 136.021C180.961 137.922 180.238 140.275 181.865 142.145C182.076 141.934 182.286 141.723 182.497 141.512C182.045 141.12 181.804 140.607 181.774 139.973C181.473 140.003 181.172 140.064 180.901 140.094C181.051 140.577 181.232 141.029 181.473 141.482C181.744 141.994 182.527 141.542 182.256 141.029C182.045 140.667 181.865 140.275 181.774 139.853C181.654 139.37 180.84 139.46 180.901 139.973C180.991 140.848 181.262 141.512 181.895 142.145C182.317 142.568 182.919 141.934 182.527 141.512C181.202 139.973 182.045 138.012 182.949 136.474C182.678 136.323 182.437 136.172 182.166 136.021C181.503 137.198 180.931 138.314 180.901 139.702C180.871 140.215 181.714 140.335 181.774 139.822C182.015 138.435 182.226 135.297 184.184 135.358C184.757 135.388 184.757 134.483 184.184 134.453Z" fill="white"/>
<path opacity="0.21" d="M235.126 112.944C233.228 118.042 230.155 125.312 225.305 133.548C220.364 141.964 217.774 146.188 213.315 148.42C204.157 152.975 190.029 149.898 185.269 141.18C183.823 138.525 183.491 135.84 183.491 133.819C182.347 134.211 180.569 134.634 178.852 133.97C174.996 132.432 174.635 126.67 172.586 126.73C171.231 126.79 170.236 129.355 169.875 130.29C169.544 131.134 169.001 132.522 169.333 133.97C169.815 136.112 172.074 137.801 174.906 138.344C176.382 139.068 177.316 139.883 177.888 140.516C178.882 141.602 179.153 142.447 180.208 142.96C181.142 143.412 182.136 143.352 182.799 143.231C184.214 144.378 186.444 146.097 189.336 147.877C195.541 151.678 203.043 156.263 211.538 154.695C215.544 153.971 218.286 152.13 219.973 151.014C222.714 149.174 225.666 146.399 231.27 136.293C233.589 132.1 236.451 126.519 239.313 119.641C239.434 119.339 240.096 117.559 239.162 115.689C238.018 113.215 235.276 112.944 235.126 112.944Z" fill="#6D6C6C"/>
<path opacity="0.22" d="M178.129 133.91C177.707 134.211 177.888 134.815 177.376 135.267C177.015 135.569 176.533 135.569 176.231 135.569C176.231 135.991 176.171 136.534 175.84 137.017C175.418 137.62 174.846 137.741 174.876 137.982C174.936 138.254 175.779 138.103 176.593 138.555C177.165 138.887 177.527 139.4 177.738 139.792C179.726 137.892 181.714 136.021 183.702 134.121C182.196 134.694 181.081 134.604 180.328 134.423C179.364 134.121 178.641 133.548 178.129 133.91Z" fill="#6D6C6C"/>
<path d="M239.494 110.651C237.475 112.672 236.421 114.965 234.373 119.55C232.746 123.14 230.125 129.143 229.251 137.138C228.287 146.067 230.547 148.088 228.739 154.725C227.384 159.733 224.823 163.413 222.925 165.645C225.365 168.089 229.794 171.86 236.391 174.182C247.567 178.104 257.388 175.148 260.611 174.001C263.293 166.761 265.944 159.521 268.625 152.311C268.655 146.188 268.896 140.969 269.137 136.926C269.739 127.273 270.733 119.882 271.366 115.387C272.089 110.108 272.842 105.674 273.415 102.416C266.636 102.778 261.033 103.562 257.027 104.286C243.892 106.7 240.789 109.354 239.494 110.651Z" fill="white" stroke="#161616" stroke-width="2" stroke-miterlimit="10"/>
<path opacity="0.19" d="M255.46 104.497C256.816 107.725 258.563 112.944 258.954 119.49C259.888 135.056 252.387 147.244 246.694 156.475C244.103 160.668 240.096 166.49 234.162 172.795C236.451 174.001 239.735 175.359 243.862 176.022C251.333 177.229 257.418 175.419 260.431 174.273C262.961 166.973 265.461 159.702 267.992 152.402C268.143 147.425 268.414 142.266 268.805 137.017C269.709 124.769 271.185 113.276 272.993 102.597C267.149 103.23 261.304 103.864 255.46 104.497Z" fill="#6D6C6C"/>
<path opacity="0.11" d="M260.853 103.562C263.022 109.173 265.281 117.348 264.769 127.183C263.323 154.544 241.693 171.105 237.958 173.881C240.247 174.695 243.35 175.54 247.116 175.781C252.719 176.143 257.268 174.997 260.069 174.032C262.841 166.731 265.642 159.461 268.414 152.161C268.414 145.494 268.655 138.375 269.227 130.833C270.011 120.667 271.306 111.255 272.872 102.748C268.866 103.019 264.859 103.291 260.853 103.562Z" fill="#6D6C6C"/>
<path d="M272.3 102.024C274.74 102.929 278.325 104.678 280.916 108.208C283.808 112.16 284.44 116.926 282.783 132.04C281.247 146.097 279.921 149.114 279.409 157.561C278.837 166.852 279.711 174.454 280.524 179.311C283.958 178.496 287.392 177.682 290.827 176.867C294.562 177.863 296.822 179.703 297.936 180.819C299.051 181.905 301.401 184.198 300.738 186.068C300.316 187.275 298.78 187.878 298.117 188.119C296.822 188.632 295.737 188.572 294.562 188.481C292.062 188.331 289.561 188.24 287.061 188.119C285.766 188.059 283.898 187.999 281.639 188.119C284.681 190.744 285.977 192.433 285.585 193.187C285.043 194.183 281.428 193.489 274.71 191.136C274.409 188.692 273.927 184.982 273.204 180.457C271.336 168.632 269.98 164.408 269.076 158.134C268.143 151.648 268.444 145.796 269.076 134.121C269.558 125.855 270.432 114.935 272.3 102.024Z" fill="white" stroke="#161616" stroke-width="2" stroke-miterlimit="10"/>
<path d="M286.278 184.107C288.597 183.142 291.007 183.685 293.237 184.68C295.135 185.495 297.002 186.49 298.478 187.938C298.9 188.331 299.533 187.697 299.111 187.305C297.394 185.646 295.255 184.529 293.056 183.655C290.797 182.719 288.356 182.297 286.007 183.262C285.525 183.443 285.766 184.318 286.278 184.107Z" fill="#161616"/>
<path d="M289.23 181.332C293.237 180.547 297.996 182.931 300.195 186.339C300.527 186.822 301.31 186.37 300.979 185.887C298.508 182.116 293.447 179.612 288.989 180.487C288.417 180.578 288.658 181.452 289.23 181.332Z" fill="#161616"/>
<path d="M292.694 179.25C294.291 179.311 295.677 180.005 297.063 180.759C297.575 181.03 298.027 180.246 297.514 179.974C295.978 179.16 294.442 178.406 292.694 178.345C292.122 178.315 292.122 179.22 292.694 179.25Z" fill="#161616"/>
<path opacity="0.16" d="M272.721 102.748C274.228 106.156 276.367 111.707 277.451 118.826C280.072 136.263 273.625 145.343 274.77 164.197C275.041 168.873 275.915 175.841 278.686 184.318C281.096 183.534 284.771 182.75 289.079 183.232C292.122 183.594 293.628 183.775 295.134 184.861C296.641 185.947 297.514 187.395 299.051 187.305C299.653 187.275 300.467 187.003 300.798 186.37C301.611 184.891 299.382 182.357 298.629 181.513C297.544 180.276 295.315 178.164 291.218 176.927C287.663 177.651 284.109 178.375 280.554 179.099C279.861 176.022 278.897 170.894 278.807 164.529C278.716 159.099 279.68 152.523 281.638 139.551C282 137.138 282.452 132.281 283.386 122.537C283.687 119.339 283.928 116.473 282.843 112.944C282.301 111.164 280.976 107.122 277.059 104.588C275.403 103.442 273.806 102.989 272.721 102.748Z" fill="#6D6C6C"/>
<path opacity="0.22" d="M279.319 187.938C279.71 188.904 280.554 190.563 282.271 191.86C283.325 192.644 285.163 193.61 285.494 193.217C285.916 192.735 284.32 190.08 281.849 188.753C280.915 188.24 279.982 188.029 279.319 187.938Z" fill="#6D6C6C"/>
<path opacity="0.4" d="M282.693 127.575C279.951 135.116 276.668 147.213 277.572 162.146C278.023 169.778 279.5 176.354 281.066 181.573C279.5 175.6 279.048 170.653 278.897 167.274C278.536 158.254 280.162 153.186 281.849 136.625C282.271 132.794 282.542 129.626 282.693 127.575Z" fill="#6D6C6C"/>
<path opacity="0.22" d="M288.778 180.638C288.718 180.276 291.73 178.888 294.713 179.552C298.719 180.457 300.587 184.68 300.919 185.495C299.503 183.896 297.213 181.814 293.899 181.03C291.098 180.397 288.808 180.94 288.778 180.638Z" fill="#6D6C6C"/>
<path d="M228.408 95.8395C227.143 97.016 226.871 99.4897 226.359 104.346C225.787 109.927 225.546 112.763 226.721 114.181C228.86 116.775 233.469 116.926 236.662 115.508C240.428 113.819 241.723 110.169 242.054 109.264C243.531 105.07 243.049 98.7355 238.59 95.8395C235.578 93.8485 230.908 93.5167 228.408 95.8395Z" fill="#5222D0"/>
<path d="M234.915 100.244C235.367 102.416 237.777 102.597 239.825 106.066C241.301 108.57 241.602 111.134 241.633 112.974C243.47 112.944 246.874 112.582 250.55 110.681C253.411 109.173 255.339 107.273 256.454 105.975C255.701 104.739 254.586 102.929 253.261 100.757C247.537 91.5558 246.694 90.8318 245.549 90.5302C240.91 89.414 234.041 96.2015 234.915 100.244Z" fill="white" stroke="#161616" stroke-width="2" stroke-miterlimit="10"/>
<path d="M244.284 96.5937C242.898 99.5198 241.482 102.416 239.554 105.04C239.795 105.01 240.036 104.98 240.277 104.95C240.096 104.739 239.916 104.497 239.765 104.286C239.735 104.467 239.705 104.648 239.705 104.829C240.488 104.165 241.091 103.441 241.633 102.567C241.362 102.416 241.121 102.265 240.85 102.114C240.428 103.019 239.886 103.562 239.012 103.954C239.193 104.196 239.373 104.437 239.554 104.678C241.121 103.2 242.537 101.571 243.802 99.8215C244.133 99.3388 243.35 98.8863 243.019 99.369C241.814 101.058 240.428 102.627 238.922 104.045C238.53 104.407 239.042 104.95 239.464 104.769C240.458 104.316 241.181 103.592 241.633 102.597C241.874 102.084 241.181 101.632 240.85 102.144C240.337 102.929 239.765 103.592 239.072 104.226C238.922 104.346 238.891 104.618 239.012 104.769C239.283 105.191 239.313 105.252 239.675 105.614C239.886 105.855 240.217 105.734 240.398 105.523C242.326 102.929 243.742 100.002 245.127 97.0763C245.308 96.5333 244.525 96.0808 244.284 96.5937Z" fill="#161616"/>
<path d="M215.093 73.4257C213.707 75.9898 214.038 78.5842 214.701 83.6522C215.484 89.3838 216.508 94.1803 217.744 97.3478C217.924 97.8305 218.406 98.102 218.918 98.0417C219.581 97.9813 220.575 97.4685 221.148 97.2875C221.871 98.5847 223.076 100.334 224.943 101.963C228.649 105.161 232.716 105.915 234.523 106.126C236.301 105.463 240.699 103.502 243.621 98.7958C245.549 95.6585 245.941 92.7625 246.031 92.0988C246.543 87.7548 245.097 84.3762 244.404 82.9885C245.037 82.5963 246.001 81.9025 246.664 80.726C248.049 78.2825 247.989 74.2402 245.79 73.1542C244.133 72.3397 241.512 73.2447 239.735 75.5675C239.162 74.572 238.289 73.2447 236.963 71.9173C236.632 71.5855 234.192 69.1118 231.42 67.9957C225.998 65.8538 217.924 68.2068 215.093 73.4257Z" fill="white" stroke="#161616" stroke-width="2" stroke-miterlimit="10"/>
<path d="M223.046 100.063C225.124 99.5198 226.329 97.7702 227.384 96.0507C227.685 95.568 226.902 95.1155 226.6 95.5982C225.666 97.1065 224.612 98.7053 222.805 99.2182C222.232 99.3388 222.473 100.214 223.046 100.063Z" fill="#161616"/>
<path d="M225.787 95.9903C226.389 96.0205 226.871 96.2618 227.263 96.7143C227.655 97.1668 228.287 96.5032 227.896 96.0808C227.353 95.4473 226.6 95.1155 225.787 95.0853C225.184 95.0853 225.184 95.9903 225.787 95.9903Z" fill="#161616"/>
<path d="M223.498 91.0128C223.498 90.9827 223.498 90.9525 223.498 90.9223C223.498 90.681 223.287 90.4698 223.046 90.4698C222.805 90.4698 222.594 90.681 222.594 90.9223C222.594 90.9525 222.594 90.9827 222.594 91.0128C222.594 91.2542 222.805 91.4653 223.046 91.4653C223.287 91.4352 223.498 91.2542 223.498 91.0128Z" fill="#161616"/>
<path d="M225.516 88.5995C226.088 88.5995 226.088 87.6945 225.516 87.6945C224.943 87.6945 224.943 88.5995 225.516 88.5995Z" fill="#161616"/>
<path d="M225.245 90.8922C225.817 90.8922 225.817 89.9872 225.245 89.9872C224.672 89.9872 224.672 90.8922 225.245 90.8922Z" fill="#161616"/>
<path d="M213.797 83.7125C212.833 83.3807 210.785 82.5058 209.61 80.4847C207.772 77.3473 209.248 73.6972 209.971 71.9777C210.363 71.0123 211.447 68.6292 216.689 63.9533C220.666 60.3635 222.684 58.5837 224.943 57.5882C233.017 54.0587 241.271 57.4373 242.777 58.0708C245.007 58.9758 246.633 60.092 249.857 62.264C253.773 64.9187 256.273 66.6382 258.232 69.5945C260.611 73.2145 259.165 74.1497 261.214 78.2222C264.467 84.6778 268.956 83.8935 271.637 89.8665C272.089 90.862 274.589 96.4127 271.758 101.269C269.438 105.221 264.708 106.639 261.214 106.549C254.737 106.368 250.67 100.817 248.531 97.921C244.464 92.4005 243.681 86.5482 243.5 83.4108C246.061 82.1137 247.055 79.3383 246.121 77.4077C245.398 75.8692 243.29 74.572 241.452 75.3563C240.187 75.8993 239.373 77.3473 239.403 78.9462C238.198 79.1573 234.493 79.6098 230.667 77.4982C227.835 75.9597 226.299 73.7877 225.636 72.7017C223.949 73.3653 221.238 74.6323 218.557 77.1362C215.996 79.5495 214.55 82.0835 213.797 83.7125Z" fill="#5222D0"/>
<path opacity="0.24" d="M233.439 85.4622C236.782 88.5995 238.409 92.0687 238.921 93.2452C241.03 98.0718 240.91 102.506 240.699 104.769C241.783 102.929 242.838 101.088 243.922 99.2182C245.669 103.14 247.386 107.061 249.134 110.953C250.068 110.742 251.905 110.199 253.683 108.63C255.038 107.423 255.761 106.126 256.123 105.312C253.592 103.502 248.622 99.3992 245.73 92.3402C244.344 88.9615 243.802 85.8242 243.621 83.4712C246.061 82.1438 247.085 79.4892 246.272 77.4982C245.699 76.0502 243.922 74.4212 241.964 74.9642C240.307 75.4167 239.162 77.1965 239.433 79.1875C238.168 79.3383 235.156 79.5495 231.812 78.0713C228.347 76.5328 226.45 74.029 225.727 72.9732C226.54 78.3127 228.588 81.2087 230.306 82.8678C231.39 83.984 231.842 83.984 233.439 85.4622Z" fill="#6D6C6C"/>
<path opacity="0.24" d="M243.681 86.9102C243.47 86.9102 243.591 90.0173 243.29 92.8832C242.898 96.5635 241.813 99.4897 240.91 101.45C241.723 100.938 242.928 99.9723 243.982 98.464C245.489 96.2618 245.76 94.0898 245.85 93.034C245.579 92.6117 245.218 92.0083 244.886 91.2542C243.832 88.8408 243.862 86.9102 243.681 86.9102Z" fill="#6D6C6C"/>
<path opacity="0.19" d="M244.736 97.378C245.459 98.1322 246.483 99.1277 247.808 100.214C251.815 103.562 255.701 105.463 255.822 105.251C255.942 105.04 252.146 103.502 249.254 99.3388C247.447 96.7445 246.392 93.6675 245.941 93.8183C245.73 93.8787 245.91 94.6027 245.549 95.7792C245.308 96.473 244.977 97.016 244.736 97.378Z" fill="#6D6C6C"/>
<path opacity="0.74" d="M248.079 61.1478C251.634 67.3018 254.165 72.6715 255.882 76.6535C260.672 87.8453 260.28 90.9223 259.617 92.9133C258.141 97.4082 254.044 99.9422 251.604 101.149C252.206 101.993 254.707 105.342 259.286 106.277C260.159 106.458 265.431 107.454 269.438 103.803C272.42 101.119 272.872 97.559 272.963 96.6238C273.505 91.5558 270.492 87.7548 269.528 86.6688C268.263 85.251 267.992 85.5828 265.04 82.717C262.75 80.5148 261.636 79.3987 260.973 78.011C259.918 75.7485 260.611 74.7832 259.376 71.9173C258.713 70.3487 257.93 69.2928 257.358 68.4783C254.436 64.5265 250.218 62.2037 248.079 61.1478Z" fill="#2C167C"/>
<path opacity="0.52" d="M226.661 105.945C226.932 109.445 230.125 111.979 233.469 111.496C236.692 111.013 239.012 107.876 238.439 104.527C239.042 105.221 239.885 106.368 240.488 107.936C240.97 109.173 241.151 110.289 241.211 111.104C240.759 111.858 238.409 115.599 234.011 116.323C233.258 116.443 228.98 117.077 226.962 114.513C225.998 113.246 225.907 111.707 225.847 110.47C225.787 108.449 226.299 106.85 226.661 105.945Z" fill="#2C167C"/>
<path d="M220.997 86.0353C221.298 86.6387 221.298 87.5135 220.907 87.6945C220.515 87.9057 219.762 87.3325 219.491 86.6688C219.28 86.0957 219.34 85.2812 219.732 85.1303C220.154 84.9795 220.756 85.5225 220.997 86.0353Z" fill="#161616"/>
<path d="M218.527 85.3415C219.581 84.9795 220.666 84.708 221.78 84.527C222.202 84.4667 222.021 83.803 221.599 83.8633C220.485 84.0443 219.4 84.3158 218.346 84.6778C217.924 84.8287 218.105 85.4622 218.527 85.3415Z" fill="#161616"/>
</svg>
