<svg width="482" height="362" viewBox="0 0 482 362" fill="none" xmlns="http://www.w3.org/2000/svg">
<path d="M104.443 303.567C115.138 303.567 125.832 303.567 136.527 303.567C137.099 303.567 137.099 302.662 136.527 302.662C125.832 302.662 115.138 302.662 104.443 302.662C103.871 302.662 103.871 303.567 104.443 303.567Z" fill="#161616"/>
<path d="M138.455 312.315C161.139 312.315 183.793 312.315 206.477 312.315C207.049 312.315 207.049 311.41 206.477 311.41C183.793 311.41 161.139 311.41 138.455 311.41C137.882 311.41 137.882 312.315 138.455 312.315Z" fill="#161616"/>
<path d="M224.943 304.05C247.085 304.05 269.197 304.05 291.339 304.05C313.36 304.05 335.412 304.05 357.433 304.05C369.965 304.05 382.467 304.05 394.999 304.05C395.571 304.05 395.571 303.145 394.999 303.145C372.857 303.145 350.745 303.145 328.604 303.145C306.582 303.145 284.531 303.145 262.509 303.145C249.977 303.145 237.475 303.145 224.943 303.145C224.371 303.145 224.371 304.05 224.943 304.05Z" fill="#161616"/>
<path d="M323.091 297.715C348.817 297.715 374.544 297.715 400.271 297.715C407.591 297.715 414.882 297.715 422.202 297.715C422.774 297.715 422.774 296.81 422.202 296.81C396.475 296.81 370.748 296.81 345.022 296.81C337.701 296.81 330.411 296.81 323.091 296.81C322.518 296.81 322.518 297.715 323.091 297.715Z" fill="#161616"/>
<path d="M374.122 313.763C396.897 313.763 419.702 313.763 442.476 313.763C449.013 313.763 455.52 313.763 462.057 313.763C462.63 313.763 462.63 312.858 462.057 312.858C439.283 312.858 416.478 312.858 393.704 312.858C387.167 312.858 380.66 312.858 374.122 312.858C373.52 312.858 373.52 313.763 374.122 313.763Z" fill="#161616"/>
<path d="M379.274 23.5602C385.389 26.5467 387.317 33.6057 388.01 39.8502C388.944 48.2365 388.733 56.8943 388.673 65.3108C388.552 83.7125 387.468 102.114 386.474 120.486C384.515 157.198 382.527 193.911 380.569 230.624C379.455 251.288 378.34 271.952 377.255 292.617C377.225 293.19 378.129 293.19 378.159 292.617C380.178 255.089 382.196 217.562 384.184 180.065C385.178 161.392 386.172 142.749 387.197 124.075C388.191 105.493 389.335 86.9102 389.576 68.2973C389.637 63.1087 389.637 57.92 389.516 52.7012C389.426 48.2667 389.396 43.802 388.884 39.3977C388.1 32.9722 386.022 25.7925 379.756 22.7457C379.213 22.5345 378.762 23.3188 379.274 23.5602Z" fill="#E8E8E8"/>
<path d="M363.458 17.5872C370.327 18.7335 376.773 21.3882 382.467 25.3702C382.949 25.702 383.401 24.9177 382.919 24.5858C377.165 20.5737 370.598 17.8888 363.699 16.7123C363.127 16.5917 362.886 17.4665 363.458 17.5872Z" fill="#E8E8E8"/>
<path d="M336.798 8.77849C346.166 9.74382 356.258 10.9807 363.458 17.7078C363.88 18.1 364.513 17.4665 364.091 17.0743C356.71 10.1662 346.438 8.86899 336.798 7.87349C336.195 7.81316 336.225 8.71816 336.798 8.77849Z" fill="#E8E8E8"/>
<path d="M363.247 17.738C361.952 27.3913 356.62 36.2905 348.697 41.9316C348.215 42.2635 348.667 43.0478 349.149 42.716C357.373 36.8335 362.826 27.7533 364.151 17.738C364.241 17.1648 363.338 17.1648 363.247 17.738Z" fill="#E8E8E8"/>
<path d="M336.225 8.26567C344.118 17.8587 348.366 30.1365 348.125 42.5652C348.125 43.1383 349.028 43.1383 349.028 42.5652C349.239 29.8952 344.901 17.4062 336.858 7.63217C336.496 7.17967 335.864 7.81317 336.225 8.26567Z" fill="#E8E8E8"/>
<path d="M340.955 18.7938C337.34 18.5525 333.996 23.1076 335.743 26.4863C337.039 28.9901 341.949 30.3175 343.666 27.6025C343.967 27.1198 343.184 26.6673 342.883 27.15C341.527 29.322 337.31 27.8438 336.496 25.883C335.291 23.0473 338.063 19.4876 340.985 19.6988C341.527 19.729 341.527 18.824 340.955 18.7938Z" fill="#E8E8E8"/>
<path d="M335.984 8.08466C336.316 12.308 336.978 16.5012 338.003 20.6038C338.153 21.177 339.027 20.9357 338.876 20.3625C337.882 16.3202 337.219 12.2175 336.888 8.08466C336.828 7.51149 335.924 7.51149 335.984 8.08466Z" fill="#E8E8E8"/>
<path d="M341.617 29.2315C343.606 33.7565 345.594 38.2815 347.552 42.8065C347.793 43.3495 348.576 42.8668 348.335 42.354C346.347 37.829 344.359 33.304 342.401 28.779C342.19 28.2662 341.407 28.7187 341.617 29.2315Z" fill="#E8E8E8"/>
<path d="M341.859 28.8393C343.033 32.218 344.238 35.5967 346.076 38.7038C346.377 39.2167 347.13 38.7642 346.859 38.2513C345.233 35.2045 344.058 32.0068 343.305 28.6583C343.064 28.8092 342.792 28.96 342.551 29.1108C342.582 29.141 342.582 29.141 342.612 29.1712C342.582 28.9902 342.551 28.8092 342.551 28.6282C342.521 28.6583 342.521 28.6885 342.491 28.7187C342.732 28.6885 342.973 28.6583 343.214 28.6282C343.184 28.5678 345.865 26.1243 346.046 25.9735C345.805 25.9132 345.534 25.8528 345.293 25.7623C345.925 28.5075 346.347 31.2828 346.618 34.0883C346.92 34.0582 347.221 33.9978 347.492 33.9677C346.98 32.0068 346.317 30.0762 345.534 28.2058C345.323 27.693 344.54 27.874 344.66 28.4472C345.172 30.8907 345.654 33.3342 346.166 35.8078C346.468 35.7173 346.739 35.657 347.04 35.5665C346.377 33.5152 345.654 31.5242 344.841 29.5332C344.63 28.9902 343.817 29.2013 343.967 29.7745C344.57 32.037 345.172 34.3297 345.775 36.5922C346.046 36.4715 346.317 36.3508 346.588 36.2302C345.745 34.2693 344.931 32.3085 344.088 30.3175C343.877 29.865 343.094 30.1968 343.274 30.6795C344.479 33.9375 345.684 37.1955 346.829 40.4837C347.01 41.0267 347.853 40.8155 347.703 40.2423C347.251 38.6435 346.92 37.0145 346.769 35.3553C346.468 35.3855 346.166 35.4458 345.895 35.476C346.438 37.3463 346.98 39.2167 347.522 41.087C347.673 41.6602 348.516 41.4188 348.396 40.8457C347.914 38.734 347.582 36.5922 347.371 34.4202C347.07 34.4503 346.769 34.5107 346.498 34.5408C346.889 36.743 347.251 38.9452 347.793 41.1172C347.914 41.5998 348.727 41.5093 348.667 40.9965C348.426 38.2815 347.974 35.5967 347.311 32.942C347.161 32.3688 346.317 32.6102 346.438 33.1833C346.648 34.1185 346.648 35.0235 346.528 35.9888C346.799 35.8983 347.1 35.838 347.371 35.7475C346.618 34.4503 346.136 33.123 345.956 31.6448C345.895 31.1923 345.383 31.0113 345.112 31.4035C344.901 31.7052 344.72 32.0068 344.51 32.3085C344.781 32.3085 345.022 32.3085 345.293 32.3085C344.901 31.4035 344.751 30.5588 344.781 29.5633C344.479 29.5633 344.178 29.5633 343.877 29.5633C343.817 29.7745 343.756 29.9857 343.696 30.1968C343.937 30.2572 344.208 30.3175 344.449 30.408C344.299 29.6237 344.299 29.0203 344.359 28.2662C344.058 28.2963 343.756 28.3567 343.485 28.3868C343.425 28.7187 343.395 29.0505 343.335 29.3823C343.606 29.3823 343.847 29.3823 344.118 29.3823C344.238 28.96 344.389 28.5377 344.51 28.1153C344.299 28.0248 344.058 27.9343 343.847 27.8438C343.696 28.3265 343.546 28.8092 343.395 29.2918C343.636 29.4427 343.907 29.5935 344.148 29.7443C344.359 28.779 344.781 28.0852 345.504 27.3913C345.263 27.331 344.992 27.2707 344.751 27.1802C344.871 27.9947 344.781 28.6583 344.51 29.4427C344.811 29.4728 345.112 29.5332 345.383 29.5633C345.383 28.8997 345.474 28.3265 345.715 27.693C345.413 27.6628 345.112 27.6025 344.841 27.5723C344.841 28.1153 344.871 28.6583 344.871 29.2013C344.871 29.684 345.684 29.8348 345.745 29.322C345.835 28.779 345.925 28.236 346.016 27.693C345.715 27.693 345.443 27.693 345.142 27.693C345.142 27.9947 345.112 28.2963 345.112 28.6282C344.871 29.1712 345.654 29.6237 345.895 29.0807C346.166 28.4773 346.227 28.1153 346.016 27.4517C345.895 27.0595 345.233 26.9992 345.142 27.4517C345.052 27.9947 344.961 28.5377 344.871 29.0807C345.172 29.1108 345.474 29.1712 345.745 29.2013C345.745 28.6583 345.715 28.1153 345.715 27.5723C345.715 27.0595 344.992 26.969 344.841 27.4517C344.57 28.1757 344.479 28.8092 344.479 29.5633C344.479 30.0762 345.202 30.1667 345.353 29.684C345.684 28.7488 345.745 27.9343 345.594 26.9388C345.534 26.5768 345.052 26.5467 344.841 26.7277C344.028 27.4818 343.515 28.3868 343.244 29.4728C343.154 29.8952 343.666 30.2572 343.997 29.9253C344.63 29.2315 344.841 28.5377 344.66 27.6025C344.6 27.331 344.208 27.1802 343.997 27.331C343.094 27.9343 342.853 28.8393 343.274 29.8348C343.425 30.1667 343.877 30.0762 344.058 29.8348C344.449 29.2617 344.51 28.779 344.299 28.1455C344.118 27.6327 343.455 27.7533 343.425 28.2662C343.335 29.0807 343.395 29.8348 343.546 30.6493C343.606 30.9812 344.088 31.0717 344.299 30.8605C344.66 30.4683 344.811 30.1667 344.751 29.5935C344.69 29.0203 343.847 28.9902 343.847 29.5935C343.817 30.7398 344.028 31.7353 344.479 32.7912C344.63 33.123 345.082 33.0325 345.263 32.7912C345.474 32.4895 345.654 32.1878 345.865 31.8862C345.594 31.7957 345.293 31.7353 345.022 31.6448C345.233 33.304 345.715 34.7822 346.558 36.2C346.799 36.6223 347.341 36.381 347.402 35.9587C347.552 34.9028 347.492 33.9677 347.281 32.9118C346.98 33.0023 346.709 33.0627 346.407 33.1532C347.07 35.7173 347.492 38.3418 347.733 40.9663C348.034 40.9362 348.335 40.8758 348.607 40.8457C348.094 38.6737 347.703 36.4715 347.311 34.2693C347.221 33.7565 346.377 33.8772 346.438 34.39C346.648 36.6525 346.98 38.8547 347.492 41.0568C347.793 40.9663 348.064 40.906 348.366 40.8155C347.823 38.9452 347.281 37.0748 346.739 35.2045C346.588 34.7218 345.805 34.8123 345.865 35.3252C346.046 37.0748 346.347 38.7642 346.829 40.4535C347.13 40.363 347.402 40.3027 347.703 40.2122C346.528 36.924 345.353 33.666 344.148 30.408C343.877 30.5287 343.606 30.6493 343.335 30.77C344.178 32.7308 344.992 34.6917 345.835 36.6827C346.046 37.1653 346.799 36.8033 346.648 36.3207C346.046 34.0582 345.443 31.7655 344.841 29.503C344.54 29.5935 344.269 29.6538 343.967 29.7443C344.751 31.7353 345.474 33.7565 346.166 35.7777C346.347 36.3207 347.161 36.1095 347.04 35.5363C346.528 33.0928 346.046 30.6493 345.534 28.1757C345.233 28.2662 344.961 28.3265 344.66 28.417C345.443 30.2873 346.106 32.218 346.618 34.1788C346.739 34.6615 347.552 34.571 347.492 34.0582C347.221 31.1622 346.769 28.3265 346.136 25.4908C346.046 25.159 345.624 25.0685 345.383 25.2797C344.54 26.064 343.064 26.9992 342.491 28.0248C342.22 28.5377 342.22 28.8092 342.551 29.2013C342.762 29.4427 343.094 29.322 343.274 29.1108C343.305 29.0807 343.305 29.0505 343.335 29.0203C343.455 28.8695 343.395 28.598 343.274 28.4773C343.244 28.4472 343.244 28.4472 343.214 28.417C342.883 28.0852 342.371 28.417 342.461 28.8695C343.214 32.3085 344.419 35.5967 346.106 38.6737C346.377 38.5228 346.618 38.372 346.889 38.2212C345.112 35.1743 343.907 31.8862 342.762 28.5678C342.521 28.055 341.648 28.2963 341.859 28.8393Z" fill="#E8E8E8"/>
<path d="M336.466 9.38186C337.34 12.6097 337.972 15.8677 338.394 19.1559C338.424 19.4877 338.756 19.729 339.087 19.548C340.081 19.005 341.075 18.6129 342.19 18.3414C342.461 18.281 342.612 17.919 342.461 17.6777C341.075 15.5962 339.78 13.4544 338.575 11.2824C338.304 10.7695 337.551 11.222 337.792 11.7349C338.605 13.5147 339.238 15.3549 339.75 17.2252C340.021 17.1045 340.292 16.9839 340.563 16.8632C339.87 15.5359 339.388 14.1784 339.087 12.7002C338.816 12.8209 338.545 12.9415 338.274 13.0622C339.388 14.6912 339.991 16.471 340.081 18.4319C340.352 18.3112 340.593 18.2207 340.864 18.1C340.171 17.4665 339.78 16.7727 339.569 15.8375C339.358 16.0185 339.117 16.1694 338.906 16.3504C339.539 16.833 339.75 17.376 339.599 18.0095C339.87 17.919 340.171 17.8587 340.443 17.7682C339.689 16.7727 339.087 15.7169 338.545 14.6007C338.334 14.8119 338.123 15.023 337.912 15.2342C338.756 15.7772 339.87 21.177 342.009 18.7335C342.792 17.8285 342.34 16.6822 341.828 15.747C340.985 14.1784 339.931 12.7304 338.846 11.3427C338.515 10.9204 337.882 11.4634 338.123 11.8857C339.298 13.9069 340.171 16.0185 340.744 18.281C341.015 18.1604 341.286 18.0397 341.557 17.919C341.437 17.6475 341.316 17.4062 341.196 17.1347C340.985 17.3459 340.774 17.557 340.563 17.7682C340.563 17.738 340.563 17.738 340.563 17.7079C340.382 17.8587 340.171 18.0095 339.991 18.1302C340.382 18.281 340.804 18.4319 341.196 18.5827C341.738 18.7939 341.979 17.919 341.437 17.7079C341.045 17.557 340.623 17.4062 340.232 17.2554C339.961 17.1347 339.659 17.4364 339.659 17.6777C339.629 20.0609 343.003 18.1604 341.015 16.9537C340.593 16.7124 340.202 17.195 340.382 17.5872C340.503 17.8587 340.623 18.1 340.744 18.3715C340.955 18.8542 341.678 18.4922 341.557 18.0095C340.955 15.6565 340.081 13.4845 338.846 11.403C338.605 11.584 338.364 11.765 338.123 11.946C338.786 12.8209 339.418 13.6957 340.021 14.6007C340.262 14.9627 340.503 15.3247 340.714 15.7169C340.894 15.9884 341.045 16.29 341.166 16.5917C341.648 17.2252 341.286 17.5872 340.051 17.6475C339.629 17.3157 339.569 16.1995 339.388 15.7169C339.147 15.1135 338.846 14.7214 338.304 14.3895C337.882 14.1482 337.521 14.6309 337.671 15.023C338.213 16.1694 338.816 17.195 339.569 18.1905C339.84 18.5525 340.352 18.4319 340.412 17.9492C340.533 16.8934 340.141 16.109 339.268 15.5057C338.936 15.2644 338.515 15.6565 338.605 16.0185C338.846 17.0744 339.358 17.9492 340.141 18.6732C340.412 18.9145 340.925 18.7637 340.925 18.3414C340.834 16.1995 340.172 14.2689 338.997 12.5192C338.695 12.0969 338.063 12.3684 338.183 12.8812C338.515 14.4197 339.027 15.8677 339.75 17.2554C339.991 17.7079 340.714 17.4062 340.563 16.8934C340.051 14.9325 339.358 13.032 338.515 11.1919C338.243 11.3427 338.002 11.4935 337.731 11.6444C338.936 13.8465 340.232 15.9582 341.617 18.0397C341.708 17.8285 341.798 17.5872 341.889 17.376C340.714 17.6475 339.629 18.0699 338.575 18.6732C338.816 18.7939 339.027 18.9447 339.268 19.0654C338.846 15.6867 338.213 12.3382 337.31 9.05003C337.189 8.56736 336.316 8.80869 336.466 9.38186Z" fill="#E8E8E8"/>
<path d="M336.496 24.7668C335.803 23.0473 337.46 21.4485 338.786 20.6642C340.081 19.8798 341.527 19.6083 343.033 19.6988C343.455 19.729 343.576 19.2162 343.365 18.9145C343.094 18.5827 342.853 18.2508 342.582 17.919C342.341 17.6173 341.768 17.8587 341.798 18.2508C341.708 17.6475 340.864 18.0095 340.473 18.0095C339.027 17.9793 339.599 17.7078 339.539 16.8933C339.418 15.8978 338.846 14.8722 338.605 13.9068C338.244 12.489 338.063 11.0712 337.942 9.62317C337.912 9.05001 337.008 9.05001 337.039 9.62317C337.159 11.3427 337.4 13.032 337.852 14.6912C338.063 15.4152 338.575 16.3202 338.485 17.0743C338.454 17.4062 338.213 17.6475 338.213 17.9793C338.244 18.6732 338.936 19.0955 339.569 19.0955C340.262 19.0955 340.955 18.9447 341.678 18.9748C342.069 19.005 342.13 19.0955 342.491 18.8542C342.612 18.7637 342.732 18.6128 342.702 18.462C342.702 18.4017 342.672 18.3112 342.672 18.2508C342.401 18.3715 342.16 18.462 341.889 18.5827C342.16 18.9145 342.401 19.2463 342.672 19.5782C342.792 19.3067 342.883 19.0653 343.003 18.7938C340.051 18.6128 333.996 21.0563 335.593 25.0082C335.834 25.5512 336.707 25.3098 336.496 24.7668Z" fill="#E8E8E8"/>
<path d="M338.213 19.6988C336.888 20.7848 335.864 22.3233 335.653 24.073C335.472 25.6115 336.406 26.969 337.551 27.9343C340.623 30.5588 343.907 27.6327 345.835 25.159C346.197 24.7065 345.564 24.073 345.202 24.5255C343.636 26.5467 340.894 29.503 338.213 27.3008C337.038 26.3355 336.315 25.0082 336.707 23.4697C337.038 22.2027 337.852 21.1468 338.876 20.3323C339.328 19.9703 338.665 19.3368 338.213 19.6988Z" fill="#E8E8E8"/>
<path d="M347.221 30.8605C347.221 30.8303 347.221 30.8001 347.191 30.77C347.13 30.951 347.04 31.1018 346.98 31.2828C347.01 31.2526 347.04 31.2526 347.07 31.2225C346.859 31.1621 346.648 31.1018 346.438 31.0716C346.859 31.7353 346.859 32.942 346.98 33.6961C347.13 34.6916 347.281 35.7173 347.402 36.7128C347.582 38.4323 347.673 40.1518 347.733 41.9015C347.733 42.4746 348.637 42.4746 348.637 41.9015C348.576 39.7898 348.456 37.6781 348.185 35.5665C348.094 34.752 347.974 33.9676 347.823 33.1531C347.703 32.3386 347.673 31.2828 347.221 30.589C347.1 30.3778 346.829 30.3175 346.588 30.4381C346.558 30.4683 346.528 30.4683 346.498 30.4985C346.317 30.589 346.227 30.8303 346.287 31.0113C346.287 31.0415 346.287 31.0716 346.317 31.1018C346.498 31.675 347.371 31.4336 347.221 30.8605Z" fill="#E8E8E8"/>
<path d="M336.767 9.56285C337.822 10.8902 338.605 12.3684 339.117 13.9974C339.298 14.5404 340.172 14.299 339.991 13.756C339.418 11.9762 338.575 10.3774 337.4 8.92935C337.069 8.44668 336.406 9.11035 336.767 9.56285Z" fill="#E8E8E8"/>
<path d="M312.457 14.2085C316.584 15.385 320.741 16.4107 324.958 17.2553C325.531 17.376 325.772 16.5012 325.199 16.3805C320.982 15.5358 316.825 14.5102 312.698 13.3337C312.155 13.1527 311.914 14.0275 312.457 14.2085Z" fill="#E8E8E8"/>
<path d="M301.913 28.2964C309.806 27.6629 317.608 26.1847 325.23 23.892C325.772 23.711 325.561 22.8362 324.989 23.0172C317.457 25.2797 309.745 26.7579 301.913 27.3612C301.34 27.4215 301.34 28.3265 301.913 28.2964Z" fill="#E8E8E8"/>
<path d="M330.592 28.7488C328.784 29.865 327.097 31.132 325.501 32.5197C325.049 32.9118 325.711 33.5453 326.133 33.1532C327.67 31.8258 329.327 30.6192 331.044 29.5332C331.556 29.2315 331.104 28.4472 330.592 28.7488Z" fill="#E8E8E8"/>
<path d="M331.164 38.4323C324.717 44.0132 318.241 49.594 311.794 55.1748C311.342 55.567 312.005 56.2005 312.426 55.8083C318.873 50.2275 325.35 44.6467 331.797 39.0658C332.249 38.7038 331.616 38.0402 331.164 38.4323Z" fill="#E8E8E8"/>
<path d="M333.604 45.3103C331.646 49.051 329.658 52.8218 327.7 56.5625C327.429 57.0753 328.212 57.5278 328.483 57.015C330.441 53.2743 332.429 49.5035 334.388 45.7628C334.659 45.25 333.875 44.7975 333.604 45.3103Z" fill="#E8E8E8"/>
<path d="M338.906 47.422C337.912 53.3045 337.31 59.2473 337.069 65.2203C337.039 65.7935 337.942 65.7935 337.972 65.2203C338.213 59.3378 338.816 53.4553 339.78 47.6633C339.87 47.0901 338.997 46.8488 338.906 47.422Z" fill="#E8E8E8"/>
<path d="M365.898 18.4922C373.61 17.4665 380.569 22.5043 384.365 28.8997C388.854 36.4413 389.004 45.7628 388.793 54.3C388.341 73.6368 387.528 92.9435 386.745 112.25C385.178 151.135 383.22 190.02 380.931 228.905C379.635 250.745 378.219 272.556 376.683 294.397C376.593 295.573 378.4 295.543 378.491 294.397C381.292 254.546 383.702 214.696 385.721 174.816C387.739 135.026 389.516 95.206 390.601 55.386C390.842 46.0645 390.782 35.838 385.721 27.6327C381.593 20.9357 374.092 15.6263 365.928 16.7123C364.754 16.833 364.754 18.643 365.898 18.4922Z" fill="#E8E8E8"/>
<path d="M364.272 18.1C366.441 18.1604 368.61 18.1905 370.718 18.6732C372.917 19.186 374.604 20.4229 376.563 21.4184C377.075 21.6899 377.527 20.9055 377.014 20.634C374.966 19.6084 373.219 18.3414 370.959 17.7984C368.76 17.2855 366.501 17.2252 364.272 17.1649C363.699 17.1649 363.699 18.0699 364.272 18.1Z" fill="#E8E8E8"/>
<path d="M364.272 18.7034C370.718 19.3369 376.834 21.6899 382.075 25.521C382.557 25.8529 383.009 25.0685 382.527 24.7367C377.135 20.8452 370.869 18.462 364.272 17.7984C363.699 17.738 363.699 18.643 364.272 18.7034Z" fill="#E8E8E8"/>
<path d="M362.976 16.5917C365.808 17.1347 368.579 17.8587 371.291 18.7033C371.833 18.8843 372.074 18.0095 371.532 17.8285C368.79 16.9537 366.019 16.2598 363.217 15.7168C362.645 15.5962 362.404 16.471 362.976 16.5917Z" fill="#E8E8E8"/>
<path d="M363.639 16.5011C367.164 16.8933 370.598 17.6475 373.942 18.7335C374.484 18.9145 374.725 18.0396 374.183 17.8586C370.748 16.7425 367.224 15.9883 363.639 15.5961C363.067 15.5358 363.067 16.4408 363.639 16.5011Z" fill="#E8E8E8"/>
<path d="M352.553 11.2823C357.192 12.9113 361.621 14.9627 365.838 17.4363C366.35 17.738 366.802 16.9537 366.29 16.652C361.982 14.118 357.463 12.0365 352.764 10.4075C352.252 10.2265 352.011 11.1013 352.553 11.2823Z" fill="#E8E8E8"/>
<path d="M351.288 10.9806C356.017 12.7303 360.566 14.842 364.934 17.3458C365.447 17.6475 365.898 16.8631 365.386 16.5615C360.928 14.0275 356.319 11.8856 351.499 10.1058C350.987 9.92481 350.745 10.7996 351.288 10.9806Z" fill="#E8E8E8"/>
<path d="M358.277 33.4548C361.018 28.6281 363.398 23.6205 365.416 18.4318C365.627 17.8888 364.753 17.6475 364.543 18.1905C362.554 23.2886 360.205 28.236 357.493 33.0023C357.222 33.485 358.005 33.9375 358.277 33.4548Z" fill="#E8E8E8"/>
<path d="M364.181 18.0698C363.639 18.9748 363.247 19.91 362.976 20.9357C362.825 21.5088 363.699 21.7502 363.85 21.177C364.091 20.2418 364.452 19.367 364.964 18.5223C365.266 18.0095 364.482 17.557 364.181 18.0698Z" fill="#E8E8E8"/>
<path d="M130.291 173.247C130.291 174.695 130.291 176.143 130.291 177.591C130.291 178.164 131.194 178.164 131.194 177.591C131.194 176.143 131.194 174.695 131.194 173.247C131.194 172.674 130.291 172.674 130.291 173.247Z" fill="#E8E8E8"/>
<path d="M130.743 178.225C151.86 178.225 172.978 178.225 194.095 178.225C194.668 178.225 194.668 177.32 194.095 177.32C172.978 177.32 151.86 177.32 130.743 177.32C130.17 177.32 130.17 178.225 130.743 178.225Z" fill="#E8E8E8"/>
<path d="M131.225 173.549C152.071 173.549 172.948 173.549 193.794 173.549C194.367 173.549 194.367 172.644 193.794 172.644C172.948 172.644 152.071 172.644 131.225 172.644C130.652 172.644 130.652 173.549 131.225 173.549Z" fill="#E8E8E8"/>
<path d="M193.312 173.428C193.372 174.876 193.342 176.324 193.162 177.772C193.101 178.345 194.005 178.345 194.065 177.772C194.246 176.324 194.306 174.876 194.216 173.428C194.186 172.825 193.282 172.825 193.312 173.428Z" fill="#E8E8E8"/>
<path d="M166.621 153.096C164.904 159.612 165.868 166.339 167.435 172.765C167.585 173.338 168.429 173.096 168.308 172.523C166.772 166.218 165.808 159.702 167.495 153.337C167.646 152.764 166.772 152.523 166.621 153.096Z" fill="#E8E8E8"/>
<path d="M180.991 154.303C181.202 155.66 181.413 156.987 181.624 158.345C181.714 158.918 182.588 158.677 182.497 158.104C182.286 156.746 182.076 155.419 181.865 154.061C181.774 153.488 180.901 153.729 180.991 154.303Z" fill="#E8E8E8"/>
<path d="M182.136 158.496C184.576 156.656 185.962 160.245 185.992 162.116C186.022 164.469 184.907 166.58 182.347 166.761C181.774 166.792 181.774 167.697 182.347 167.666C185.841 167.455 187.167 164.378 186.835 161.241C186.594 158.828 184.275 155.781 181.684 157.742C181.202 158.073 181.654 158.858 182.136 158.496Z" fill="#E8E8E8"/>
<path d="M181.955 167.063C181.774 168.873 181.443 170.623 181.021 172.402C180.871 172.976 181.744 173.217 181.895 172.644C182.347 170.804 182.678 168.963 182.889 167.063C182.919 166.46 182.015 166.49 181.955 167.063Z" fill="#E8E8E8"/>
<path d="M182.768 159.913C183.732 159.129 184.124 161.603 184.154 161.935C184.184 162.327 184.124 162.749 184.034 163.141C183.793 164.076 183.281 164.831 182.558 165.434C182.106 165.796 182.738 166.429 183.19 166.067C184.576 164.921 185.299 163.081 184.998 161.301C184.787 159.974 183.612 158.043 182.136 159.28C181.684 159.642 182.317 160.275 182.768 159.913Z" fill="#E8E8E8"/>
<path d="M182.015 159.159C181.895 161.271 181.925 163.383 182.076 165.525C182.106 166.098 183.009 166.098 182.979 165.525C182.829 163.413 182.799 161.301 182.919 159.159C182.949 158.556 182.045 158.556 182.015 159.159Z" fill="#E8E8E8"/>
<path d="M168.128 154.122C171.773 155.298 175.569 155.6 179.364 155.027C179.937 154.936 179.696 154.061 179.123 154.152C175.478 154.695 171.863 154.393 168.369 153.247C167.826 153.066 167.585 153.941 168.128 154.122Z" fill="#E8E8E8"/>
<path d="M170.206 151.829C168.429 150.713 170.508 148.269 170.809 146.851C171.11 145.434 170.297 144.74 169.754 143.533C168.971 141.783 170.779 140.486 171.05 138.797C171.291 137.319 170.086 136.082 171.713 134.875C172.164 134.543 171.743 133.759 171.261 134.091C170.267 134.815 169.664 135.931 169.875 137.198C170.026 138.133 170.267 138.616 169.815 139.581C169.604 140.064 169.303 140.486 169.062 140.969C168.76 141.633 168.489 142.326 168.58 143.081C168.64 143.835 169.031 144.167 169.393 144.77C170.447 146.55 169.483 147.455 168.881 149.144C168.429 150.411 168.549 151.799 169.754 152.553C170.236 152.915 170.688 152.131 170.206 151.829Z" fill="#E8E8E8"/>
<path d="M175.569 130.199C175.117 131.376 174.544 132.703 174.454 133.97C174.364 135.116 175.207 135.75 175.478 136.776C175.81 138.012 174.635 139.038 174.514 140.245C174.364 141.813 175.749 142.839 174.394 144.347C174.002 144.77 174.635 145.433 175.026 144.981C175.719 144.227 176.081 143.322 175.96 142.296C175.87 141.542 175.328 140.908 175.448 140.094C175.538 139.46 176.02 138.887 176.231 138.284C176.593 137.319 176.442 136.564 175.96 135.69C174.996 133.88 175.779 132.22 176.442 130.441C176.653 129.898 175.779 129.656 175.569 130.199Z" fill="#E8E8E8"/>
<path d="M180.027 139.189C178.611 140.667 177.948 142.688 178.34 144.74C178.461 145.403 178.792 146.067 178.822 146.761C178.882 147.636 178.34 148.058 178.099 148.812C177.768 149.778 178.943 151.165 178.22 151.919C177.828 152.342 178.461 152.975 178.852 152.553C179.304 152.07 179.425 151.527 179.304 150.864C179.184 150.14 178.762 149.627 179.063 148.873C179.244 148.42 179.605 148.179 179.726 147.666C179.967 146.52 179.364 145.434 179.184 144.317C178.912 142.658 179.515 141.029 180.66 139.823C181.081 139.4 180.419 138.767 180.027 139.189Z" fill="#E8E8E8"/>
<path d="M135.743 172.644C135.653 171.467 135.623 170.321 135.653 169.145C135.502 169.295 135.352 169.446 135.201 169.597C140.051 169.114 144.931 168.873 149.812 168.813C152.161 168.783 154.511 168.813 156.831 168.903C157.403 168.933 158.006 168.933 158.578 168.964C158.97 168.994 159.964 168.843 160.325 169.054C161.199 169.567 160.837 172.342 160.868 173.217C160.898 173.79 161.801 173.79 161.771 173.217C161.741 171.98 161.952 170.351 161.621 169.175C161.47 168.662 161.289 168.39 160.747 168.179C159.663 167.787 157.945 167.998 156.801 167.968C155.445 167.908 154.059 167.878 152.704 167.878C146.859 167.817 140.985 168.089 135.171 168.662C134.93 168.692 134.719 168.843 134.719 169.114C134.659 170.291 134.689 171.437 134.809 172.614C134.87 173.217 135.773 173.217 135.743 172.644Z" fill="#E8E8E8"/>
<path d="M143.275 168.3C143.275 167.757 143.064 166.611 143.305 166.128C143.696 165.253 145.323 165.494 146.106 165.464C147.823 165.404 149.51 165.313 151.228 165.253C152.824 165.193 154.421 165.132 156.048 165.072C157.072 165.042 158.217 164.74 158.638 165.887C158.879 166.55 158.789 167.576 158.849 168.27C158.909 168.843 159.813 168.843 159.753 168.27C159.632 167.063 159.994 164.529 158.427 164.107C157.554 163.865 156.349 164.137 155.415 164.167C153.999 164.227 152.613 164.288 151.197 164.348C148.727 164.439 146.016 164.227 143.606 164.68C141.889 164.982 142.371 167.003 142.341 168.3C142.371 168.873 143.275 168.873 143.275 168.3Z" fill="#E8E8E8"/>
<path d="M153.095 168.873C153.607 170.261 153.788 171.648 153.607 173.096C153.547 173.669 154.451 173.669 154.511 173.096C154.722 171.558 154.541 170.08 153.969 168.632C153.758 168.089 152.884 168.33 153.095 168.873Z" fill="#E8E8E8"/>
<path d="M153.156 164.951C153.698 166.188 153.818 167.485 153.577 168.813C153.457 169.386 154.33 169.627 154.451 169.054C154.752 167.485 154.571 165.977 153.939 164.499C153.698 163.956 152.945 164.408 153.156 164.951Z" fill="#E8E8E8"/>
<path d="M156.56 164.68C156.771 165.766 156.981 166.882 157.102 167.968C157.162 168.541 158.066 168.541 158.006 167.968C157.855 166.792 157.674 165.585 157.433 164.439C157.313 163.865 156.439 164.107 156.56 164.68Z" fill="#E8E8E8"/>
<path d="M158.096 169.024C158.548 170.231 158.638 171.437 158.367 172.674C158.247 173.247 159.09 173.489 159.241 172.915C159.572 171.528 159.482 170.11 158.97 168.783C158.759 168.24 157.885 168.481 158.096 169.024Z" fill="#E8E8E8"/>
<path d="M125.441 91.2844C125.441 92.5212 125.501 93.758 125.591 94.9647C125.651 95.5379 126.555 95.5379 126.495 94.9647C126.374 93.7279 126.314 92.5212 126.344 91.2844C126.344 90.7112 125.441 90.7112 125.441 91.2844Z" fill="#E8E8E8"/>
<path d="M126.284 95.9602C148.004 95.9602 169.694 95.9602 191.414 95.9602C191.987 95.9602 191.987 95.0552 191.414 95.0552C169.694 95.0552 148.004 95.0552 126.284 95.0552C125.712 95.0552 125.712 95.9602 126.284 95.9602Z" fill="#E8E8E8"/>
<path d="M126.164 91.6162C147.884 91.6162 169.574 91.6162 191.294 91.6162C191.866 91.6162 191.866 90.7112 191.294 90.7112C169.574 90.7112 147.884 90.7112 126.164 90.7112C125.561 90.7112 125.561 91.6162 126.164 91.6162Z" fill="#E8E8E8"/>
<path d="M191.113 91.2844C191.113 92.7022 191.113 94.0899 191.113 95.5077C191.113 96.0809 192.017 96.0809 192.017 95.5077C192.017 94.0899 192.017 92.7022 192.017 91.2844C192.017 90.7112 191.113 90.7112 191.113 91.2844Z" fill="#E8E8E8"/>
<path d="M128.754 78.2524C129.748 82.4757 130.743 86.699 131.797 90.8922C131.948 91.4654 132.821 91.224 132.671 90.6509C131.616 86.4577 130.622 82.2344 129.628 78.011C129.507 77.4379 128.634 77.6792 128.754 78.2524Z" fill="#E8E8E8"/>
<path d="M129.176 78.192C131.405 78.1317 133.604 78.0412 135.804 77.8904C136.858 77.83 137.912 77.7395 138.967 77.649C140.172 77.5283 141.497 77.2568 142.642 77.7998C143.154 78.0412 143.636 77.2569 143.094 77.0155C141.226 76.1105 138.906 76.744 136.918 76.8948C134.327 77.0758 131.737 77.2267 129.116 77.287C128.574 77.287 128.574 78.192 129.176 78.192Z" fill="#E8E8E8"/>
<path d="M142.341 77.468C141.979 81.9327 141.196 86.337 140.051 90.681C139.901 91.2542 140.774 91.4955 140.925 90.9224C142.1 86.518 142.883 82.0232 143.244 77.468C143.275 76.8949 142.371 76.8949 142.341 77.468Z" fill="#E8E8E8"/>
<path d="M131.917 77.106C130.17 75.0245 128.784 72.8827 127.911 70.2883C127.158 68.0862 126.736 65.7935 126.314 63.5008C126.133 63.6818 125.953 63.8628 125.772 64.0438C131.315 65.9443 134.086 71.3442 135.171 76.7742C135.291 77.3473 136.165 77.106 136.045 76.5328C134.9 70.771 131.857 65.1902 126.013 63.1992C125.651 63.0785 125.41 63.4405 125.471 63.7422C125.953 66.3667 126.435 68.9912 127.399 71.4648C128.302 73.7877 129.688 75.8088 131.285 77.7093C131.646 78.192 132.279 77.5585 131.917 77.106Z" fill="#E8E8E8"/>
<path d="M134.599 71.3744C133.815 68.5689 136.436 66.5175 137.942 64.5265C139.388 62.626 140.563 60.5445 141.527 58.3424C141.256 58.3122 140.985 58.282 140.714 58.2217C142.19 64.2852 143.606 71.5554 138.906 76.6234C138.515 77.0457 139.147 77.6792 139.539 77.2569C144.449 71.9174 143.124 64.3757 141.557 57.9804C141.467 57.6184 140.895 57.4977 140.744 57.8597C139.539 60.6954 137.912 63.2294 135.924 65.5824C134.448 67.3019 133.092 69.2325 133.755 71.6157C133.876 72.1587 134.749 71.9475 134.599 71.3744Z" fill="#E8E8E8"/>
<path d="M155.807 90.8922C155.807 89.1727 155.807 87.4532 155.807 85.7639C155.807 85.1907 154.903 85.1907 154.903 85.7639C154.903 87.4834 154.903 89.2029 154.903 90.8922C154.903 91.4955 155.807 91.4955 155.807 90.8922Z" fill="#E8E8E8"/>
<path d="M155.355 86.0957C166.29 86.0957 177.195 86.0957 188.131 86.0957C188.703 86.0957 188.703 85.1907 188.131 85.1907C177.195 85.1907 166.29 85.1907 155.355 85.1907C154.782 85.1907 154.782 86.0957 155.355 86.0957Z" fill="#E8E8E8"/>
<path d="M187.799 86.0353C187.799 87.6945 187.799 89.3838 187.799 91.043C187.799 91.6162 188.703 91.6162 188.703 91.043C188.703 89.3838 188.703 87.6945 188.703 86.0353C188.703 85.432 187.799 85.432 187.799 86.0353Z" fill="#E8E8E8"/>
<path d="M161.862 85.4923C161.862 84.4968 161.862 83.4712 161.862 82.4757C161.862 81.9025 160.958 81.9025 160.958 82.4757C160.958 83.4712 160.958 84.4968 160.958 85.4923C160.958 86.0957 161.862 86.0957 161.862 85.4923Z" fill="#E8E8E8"/>
<path d="M161.41 82.536C169.995 82.536 178.611 82.536 187.197 82.536C187.769 82.536 187.769 81.631 187.197 81.631C178.611 81.631 169.995 81.631 161.41 81.631C160.837 81.631 160.837 82.536 161.41 82.536Z" fill="#E8E8E8"/>
<path d="M186.896 82.0835C186.896 83.2298 186.896 84.3761 186.896 85.5225C186.896 86.0956 187.799 86.0956 187.799 85.5225C187.799 84.3761 187.799 83.2298 187.799 82.0835C187.799 81.4801 186.896 81.4801 186.896 82.0835Z" fill="#E8E8E8"/>
<path d="M168.851 81.6913C168.851 80.1226 168.851 78.5238 168.851 76.9551C168.851 76.382 167.947 76.382 167.947 76.9551C167.947 78.5238 167.947 80.1226 167.947 81.6913C167.947 82.2645 168.851 82.2645 168.851 81.6913Z" fill="#E8E8E8"/>
<path d="M168.79 77.1362C174.544 77.1362 180.268 77.1362 186.022 77.1362C186.594 77.1362 186.594 76.2312 186.022 76.2312C180.268 76.2312 174.544 76.2312 168.79 76.2312C168.218 76.2312 168.218 77.1362 168.79 77.1362Z" fill="#E8E8E8"/>
<path d="M185.841 76.5328C185.841 78.2523 185.841 79.9718 185.841 81.6612C185.841 82.2343 186.745 82.2343 186.745 81.6612C186.745 79.9417 186.745 78.2222 186.745 76.5328C186.745 75.9597 185.841 75.9597 185.841 76.5328Z" fill="#E8E8E8"/>
<path d="M179.816 76.925C180.238 78.554 180.328 80.1529 180.178 81.812C180.117 82.3852 181.021 82.3852 181.081 81.812C181.262 80.0624 181.142 78.373 180.69 76.6837C180.539 76.1105 179.666 76.3519 179.816 76.925Z" fill="#E8E8E8"/>
<path d="M182.527 77.1965C182.678 78.5238 182.738 79.821 182.678 81.1483C182.648 81.7215 183.552 81.7215 183.582 81.1483C183.642 79.821 183.612 78.5238 183.431 77.1965C183.371 76.6233 182.467 76.6233 182.527 77.1965Z" fill="#E8E8E8"/>
<path d="M178.852 82.3249C179.003 83.3204 178.973 84.346 178.852 85.3717C178.792 85.9449 179.696 85.9449 179.756 85.3717C179.907 84.2857 179.876 83.1997 179.726 82.0835C179.635 81.5104 178.762 81.7517 178.852 82.3249Z" fill="#E8E8E8"/>
<path d="M181.142 82.174C181.322 82.9885 181.262 83.7728 180.991 84.5873C180.81 85.1303 181.684 85.3717 181.865 84.8287C182.196 83.8935 182.226 82.9282 182.015 81.9327C181.895 81.3897 181.021 81.631 181.142 82.174Z" fill="#E8E8E8"/>
<path d="M174.333 85.6432C174.514 87.4532 174.544 89.233 174.424 91.043C174.394 91.6162 175.297 91.6162 175.328 91.043C175.448 89.233 175.418 87.4532 175.237 85.6432C175.177 85.07 174.273 85.07 174.333 85.6432Z" fill="#E8E8E8"/>
<path d="M183.612 85.7639C183.823 87.4532 183.823 89.1124 183.552 90.8017C183.461 91.3749 184.335 91.6162 184.425 91.043C184.696 89.2934 184.757 87.5437 184.516 85.7639C184.455 85.1907 183.552 85.1907 183.612 85.7639Z" fill="#E8E8E8"/>
<path d="M216.237 36.019C216.237 41.268 216.237 46.517 216.237 51.766C216.237 52.3392 217.141 52.3392 217.141 51.766C217.141 46.517 217.141 41.268 217.141 36.019C217.141 35.4157 216.237 35.4157 216.237 36.019Z" fill="#E8E8E8"/>
<path d="M203.585 52.4297C211.869 52.4297 220.184 52.4297 228.468 52.4297C229.04 52.4297 229.04 51.5247 228.468 51.5247C220.184 51.5247 211.869 51.5247 203.585 51.5247C203.012 51.5247 203.012 52.4297 203.585 52.4297Z" fill="#E8E8E8"/>
<path d="M224.1 52.6107C224.1 57.7692 224.1 62.9578 224.1 68.1163C224.1 68.6895 225.004 68.6895 225.004 68.1163C225.004 62.9578 225.004 57.7692 225.004 52.6107C225.004 52.0375 224.1 52.0375 224.1 52.6107Z" fill="#E8E8E8"/>
<path d="M357.885 289.781C357.102 291.078 358.216 292.587 360.777 298.258C364.693 306.916 364.512 308.907 363.88 310.234C362.825 312.406 360.566 312.678 360.777 313.733C361.078 315.272 366.049 316.448 367.796 314.548C368.579 313.703 368.459 312.527 368.218 310.204C367.133 300.581 366.923 299.887 366.561 296.961C365.928 291.772 366.26 290.445 364.904 289.298C362.886 287.7 358.969 288.031 357.885 289.781Z" fill="#161616" stroke="#161616" stroke-width="3" stroke-miterlimit="10"/>
<path d="M404.759 288.454C407.019 286.855 410.965 288.544 413.014 290.535C414.731 292.164 414.339 293.25 416.328 294.668C416.779 295 418.858 296.478 421.479 296.327C423.497 296.207 423.889 295.211 425.395 295.513C426.449 295.694 426.901 296.297 428.92 298.198C432.083 301.214 433.258 301.908 433.047 302.33C432.836 302.723 431.842 302.511 427.474 301.908C424.281 301.456 422.624 301.244 421.479 301.184C418.858 301.063 418.737 301.395 414.881 301.486C410.905 301.606 408.887 301.606 407.441 300.852C404.217 299.163 403.374 295.422 403.314 295.06C403.223 294.578 402.349 290.143 404.759 288.454Z" fill="#161616" stroke="#161616" stroke-width="3" stroke-miterlimit="10"/>
<path d="M360.988 276.96C362.946 277.021 363.789 279.313 365.537 281.304C370.086 286.553 378.008 286.734 384.515 286.885C396.806 287.157 400.12 282.481 405.995 285.648C409.218 287.398 412.261 290.988 412.2 294.94C412.11 300.098 406.718 303.748 402.922 305.076C399.548 306.252 397.71 305.528 388.462 303.839C373.58 301.094 370.628 301.516 364.934 298.258C361.681 296.388 358.759 294.004 356.891 290.415C356.108 288.906 354.872 286.402 355.445 283.386C356.017 280.218 358.548 276.87 360.988 276.96Z" fill="#161616" stroke="#161616" stroke-width="3" stroke-miterlimit="10"/>
<path d="M404.338 285.859C404.97 284.985 407.471 287.187 410.122 286.071C412.381 285.105 413.405 282.3 414.038 280.49C415.213 277.262 414.43 276.116 415.695 274.909C416.9 273.732 417.954 274.487 421.479 273.461C423.859 272.767 425.787 272.224 426.841 270.565C427.685 269.238 427.082 268.574 427.654 265.195C427.835 264.17 428.528 260.067 429.522 260.037C430.245 260.007 431.119 262.179 431.179 264.17C431.209 264.984 431.089 265.557 429.944 269.328C429.221 271.681 428.859 272.858 428.709 273.039C427.233 274.879 425.275 273.974 421.479 275.723C419.641 276.568 417.864 277.383 416.93 279.223C416.086 280.912 416.809 281.666 415.906 284.17C415.062 286.463 413.707 287.82 413.435 288.092C412.441 289.087 410.423 291.048 408.073 290.565C405.422 290.083 403.705 286.734 404.338 285.859Z" fill="#161616" stroke="#161616" stroke-width="3" stroke-miterlimit="10"/>
<path d="M397.319 300.128C396.957 300.852 395.933 302.934 396.294 305.498C396.656 308.122 398.283 310.385 399.397 311.893C400.934 314.035 401.837 314.488 401.657 315.393C401.325 317.384 396.867 317.534 396.897 318.5C396.957 319.465 401.476 319.948 404.94 319.737C407.531 319.586 408.133 319.133 408.465 318.711C409.188 317.685 408.374 316.479 408.043 313.764C407.802 311.833 407.983 310.475 408.254 308.183C408.706 304.412 409.429 304.171 409.7 301.365C409.911 299.133 410.272 295.422 408.465 294.125C405.995 292.375 399.698 295.422 397.319 300.128Z" fill="#161616" stroke="#161616" stroke-width="3" stroke-miterlimit="10"/>
<path d="M336.014 281.093C336.496 283.537 339.147 285.075 343.033 286.674C347.16 288.393 358.849 293.22 360.988 289.992C361.53 289.178 361.349 288.031 360.988 287.307C360.084 285.588 357.614 285.769 353.336 285.045C349.601 284.411 346.136 283.838 342.612 281.938C339.358 280.218 337.43 278.137 336.406 278.831C335.683 279.343 335.984 280.942 336.014 281.093Z" fill="#161616" stroke="#161616" stroke-width="3" stroke-miterlimit="10"/>
<path d="M331.315 270.444C332.249 272.013 333.393 273.431 334.749 274.698C335.171 275.09 335.803 274.456 335.382 274.064C334.086 272.858 333.002 271.5 332.098 269.992C331.797 269.479 331.013 269.931 331.315 270.444Z" fill="#161616"/>
<path d="M327.429 272.707C328.362 273.853 329.567 274.668 330.923 275.15C331.465 275.361 331.706 274.487 331.164 274.275C329.929 273.823 328.875 273.069 328.061 272.073C327.7 271.621 327.067 272.254 327.429 272.707Z" fill="#161616"/>
<path d="M327.579 278.65C328.423 278.74 329.266 278.8 330.14 278.891C330.712 278.951 330.712 278.046 330.14 277.986C329.296 277.895 328.453 277.835 327.579 277.745C327.007 277.684 327.007 278.589 327.579 278.65Z" fill="#161616"/>
<path d="M352.312 272.616C351.257 273.039 349.601 273.823 347.974 275.301C346.588 276.568 345.263 277.775 345.082 279.434C344.75 282.451 348.426 285.316 351.288 286.463C351.8 286.674 357.855 288.967 361.199 285.437C363.458 283.024 362.946 279.585 362.856 279.042C362.163 274.547 358.126 272.435 357.704 272.224C356.68 270.836 355.626 269.479 354.601 268.091C353.848 269.6 353.095 271.108 352.312 272.616Z" fill="#161616" stroke="#161616" stroke-width="3" stroke-miterlimit="10"/>
<path d="M349.51 276.689C349.962 277.986 351.167 278.861 352.553 278.831C353.125 278.8 353.125 277.895 352.553 277.926C351.589 277.956 350.685 277.352 350.384 276.447C350.173 275.904 349.299 276.146 349.51 276.689Z" fill="white"/>
<path d="M345.112 278.83C345.383 278.83 345.504 278.921 345.534 279.132C345.443 279.223 345.383 279.343 345.293 279.434C345.112 279.494 345.082 279.404 345.022 279.343C344.991 279.313 345.022 279.283 344.991 279.313C344.961 279.343 344.961 279.434 344.931 279.494C345.112 279.404 345.293 279.283 345.473 279.193C345.504 279.223 345.504 279.223 345.473 279.193C345.504 279.193 345.504 279.223 345.504 279.223C345.534 279.253 345.504 279.253 345.504 279.193C345.534 279.223 345.534 279.223 345.504 279.193C345.473 278.951 345.172 278.831 344.961 278.891C344.72 278.951 344.6 279.192 344.66 279.434C344.72 279.735 344.961 279.977 345.263 280.067C345.504 280.158 345.714 279.977 345.805 279.766C345.925 279.494 345.955 279.193 345.805 278.951C345.654 278.68 345.323 278.529 345.022 278.619C344.72 278.71 344.57 279.042 344.63 279.343C344.72 279.645 345.022 279.856 345.323 279.766C345.564 279.705 345.714 279.464 345.624 279.223C345.594 278.921 345.353 278.77 345.112 278.83Z" fill="white"/>
<path d="M344.931 279.615C345.383 281.153 347.191 281.908 348.576 281.184C349.088 280.912 348.637 280.128 348.124 280.399C347.221 280.852 346.076 280.309 345.805 279.374C345.654 278.8 344.781 279.042 344.931 279.615Z" fill="white"/>
<path d="M141.859 254.154C142.521 254.275 143.485 254.456 144.69 254.607C150.444 255.451 154.541 255.421 159.602 255.481C162.645 255.512 167.134 255.602 172.767 255.813C178.762 255.391 184.787 254.969 190.782 254.516C182.497 253.671 174.213 252.797 165.929 251.952C157.885 252.676 149.872 253.4 141.859 254.154Z" fill="#5222D0"/>
<path d="M159.572 272.888C161.289 273.25 163.006 273.612 164.724 273.974C170.688 273.612 177.225 272.707 184.124 270.897C185.45 270.565 186.745 270.203 187.98 269.811C178.521 270.836 169.062 271.862 159.572 272.888Z" fill="#5222D0"/>
<path d="M142.25 296.689C142.28 299.223 142.31 301.787 142.341 304.321C156.258 306.101 170.206 307.881 184.124 309.661C184.124 307.127 184.124 304.563 184.124 302.029C192.649 298.228 201.145 294.427 209.67 290.626C207.29 290.264 204.91 289.902 202.53 289.54C202.259 289.962 201.988 290.384 201.747 290.837C191.414 294.034 181.081 297.262 170.748 300.46C161.259 299.193 151.74 297.926 142.25 296.689Z" fill="#5222D0"/>
<path d="M126.766 262.209C137.189 263.476 147.643 264.743 158.066 266.01C169.694 265.195 181.322 264.35 192.951 263.536C190.42 262.721 187.89 261.937 185.359 261.123C180.117 261.515 174.845 261.907 169.604 262.299C159.693 261.605 149.812 260.881 139.9 260.188C135.532 260.851 131.134 261.515 126.766 262.209Z" fill="#EC615B"/>
<path d="M165.898 280.701C169.122 281.183 172.375 281.666 175.599 282.149C184.516 279.826 193.402 277.533 202.319 275.21C199.367 274.758 196.445 274.336 193.493 273.883C184.275 276.176 175.086 278.438 165.898 280.701Z" fill="#EC615B"/>
<path d="M128.814 288.363C142.551 290.324 156.258 292.315 169.995 294.276C174.243 293.371 178.671 292.315 183.28 291.048C189.607 289.328 195.481 287.428 200.934 285.497C198.885 285.135 196.837 284.773 194.788 284.411C188.372 286.191 181.955 287.971 175.508 289.751C164.121 288.182 152.734 286.644 141.346 285.075C137.189 286.191 133.002 287.277 128.814 288.363Z" fill="#EC615B"/>
<path d="M139.961 255.029C139.961 256.839 139.961 258.679 139.961 260.489C139.961 261.062 140.864 261.062 140.864 260.489C140.864 258.679 140.864 256.839 140.864 255.029C140.864 254.456 139.961 254.456 139.961 255.029Z" fill="#161616"/>
<path d="M140.563 255.21C151.227 255.572 161.922 255.904 172.586 256.266C173.158 256.296 173.158 255.391 172.586 255.361C161.922 254.999 151.227 254.667 140.563 254.305C139.961 254.275 139.961 255.18 140.563 255.21Z" fill="#161616"/>
<path d="M140.563 261.183C150.263 261.364 159.964 261.816 169.634 262.54C170.206 262.571 170.206 261.666 169.634 261.635C159.964 260.942 150.263 260.489 140.563 260.278C139.961 260.278 139.961 261.183 140.563 261.183Z" fill="#161616"/>
<path d="M172.887 256.386C179.063 255.843 185.269 255.481 191.444 255.27C192.017 255.24 192.017 254.335 191.444 254.365C185.239 254.546 179.063 254.938 172.887 255.481C172.315 255.512 172.285 256.417 172.887 256.386Z" fill="#161616"/>
<path d="M169.785 262.571C177.045 261.847 184.335 261.153 191.595 260.429C192.167 260.368 192.167 259.463 191.595 259.524C184.335 260.248 177.045 260.942 169.785 261.666C169.212 261.726 169.212 262.631 169.785 262.571Z" fill="#161616"/>
<path d="M172.436 256.266C172.225 256.598 172.074 256.929 172.014 257.322C171.923 257.985 172.195 258.498 171.863 259.162C171.472 260.006 171.231 260.67 171.381 261.605C171.472 262.178 172.345 261.937 172.255 261.364C172.104 260.368 172.616 259.916 172.918 259.101C173.189 258.257 172.677 257.533 173.219 256.718C173.52 256.236 172.737 255.753 172.436 256.266Z" fill="#161616"/>
<path d="M140.684 254.938C148.817 253.822 156.981 253.038 165.205 252.525C165.778 252.495 165.778 251.59 165.205 251.62C156.921 252.133 148.667 252.947 140.473 254.064C139.87 254.154 140.111 254.999 140.684 254.938Z" fill="#161616"/>
<path d="M164.603 252.555C173.369 252.616 182.106 253.4 190.721 254.908C191.294 254.999 191.535 254.124 190.962 254.033C182.256 252.495 173.43 251.68 164.603 251.62C164.031 251.65 164.031 252.555 164.603 252.555Z" fill="#161616"/>
<path d="M142.341 258.015C144.931 258.619 147.643 257.985 150.294 258.015C153.246 258.046 156.198 258.377 159.15 258.739C159.723 258.8 159.723 257.895 159.15 257.834C156.409 257.533 153.637 257.201 150.866 257.141C148.185 257.08 145.233 257.774 142.582 257.171C142.009 256.99 141.768 257.865 142.341 258.015Z" fill="#161616"/>
<path d="M154.27 259.976C158.879 260.127 163.518 260.338 168.128 260.61C168.7 260.64 168.7 259.735 168.128 259.705C163.518 259.433 158.879 259.222 154.27 259.071C153.698 259.041 153.698 259.946 154.27 259.976Z" fill="#161616"/>
<path d="M161.801 258.377C164.452 258.589 167.133 258.86 169.784 259.192C170.357 259.252 170.357 258.347 169.784 258.287C167.133 257.955 164.482 257.684 161.801 257.472C161.199 257.412 161.229 258.317 161.801 258.377Z" fill="#161616"/>
<path d="M174.665 258.83C176.773 259.132 178.822 258.619 180.901 258.317C183.371 257.925 185.871 257.623 188.372 257.472C188.944 257.442 188.944 256.537 188.372 256.567C186.353 256.688 184.335 256.929 182.347 257.201C179.937 257.533 177.376 258.317 174.936 257.985C174.333 257.865 174.092 258.739 174.665 258.83Z" fill="#161616"/>
<path d="M178.461 260.399C180.328 260.61 182.045 259.946 183.853 259.584C185.962 259.132 188.131 258.951 190.27 258.92C190.842 258.92 190.842 258.015 190.27 258.015C188.402 258.046 186.564 258.196 184.727 258.498C182.678 258.86 180.569 259.765 178.461 259.524C177.888 259.433 177.888 260.338 178.461 260.399Z" fill="#161616"/>
<path d="M190.661 255.632C190.691 257.171 190.721 258.679 190.782 260.218C190.782 260.791 191.685 260.791 191.685 260.218C191.655 258.679 191.625 257.171 191.565 255.632C191.565 255.029 190.661 255.029 190.661 255.632Z" fill="#161616"/>
<path d="M126.103 262.42C126.133 264.441 126.073 266.462 125.922 268.483C125.892 269.056 126.796 269.056 126.826 268.483C126.977 266.462 127.037 264.441 127.007 262.42C126.977 261.816 126.073 261.816 126.103 262.42Z" fill="#161616"/>
<path d="M126.555 269.358C137.099 270.685 147.673 271.832 158.277 272.857C158.849 272.918 158.849 272.013 158.277 271.952C147.673 270.927 137.099 269.78 126.555 268.453C125.953 268.393 125.983 269.298 126.555 269.358Z" fill="#161616"/>
<path d="M158.096 266.402C158.006 268.332 157.885 270.233 157.795 272.164C157.765 272.737 158.668 272.737 158.698 272.164C158.789 270.233 158.909 268.332 159 266.402C159.03 265.829 158.126 265.829 158.096 266.402Z" fill="#161616"/>
<path d="M158.548 266.583C170.176 266.13 181.804 265.255 193.372 264.019C193.945 263.958 193.945 263.053 193.372 263.114C181.804 264.35 170.176 265.195 158.548 265.678C157.975 265.708 157.975 266.613 158.548 266.583Z" fill="#161616"/>
<path d="M158.698 273.099C170.176 271.741 181.684 270.565 193.222 269.509C193.794 269.449 193.794 268.544 193.222 268.604C181.714 269.66 170.206 270.866 158.698 272.194C158.126 272.254 158.126 273.159 158.698 273.099Z" fill="#161616"/>
<path d="M192.981 263.898C192.981 265.527 193.011 267.156 193.011 268.785C193.011 269.358 193.915 269.358 193.915 268.785C193.915 267.156 193.884 265.527 193.884 263.898C193.884 263.295 192.981 263.295 192.981 263.898Z" fill="#161616"/>
<path d="M126.676 262.359C131.194 261.756 135.713 261.213 140.262 260.791C140.834 260.73 140.834 259.825 140.262 259.886C135.653 260.308 131.044 260.851 126.435 261.485C125.862 261.545 126.103 262.42 126.676 262.359Z" fill="#161616"/>
<path d="M127.128 262.963C137.551 263.717 147.944 264.803 158.307 266.221C158.879 266.311 159.12 265.436 158.548 265.346C148.125 263.928 137.641 262.812 127.128 262.058C126.555 262.028 126.555 262.933 127.128 262.963Z" fill="#161616"/>
<path d="M185.178 261.424C187.89 261.937 190.571 262.631 193.192 263.536C193.734 263.717 193.975 262.842 193.433 262.661C190.812 261.786 188.161 261.062 185.419 260.549C184.847 260.429 184.606 261.304 185.178 261.424Z" fill="#161616"/>
<path d="M131.586 267.126C137.009 266.854 142.19 268.755 147.582 268.845C148.155 268.845 148.155 267.94 147.582 267.94C142.19 267.85 136.978 265.949 131.586 266.221C131.014 266.251 131.014 267.156 131.586 267.126Z" fill="#161616"/>
<path d="M141.949 265.949C145.925 267.427 150.233 266.522 154.33 267.427C154.903 267.548 155.144 266.673 154.571 266.553C150.474 265.648 146.166 266.553 142.19 265.074C141.648 264.863 141.407 265.738 141.949 265.949Z" fill="#161616"/>
<path d="M160.476 269.901C170.477 267.639 180.87 267.397 191.053 266.794C191.625 266.764 191.625 265.859 191.053 265.889C180.75 266.522 170.327 266.734 160.235 269.026C159.662 269.147 159.903 270.022 160.476 269.901Z" fill="#161616"/>
<path d="M177.195 269.147C180.75 269.237 184.305 268.906 187.769 268.151C188.342 268.031 188.101 267.156 187.528 267.277C184.124 268.001 180.66 268.332 177.195 268.242C176.623 268.212 176.623 269.117 177.195 269.147Z" fill="#161616"/>
<path d="M132.49 269.841C132.49 272.103 132.49 274.336 132.49 276.598C132.49 277.171 133.393 277.171 133.393 276.598C133.393 274.336 133.393 272.103 133.393 269.841C133.393 269.268 132.49 269.268 132.49 269.841Z" fill="#161616"/>
<path d="M132.821 277.171C137.701 278.619 143.094 278.649 148.155 279.132C153.517 279.645 158.909 280.188 164.272 280.701C164.844 280.761 164.844 279.856 164.272 279.796C159.09 279.283 153.909 278.8 148.727 278.287C143.576 277.775 138.033 277.775 133.062 276.296C132.52 276.146 132.279 277.02 132.821 277.171Z" fill="#161616"/>
<path d="M164.241 273.702C164.272 275.784 164.272 277.835 164.211 279.916C164.211 280.49 165.115 280.49 165.115 279.916C165.175 277.835 165.175 275.784 165.145 273.702C165.145 273.099 164.241 273.099 164.241 273.702Z" fill="#161616"/>
<path d="M159.421 273.551C161.078 273.702 162.735 273.974 164.362 274.366C164.934 274.517 165.175 273.642 164.603 273.491C162.886 273.069 161.169 272.797 159.421 272.646C158.819 272.616 158.819 273.521 159.421 273.551Z" fill="#161616"/>
<path d="M164.814 274.185C173.249 273.491 181.624 272.224 189.908 270.323C190.48 270.203 190.239 269.328 189.667 269.449C181.473 271.319 173.189 272.586 164.814 273.28C164.241 273.31 164.241 274.215 164.814 274.185Z" fill="#161616"/>
<path d="M164.814 280.821C174.394 278.981 183.913 276.719 193.282 274.034C193.854 273.883 193.613 273.008 193.041 273.159C183.642 275.844 174.153 278.137 164.573 279.947C164.031 280.067 164.272 280.942 164.814 280.821Z" fill="#161616"/>
<path d="M192.83 269.177C192.86 270.685 192.83 272.194 192.71 273.672C192.649 274.245 193.553 274.245 193.613 273.672C193.734 272.164 193.764 270.655 193.734 269.177C193.734 268.604 192.83 268.604 192.83 269.177Z" fill="#161616"/>
<path d="M189.908 270.323C190.932 270.323 191.957 270.173 192.951 269.931C193.523 269.78 193.282 268.906 192.71 269.056C191.776 269.298 190.872 269.418 189.908 269.418C189.336 269.418 189.336 270.323 189.908 270.323Z" fill="#161616"/>
<path d="M137.882 275.12C145.172 275.995 152.433 276.839 159.723 277.594C160.295 277.654 160.295 276.749 159.723 276.689C152.433 275.934 145.142 275.12 137.882 274.215C137.31 274.155 137.31 275.06 137.882 275.12Z" fill="#161616"/>
<path d="M135.081 272.616C138.153 272.918 141.226 273.159 144.299 273.31C144.871 273.34 144.871 272.435 144.299 272.405C141.226 272.254 138.153 272.013 135.081 271.711C134.508 271.681 134.508 272.586 135.081 272.616Z" fill="#161616"/>
<path d="M148.155 274.275C152.041 274.275 155.897 274.547 159.753 275.15C160.325 275.241 160.566 274.366 159.994 274.275C156.078 273.672 152.131 273.37 148.155 273.37C147.582 273.37 147.552 274.275 148.155 274.275Z" fill="#161616"/>
<path d="M166.29 277.201C170.628 276.508 174.936 275.723 179.244 274.848C179.816 274.728 179.575 273.853 179.003 273.974C174.695 274.848 170.387 275.633 166.049 276.327C165.477 276.417 165.718 277.292 166.29 277.201Z" fill="#161616"/>
<path d="M174.484 277.563C179.696 275.814 185.058 274.517 190.48 273.732C191.053 273.642 190.812 272.767 190.239 272.857C184.787 273.642 179.455 274.909 174.243 276.689C173.701 276.9 173.942 277.775 174.484 277.563Z" fill="#161616"/>
<path d="M187.679 272.918C189.155 272.465 190.631 272.194 192.167 272.073C192.74 272.043 192.74 271.138 192.167 271.168C190.571 271.289 188.974 271.56 187.438 272.043C186.895 272.224 187.136 273.099 187.679 272.918Z" fill="#161616"/>
<path d="M139.358 278.348C139.328 280.49 139.268 282.631 139.238 284.773C139.238 285.346 140.142 285.346 140.142 284.773C140.172 282.631 140.232 280.49 140.262 278.348C140.292 277.775 139.388 277.775 139.358 278.348Z" fill="#161616"/>
<path d="M139.78 285.377C151.468 286.945 163.187 288.514 174.876 290.052C175.448 290.143 175.448 289.238 174.876 289.147C163.187 287.579 151.468 286.01 139.78 284.472C139.208 284.381 139.208 285.286 139.78 285.377Z" fill="#161616"/>
<path d="M165.537 281.002C169.031 281.545 172.526 281.998 176.051 282.33C176.623 282.39 176.623 281.485 176.051 281.425C172.616 281.093 169.182 280.671 165.778 280.128C165.205 280.037 164.965 280.912 165.537 281.002Z" fill="#161616"/>
<path d="M176.171 282.239C185.148 281.395 193.372 277.292 202.199 275.784C202.771 275.693 202.53 274.818 201.958 274.909C193.192 276.387 185.058 280.459 176.171 281.304C175.599 281.395 175.599 282.3 176.171 282.239Z" fill="#161616"/>
<path d="M193.222 274.185C196.264 274.637 199.337 274.969 202.41 275.15C202.982 275.18 202.982 274.275 202.41 274.245C199.397 274.064 196.415 273.762 193.463 273.31C192.89 273.219 192.649 274.094 193.222 274.185Z" fill="#161616"/>
<path d="M175.117 282.149C175.026 284.502 174.966 286.885 174.876 289.238C174.845 289.811 175.749 289.811 175.779 289.238C175.87 286.885 175.93 284.502 176.02 282.149C176.05 281.545 175.147 281.545 175.117 282.149Z" fill="#161616"/>
<path d="M175.358 290.083C184.365 287.911 193.252 285.346 202.048 282.42C202.591 282.239 202.35 281.364 201.807 281.545C193.011 284.472 184.124 287.006 175.117 289.208C174.544 289.328 174.785 290.203 175.358 290.083Z" fill="#161616"/>
<path d="M201.807 275.361C202.048 277.563 202.109 279.766 201.988 281.968C201.958 282.541 202.862 282.541 202.892 281.968C202.982 279.766 202.922 277.563 202.711 275.361C202.651 274.788 201.747 274.788 201.807 275.361Z" fill="#161616"/>
<path d="M142.1 282.843C141.889 282.873 141.708 282.903 141.497 282.903C140.925 282.963 140.925 283.748 141.497 283.808C149.149 284.622 156.74 285.859 164.362 287.066C164.934 287.156 165.175 286.282 164.603 286.191C156.921 284.954 149.239 283.717 141.497 282.903C141.497 283.205 141.497 283.506 141.497 283.808C141.708 283.778 141.889 283.748 142.1 283.748C142.672 283.687 142.672 282.782 142.1 282.843Z" fill="#161616"/>
<path d="M144.449 281.515C146.739 282.088 149.028 282.631 151.348 283.084C151.92 283.205 152.161 282.33 151.589 282.209C149.269 281.757 146.98 281.244 144.69 280.64C144.148 280.52 143.907 281.395 144.449 281.515Z" fill="#161616"/>
<path d="M153.999 282.692C160.054 283.627 166.079 284.562 172.134 285.497C172.707 285.588 172.948 284.713 172.375 284.622C166.32 283.687 160.295 282.752 154.24 281.817C153.668 281.757 153.427 282.631 153.999 282.692Z" fill="#161616"/>
<path d="M180.117 284.049C185.148 283.929 189.697 281.485 194.638 280.731C195.21 280.64 194.969 279.766 194.397 279.856C189.547 280.61 185.088 283.024 180.117 283.144C179.545 283.174 179.545 284.079 180.117 284.049Z" fill="#161616"/>
<path d="M178.491 287.096C180.69 286.553 182.889 286.01 185.088 285.437C185.66 285.286 185.419 284.411 184.847 284.562C182.648 285.105 180.449 285.648 178.25 286.221C177.677 286.342 177.918 287.217 178.491 287.096Z" fill="#161616"/>
<path d="M193.463 283.054C196.053 282.36 198.644 281.666 201.235 280.942C201.807 280.791 201.566 279.917 200.994 280.067C198.403 280.761 195.812 281.455 193.222 282.179C192.649 282.33 192.89 283.205 193.463 283.054Z" fill="#161616"/>
<path d="M127.76 288.665C132.55 288.152 137.28 287.156 141.859 285.648C142.401 285.467 142.16 284.592 141.618 284.773C137.099 286.251 132.49 287.247 127.76 287.76C127.188 287.82 127.188 288.725 127.76 288.665Z" fill="#161616"/>
<path d="M127.399 288.574C127.489 290.626 127.609 292.647 127.7 294.698C127.73 295.271 128.634 295.271 128.604 294.698C128.513 292.647 128.393 290.626 128.302 288.574C128.272 288.001 127.368 288.001 127.399 288.574Z" fill="#161616"/>
<path d="M128.212 295.301C142.13 297.142 156.017 298.982 169.935 300.792C170.507 300.882 170.507 299.947 169.935 299.887C156.017 298.047 142.13 296.206 128.212 294.396C127.64 294.306 127.67 295.211 128.212 295.301Z" fill="#161616"/>
<path d="M127.941 289.057C141.377 290.957 154.812 292.677 168.278 294.246C168.851 294.306 168.851 293.401 168.278 293.341C154.903 291.802 141.527 290.083 128.182 288.182C127.64 288.122 127.368 288.997 127.941 289.057Z" fill="#161616"/>
<path d="M169.965 300.973C180.72 297.866 191.414 294.547 202.018 290.988C202.56 290.807 202.319 289.932 201.777 290.113C191.143 293.642 180.479 296.991 169.724 300.098C169.152 300.249 169.393 301.124 169.965 300.973Z" fill="#161616"/>
<path d="M173.55 293.884C183.1 291.742 192.499 289.027 201.717 285.708C202.259 285.527 202.018 284.653 201.476 284.834C192.258 288.152 182.859 290.867 173.309 293.009C172.737 293.129 172.978 294.004 173.55 293.884Z" fill="#161616"/>
<path d="M201.175 285.437C201.205 287.156 201.235 288.846 201.265 290.565C201.265 291.138 202.169 291.138 202.169 290.565C202.139 288.846 202.109 287.156 202.078 285.437C202.048 284.864 201.145 284.864 201.175 285.437Z" fill="#161616"/>
<path d="M194.336 284.924C196.656 285.165 198.946 285.407 201.265 285.618C201.838 285.678 201.838 284.773 201.265 284.713C198.946 284.472 196.656 284.23 194.336 284.019C193.764 283.959 193.764 284.864 194.336 284.924Z" fill="#161616"/>
<path d="M131.224 293.582C137.882 293.974 144.479 294.789 151.047 295.965C151.619 296.056 151.86 295.181 151.288 295.09C144.66 293.884 137.972 293.099 131.224 292.677C130.622 292.647 130.652 293.552 131.224 293.582Z" fill="#161616"/>
<path d="M148.727 293.492C154.059 294.276 159.391 295.181 164.693 296.176C165.266 296.297 165.507 295.422 164.934 295.302C159.632 294.306 154.3 293.401 148.968 292.617C148.396 292.526 148.155 293.401 148.727 293.492Z" fill="#161616"/>
<path d="M169.513 295.663C169.574 296.991 169.664 298.318 169.724 299.615C169.754 300.188 170.658 300.188 170.628 299.615C170.568 298.288 170.477 296.961 170.417 295.663C170.387 295.09 169.483 295.09 169.513 295.663Z" fill="#161616"/>
<path d="M174.544 295.935C179.003 294.939 183.431 293.823 187.859 292.617C188.432 292.466 188.191 291.591 187.618 291.742C183.22 292.948 178.762 294.065 174.303 295.06C173.731 295.181 173.972 296.056 174.544 295.935Z" fill="#161616"/>
<path d="M174.394 297.594C175.569 297.473 176.713 297.293 177.828 296.961C178.4 296.81 178.159 295.935 177.587 296.086C176.533 296.387 175.478 296.568 174.394 296.689C173.821 296.749 173.821 297.654 174.394 297.594Z" fill="#161616"/>
<path d="M190.661 292.798C193.463 291.893 196.264 290.988 199.036 290.113C199.578 289.932 199.337 289.057 198.795 289.238C195.993 290.143 193.192 291.048 190.42 291.923C189.878 292.104 190.119 292.979 190.661 292.798Z" fill="#161616"/>
<path d="M196.084 289.63C197.289 289.268 198.524 288.936 199.729 288.574C200.301 288.423 200.06 287.549 199.488 287.699C198.283 288.061 197.048 288.393 195.843 288.755C195.3 288.906 195.511 289.781 196.084 289.63Z" fill="#161616"/>
<path d="M141.618 296.991C141.919 299.344 142.039 301.697 141.949 304.08C141.919 304.653 142.823 304.653 142.853 304.08C142.943 301.697 142.823 299.344 142.521 296.991C142.461 296.418 141.557 296.418 141.618 296.991Z" fill="#161616"/>
<path d="M142.732 304.713C156.65 306.523 170.538 308.303 184.455 310.113C185.028 310.174 185.028 309.269 184.455 309.208C170.538 307.398 156.65 305.618 142.732 303.808C142.16 303.718 142.16 304.623 142.732 304.713Z" fill="#161616"/>
<path d="M183.762 302.451C183.913 304.804 184.034 307.187 184.184 309.54C184.214 310.113 185.118 310.113 185.088 309.54C184.937 307.187 184.817 304.804 184.666 302.451C184.636 301.878 183.732 301.848 183.762 302.451Z" fill="#161616"/>
<path d="M184.335 310.053C193.041 305.83 201.777 301.636 210.483 297.413C210.996 297.172 210.544 296.387 210.032 296.629C201.325 300.852 192.589 305.045 183.883 309.269C183.341 309.54 183.823 310.325 184.335 310.053Z" fill="#161616"/>
<path d="M184.214 302.33C193.131 299.133 201.807 295.332 210.212 290.927C210.724 290.656 210.272 289.871 209.76 290.143C201.446 294.487 192.83 298.258 183.973 301.455C183.431 301.667 183.672 302.541 184.214 302.33Z" fill="#161616"/>
<path d="M209.399 290.565C209.459 292.828 209.519 295.09 209.58 297.323C209.61 297.896 210.513 297.896 210.483 297.323C210.423 295.06 210.363 292.798 210.303 290.565C210.303 289.962 209.399 289.962 209.399 290.565Z" fill="#161616"/>
<path d="M202.078 290.083C204.579 290.113 207.079 290.294 209.549 290.656C210.122 290.746 210.363 289.871 209.79 289.781C207.23 289.419 204.669 289.208 202.078 289.178C201.506 289.178 201.506 290.083 202.078 290.083Z" fill="#161616"/>
<path d="M170.447 301.063C173.49 301.606 176.563 301.938 179.666 302.059C180.238 302.089 180.238 301.184 179.666 301.154C176.653 301.033 173.671 300.731 170.688 300.188C170.116 300.068 169.875 300.943 170.447 301.063Z" fill="#161616"/>
<path d="M186.865 303.688C190.179 302.873 193.342 301.727 196.415 300.249C196.927 300.007 196.475 299.223 195.963 299.464C192.981 300.912 189.878 301.998 186.654 302.813C186.052 302.934 186.293 303.808 186.865 303.688Z" fill="#161616"/>
<path d="M187.227 306.041C189.878 305.045 192.439 303.869 194.909 302.511C195.421 302.24 194.969 301.456 194.457 301.727C192.047 303.054 189.577 304.201 186.986 305.166C186.444 305.377 186.655 306.252 187.227 306.041Z" fill="#161616"/>
<path d="M198.042 298.499C201.386 297.323 204.699 295.965 207.953 294.487C208.495 294.246 208.013 293.461 207.501 293.703C204.338 295.151 201.115 296.448 197.801 297.594C197.259 297.805 197.5 298.68 198.042 298.499Z" fill="#161616"/>
<path d="M199.337 300.49C202.621 299.072 205.754 297.383 208.766 295.422C209.248 295.09 208.796 294.336 208.314 294.638C205.332 296.599 202.169 298.288 198.885 299.706C198.343 299.947 198.795 300.701 199.337 300.49Z" fill="#161616"/>
<path d="M310.529 217.17C316.704 239.976 322.88 262.782 329.025 285.588C330.773 292.104 332.55 298.59 334.297 305.106C334.598 306.222 336.346 305.739 336.044 304.623C329.869 281.817 323.693 259.011 317.548 236.205C315.8 229.689 314.023 223.203 312.276 216.687C311.975 215.571 310.227 216.054 310.529 217.17Z" fill="#161616"/>
<path d="M292.725 218.135C292.996 243.234 293.267 268.363 293.508 293.461C293.568 300.551 293.658 307.67 293.719 314.759C293.719 315.936 295.526 315.936 295.526 314.759C295.255 289.66 294.984 264.532 294.743 239.433C294.683 232.344 294.592 225.224 294.532 218.135C294.532 216.989 292.725 216.989 292.725 218.135Z" fill="#161616"/>
<path d="M267.51 214.907C262.148 239.433 256.966 263.989 251.966 288.605C250.55 295.573 249.164 302.542 247.778 309.48C247.537 310.626 249.284 311.109 249.525 309.963C254.436 285.347 259.497 260.761 264.769 236.205C266.245 229.267 267.751 222.328 269.287 215.39C269.498 214.244 267.751 213.761 267.51 214.907Z" fill="#161616"/>
<path d="M254.978 279.524C268.022 279.645 281.036 279.947 294.05 280.46C295.225 280.52 295.225 278.71 294.05 278.65C281.036 278.137 267.992 277.835 254.978 277.714C253.833 277.714 253.833 279.524 254.978 279.524Z" fill="#161616"/>
<path d="M294.713 280.067C295.918 280.248 296.852 279.766 297.966 279.313C299.322 278.77 300.678 278.197 302.033 277.624C304.443 276.598 306.853 275.573 309.263 274.517C314.475 272.224 319.626 269.841 324.717 267.397C325.772 266.885 324.838 265.346 323.814 265.829C319.144 268.091 314.445 270.263 309.685 272.375C307.305 273.431 304.925 274.456 302.515 275.482C301.28 275.995 300.075 276.508 298.84 277.021C297.876 277.413 296.219 278.469 295.165 278.318C294.05 278.167 293.538 279.917 294.713 280.067Z" fill="#161616"/>
<path d="M286.067 218.648C283.657 240.066 281.247 261.485 278.837 282.933C278.144 288.997 277.481 295.09 276.788 301.154C276.668 302.3 278.475 302.3 278.596 301.154C281.006 279.736 283.416 258.317 285.826 236.869C286.519 230.805 287.182 224.712 287.874 218.648C288.025 217.502 286.218 217.502 286.067 218.648Z" fill="#161616"/>
<path d="M281.096 269.72C295.406 269.388 309.655 268.483 323.934 267.548C325.079 267.488 325.109 265.648 323.934 265.738C309.655 266.673 295.406 267.548 281.096 267.91C279.921 267.94 279.921 269.75 281.096 269.72Z" fill="#161616"/>
<path d="M255.309 279.434C264.317 276.809 272.993 273.25 281.699 269.75C282.753 269.328 282.301 267.578 281.217 268.001C272.511 271.5 263.835 275.06 254.827 277.684C253.713 277.986 254.195 279.736 255.309 279.434Z" fill="#161616"/>
<path d="M300.015 194.123C307.757 195.148 314.174 197.29 319.084 199.402C319.174 204.862 319.235 210.292 319.325 215.752C313.662 218.286 304.986 221.333 294.05 222.208C280.042 223.324 268.805 220.337 262.329 218.075C262.057 211.951 261.816 205.827 261.545 199.703C268.655 196.626 282.663 191.83 300.015 194.123Z" fill="white" stroke="#161616" stroke-width="3" stroke-miterlimit="10"/>
<path d="M264.015 201.121C266.365 203.746 269.739 204.681 273.143 205.103C277.542 205.676 282.06 205.857 286.519 206.008C295.677 206.31 304.955 205.797 313.661 202.66C314.204 202.479 313.963 201.604 313.42 201.785C305.136 204.771 296.34 205.375 287.633 205.133C283.476 205.013 279.319 204.771 275.162 204.409C271.396 204.078 267.329 203.444 264.678 200.488C264.256 200.035 263.624 200.699 264.015 201.121Z" fill="#161616"/>
<path d="M259.557 96.8048C257.509 97.016 256.243 98.5847 253.743 101.843C246.995 110.591 242.115 118.283 241.693 118.947C240.819 120.305 237.837 124.407 231.842 132.613C220.786 147.786 218.226 150.592 219.19 154.544C220.304 159.159 225.335 163.262 229.04 162.598C231.209 162.206 232.505 160.245 234.463 156.957C236.993 152.673 240.247 146.881 243.711 139.672C252.749 133.518 258.683 127.062 262.389 122.386C269.92 112.884 269.679 108.781 269.408 107.092C268.564 101.722 263.684 96.4127 259.557 96.8048Z" fill="white" stroke="#161616" stroke-width="3" stroke-miterlimit="10"/>
<path opacity="0.09" d="M265.883 100.606C264.407 100.787 264.076 105.07 263.503 107.725C261.515 116.896 254.315 117.831 242.386 131.436C237.385 137.168 233.83 142.477 230.547 147.455C227.353 152.281 224.853 156.505 223.046 159.702C223.347 160.276 224.13 161.482 225.606 162.085C227.594 162.87 229.522 161.995 230.155 161.693C232.535 160.577 232.957 158.858 236.873 152.221C239.373 147.967 239.343 148.42 240.428 146.278C242.416 142.326 242.265 141.15 243.982 139.159C245.489 137.379 246.573 137.469 249.495 135.207C251.002 134.061 253.653 132.009 256.605 129.083C257.478 128.238 261.003 124.679 264.708 119.188C267.631 114.875 268.323 112.823 268.655 111.677C269.86 107.514 269.107 105.07 268.866 104.377C268.323 102.838 267.028 100.455 265.883 100.606Z" fill="#3D3D3D"/>
<path opacity="0.18" d="M243.982 138.736C243.591 138.495 242.024 140.999 238.469 145.071C229.583 155.177 222.895 158.315 223.859 160.879C224.431 162.357 227.203 162.87 229.191 162.447C232.023 161.844 233.529 159.069 236.481 153.548C243.711 140.003 244.223 138.887 243.982 138.736Z" fill="#3D3D3D"/>
<path d="M217.924 272.284C218.768 281.696 219.581 291.108 220.425 300.52C207.32 307.097 201.054 311.26 201.687 313.039C202.44 315.211 213.646 313.733 235.246 308.575C234.824 295.482 234.403 282.36 234.011 269.268C228.649 270.263 223.286 271.259 217.924 272.284Z" fill="#161616" stroke="#161616" stroke-width="3" stroke-miterlimit="10"/>
<path d="M260.913 164.589C256.303 167.998 249.827 172.795 242.115 178.647C217.834 197.079 214.791 199.884 212.11 205.043C209.459 210.111 208.555 218.648 206.718 235.752C205.452 247.487 205.362 256.537 205.422 261.696C205.483 267.458 205.784 272.375 206.085 276.176C207.501 277.443 212.863 281.877 220.997 282.028C230.607 282.179 236.752 276.206 237.837 275.12C236.903 269.569 236.15 263.566 235.668 257.171C234.794 245.466 235.065 234.847 235.879 225.586C242.325 220.488 251.363 213.127 261.786 203.746C284.049 183.715 285.525 178.979 284.681 175.63C282.753 168.149 268.474 165.524 260.913 164.589Z" fill="white" stroke="#161616" stroke-width="3" stroke-miterlimit="10"/>
<path opacity="0.12" d="M270.944 166.882C267.721 167.968 269.438 175.268 267.269 182.056C264.799 189.809 259.105 191.89 245.007 202.63C240.428 206.099 233.89 211.438 226.419 218.799C226.54 232.344 226.118 246.733 224.943 261.907C224.401 268.785 223.738 275.512 222.985 281.998C224.973 281.726 227.504 281.153 230.336 280.037C233.499 278.77 235.969 277.171 237.686 275.874C236.722 270.143 235.969 263.928 235.487 257.261C234.644 245.557 234.945 234.938 235.728 225.647C241.09 221.122 245.458 217.562 248.441 215.118C252.478 211.83 254.526 210.231 257.99 207.275C259.979 205.586 261.997 203.806 267.028 199.19C279.982 187.365 283.536 183.624 284.41 178.375C284.832 175.691 284.29 174.243 283.928 173.488C282.813 171.286 280.494 170.291 275.855 168.33C273.083 167.214 271.697 166.61 270.944 166.882Z" fill="#3D3D3D"/>
<path opacity="0.15" d="M235.457 225.435C234.071 231.439 232.836 237.804 231.782 244.531C229.763 257.442 228.86 269.449 228.589 280.309C231.691 278.77 234.794 277.201 237.897 275.663C236.783 268.242 235.909 260.037 235.457 251.168C235.005 241.846 235.065 233.249 235.457 225.435Z" fill="#3D3D3D"/>
<path opacity="0.09" d="M281.94 171.769C279.801 171.588 277.873 176.505 276.547 179.371C273.686 185.646 265.913 193.851 250.369 210.231C246.633 214.183 241.602 219.312 235.457 225.164C237.084 223.987 239.283 222.419 241.813 220.518C247.537 216.204 250.941 213.308 261.877 203.866C261.877 203.866 265.823 200.457 281.94 183.534C282.783 182.659 284.832 180.427 284.862 177.41C284.922 174.876 283.536 171.92 281.94 171.769Z" fill="#3D3D3D"/>
<path d="M270.462 93.6977C270.342 93.6977 269.86 93.7278 269.197 93.7882C267.841 93.9088 265.702 94.1502 263.172 94.8138C261.123 95.3267 259.497 95.93 258.533 96.3222C256.816 99.8517 254.647 105.312 253.833 112.22C252.658 122.054 255.008 128.389 256.605 138.194C257.689 144.921 258.593 154.665 257.358 167.003C259.949 169.416 266.697 175.057 276.999 176.505C291.55 178.587 302.244 170.743 304.443 169.054C305.106 164.891 305.739 160.668 306.371 156.384C306.371 156.384 307.305 149.928 308.209 142.839C310.348 126.338 312.547 104.105 312.818 101.33C305.076 93.4865 298.659 91.6765 294.201 91.5257C288.417 91.3145 275.162 93.4563 270.462 93.6977Z" fill="#EC615B"/>
<path opacity="0.17" d="M281.849 100.244C283.446 101.903 285.585 104.437 287.513 107.876C296.791 124.347 291.038 143.563 288.477 152.1C286.7 158.073 283.326 166.852 276.638 176.294C279.198 176.746 282.392 176.988 286.037 176.626C294.743 175.751 301.039 171.709 304.202 169.325C306.371 154.936 308.39 140.184 310.197 125.101C311.131 117.318 311.974 109.656 312.788 102.024C311.432 100.334 309.203 97.8908 305.859 95.8093C303.208 94.1502 299.382 91.7368 294.622 91.9782C287.151 92.4005 282.542 99.2182 281.849 100.244Z" fill="#3D3D3D"/>
<path d="M213.496 117.258C213.797 117.258 214.128 117.258 214.43 117.258C214.52 116.926 214.61 116.564 214.701 116.232C215.062 116.986 215.665 118.223 216.418 119.762C219.732 126.489 220.394 127.605 220.997 129.626C221.479 131.285 222.051 133.668 222.232 136.715C222.804 136.323 223.648 135.78 224.732 135.177C230.577 131.979 235.457 131.949 239.855 131.165C243.139 130.561 247.748 129.234 253.14 126.006C252.809 126.459 252.478 126.941 252.146 127.394C252.658 127.575 253.201 127.786 253.713 127.967C254.014 128.359 254.406 128.993 254.737 129.807C256.484 134.121 253.893 138.857 251.393 143.201C241.181 161.18 240.126 162.116 238.289 163.021C237.536 163.413 229.944 167.123 224.552 163.684C223.437 162.99 221.419 161.331 218.828 149.596C217.051 141.602 216.84 137.138 215.153 126.64C214.49 122.658 213.887 119.4 213.496 117.258Z" fill="white" stroke="#191919" stroke-width="2" stroke-miterlimit="10"/>
<path d="M215.213 118.917C217.774 124.407 220.304 129.988 221.087 136.021C221.117 136.172 221.328 136.172 221.328 136.021C220.545 129.928 218.015 124.317 215.424 118.796C215.333 118.676 215.153 118.766 215.213 118.917Z" fill="#191919"/>
<path d="M214.219 117.952C215.725 121.149 216.96 124.437 217.984 127.816C218.015 127.967 218.256 127.907 218.195 127.756C217.171 124.347 215.906 121.059 214.4 117.831C214.369 117.71 214.159 117.801 214.219 117.952Z" fill="#191919"/>
<path d="M218.346 127.635C219.34 130.35 220.003 133.156 220.394 136.021C220.425 136.172 220.635 136.172 220.635 136.021C220.244 133.125 219.581 130.32 218.587 127.575C218.527 127.424 218.316 127.484 218.346 127.635Z" fill="#191919"/>
<path d="M215.755 123.321C217.141 126.73 218.346 130.229 219.34 133.789C219.37 133.94 219.611 133.88 219.551 133.729C218.557 130.169 217.352 126.67 215.966 123.261C215.906 123.14 215.695 123.201 215.755 123.321Z" fill="#191919"/>
<path d="M222.744 137.469C226.51 134.966 230.727 133.337 235.216 132.703C235.366 132.673 235.306 132.462 235.156 132.492C230.637 133.125 226.419 134.754 222.624 137.258C222.533 137.349 222.624 137.56 222.744 137.469Z" fill="#191919"/>
<path d="M224.642 137.077C228.558 134.694 232.987 133.789 237.385 132.794C242.054 131.738 246.603 130.32 251.032 128.51C251.152 128.45 251.092 128.238 250.971 128.299C246.392 130.199 241.663 131.617 236.813 132.703C232.565 133.668 228.287 134.604 224.522 136.896C224.401 136.957 224.522 137.168 224.642 137.077Z" fill="#191919"/>
<path d="M223.919 138.163C228.558 135.961 233.288 134.604 238.259 133.397C243.139 132.19 247.868 130.32 252.628 128.691C252.779 128.631 252.719 128.419 252.568 128.48C247.658 130.169 242.747 132.13 237.686 133.306C232.896 134.453 228.287 135.871 223.799 137.982C223.648 138.012 223.768 138.224 223.919 138.163Z" fill="#191919"/>
<path d="M213.315 117.197C215.514 124.166 217.743 131.104 219.943 138.073C221.027 138.435 222.112 138.797 223.196 139.159C233.499 135.75 243.771 132.371 254.074 128.962C254.436 129.264 254.797 129.566 255.159 129.898C256.334 144.227 257.539 158.526 258.713 172.855C258.292 173.126 257.9 173.368 257.478 173.639C247.025 175.238 236.602 176.837 226.148 178.436C224.642 178.074 223.166 177.712 221.66 177.35C220.334 171.467 218.979 165.615 217.653 159.732C215.695 145.826 213.737 131.919 211.779 118.012C212.291 117.71 212.803 117.439 213.315 117.197Z" fill="white" stroke="#191919" stroke-width="2" stroke-miterlimit="10"/>
<path d="M219.461 138.254C219.943 151.316 220.876 164.408 221.599 177.47C221.63 177.893 222.292 177.893 222.292 177.47C221.569 164.408 220.635 151.346 220.153 138.254C220.123 137.801 219.43 137.801 219.461 138.254Z" fill="#191919"/>
<path d="M222.594 139.068C223.015 142.779 223.196 146.489 223.196 150.23C223.196 150.652 223.859 150.652 223.889 150.23C223.889 146.489 223.708 142.779 223.286 139.068C223.196 138.646 222.533 138.646 222.594 139.068Z" fill="#191919"/>
<path opacity="0.16" d="M241.331 133.487C241.452 136.504 241.361 143.261 237.505 150.532C233.408 158.254 227.414 162.236 224.823 163.745C224.702 161.271 224.552 158.797 224.431 156.354C223.407 158.073 222.413 159.793 221.389 161.512C221.599 166.882 221.84 172.252 222.051 177.651C223.497 177.953 224.943 178.255 226.419 178.587C236.572 176.958 246.754 175.329 256.906 173.7C257.448 173.488 257.96 173.247 258.503 173.036C257.358 158.526 256.213 144.046 255.068 129.536C250.489 130.833 245.91 132.16 241.331 133.487Z" fill="#6C6D6D"/>
<path opacity="0.1" d="M222.744 139.37C222.533 139.37 222.292 144.951 222.443 151.014C222.624 159.642 223.437 163.413 223.196 171.648C223.106 174.333 222.955 176.535 222.835 177.953C223.949 178.104 225.094 178.255 226.209 178.406C225.998 176.927 225.696 174.786 225.395 172.221C223.015 153.035 223.076 139.37 222.744 139.37Z" fill="#6C6D6D"/>
<path d="M230.848 141.059C238.018 139.37 245.067 137.258 251.996 134.724C252.538 134.513 252.297 133.638 251.755 133.849C244.826 136.353 237.777 138.465 230.607 140.184C230.065 140.335 230.306 141.21 230.848 141.059Z" fill="#191919"/>
<path d="M214.58 141.964C214.249 142.085 214.279 142.688 214.008 145.494C213.827 147.394 213.767 147.424 213.827 147.877C213.978 149.144 214.43 149.385 214.58 150.833C214.671 151.768 214.49 151.889 214.641 152.673C214.821 153.639 215.243 154.363 215.574 154.815C215.574 155.117 215.635 155.63 215.876 156.143C216.358 157.078 217.472 157.892 218.075 157.591C218.406 157.44 218.497 156.806 218.647 155.569C218.798 154.423 218.707 154.363 218.828 153.035C218.948 151.949 219.039 151.738 218.948 151.195C218.858 150.532 218.617 150.32 218.376 149.627C218.045 148.661 218.195 148.299 217.984 147.304C217.683 145.645 216.9 144.468 216.478 143.835C216.056 143.171 215.153 141.783 214.58 141.964Z" fill="white"/>
<path d="M214.369 141.693C212.743 145.222 214.369 149.174 218.045 150.471C218.466 150.622 218.647 149.958 218.225 149.808C214.972 148.661 213.526 145.162 214.972 142.025C215.123 141.632 214.55 141.301 214.369 141.693Z" fill="#191919"/>
<path d="M214.49 142.236C216.659 144.257 217.924 146.912 218.105 149.868C218.135 150.29 218.798 150.29 218.798 149.868C218.617 146.731 217.292 143.895 214.972 141.753C214.641 141.451 214.159 141.934 214.49 142.236Z" fill="#191919"/>
<path d="M213.586 145.916C212.803 149.446 214.882 152.794 218.466 153.548C218.888 153.639 219.069 152.975 218.647 152.885C215.454 152.221 213.526 149.295 214.249 146.067C214.339 145.645 213.677 145.464 213.586 145.916Z" fill="#191919"/>
<path d="M214.249 150.351C213.616 153.035 215.243 155.6 217.954 156.112C218.376 156.203 218.557 155.539 218.135 155.449C215.785 155.026 214.339 152.885 214.882 150.532C215.002 150.109 214.369 149.928 214.249 150.351Z" fill="#191919"/>
<path d="M215.123 154.664C215.002 155.962 215.755 157.259 216.96 157.741C217.472 157.953 218.135 157.983 218.527 157.53C218.948 157.048 218.768 156.324 218.527 155.811C218.376 155.419 217.713 155.6 217.864 155.992C218.015 156.324 218.316 156.987 217.834 157.198C217.472 157.349 216.9 156.987 216.629 156.776C215.996 156.263 215.695 155.479 215.785 154.664C215.846 154.212 215.153 154.242 215.123 154.664Z" fill="#191919"/>
<path d="M218.225 156.082C218.888 156.082 219.159 155.419 219.25 154.845C219.37 154.152 219.25 153.428 218.888 152.824C218.677 152.432 218.075 152.794 218.316 153.156C218.527 153.518 218.647 153.91 218.647 154.302C218.647 154.514 218.587 155.388 218.225 155.388C217.804 155.388 217.804 156.082 218.225 156.082Z" fill="#191919"/>
<path d="M219.069 153.307C219.491 152.915 219.491 152.161 219.4 151.618C219.31 150.924 219.009 150.32 218.527 149.808C218.225 149.476 217.743 149.958 218.045 150.29C218.346 150.622 218.587 151.014 218.677 151.497C218.738 151.829 218.828 152.553 218.557 152.824C218.256 153.126 218.738 153.609 219.069 153.307Z" fill="#191919"/>
<path d="M250.429 250.474C251.544 257.231 252.628 264.019 253.743 270.776C241.362 279.585 235.608 284.773 236.481 286.402C237.506 288.303 247.628 285.256 266.847 277.262C266.154 266.221 265.462 255.21 264.739 244.169C259.979 246.281 255.189 248.362 250.429 250.474Z" fill="#161616" stroke="#161616" stroke-width="3" stroke-miterlimit="10"/>
<path d="M304.594 168.843C305.076 172.855 305.257 179.28 302.877 186.52C301.853 189.597 300.135 194.635 295.617 199.371C292.725 202.388 287.664 207.697 280.283 207.486C274.318 207.305 270.101 203.655 268.564 202.177C268.113 207.848 267.871 214.002 267.992 220.609C268.173 230.775 269.167 239.976 270.492 248C266.877 254.697 259.949 258.83 252.628 258.619C243.229 258.347 237.897 251.077 237.295 250.232C235.126 229.81 234.945 212.826 235.337 200.216C235.668 189.929 236.391 181.422 242.597 174.514C248.652 167.757 256.665 166.218 258.774 165.856C274.198 163.111 285.856 174.001 287.242 175.359C289.471 175.51 293.839 175.449 298.539 173.187C301.31 171.829 303.298 170.14 304.594 168.843Z" fill="white" stroke="#161616" stroke-width="3" stroke-miterlimit="10"/>
<path d="M269.046 193.398C268.203 197.169 267.751 201 267.661 204.862C267.661 205.435 268.564 205.435 268.564 204.862C268.655 201.061 269.077 197.32 269.89 193.64C270.041 193.067 269.167 192.825 269.046 193.398Z" fill="#161616"/>
<path d="M269.257 198.225C269.679 197.29 270.071 196.355 270.492 195.39C270.733 194.847 269.95 194.394 269.709 194.937C269.287 195.872 268.896 196.807 268.474 197.773C268.233 198.286 269.016 198.738 269.257 198.225Z" fill="#161616"/>
<path d="M286.127 174.906C288.146 176.837 289.531 179.612 291.038 181.965C291.339 182.448 292.122 181.995 291.821 181.513C290.254 179.099 288.839 176.294 286.76 174.273C286.338 173.85 285.705 174.484 286.127 174.906Z" fill="#161616"/>
<path opacity="0.09" d="M294.984 174.273C295.044 175.721 295.044 177.712 294.803 180.095C294.231 185.676 293.749 190.412 290.676 192.463C287.091 194.877 281.639 192.584 279.62 191.709C272.631 188.753 271.818 183.805 267.811 183.443C263.082 183.021 258.171 189.356 255.822 194.334C250.007 206.551 256.605 216.114 257.328 238.045C257.599 246.854 256.816 253.973 256.213 258.317C257.78 258.136 259.828 257.684 262.027 256.628C267.118 254.184 269.679 249.991 270.643 248.181C270.432 246.522 270.131 243.958 269.709 240.851C268.685 233.279 268.354 232.464 268.022 229.206C267.872 227.728 267.751 226.069 268.022 215.33C268.113 212.162 268.203 207.788 268.384 202.569C269.197 203.142 270.312 203.866 271.758 204.62C272.752 205.133 276.246 206.973 279.44 207.426C284.531 208.15 288.869 205.284 291.068 203.866C297.063 199.914 299.653 194.364 301.371 190.533C305.196 182.056 305.317 174.092 304.925 169.144C303.871 170.291 301.913 172.131 298.93 173.277C297.424 173.881 296.069 174.152 294.984 174.273Z" fill="#3D3D3D"/>
<path opacity="0.11" d="M303.78 175.389C303.088 175.148 301.009 179.22 300.768 179.703C298.81 183.594 298.87 186.098 298.147 188.511C296.731 193.338 292.152 198.195 287.483 199.402C279.62 201.423 273.023 192.705 269.498 195.45C267.841 196.747 267.932 199.703 268.564 201.453C270.372 206.491 278.566 206.853 279.62 206.883C286.76 207.124 292.002 202.69 293.658 201.242C304.262 192.071 305.046 175.841 303.78 175.389Z" fill="#3D3D3D"/>
<path opacity="0.11" d="M269.107 195.088C268.594 194.997 266.998 200.065 265.913 205.043C263.714 215.179 263.985 222.992 264.046 226.793C264.136 233.852 263.533 243.958 260.491 256.809C261.726 256.507 263.624 255.843 265.552 254.365C268.504 252.103 269.769 249.267 270.221 248C269.619 241.394 269.197 235.783 268.896 231.499C268.173 221.152 267.811 215.873 267.962 211.046C268.293 201.423 269.679 195.208 269.107 195.088Z" fill="#3D3D3D"/>
<path d="M255.55 145.735C255.821 144.951 257.629 144.951 258.111 144.951C260.22 144.951 261.907 146.338 262.449 147.515C262.6 147.847 262.63 148.118 262.63 148.269C262.69 149.084 262.208 149.898 261.786 150.17C260.22 151.165 255.008 147.274 255.55 145.735Z" fill="white" stroke="#161616" stroke-width="3" stroke-miterlimit="10"/>
<path d="M310.498 99.2785C315.288 102.235 314.716 110.591 313.993 121.059C313.179 132.613 310.408 140.727 309.354 143.684C307.486 148.782 305.407 152.915 303.69 155.871C297.484 158.526 287.603 161.663 275.373 161.12C270.944 160.909 266.998 160.275 263.594 159.461C259.527 162.266 256.243 162.236 254.827 162.085C252.628 161.874 249.736 160.879 249.766 159.913C249.766 159.25 251.182 158.707 251.815 158.465C253.351 157.862 254.707 157.922 254.707 157.862C254.707 157.802 253.592 157.862 252.417 157.741C251.634 157.651 250.098 157.53 248.772 156.836C248.29 156.595 245.91 155.419 245.458 153.126C245.037 151.044 246.302 148.691 248.622 147.304C250.76 146.731 254.526 146.037 259.075 146.851C262.449 147.455 265.04 148.661 266.757 149.596C274.86 147.605 282.964 145.584 291.038 143.593C291.188 141.904 291.459 139.43 291.791 136.383C292.845 126.76 293.357 121.934 294.171 117.861C296.159 107.846 297.454 101.3 302.515 99.007C304.775 98.0115 308.058 97.7701 310.498 99.2785Z" fill="white" stroke="#161616" stroke-width="3" stroke-miterlimit="10"/>
<path opacity="0.18" d="M305.769 98.5846C306.763 104.769 307.667 113.909 306.853 124.89C305.949 136.987 305.437 143.02 301.16 148.028C294.743 155.539 280.916 159.31 270.161 156.263C266.004 155.087 260.009 152.402 252.658 153.91C250.55 154.333 247.326 155.328 247.386 156.112C247.447 156.716 249.616 157.319 251.152 157.5C252.327 157.621 253.08 157.53 253.14 157.772C253.321 158.345 249.917 159.31 250.007 160.306C250.068 161.15 252.749 161.814 254.948 161.874C256.635 161.935 259.617 161.723 263.232 159.642C266.425 160.396 270.071 161.03 274.077 161.271C286.88 162.055 297.364 158.707 303.901 155.871C305.226 153.488 306.913 150.139 308.54 145.976C313.571 133.186 314.143 122.537 314.234 119.641C314.415 115.297 314.264 109.203 312.848 101.993C312.637 101.541 311.733 99.8214 309.655 98.9164C307.908 98.1623 306.311 98.4639 305.769 98.5846Z" fill="#3D3D3D"/>
<path opacity="0.21" d="M297.725 156.022C293.056 156.746 290.345 157.5 288.236 157.922C279.68 159.732 272.752 158.918 270.312 158.616C267.811 158.345 265.763 157.922 264.347 157.621C262.63 158.315 260.069 159.189 256.876 159.551C252.779 160.004 249.857 159.401 249.766 159.913C249.676 160.396 252.176 161.663 254.827 161.965C258.864 162.417 262.148 160.456 263.624 159.431C265.492 159.944 268.173 160.607 271.456 160.999C288.899 163.141 304.232 155.901 304.052 155.238C304.021 155.026 301.913 155.358 297.725 156.022Z" fill="#3D3D3D"/>
<path d="M247.266 156.082C250.098 154.876 253.17 154.634 256.153 155.328C256.725 155.449 256.966 154.574 256.394 154.453C253.14 153.699 249.887 153.971 246.814 155.298C246.272 155.539 246.754 156.324 247.266 156.082Z" fill="#161616"/>
<path d="M245.669 153.186C249.013 151.98 252.508 151.587 256.032 152.04C256.605 152.1 256.605 151.195 256.032 151.135C252.447 150.682 248.832 151.075 245.428 152.311C244.886 152.523 245.127 153.397 245.669 153.186Z" fill="#161616"/>
<path d="M246.513 150.109C249.827 149.144 253.201 148.782 256.635 149.023C257.207 149.053 257.207 148.148 256.635 148.118C253.14 147.877 249.646 148.269 246.272 149.234C245.699 149.385 245.94 150.26 246.513 150.109Z" fill="#161616"/>
<path d="M262.449 51.042C254.044 57.8596 254.375 71.7363 257.689 80.6958C259.768 86.3671 263.142 90.2586 265.311 92.4005C265.853 94.6931 266.365 97.016 266.907 99.3086C269.558 99.8818 273.053 100.334 277.12 99.9723C286.278 99.1276 292.725 94.663 295.586 92.3401C293.568 87.3325 291.55 82.3248 289.531 77.287C289.26 75.4468 288.869 72.6111 288.387 69.1721C287.151 60.1523 287.212 59.6696 286.669 58.2216C286.428 57.6183 283.024 48.9906 275.041 47.4521C268.564 46.2153 263.232 50.3783 262.449 51.042Z" fill="white" stroke="#161616" stroke-width="3" stroke-miterlimit="10"/>
<path d="M255.52 74.1195C255.038 76.02 254.526 78.9763 254.888 82.5662C255.129 84.9493 255.52 89.0821 258.503 93.0641C261.726 97.378 266.094 99.007 267.932 99.6103C267.781 99.1277 267.63 98.5243 267.54 97.8305C267.45 97.0763 267.48 96.4126 267.54 95.8998C269.528 96.9556 271.517 98.0416 273.475 99.0975C278.475 94.5121 280.132 90.3491 280.705 87.3023C281.157 84.9191 281.428 80.545 282.512 72.581C282.693 71.1631 283.085 68.599 284.711 67.9655C285.464 67.6638 286.489 67.7845 287.182 68.3576C289.17 70.0168 287.151 74.753 287.573 74.9038C287.995 75.0245 291.459 70.2581 290.284 64.7678C289.682 61.9321 288.025 59.9713 287.061 59.006C284.892 62.4148 282.482 65.9141 279.831 69.504C278.144 71.7966 276.457 73.9686 274.8 76.0501C274.168 76.382 273.234 76.7741 272.149 76.6836C271.306 76.6233 271.004 76.3216 270.372 76.1406C268.022 75.477 266.757 78.2221 264.467 77.8601C262.569 77.5585 262.389 75.5373 260.31 75.477C259.316 75.4468 258.894 75.8993 257.87 75.6881C256.785 75.4468 256.032 74.7228 255.52 74.1195Z" fill="#161616" stroke="#161616" stroke-width="3" stroke-miterlimit="10"/>
<path d="M265.22 66.065C264.497 69.3531 264.046 72.6715 263.865 76.02C263.835 76.382 264.256 76.563 264.558 76.4121C265.733 75.8088 266.907 75.2055 268.112 74.6021C268.625 74.3306 268.173 73.5463 267.661 73.8178C266.486 74.4211 265.311 75.0245 264.106 75.6278C264.347 75.7485 264.558 75.8993 264.799 76.02C265.01 72.7318 265.431 69.504 266.124 66.3063C266.215 65.7331 265.341 65.4918 265.22 66.065Z" fill="#161616"/>
<path d="M260.491 67.9051C260.822 68.418 260.882 69.2023 260.611 69.3531C260.28 69.5341 259.346 68.8403 259.226 68.056C259.195 67.8146 259.226 67.3923 259.436 67.2716C259.738 67.1208 260.25 67.513 260.491 67.9051Z" fill="#161616" stroke="#161616" stroke-width="3" stroke-miterlimit="10"/>
<path d="M258.924 64.798C259.979 64.255 261.244 64.3455 262.208 65.0997C262.66 65.4617 263.292 64.8282 262.841 64.4662C261.575 63.4405 259.918 63.2595 258.472 64.0137C257.96 64.2852 258.412 65.0695 258.924 64.798Z" fill="#161616"/>
<path d="M269.438 65.2505C270.944 64.255 272.993 64.5868 274.017 66.0952C274.348 66.5778 275.132 66.1253 274.8 65.6427C273.505 63.7723 270.914 63.1991 268.986 64.4661C268.504 64.798 268.956 65.5823 269.438 65.2505Z" fill="#161616"/>
<path d="M248.893 59.4886C260.913 60.1825 272.932 61.2081 284.892 62.5053C286.639 62.6863 286.609 59.9713 284.892 59.7903C272.932 58.4931 260.913 57.4675 248.893 56.7736C247.145 56.6831 247.145 59.3981 248.893 59.4886Z" fill="#161616"/>
<path d="M256.695 57.6485C256.876 55.8083 257.629 51.0721 261.304 47.241C266.094 42.2333 274.921 40.1216 281.789 44.3751C287.182 47.7236 290.043 54.1793 289.079 60.7556C278.265 59.73 267.48 58.6741 256.695 57.6485Z" fill="#5222D0"/>
<path opacity="0.69" d="M271.878 43.0478C270.462 44.2243 270.462 46.6678 270.974 49.2923C271.517 52.1582 272.902 55.6575 275.011 59.2172C279.68 59.7602 284.38 60.3032 289.049 60.8462C289.26 59.8507 289.441 58.3725 289.26 56.5927C289.26 56.5927 288.959 53.3648 287.242 50.4387C283.808 44.6467 274.83 40.5742 271.878 43.0478Z" fill="#3A1DA3"/>
<path opacity="0.24" d="M286.549 76.3217C285.495 76.8948 284.44 76.744 284.079 76.6837C284.531 77.5585 285.464 79.4288 286.127 82.0533C286.73 84.527 287.603 87.9057 286.459 91.7972C285.434 95.2663 283.265 97.559 281.789 98.826C283.597 98.4942 285.977 97.8607 288.597 96.5635C291.64 95.0552 293.809 93.2452 295.225 91.8575C292.996 85.5527 290.797 79.2478 288.567 72.943C288.567 73.0637 288.447 75.3262 286.549 76.3217Z" fill="#3D3D3D"/>
<path opacity="0.19" d="M276.005 61.4796C276.337 62.9276 276.638 65.0996 276.276 67.6638C275.674 71.9776 273.595 74.9641 272.481 76.3216C273.143 76.1104 273.806 75.8993 274.469 75.6881C275.794 74.0893 277.12 72.3999 278.445 70.6503C280.614 67.7844 282.633 64.9789 284.44 62.2338C281.639 62.0226 278.807 61.7511 276.005 61.4796Z" fill="#3D3D3D"/>
<path d="M271.908 68.1766C272.24 68.6895 272.3 69.4738 272.029 69.6246C271.697 69.8056 270.763 69.1118 270.643 68.3275C270.613 68.0861 270.643 67.6638 270.854 67.5431C271.155 67.3923 271.637 67.7845 271.908 68.1766Z" fill="#161616" stroke="#161616" stroke-width="3" stroke-miterlimit="10"/>
<path d="M258.713 75.7183C261.725 75.7183 264.166 73.2737 264.166 70.2581C264.166 67.2426 261.725 64.798 258.713 64.798C255.702 64.798 253.261 67.2426 253.261 70.2581C253.261 73.2737 255.702 75.7183 258.713 75.7183Z" stroke="#161616" stroke-width="2" stroke-miterlimit="10"/>
<path d="M271.396 75.7183C274.408 75.7183 276.849 73.2737 276.849 70.2581C276.849 67.2426 274.408 64.798 271.396 64.798C268.385 64.798 265.943 67.2426 265.943 70.2581C265.943 73.2737 268.385 75.7183 271.396 75.7183Z" stroke="#161616" stroke-width="2" stroke-miterlimit="10"/>
<path d="M264.799 70.4391C264.919 70.2883 265.16 70.228 265.311 70.3486C265.492 70.4995 265.763 70.5296 265.944 70.3486C266.094 70.1978 266.124 69.866 265.944 69.7151C265.431 69.2626 264.618 69.2626 264.166 69.8056C264.016 69.9866 263.985 70.2581 264.166 70.4391C264.317 70.6201 264.648 70.6201 264.799 70.4391Z" fill="#161616"/>
<path d="M253.713 70.6201C254.285 70.3185 254.857 69.9866 255.4 69.6246C255.882 69.323 255.43 68.5386 254.948 68.8403C254.406 69.2023 253.833 69.5341 253.261 69.8358C252.719 70.1073 253.201 70.8916 253.713 70.6201Z" fill="#161616"/>
<path d="M277.18 70.5297C279.68 69.8962 282.211 69.2928 284.711 68.6593C285.284 68.5085 285.043 67.6337 284.47 67.7845C281.97 68.418 279.439 69.0213 276.939 69.6548C276.367 69.8057 276.608 70.6805 277.18 70.5297Z" fill="#161616"/>
</svg>
